0
SECTION
2
HEADER
9
$ACADVER
1
AC1009
9
$INSUNITS
70
4
0
ENDSEC
0
SECTION
2
TABLES
0
ENDSEC
0
SECTION
2
ENTITIES
0
LWPOLYLINE
8
0
90
4
70
1
10
-1210.000000
20
-100.000000
10
730.000000
20
-100.000000
10
730.000000
20
100.000000
10
-1210.000000
20
100.000000
0
LINE
8
BEND
10
-750.000000
20
-100.000000
11
-750.000000
21
100.000000
0
LINE
8
BEND
10
-210.000000
20
-100.000000
11
-210.000000
21
100.000000
0
LINE
8
BEND
10
210.000000
20
-100.000000
11
210.000000
21
100.000000
0
LWPOLYLINE
8
0
90
8
70
1
10
-1195.000000
20
-40.000000
10
-725.000000
20
-40.000000
42
0.414214
10
-710.000000
20
-25.000000
10
-710.000000
20
-5.000000
42
0.414214
10
-725.000000
20
10.000000
10
-1195.000000
20
10.000000
42
0.414214
10
-1210.000000
20
-5.000000
10
-1210.000000
20
-25.000000
42
0.414214
0
LWPOLYLINE
8
0
90
8
70
1
10
-1205.000000
20
20.000000
10
-715.000000
20
20.000000
42
0.414214
10
-710.000000
20
25.000000
10
-710.000000
20
35.000000
42
0.414214
10
-715.000000
20
40.000000
10
-1205.000000
20
40.000000
42
0.414214
10
-1210.000000
20
35.000000
10
-1210.000000
20
25.000000
42
0.414214
0
CIRCLE
8
0
10
-1160.000000
20
90.000000
40
2.650000
0
CIRCLE
8
0
10
-760.000000
20
90.000000
40
2.650000
0
CIRCLE
8
0
10
-1160.000000
20
-90.000000
40
2.650000
0
CIRCLE
8
0
10
-760.000000
20
-90.000000
40
2.650000
0
CIRCLE
8
0
10
-740.000000
20
90.000000
40
2.650000
0
CIRCLE
8
0
10
-220.000000
20
90.000000
40
2.650000
0
CIRCLE
8
0
10
-740.000000
20
0.000000
40
2.650000
0
CIRCLE
8
0
10
-220.000000
20
0.000000
40
2.650000
0
CIRCLE
8
0
10
-740.000000
20
-90.000000
40
2.650000
0
CIRCLE
8
0
10
-220.000000
20
-90.000000
40
2.650000
0
LWPOLYLINE
8
0
90
4
70
1
10
-148.500000
20
46.000000
42
1.0
10
-148.500000
20
54.000000
10
-96.500000
20
54.000000
42
1.0
10
-96.500000
20
46.000000
0
LWPOLYLINE
8
0
90
4
70
1
10
-113.500000
20
46.000000
42
1.0
10
-113.500000
20
54.000000
10
-61.500000
20
54.000000
42
1.0
10
-61.500000
20
46.000000
0
LWPOLYLINE
8
0
90
4
70
1
10
-78.500000
20
46.000000
42
1.0
10
-78.500000
20
54.000000
10
-26.500000
20
54.000000
42
1.0
10
-26.500000
20
46.000000
0
LWPOLYLINE
8
0
90
4
70
1
10
-43.500000
20
46.000000
42
1.0
10
-43.500000
20
54.000000
10
8.500000
20
54.000000
42
1.0
10
8.500000
20
46.000000
0
LWPOLYLINE
8
0
90
4
70
1
10
-8.500000
20
46.000000
42
1.0
10
-8.500000
20
54.000000
10
43.500000
20
54.000000
42
1.0
10
43.500000
20
46.000000
0
LWPOLYLINE
8
0
90
4
70
1
10
26.500000
20
46.000000
42
1.0
10
26.500000
20
54.000000
10
78.500000
20
54.000000
42
1.0
10
78.500000
20
46.000000
0
LWPOLYLINE
8
0
90
4
70
1
10
61.500000
20
46.000000
42
1.0
10
61.500000
20
54.000000
10
113.500000
20
54.000000
42
1.0
10
113.500000
20
46.000000
0
LWPOLYLINE
8
0
90
4
70
1
10
96.500000
20
46.000000
42
1.0
10
96.500000
20
54.000000
10
148.500000
20
54.000000
42
1.0
10
148.500000
20
46.000000
0
CIRCLE
8
0
10
-190.000000
20
-80.000000
40
3.000000
0
CIRCLE
8
0
10
190.000000
20
-80.000000
40
3.000000
0
CIRCLE
8
0
10
-200.000000
20
90.000000
40
2.650000
0
CIRCLE
8
0
10
200.000000
20
90.000000
40
2.650000
0
CIRCLE
8
0
10
-200.000000
20
-90.000000
40
2.650000
0
CIRCLE
8
0
10
200.000000
20
-90.000000
40
2.650000
0
CIRCLE
8
0
10
220.000000
20
90.000000
40
2.650000
0
CIRCLE
8
0
10
740.000000
20
90.000000
40
2.650000
0
CIRCLE
8
0
10
220.000000
20
0.000000
40
2.650000
0
CIRCLE
8
0
10
740.000000
20
0.000000
40
2.650000
0
CIRCLE
8
0
10
220.000000
20
-90.000000
40
2.650000
0
CIRCLE
8
0
10
740.000000
20
-90.000000
40
2.650000
0
ENDSEC
0
EOF
