0
SECTION
2
HEADER
9
$ACADVER
1
AC1009
9
$INSUNITS
70
4
0
ENDSEC
0
SECTION
2
TABLES
0
ENDSEC
0
SECTION
2
ENTITIES
0
CIRCLE
8
0
10
116.000000
20
-300.000000
40
3.250000
0
CIRCLE
8
0
10
-116.000000
20
-300.000000
40
3.250000
0
LWPOLYLINE
8
0
90
21
70
1
10
-290.000000
20
290.000000
10
290.000000
20
290.000000
10
290.000000
20
-290.000000
10
290.000000
20
-290.000000
10
174.000000
20
-290.000000
10
116.000000
20
-290.000000
10
78.000000
20
-290.000000
10
78.000000
20
-310.000000
10
154.000000
20
-310.000000
10
154.000000
20
-290.000000
10
116.000000
20
-290.000000
10
58.000000
20
-290.000000
10
-58.000000
20
-290.000000
10
-116.000000
20
-290.000000
10
-154.000000
20
-290.000000
10
-154.000000
20
-310.000000
10
-78.000000
20
-310.000000
10
-78.000000
20
-290.000000
10
-116.000000
20
-290.000000
10
-290.000000
20
-290.000000
10
-290.000000
20
290.000000
0
CIRCLE
8
0
10
0.000000
20
-145.000000
40
75.000000
0
CIRCLE
8
0
10
145.000000
20
145.000000
40
15.000000
0
CIRCLE
8
0
10
80.000000
20
-125.000000
40
6.000000
0
CIRCLE
8
0
10
-260.000000
20
-210.000000
40
4.250000
0
CIRCLE
8
0
10
260.000000
20
-210.000000
40
4.250000
0
CIRCLE
8
0
10
-230.000000
20
230.000000
40
9.500000
0
CIRCLE
8
0
10
230.000000
20
230.000000
40
9.500000
0
CIRCLE
8
0
10
-275.000000
20
275.000000
40
2.650000
0
CIRCLE
8
0
10
0.000000
20
275.000000
40
2.650000
0
CIRCLE
8
0
10
275.000000
20
275.000000
40
2.650000
0
CIRCLE
8
0
10
-275.000000
20
91.666667
40
2.650000
0
CIRCLE
8
0
10
-275.000000
20
0.000000
40
2.650000
0
CIRCLE
8
0
10
-275.000000
20
-91.666667
40
2.650000
0
CIRCLE
8
0
10
275.000000
20
91.666667
40
2.650000
0
CIRCLE
8
0
10
275.000000
20
0.000000
40
2.650000
0
CIRCLE
8
0
10
275.000000
20
-91.666667
40
2.650000
0
ENDSEC
0
EOF
