0
SECTION
2
HEADER
9
$ACADVER
1
AC1009
9
$INSUNITS
70
4
0
ENDSEC
0
SECTION
2
TABLES
0
ENDSEC
0
SECTION
2
ENTITIES
0
LWPOLYLINE
8
0
90
8
70
1
10
-1450.000000
20
-100.000000
10
890.000000
20
-100.000000
10
890.000000
20
100.000000
10
290.000000
20
100.000000
10
290.000000
20
680.000000
10
-290.000000
20
680.000000
10
-290.000000
20
100.000000
10
-1450.000000
20
100.000000
0
LWPOLYLINE
8
0
90
4
70
0
10
-252.000000
20
100.000000
10
-252.000000
20
120.000000
10
-212.000000
20
120.000000
10
-212.000000
20
100.000000
0
CIRCLE
8
0
10
-232.000000
20
110.000000
40
3.250000
0
LWPOLYLINE
8
0
90
4
70
0
10
-20.000000
20
100.000000
10
-20.000000
20
120.000000
10
20.000000
20
120.000000
10
20.000000
20
100.000000
0
CIRCLE
8
0
10
0.000000
20
110.000000
40
3.250000
0
LWPOLYLINE
8
0
90
4
70
0
10
212.000000
20
100.000000
10
212.000000
20
120.000000
10
252.000000
20
120.000000
10
252.000000
20
100.000000
0
CIRCLE
8
0
10
232.000000
20
110.000000
40
3.250000
0
LINE
8
BEND
10
-870.000000
20
-100.000000
11
-870.000000
21
100.000000
0
LINE
8
BEND
10
-290.000000
20
-100.000000
11
-290.000000
21
100.000000
0
LINE
8
BEND
10
290.000000
20
-100.000000
11
290.000000
21
100.000000
0
LINE
8
BEND
10
-290.000000
20
100.000000
11
290.000000
21
100.000000
0
LWPOLYLINE
8
0
90
8
70
1
10
-1396.000000
20
-40.000000
10
-924.000000
20
-40.000000
42
0.414214
10
-909.000000
20
-25.000000
10
-909.000000
20
-3.000000
42
0.414214
10
-924.000000
20
12.000000
10
-1396.000000
20
12.000000
42
0.414214
10
-1411.000000
20
-3.000000
10
-1411.000000
20
-25.000000
42
0.414214
0
LWPOLYLINE
8
0
90
8
70
1
10
-1405.500000
20
22.000000
10
-914.500000
20
22.000000
42
0.414214
10
-909.000000
20
27.500000
10
-909.000000
20
38.500000
42
0.414214
10
-914.500000
20
44.000000
10
-1405.500000
20
44.000000
42
0.414214
10
-1411.000000
20
38.500000
10
-1411.000000
20
27.500000
42
0.414214
0
CIRCLE
8
0
10
-1435.000000
20
85.000000
40
2.650000
0
CIRCLE
8
0
10
-885.000000
20
85.000000
40
2.650000
0
CIRCLE
8
0
10
-1435.000000
20
-85.000000
40
2.650000
0
CIRCLE
8
0
10
-885.000000
20
-85.000000
40
2.650000
0
CIRCLE
8
0
10
-1390.000000
20
40.000000
40
9.500000
0
CIRCLE
8
0
10
-930.000000
20
40.000000
40
9.500000
0
CIRCLE
8
0
10
-855.000000
20
85.000000
40
2.650000
0
CIRCLE
8
0
10
-305.000000
20
85.000000
40
2.650000
0
CIRCLE
8
0
10
-855.000000
20
0.000000
40
2.650000
0
CIRCLE
8
0
10
-305.000000
20
0.000000
40
2.650000
0
CIRCLE
8
0
10
-855.000000
20
-85.000000
40
2.650000
0
CIRCLE
8
0
10
-305.000000
20
-85.000000
40
2.650000
0
CIRCLE
8
0
10
-390.000000
20
50.000000
40
4.250000
0
LWPOLYLINE
8
0
90
4
70
1
10
-166.000000
20
46.000000
42
1.0
10
-166.000000
20
54.000000
10
-114.000000
20
54.000000
42
1.0
10
-114.000000
20
46.000000
0
LWPOLYLINE
8
0
90
4
70
1
10
-126.000000
20
46.000000
42
1.0
10
-126.000000
20
54.000000
10
-74.000000
20
54.000000
42
1.0
10
-74.000000
20
46.000000
0
LWPOLYLINE
8
0
90
4
70
1
10
-86.000000
20
46.000000
42
1.0
10
-86.000000
20
54.000000
10
-34.000000
20
54.000000
42
1.0
10
-34.000000
20
46.000000
0
LWPOLYLINE
8
0
90
4
70
1
10
-46.000000
20
46.000000
42
1.0
10
-46.000000
20
54.000000
10
6.000000
20
54.000000
42
1.0
10
6.000000
20
46.000000
0
LWPOLYLINE
8
0
90
4
70
1
10
-6.000000
20
46.000000
42
1.0
10
-6.000000
20
54.000000
10
46.000000
20
54.000000
42
1.0
10
46.000000
20
46.000000
0
LWPOLYLINE
8
0
90
4
70
1
10
34.000000
20
46.000000
42
1.0
10
34.000000
20
54.000000
10
86.000000
20
54.000000
42
1.0
10
86.000000
20
46.000000
0
LWPOLYLINE
8
0
90
4
70
1
10
74.000000
20
46.000000
42
1.0
10
74.000000
20
54.000000
10
126.000000
20
54.000000
42
1.0
10
126.000000
20
46.000000
0
LWPOLYLINE
8
0
90
4
70
1
10
114.000000
20
46.000000
42
1.0
10
114.000000
20
54.000000
10
166.000000
20
54.000000
42
1.0
10
166.000000
20
46.000000
0
CIRCLE
8
0
10
-270.000000
20
-80.000000
40
3.000000
0
CIRCLE
8
0
10
270.000000
20
-80.000000
40
3.000000
0
CIRCLE
8
0
10
-275.000000
20
85.000000
40
2.650000
0
CIRCLE
8
0
10
275.000000
20
85.000000
40
2.650000
0
CIRCLE
8
0
10
-275.000000
20
-85.000000
40
2.650000
0
CIRCLE
8
0
10
275.000000
20
-85.000000
40
2.650000
0
CIRCLE
8
0
10
305.000000
20
85.000000
40
2.650000
0
CIRCLE
8
0
10
855.000000
20
85.000000
40
2.650000
0
CIRCLE
8
0
10
305.000000
20
0.000000
40
2.650000
0
CIRCLE
8
0
10
855.000000
20
0.000000
40
2.650000
0
CIRCLE
8
0
10
305.000000
20
-85.000000
40
2.650000
0
CIRCLE
8
0
10
855.000000
20
-85.000000
40
2.650000
0
CIRCLE
8
0
10
390.000000
20
50.000000
40
4.250000
0
CIRCLE
8
0
10
-275.000000
20
665.000000
40
2.650000
0
CIRCLE
8
0
10
0.000000
20
665.000000
40
2.650000
0
CIRCLE
8
0
10
275.000000
20
665.000000
40
2.650000
0
CIRCLE
8
0
10
-275.000000
20
390.000000
40
2.650000
0
CIRCLE
8
0
10
275.000000
20
390.000000
40
2.650000
0
CIRCLE
8
0
10
-275.000000
20
115.000000
40
2.650000
0
CIRCLE
8
0
10
0.000000
20
115.000000
40
2.650000
0
CIRCLE
8
0
10
275.000000
20
115.000000
40
2.650000
0
CIRCLE
8
0
10
-245.000000
20
145.000000
40
3.000000
0
CIRCLE
8
0
10
245.000000
20
145.000000
40
3.000000
0
CIRCLE
8
0
10
-245.000000
20
635.000000
40
3.000000
0
CIRCLE
8
0
10
245.000000
20
635.000000
40
3.000000
0
ENDSEC
0
EOF
