0
SECTION
2
HEADER
9
$ACADVER
1
AC1009
9
$INSUNITS
70
4
0
ENDSEC
0
SECTION
2
TABLES
0
ENDSEC
0
SECTION
2
ENTITIES
0
LWPOLYLINE
8
0
90
8
70
1
10
-1170.000000
20
-100.000000
10
1170.000000
20
-100.000000
10
1170.000000
20
100.000000
10
570.000000
20
100.000000
10
570.000000
20
680.000000
10
-10.000000
20
680.000000
10
-10.000000
20
100.000000
10
-1170.000000
20
100.000000
0
LWPOLYLINE
8
0
90
4
70
0
10
28.000000
20
100.000000
10
28.000000
20
120.000000
10
68.000000
20
120.000000
10
68.000000
20
100.000000
0
CIRCLE
8
0
10
48.000000
20
110.000000
40
3.250000
0
LWPOLYLINE
8
0
90
4
70
0
10
260.000000
20
100.000000
10
260.000000
20
120.000000
10
300.000000
20
120.000000
10
300.000000
20
100.000000
0
CIRCLE
8
0
10
280.000000
20
110.000000
40
3.250000
0
LWPOLYLINE
8
0
90
4
70
0
10
492.000000
20
100.000000
10
492.000000
20
120.000000
10
532.000000
20
120.000000
10
532.000000
20
100.000000
0
CIRCLE
8
0
10
512.000000
20
110.000000
40
3.250000
0
LINE
8
BEND
10
-590.000000
20
-100.000000
11
-590.000000
21
100.000000
0
LINE
8
BEND
10
-10.000000
20
-100.000000
11
-10.000000
21
100.000000
0
LINE
8
BEND
10
570.000000
20
-100.000000
11
570.000000
21
100.000000
0
LINE
8
BEND
10
-10.000000
20
100.000000
11
570.000000
21
100.000000
0
LWPOLYLINE
8
0
90
8
70
1
10
-1116.000000
20
-60.000000
10
-644.000000
20
-60.000000
42
0.414214
10
-629.000000
20
-45.000000
10
-629.000000
20
-23.000000
42
0.414214
10
-644.000000
20
-8.000000
10
-1116.000000
20
-8.000000
42
0.414214
10
-1131.000000
20
-23.000000
10
-1131.000000
20
-45.000000
42
0.414214
0
LWPOLYLINE
8
0
90
8
70
1
10
-1113.750000
20
7.000000
10
-646.250000
20
7.000000
42
0.414214
10
-640.000000
20
13.250000
10
-640.000000
20
25.750000
42
0.414214
10
-646.250000
20
32.000000
10
-1113.750000
20
32.000000
42
0.414214
10
-1120.000000
20
25.750000
10
-1120.000000
20
13.250000
42
0.414214
0
CIRCLE
8
0
10
-1100.000000
20
-5.500000
40
1.750000
0
CIRCLE
8
0
10
-660.000000
20
-5.500000
40
1.750000
0
CIRCLE
8
0
10
-1100.000000
20
44.500000
40
1.750000
0
CIRCLE
8
0
10
-660.000000
20
44.500000
40
1.750000
0
CIRCLE
8
0
10
-1155.000000
20
-85.000000
40
2.650000
0
CIRCLE
8
0
10
-605.000000
20
-85.000000
40
2.650000
0
CIRCLE
8
0
10
-1155.000000
20
85.000000
40
2.650000
0
CIRCLE
8
0
10
-605.000000
20
85.000000
40
2.650000
0
CIRCLE
8
0
10
-1110.000000
20
40.000000
40
9.500000
0
CIRCLE
8
0
10
-650.000000
20
40.000000
40
9.500000
0
CIRCLE
8
0
10
-575.000000
20
85.000000
40
2.650000
0
CIRCLE
8
0
10
-25.000000
20
85.000000
40
2.650000
0
CIRCLE
8
0
10
-575.000000
20
0.000000
40
2.650000
0
CIRCLE
8
0
10
-25.000000
20
0.000000
40
2.650000
0
CIRCLE
8
0
10
-575.000000
20
-85.000000
40
2.650000
0
CIRCLE
8
0
10
-25.000000
20
-85.000000
40
2.650000
0
CIRCLE
8
0
10
585.000000
20
85.000000
40
2.650000
0
CIRCLE
8
0
10
1135.000000
20
85.000000
40
2.650000
0
CIRCLE
8
0
10
585.000000
20
0.000000
40
2.650000
0
CIRCLE
8
0
10
1135.000000
20
0.000000
40
2.650000
0
CIRCLE
8
0
10
585.000000
20
-85.000000
40
2.650000
0
CIRCLE
8
0
10
1135.000000
20
-85.000000
40
2.650000
0
CIRCLE
8
0
10
-110.000000
20
50.000000
40
4.250000
0
CIRCLE
8
0
10
670.000000
20
50.000000
40
4.250000
0
LWPOLYLINE
8
0
90
4
70
1
10
114.000000
20
46.000000
42
1.0
10
114.000000
20
54.000000
10
166.000000
20
54.000000
42
1.0
10
166.000000
20
46.000000
0
LWPOLYLINE
8
0
90
4
70
1
10
154.000000
20
46.000000
42
1.0
10
154.000000
20
54.000000
10
206.000000
20
54.000000
42
1.0
10
206.000000
20
46.000000
0
LWPOLYLINE
8
0
90
4
70
1
10
194.000000
20
46.000000
42
1.0
10
194.000000
20
54.000000
10
246.000000
20
54.000000
42
1.0
10
246.000000
20
46.000000
0
LWPOLYLINE
8
0
90
4
70
1
10
234.000000
20
46.000000
42
1.0
10
234.000000
20
54.000000
10
286.000000
20
54.000000
42
1.0
10
286.000000
20
46.000000
0
LWPOLYLINE
8
0
90
4
70
1
10
274.000000
20
46.000000
42
1.0
10
274.000000
20
54.000000
10
326.000000
20
54.000000
42
1.0
10
326.000000
20
46.000000
0
LWPOLYLINE
8
0
90
4
70
1
10
314.000000
20
46.000000
42
1.0
10
314.000000
20
54.000000
10
366.000000
20
54.000000
42
1.0
10
366.000000
20
46.000000
0
LWPOLYLINE
8
0
90
4
70
1
10
354.000000
20
46.000000
42
1.0
10
354.000000
20
54.000000
10
406.000000
20
54.000000
42
1.0
10
406.000000
20
46.000000
0
LWPOLYLINE
8
0
90
4
70
1
10
394.000000
20
46.000000
42
1.0
10
394.000000
20
54.000000
10
446.000000
20
54.000000
42
1.0
10
446.000000
20
46.000000
0
CIRCLE
8
0
10
10.000000
20
-80.000000
40
3.000000
0
CIRCLE
8
0
10
550.000000
20
-80.000000
40
3.000000
0
CIRCLE
8
0
10
5.000000
20
85.000000
40
2.650000
0
CIRCLE
8
0
10
555.000000
20
85.000000
40
2.650000
0
CIRCLE
8
0
10
5.000000
20
-85.000000
40
2.650000
0
CIRCLE
8
0
10
555.000000
20
-85.000000
40
2.650000
0
CIRCLE
8
0
10
5.000000
20
665.000000
40
2.650000
0
CIRCLE
8
0
10
280.000000
20
665.000000
40
2.650000
0
CIRCLE
8
0
10
555.000000
20
665.000000
40
2.650000
0
CIRCLE
8
0
10
5.000000
20
390.000000
40
2.650000
0
CIRCLE
8
0
10
555.000000
20
390.000000
40
2.650000
0
CIRCLE
8
0
10
5.000000
20
115.000000
40
2.650000
0
CIRCLE
8
0
10
280.000000
20
115.000000
40
2.650000
0
CIRCLE
8
0
10
555.000000
20
115.000000
40
2.650000
0
CIRCLE
8
0
10
35.000000
20
145.000000
40
3.000000
0
CIRCLE
8
0
10
525.000000
20
145.000000
40
3.000000
0
CIRCLE
8
0
10
35.000000
20
635.000000
40
3.000000
0
CIRCLE
8
0
10
525.000000
20
635.000000
40
3.000000
0
ENDSEC
0
EOF
