#usda 1.0
(
    defaultPrim = "arm_union_diff"
    upAxis = "Y"
    metersPerUnit = 0.001
)

def Xform "arm_union_diff" (
    prepend apiSchemas = ["PhysicsRigidBodyAPI", "PhysicsMassAPI"]
)
{
    float physics:mass = 3.359232

    def Mesh "arm_union_diff_mesh"
    {
        float3[] extent = [(-90, -45, -144), (6, 45, 0)]
        int[] faceVertexCounts = [3, 3, 3, 3, 3, 3, 3, 3, 3, 3, 3, 3, 3, 3, 3, 3, 3, 3, 3, 3, 3, 3, 3, 3, 3, 3, 3, 3, 3, 3, 3, 3, 3, 3, 3, 3, 3, 3, 3, 3, 3, 3, 3, 3, 3, 3, 3, 3, 3, 3, 3, 3, 3, 3, 3, 3, 3, 3, 3, 3, 3, 3, 3, 3, 3, 3, 3, 3, 3, 3, 3, 3, 3, 3, 3, 3, 3, 3, 3, 3, 3, 3, 3, 3, 3, 3, 3, 3, 3, 3, 3, 3, 3, 3, 3, 3, 3, 3, 3, 3, 3, 3, 3, 3, 3, 3, 3, 3, 3, 3, 3, 3, 3, 3, 3, 3, 3, 3, 3, 3, 3, 3, 3, 3, 3, 3, 3, 3, 3, 3, 3, 3, 3, 3, 3, 3, 3, 3, 3, 3, 3, 3, 3, 3, 3, 3, 3, 3, 3, 3, 3, 3, 3, 3, 3, 3, 3, 3, 3, 3, 3, 3, 3, 3, 3, 3, 3, 3, 3, 3, 3, 3, 3, 3, 3, 3, 3, 3, 3, 3, 3, 3, 3, 3, 3, 3, 3, 3, 3, 3, 3, 3, 3, 3, 3, 3, 3, 3, 3, 3, 3, 3, 3, 3, 3, 3, 3, 3, 3, 3, 3, 3, 3, 3, 3, 3, 3, 3, 3, 3, 3, 3, 3, 3, 3, 3, 3, 3, 3, 3, 3, 3, 3, 3, 3, 3, 3, 3, 3, 3, 3, 3, 3, 3, 3, 3, 3, 3, 3, 3, 3, 3, 3, 3, 3, 3, 3, 3, 3, 3, 3, 3, 3, 3, 3, 3, 3, 3, 3, 3, 3, 3, 3, 3]
        int[] faceVertexIndices = [8, 9, 141, 142, 74, 140, 141, 9, 142, 9, 75, 142, 74, 142, 75, 140, 74, 4, 6, 4, 5, 9, 5, 75, 142, 140, 141, 5, 7, 6, 5, 9, 7, 8, 7, 9, 4, 6, 140, 4, 75, 5, 74, 75, 4, 71, 70, 136, 136, 125, 137, 72, 71, 137, 129, 130, 133, 126, 127, 138, 134, 123, 135, 125, 126, 137, 124, 125, 136, 123, 124, 135, 73, 138, 139, 72, 137, 138, 71, 136, 137, 70, 135, 136, 69, 134, 135, 67, 132, 133, 66, 139, 132, 65, 133, 131, 64, 131, 130, 63, 130, 129, 62, 129, 128, 61, 128, 127, 60, 127, 126, 59, 126, 125, 58, 125, 124, 57, 124, 123, 122, 117, 134, 121, 116, 122, 120, 111, 121, 117, 123, 134, 116, 117, 122, 111, 116, 121, 119, 110, 120, 118, 108, 119, 110, 111, 120, 108, 110, 119, 115, 109, 118, 112, 109, 115, 109, 108, 118, 112, 115, 114, 113, 112, 114, 122, 134, 68, 56, 121, 122, 55, 120, 121, 54, 119, 120, 53, 118, 119, 51, 123, 117, 50, 117, 116, 45, 116, 111, 52, 115, 118, 49, 114, 115, 48, 113, 114, 47, 112, 113, 46, 109, 112, 42, 110, 108, 44, 111, 110, 43, 108, 109, 137, 126, 138, 139, 138, 127, 128, 129, 132, 132, 139, 128, 129, 133, 132, 135, 124, 136, 127, 128, 139, 48, 46, 47, 46, 48, 49, 43, 52, 42, 43, 46, 49, 43, 49, 52, 42, 53, 44, 44, 54, 45, 42, 52, 53, 44, 53, 54, 45, 55, 50, 50, 56, 51, 51, 68, 57, 45, 54, 55, 50, 55, 56, 51, 56, 68, 43, 42, 108, 46, 43, 109, 44, 45, 111, 42, 44, 110, 47, 46, 112, 48, 47, 113, 49, 48, 114, 52, 49, 115, 45, 50, 116, 50, 51, 117, 51, 57, 123, 53, 52, 118, 54, 53, 119, 55, 54, 120, 56, 55, 121, 68, 56, 122, 57, 69, 58, 58, 70, 59, 59, 71, 60, 57, 68, 69, 58, 69, 70, 59, 70, 71, 60, 72, 61, 61, 73, 62, 60, 71, 72, 61, 72, 73, 62, 66, 63, 62, 73, 66, 63, 66, 67, 64, 63, 67, 64, 67, 65, 57, 58, 124, 58, 59, 125, 59, 60, 126, 60, 61, 127, 61, 62, 128, 62, 63, 129, 63, 64, 130, 64, 65, 131, 65, 67, 133, 67, 66, 132, 66, 73, 139, 68, 134, 69, 70, 69, 135, 130, 131, 133, 73, 72, 138, 12, 19, 13, 37, 40, 106, 38, 39, 105, 39, 37, 103, 40, 36, 102, 13, 77, 79, 13, 20, 11, 36, 41, 107, 12, 79, 78, 17, 78, 83, 11, 80, 77, 14, 76, 80, 10, 81, 76, 15, 82, 81, 16, 91, 82, 18, 83, 84, 19, 84, 85, 20, 85, 86, 21, 86, 87, 22, 87, 88, 23, 88, 89, 24, 89, 90, 90, 99, 33, 78, 79, 85, 79, 77, 86, 77, 80, 87, 80, 76, 88, 76, 81, 89, 81, 82, 90, 82, 91, 99, 83, 78, 84, 84, 78, 85, 85, 79, 86, 86, 77, 87, 87, 80, 88, 88, 76, 89, 89, 81, 90, 90, 82, 99, 25, 92, 91, 26, 93, 92, 27, 94, 93, 28, 95, 94, 29, 96, 95, 30, 97, 96, 31, 98, 97, 32, 104, 98, 34, 99, 100, 35, 100, 101, 41, 101, 107, 36, 107, 102, 40, 102, 106, 38, 105, 104, 39, 103, 105, 37, 106, 103, 91, 92, 100, 92, 93, 101, 93, 94, 107, 94, 95, 102, 95, 96, 106, 96, 97, 103, 97, 98, 105, 99, 91, 100, 100, 92, 101, 101, 93, 107, 107, 94, 102, 102, 95, 106, 103, 106, 96, 105, 103, 97, 98, 104, 105, 41, 35, 101, 35, 34, 100, 33, 99, 34, 32, 38, 104, 31, 32, 98, 30, 31, 97, 29, 30, 96, 28, 29, 95, 27, 28, 94, 26, 27, 93, 25, 26, 92, 32, 39, 38, 31, 37, 39, 30, 40, 37, 29, 36, 40, 28, 41, 36, 27, 35, 41, 26, 34, 35, 25, 33, 34, 31, 39, 32, 30, 37, 31, 29, 40, 30, 28, 36, 29, 27, 41, 28, 26, 35, 27, 25, 34, 26, 33, 24, 90, 24, 23, 89, 23, 22, 88, 22, 21, 87, 21, 20, 86, 20, 19, 85, 19, 18, 84, 18, 17, 83, 16, 25, 91, 15, 16, 82, 10, 15, 81, 14, 10, 76, 11, 14, 80, 12, 13, 79, 17, 12, 78, 13, 11, 77, 16, 24, 33, 15, 23, 24, 10, 22, 23, 14, 21, 22, 11, 20, 21, 13, 19, 20, 12, 18, 19, 12, 17, 18, 16, 33, 25, 15, 24, 16, 14, 22, 10, 11, 21, 14, 10, 23, 15, 141, 3, 8, 3, 1, 8, 140, 2, 141, 6, 2, 140, 2, 0, 3, 3, 141, 2, 6, 7, 1, 8, 1, 7, 6, 0, 2, 1, 0, 6, 1, 3, 0]
        point3f[] points = [(-90, -45, -12), (-90, -45, 0), (-90, 45, -12), (-90, 45, 0), (-6, -45, -144), (6, -45, -144), (-6, -45, -12), (0, -45, -12), (0, -45, 0), (6, -45, 0), (-1.5278181, -7, -47.28654), (-2.2865415, -7, -46.527817), (-2.6971595, -7, -45.5365), (-2.5406687, -7, -46.05238), (-1.9445436, -7, -46.944542), (-1.0523795, -7, -47.54067), (-0.53649837, -7, -47.69716), (-2.75, -7, -45), (-2.6971595, -7, -44.4635), (-2.5406687, -7, -43.94762), (-2.2865415, -7, -43.472183), (-1.9445436, -7, -43.055458), (-1.5278181, -7, -42.71346), (-1.0523795, -7, -42.45933), (-0.53649837, -7, -42.30284), (0, -7, -47.75), (0.53649837, -7, -47.69716), (1.0523795, -7, -47.54067), (1.5278181, -7, -47.28654), (1.9445436, -7, -46.944542), (2.2865415, -7, -46.527817), (2.5406687, -7, -46.05238), (2.6971595, -7, -45.5365), (0, -7, -42.25), (0.53649837, -7, -42.30284), (1.0523795, -7, -42.45933), (1.9445436, -7, -43.055458), (2.5406687, -7, -43.94762), (2.75, -7, -45), (2.6971595, -7, -44.4635), (2.2865415, -7, -43.472183), (1.5278181, -7, -42.71346), (-2.2865415, -7, -16.527819), (-2.5406687, -7, -16.05238), (-1.9445436, -7, -16.944544), (-1.5278181, -7, -17.286541), (-2.6971595, -7, -15.536498), (-2.75, -7, -15), (-2.6971595, -7, -14.463502), (-2.5406687, -7, -13.94762), (-1.0523795, -7, -17.540668), (-0.53649837, -7, -17.697159), (-2.2865415, -7, -13.472182), (-1.9445436, -7, -13.055456), (-1.5278181, -7, -12.713459), (-1.0523795, -7, -12.4593315), (-0.53649837, -7, -12.30284), (0, -7, -17.75), (0.53649837, -7, -17.697159), (1.0523795, -7, -17.540668), (1.5278181, -7, -17.286541), (1.9445436, -7, -16.944544), (2.2865415, -7, -16.527819), (2.5406687, -7, -16.05238), (2.6971595, -7, -15.536498), (2.75, -7, -15), (2.5406687, -7, -13.94762), (2.6971595, -7, -14.463502), (0, -7, -12.25), (0.53649837, -7, -12.30284), (1.0523795, -7, -12.4593315), (1.5278181, -7, -12.713459), (1.9445436, -7, -13.055456), (2.2865415, -7, -13.472182), (-6, 45, -144), (6, 45, -144), (-1.5278181, 7, -47.28654), (-2.2865415, 7, -46.527817), (-2.6971595, 7, -45.5365), (-2.5406687, 7, -46.05238), (-1.9445436, 7, -46.944542), (-1.0523795, 7, -47.54067), (-0.53649837, 7, -47.69716), (-2.75, 7, -45), (-2.6971595, 7, -44.4635), (-2.5406687, 7, -43.94762), (-2.2865415, 7, -43.472183), (-1.9445436, 7, -43.055458), (-1.5278181, 7, -42.71346), (-1.0523795, 7, -42.45933), (-0.53649837, 7, -42.30284), (0, 7, -47.75), (0.53649837, 7, -47.69716), (1.0523795, 7, -47.54067), (1.5278181, 7, -47.28654), (1.9445436, 7, -46.944542), (2.2865415, 7, -46.527817), (2.5406687, 7, -46.05238), (2.6971595, 7, -45.5365), (0, 7, -42.25), (0.53649837, 7, -42.30284), (1.0523795, 7, -42.45933), (1.9445436, 7, -43.055458), (2.5406687, 7, -43.94762), (2.75, 7, -45), (2.6971595, 7, -44.4635), (2.2865415, 7, -43.472183), (1.5278181, 7, -42.71346), (-2.2865415, 7, -16.527819), (-2.5406687, 7, -16.05238), (-1.9445436, 7, -16.944544), (-1.5278181, 7, -17.286541), (-2.6971595, 7, -15.536498), (-2.75, 7, -15), (-2.6971595, 7, -14.463502), (-2.5406687, 7, -13.94762), (-1.0523795, 7, -17.540668), (-0.53649837, 7, -17.697159), (-2.2865415, 7, -13.472182), (-1.9445436, 7, -13.055456), (-1.5278181, 7, -12.713459), (-1.0523795, 7, -12.4593315), (-0.53649837, 7, -12.30284), (0, 7, -17.75), (0.53649837, 7, -17.697159), (1.0523795, 7, -17.540668), (1.5278181, 7, -17.286541), (1.9445436, 7, -16.944544), (2.2865415, 7, -16.527819), (2.5406687, 7, -16.05238), (2.6971595, 7, -15.536498), (2.75, 7, -15), (2.5406687, 7, -13.94762), (2.6971595, 7, -14.463502), (0, 7, -12.25), (0.53649837, 7, -12.30284), (1.0523795, 7, -12.4593315), (1.5278181, 7, -12.713459), (1.9445436, 7, -13.055456), (2.2865415, 7, -13.472182), (-6, 45, -12), (0, 45, 0), (6, 45, 0)]

        rel material:binding = </arm_union_diff/Material>
    }

    def Scope "Material"
    {
        def Material "PBR"
        {
            token outputs:surface.connect = <PBR/Shader.outputs:surface>

            def Shader "Shader"
            {
                uniform token info:id = "UsdPreviewSurface"
                color3f inputs:diffuseColor = (0.12, 0.12, 0.14)
                float inputs:metallic = 0.7
                float inputs:roughness = 0.4
                token outputs:surface
            }
        }
    }

    def PhysicsCollisionAPI "collision"
    {
        rel physics:collisionGroup = </CollisionGroup>
    }
}
