#usda 1.0
(
    defaultPrim = "bridge_union_union_union_union_diff"
    upAxis = "Y"
    metersPerUnit = 0.001
)

def Xform "bridge_union_union_union_union_diff" (
    prepend apiSchemas = ["PhysicsRigidBodyAPI", "PhysicsMassAPI"]
)
{
    float physics:mass = 30.735936

    def Mesh "bridge_union_union_union_union_diff_mesh"
    {
        float3[] extent = [(-242, -130, -147), (242, 30, 0)]
        int[] faceVertexCounts = [3, 3, 3, 3, 3, 3, 3, 3, 3, 3, 3, 3, 3, 3, 3, 3, 3, 3, 3, 3, 3, 3, 3, 3, 3, 3, 3, 3, 3, 3, 3, 3, 3, 3, 3, 3, 3, 3, 3, 3, 3, 3, 3, 3, 3, 3, 3, 3, 3, 3, 3, 3, 3, 3, 3, 3, 3, 3, 3, 3, 3, 3, 3, 3, 3, 3, 3, 3, 3, 3, 3, 3, 3, 3, 3, 3, 3, 3, 3, 3, 3, 3, 3, 3, 3, 3, 3, 3, 3, 3, 3, 3, 3, 3, 3, 3, 3, 3, 3, 3, 3, 3, 3, 3, 3, 3, 3, 3, 3, 3, 3, 3, 3, 3, 3, 3, 3, 3, 3, 3, 3, 3, 3, 3, 3, 3, 3, 3, 3, 3, 3, 3, 3, 3, 3, 3, 3, 3, 3, 3, 3, 3, 3, 3, 3, 3, 3, 3, 3, 3, 3, 3, 3, 3, 3, 3, 3, 3, 3, 3, 3, 3, 3, 3, 3, 3, 3, 3, 3, 3, 3, 3, 3, 3, 3, 3, 3, 3, 3, 3, 3, 3, 3, 3, 3, 3, 3, 3, 3, 3, 3, 3, 3, 3, 3, 3, 3, 3, 3, 3, 3, 3, 3, 3, 3, 3, 3, 3, 3, 3, 3, 3, 3, 3, 3, 3, 3, 3, 3, 3, 3, 3, 3, 3, 3, 3, 3, 3, 3, 3, 3, 3, 3, 3, 3, 3, 3, 3, 3, 3, 3, 3, 3, 3, 3, 3, 3, 3, 3, 3, 3, 3, 3, 3, 3, 3, 3, 3, 3, 3, 3, 3, 3, 3, 3, 3, 3, 3, 3, 3, 3, 3, 3, 3, 3, 3, 3, 3, 3, 3, 3, 3, 3, 3, 3, 3, 3, 3, 3, 3, 3, 3, 3, 3, 3, 3, 3, 3, 3, 3, 3, 3, 3, 3, 3, 3, 3, 3, 3, 3, 3, 3, 3, 3, 3, 3, 3, 3, 3, 3, 3, 3, 3, 3, 3, 3, 3, 3, 3, 3, 3, 3, 3, 3, 3, 3, 3, 3, 3, 3, 3, 3, 3, 3, 3, 3, 3, 3]
        int[] faceVertexIndices = [168, 167, 169, 78, 77, 169, 167, 166, 169, 168, 162, 167, 164, 163, 168, 163, 162, 168, 70, 72, 71, 71, 72, 73, 71, 73, 79, 71, 76, 70, 164, 159, 163, 162, 163, 159, 72, 70, 77, 166, 78, 169, 169, 76, 164, 161, 158, 166, 158, 79, 166, 159, 164, 76, 77, 70, 75, 159, 161, 162, 159, 158, 161, 75, 70, 76, 76, 71, 80, 80, 71, 79, 76, 80, 159, 76, 169, 75, 79, 73, 166, 166, 73, 78, 77, 75, 169, 169, 164, 168, 64, 69, 63, 74, 78, 73, 69, 64, 65, 73, 63, 69, 65, 64, 67, 62, 77, 66, 66, 78, 67, 65, 67, 68, 67, 74, 68, 67, 78, 74, 72, 63, 73, 77, 62, 72, 73, 69, 74, 78, 66, 77, 63, 72, 62, 166, 155, 165, 161, 152, 162, 162, 156, 167, 155, 167, 156, 165, 154, 157, 167, 155, 166, 165, 160, 166, 166, 160, 161, 156, 162, 152, 157, 151, 153, 154, 165, 155, 151, 157, 154, 151, 161, 160, 152, 161, 151, 151, 160, 153, 165, 74, 160, 74, 69, 160, 68, 74, 165, 153, 65, 68, 69, 65, 153, 160, 69, 153, 153, 68, 157, 165, 157, 68, 0, 81, 1, 82, 81, 158, 80, 26, 27, 80, 27, 28, 80, 28, 29, 80, 29, 30, 80, 30, 31, 80, 31, 114, 80, 115, 116, 80, 114, 115, 80, 111, 113, 80, 113, 112, 80, 116, 111, 79, 0, 80, 0, 5, 4, 0, 7, 5, 0, 6, 2, 0, 8, 7, 0, 9, 8, 1, 21, 19, 1, 19, 20, 1, 20, 22, 1, 100, 18, 1, 17, 21, 1, 18, 17, 1, 101, 100, 1, 102, 101, 1, 80, 0, 150, 159, 80, 145, 147, 159, 147, 146, 159, 146, 144, 159, 150, 145, 159, 144, 143, 159, 143, 142, 159, 130, 128, 158, 129, 130, 158, 127, 129, 158, 132, 131, 158, 128, 133, 158, 133, 132, 158, 131, 46, 158, 46, 45, 158, 159, 82, 158, 82, 159, 142, 127, 158, 81, 37, 35, 79, 37, 79, 38, 79, 39, 38, 40, 39, 79, 41, 40, 79, 42, 41, 79, 43, 42, 79, 44, 43, 79, 45, 44, 79, 80, 50, 52, 80, 52, 53, 53, 54, 80, 54, 55, 80, 55, 56, 80, 56, 57, 80, 57, 58, 80, 58, 59, 80, 59, 60, 80, 60, 61, 80, 61, 148, 80, 149, 150, 80, 148, 149, 80, 82, 80, 112, 80, 24, 25, 80, 23, 24, 80, 22, 23, 80, 82, 50, 82, 142, 141, 94, 99, 79, 82, 141, 140, 95, 96, 79, 96, 94, 79, 98, 97, 79, 99, 98, 79, 97, 16, 79, 16, 15, 79, 15, 14, 79, 14, 13, 79, 13, 12, 79, 12, 11, 79, 11, 10, 79, 10, 9, 79, 35, 81, 79, 80, 1, 22, 9, 0, 79, 82, 140, 139, 82, 139, 138, 82, 138, 137, 82, 137, 136, 82, 136, 135, 82, 135, 134, 82, 48, 47, 45, 79, 158, 82, 134, 48, 82, 51, 49, 82, 49, 50, 82, 47, 51, 95, 79, 81, 126, 127, 81, 125, 126, 81, 124, 125, 81, 0, 4, 6, 81, 3, 83, 81, 2, 3, 81, 83, 84, 81, 84, 85, 81, 85, 86, 81, 86, 87, 81, 87, 88, 81, 88, 89, 81, 89, 90, 81, 90, 91, 81, 91, 92, 93, 81, 92, 93, 95, 81, 82, 103, 102, 82, 104, 103, 82, 105, 104, 82, 106, 105, 82, 107, 106, 82, 108, 107, 109, 108, 82, 82, 110, 109, 82, 112, 110, 123, 124, 81, 122, 123, 81, 121, 122, 81, 120, 121, 81, 119, 120, 81, 118, 119, 81, 117, 118, 81, 32, 33, 81, 33, 117, 81, 81, 0, 2, 80, 25, 26, 1, 82, 102, 34, 36, 81, 35, 34, 81, 36, 32, 81, 82, 1, 81, 64, 63, 62, 62, 67, 64, 67, 62, 66, 154, 155, 156, 151, 156, 152, 151, 154, 156, 146, 130, 129, 145, 133, 128, 52, 35, 37, 53, 37, 38, 54, 38, 39, 33, 47, 48, 117, 48, 134, 34, 50, 49, 35, 52, 50, 32, 51, 47, 36, 49, 51, 37, 53, 52, 51, 32, 36, 50, 34, 35, 48, 117, 33, 38, 54, 53, 55, 39, 40, 56, 40, 41, 57, 41, 42, 58, 42, 43, 59, 43, 44, 60, 44, 45, 61, 45, 46, 148, 46, 131, 39, 55, 54, 40, 56, 55, 41, 57, 56, 42, 58, 57, 43, 59, 58, 44, 60, 59, 132, 150, 149, 131, 149, 148, 130, 146, 147, 129, 144, 146, 133, 145, 150, 128, 147, 145, 127, 143, 144, 126, 142, 143, 47, 33, 32, 147, 128, 130, 143, 127, 126, 46, 148, 61, 45, 61, 60, 134, 118, 117, 135, 119, 118, 136, 120, 119, 137, 121, 120, 138, 122, 121, 139, 123, 122, 140, 124, 123, 141, 125, 124, 118, 134, 135, 119, 135, 136, 120, 136, 137, 121, 137, 138, 122, 138, 139, 123, 139, 140, 124, 140, 141, 125, 141, 142, 142, 126, 125, 150, 132, 133, 144, 129, 127, 149, 131, 132, 49, 36, 34, 108, 92, 91, 86, 102, 103, 109, 93, 92, 16, 114, 31, 15, 31, 30, 14, 30, 29, 13, 29, 28, 12, 28, 27, 11, 27, 26, 10, 26, 25, 9, 25, 24, 114, 16, 97, 31, 15, 16, 30, 14, 15, 29, 13, 14, 28, 12, 13, 27, 11, 12, 26, 10, 11, 100, 84, 83, 101, 85, 84, 102, 86, 85, 103, 87, 86, 104, 88, 87, 105, 89, 88, 106, 90, 89, 107, 91, 90, 25, 9, 10, 8, 24, 23, 7, 23, 22, 6, 19, 21, 2, 21, 17, 5, 22, 20, 84, 100, 101, 88, 104, 105, 4, 20, 19, 89, 105, 106, 83, 18, 100, 3, 17, 18, 24, 8, 9, 23, 7, 8, 22, 5, 7, 19, 6, 4, 90, 106, 107, 21, 2, 6, 20, 4, 5, 18, 83, 3, 17, 3, 2, 91, 107, 108, 98, 116, 115, 97, 115, 114, 96, 112, 113, 95, 110, 112, 99, 111, 116, 94, 113, 111, 93, 109, 110, 92, 108, 109, 116, 98, 99, 115, 97, 98, 112, 96, 95, 111, 99, 94, 113, 94, 96, 87, 103, 104, 85, 101, 102, 110, 95, 93]
        point3f[] points = [(-25, -130, -12), (-25, -130, 0), (-1.0523795, -97.54067, -12), (-0.53649837, -97.69716, -12), (-1.9445436, -96.94454, -12), (-2.2865415, -96.52782, -12), (-1.5278181, -97.286545, -12), (-2.5406687, -96.052376, -12), (-2.6971595, -95.5365, -12), (-2.75, -95, -12), (-2.6971595, -94.4635, -12), (-2.5406687, -93.947624, -12), (-2.2865415, -93.47218, -12), (-1.9445436, -93.05546, -12), (-1.5278181, -92.713455, -12), (-1.0523795, -92.45933, -12), (-0.53649837, -92.30284, -12), (-1.0523795, -97.54067, 0), (-0.53649837, -97.69716, 0), (-1.9445436, -96.94454, 0), (-2.2865415, -96.52782, 0), (-1.5278181, -97.286545, 0), (-2.5406687, -96.052376, 0), (-2.6971595, -95.5365, 0), (-2.75, -95, 0), (-2.6971595, -94.4635, 0), (-2.5406687, -93.947624, 0), (-2.2865415, -93.47218, 0), (-1.9445436, -93.05546, 0), (-1.5278181, -92.713455, 0), (-1.0523795, -92.45933, 0), (-0.53649837, -92.30284, 0), (-1.0523795, -67.54067, -12), (-0.53649837, -67.69716, -12), (-1.9445436, -66.94454, -12), (-2.2865415, -66.52782, -12), (-1.5278181, -67.286545, -12), (-2.5406687, -66.052376, -12), (-2.6971595, -65.5365, -12), (-2.75, -65, -12), (-2.6971595, -64.4635, -12), (-2.5406687, -63.94762, -12), (-2.2865415, -63.472183, -12), (-1.9445436, -63.055458, -12), (-1.5278181, -62.71346, -12), (-1.0523795, -62.45933, -12), (-0.53649837, -62.30284, -12), (-1.0523795, -67.54067, 0), (-0.53649837, -67.69716, 0), (-1.9445436, -66.94454, 0), (-2.2865415, -66.52782, 0), (-1.5278181, -67.286545, 0), (-2.5406687, -66.052376, 0), (-2.6971595, -65.5365, 0), (-2.75, -65, 0), (-2.6971595, -64.4635, 0), (-2.5406687, -63.94762, 0), (-2.2865415, -63.472183, 0), (-1.9445436, -63.055458, 0), (-1.5278181, -62.71346, 0), (-1.0523795, -62.45933, 0), (-0.53649837, -62.30284, 0), (-162, -30, -147), (-150, -30, -147), (-150, -26.531792, -147), (-150, -18, -85.5), (-162, 30, -147), (-150, 30, -147), (-150, 18, -85.5), (-150, -18, -73.5), (-242, -30, -12), (-242, -30, 0), (-162, -30, -12), (-150, -30, -12), (-150, 18, -73.5), (-242, 30, -12), (-242, 30, 0), (-162, 30, -12), (-150, 30, -12), (-25, -30, -12), (-25, -30, 0), (25, -130, -12), (25, -130, 0), (0, -97.75, -12), (0.53649837, -97.69716, -12), (1.0523795, -97.54067, -12), (1.5278181, -97.286545, -12), (1.9445436, -96.94454, -12), (2.2865415, -96.52782, -12), (2.5406687, -96.052376, -12), (2.6971595, -95.5365, -12), (2.75, -95, -12), (2.6971595, -94.4635, -12), (2.5406687, -93.947624, -12), (1.5278181, -92.713455, -12), (2.2865415, -93.47218, -12), (1.9445436, -93.05546, -12), (0, -92.25, -12), (0.53649837, -92.30284, -12), (1.0523795, -92.45933, -12), (0, -97.75, 0), (0.53649837, -97.69716, 0), (1.0523795, -97.54067, 0), (1.5278181, -97.286545, 0), (1.9445436, -96.94454, 0), (2.2865415, -96.52782, 0), (2.5406687, -96.052376, 0), (2.6971595, -95.5365, 0), (2.75, -95, 0), (2.6971595, -94.4635, 0), (2.5406687, -93.947624, 0), (1.5278181, -92.713455, 0), (2.2865415, -93.47218, 0), (1.9445436, -93.05546, 0), (0, -92.25, 0), (0.53649837, -92.30284, 0), (1.0523795, -92.45933, 0), (0, -67.75, -12), (0.53649837, -67.69716, -12), (1.0523795, -67.54067, -12), (1.5278181, -67.286545, -12), (1.9445436, -66.94454, -12), (2.2865415, -66.52782, -12), (2.5406687, -66.052376, -12), (2.6971595, -65.5365, -12), (2.75, -65, -12), (2.6971595, -64.4635, -12), (2.5406687, -63.94762, -12), (1.5278181, -62.71346, -12), (2.2865415, -63.472183, -12), (1.9445436, -63.055458, -12), (0, -62.25, -12), (0.53649837, -62.30284, -12), (1.0523795, -62.45933, -12), (0, -67.75, 0), (0.53649837, -67.69716, 0), (1.0523795, -67.54067, 0), (1.5278181, -67.286545, 0), (1.9445436, -66.94454, 0), (2.2865415, -66.52782, 0), (2.5406687, -66.052376, 0), (2.6971595, -65.5365, 0), (2.75, -65, 0), (2.6971595, -64.4635, 0), (2.5406687, -63.94762, 0), (1.5278181, -62.71346, 0), (2.2865415, -63.472183, 0), (1.9445436, -63.055458, 0), (0, -62.25, 0), (0.53649837, -62.30284, 0), (1.0523795, -62.45933, 0), (150, -30, -147), (162, -30, -147), (150, -18, -85.5), (150, 20.666666, -147), (150, 30, -147), (162, 30, -147), (150, 18, -85.5), (25, -30, -12), (25, -30, 0), (150, -18, -73.5), (150, -30, -12), (162, -30, -12), (242, -30, -12), (242, -30, 0), (150, 18, -73.5), (150, 30, -12), (162, 30, -12), (242, 30, -12), (242, 30, 0)]

        rel material:binding = </bridge_union_union_union_union_diff/Material>
    }

    def Scope "Material"
    {
        def Material "PBR"
        {
            token outputs:surface.connect = <PBR/Shader.outputs:surface>

            def Shader "Shader"
            {
                uniform token info:id = "UsdPreviewSurface"
                color3f inputs:diffuseColor = (0.12, 0.12, 0.14)
                float inputs:metallic = 0.7
                float inputs:roughness = 0.4
                token outputs:surface
            }
        }
    }

    def PhysicsCollisionAPI "collision"
    {
        rel physics:collisionGroup = </CollisionGroup>
    }
}
