#usda 1.0
(
    defaultPrim = "arm_union_diff_union_union_union"
    upAxis = "Y"
    metersPerUnit = 0.001
)

def Xform "arm_union_diff_union_union_union" (
    prepend apiSchemas = ["PhysicsRigidBodyAPI", "PhysicsMassAPI"]
)
{
    float physics:mass = 145.146816

    def Mesh "arm_union_diff_union_union_union_mesh"
    {
        float3[] extent = [(-366, -255, 156), (366, 255, 300)]
        int[] faceVertexCounts = [3, 3, 3, 3, 3, 3, 3, 3, 3, 3, 3, 3, 3, 3, 3, 3, 3, 3, 3, 3, 3, 3, 3, 3, 3, 3, 3, 3, 3, 3, 3, 3, 3, 3, 3, 3, 3, 3, 3, 3, 3, 3, 3, 3, 3, 3, 3, 3, 3, 3, 3, 3, 3, 3, 3, 3, 3, 3, 3, 3, 3, 3, 3, 3, 3, 3, 3, 3, 3, 3, 3, 3, 3, 3, 3, 3, 3, 3, 3, 3, 3, 3, 3, 3, 3, 3, 3, 3, 3, 3, 3, 3, 3, 3, 3, 3, 3, 3, 3, 3, 3, 3, 3, 3, 3, 3, 3, 3, 3, 3, 3, 3, 3, 3, 3, 3, 3, 3, 3, 3, 3, 3, 3, 3, 3, 3, 3, 3, 3, 3, 3, 3, 3, 3, 3, 3, 3, 3, 3, 3, 3, 3, 3, 3, 3, 3, 3, 3, 3, 3, 3, 3, 3, 3, 3, 3, 3, 3, 3, 3, 3, 3, 3, 3, 3, 3, 3, 3, 3, 3, 3, 3, 3, 3, 3, 3, 3, 3, 3, 3, 3, 3, 3, 3, 3, 3, 3, 3, 3, 3, 3, 3, 3, 3, 3, 3, 3, 3, 3, 3, 3, 3, 3, 3, 3, 3, 3, 3, 3, 3, 3, 3, 3, 3, 3, 3, 3, 3, 3, 3, 3, 3, 3, 3, 3, 3, 3, 3, 3, 3, 3, 3, 3, 3, 3, 3, 3, 3, 3, 3, 3, 3, 3, 3, 3, 3, 3, 3, 3, 3, 3, 3, 3, 3, 3, 3, 3, 3, 3, 3, 3, 3, 3, 3, 3, 3, 3, 3, 3, 3, 3, 3, 3, 3, 3, 3, 3, 3, 3, 3, 3, 3, 3, 3, 3, 3, 3, 3, 3, 3, 3, 3, 3, 3, 3, 3, 3, 3, 3, 3, 3, 3, 3, 3, 3, 3, 3, 3, 3, 3, 3, 3, 3, 3, 3, 3, 3, 3, 3, 3, 3, 3, 3, 3, 3, 3, 3, 3, 3, 3, 3, 3, 3, 3, 3, 3, 3, 3, 3, 3, 3, 3, 3, 3, 3, 3, 3, 3, 3, 3, 3, 3, 3, 3, 3, 3, 3, 3, 3, 3, 3, 3, 3, 3, 3, 3, 3, 3, 3, 3, 3, 3, 3, 3, 3, 3, 3, 3, 3, 3, 3, 3, 3, 3, 3, 3, 3, 3, 3, 3, 3, 3, 3, 3, 3, 3, 3, 3, 3, 3, 3, 3, 3, 3, 3, 3, 3, 3, 3, 3, 3, 3, 3, 3, 3, 3, 3, 3, 3, 3, 3, 3, 3, 3, 3, 3, 3, 3, 3, 3, 3, 3, 3, 3, 3, 3, 3, 3, 3, 3, 3, 3, 3, 3, 3, 3, 3, 3, 3, 3, 3, 3, 3, 3, 3, 3, 3, 3, 3, 3, 3, 3, 3, 3, 3, 3, 3, 3, 3, 3, 3, 3, 3, 3, 3, 3, 3, 3, 3, 3, 3, 3, 3, 3, 3, 3, 3, 3, 3, 3, 3, 3, 3, 3, 3, 3, 3, 3, 3, 3, 3, 3, 3, 3, 3, 3, 3, 3, 3, 3, 3, 3, 3, 3, 3, 3, 3, 3, 3, 3, 3, 3, 3, 3, 3, 3, 3, 3, 3, 3, 3, 3, 3, 3, 3, 3, 3, 3, 3, 3, 3, 3, 3, 3, 3, 3, 3, 3, 3, 3, 3, 3, 3, 3, 3, 3, 3, 3, 3, 3, 3, 3, 3, 3, 3, 3, 3, 3, 3, 3, 3, 3, 3, 3, 3, 3, 3, 3, 3, 3, 3, 3, 3, 3, 3, 3, 3, 3, 3, 3, 3, 3, 3, 3, 3, 3, 3, 3, 3, 3, 3, 3, 3, 3, 3, 3, 3, 3, 3, 3, 3, 3, 3, 3, 3, 3, 3, 3, 3, 3, 3, 3, 3, 3, 3, 3, 3, 3, 3, 3, 3, 3, 3, 3, 3, 3, 3, 3, 3, 3, 3, 3, 3, 3, 3, 3, 3, 3, 3, 3, 3, 3, 3, 3, 3, 3, 3, 3, 3, 3, 3, 3, 3, 3, 3, 3, 3, 3, 3, 3, 3, 3, 3, 3, 3, 3, 3, 3, 3, 3, 3, 3, 3, 3, 3, 3, 3, 3, 3, 3, 3, 3, 3, 3, 3, 3, 3, 3, 3, 3, 3, 3, 3, 3, 3, 3, 3, 3, 3, 3, 3, 3, 3, 3, 3, 3, 3, 3, 3, 3, 3, 3, 3, 3, 3, 3, 3, 3, 3, 3, 3, 3, 3, 3, 3, 3, 3, 3, 3, 3, 3, 3, 3, 3, 3, 3, 3, 3, 3, 3, 3, 3, 3, 3, 3, 3, 3, 3, 3, 3, 3, 3, 3, 3, 3, 3, 3, 3, 3, 3, 3, 3, 3, 3, 3, 3, 3, 3, 3, 3, 3, 3, 3, 3, 3, 3, 3, 3, 3, 3, 3, 3, 3, 3, 3, 3, 3, 3, 3, 3, 3, 3, 3, 3, 3, 3, 3, 3, 3, 3, 3, 3, 3, 3, 3, 3, 3, 3, 3, 3, 3, 3, 3, 3, 3, 3, 3, 3, 3, 3, 3, 3, 3, 3, 3, 3, 3, 3, 3, 3, 3, 3, 3, 3, 3, 3, 3, 3, 3, 3, 3, 3, 3, 3, 3, 3, 3, 3, 3, 3, 3, 3, 3, 3, 3, 3, 3, 3, 3, 3, 3, 3, 3, 3, 3, 3, 3, 3, 3, 3, 3, 3, 3, 3, 3, 3, 3, 3, 3, 3, 3, 3, 3, 3, 3, 3, 3, 3, 3, 3, 3, 3, 3, 3, 3, 3, 3, 3, 3, 3, 3, 3, 3, 3, 3, 3, 3, 3, 3, 3, 3, 3, 3, 3, 3, 3, 3, 3, 3, 3, 3, 3, 3, 3, 3, 3, 3, 3, 3, 3, 3, 3, 3, 3, 3, 3, 3, 3, 3, 3, 3, 3, 3, 3, 3, 3, 3, 3, 3, 3, 3, 3, 3, 3, 3, 3, 3, 3, 3, 3, 3, 3, 3, 3, 3, 3, 3, 3, 3, 3, 3, 3, 3, 3, 3, 3, 3, 3, 3, 3, 3, 3, 3, 3, 3, 3, 3, 3, 3, 3, 3, 3, 3, 3, 3, 3, 3, 3, 3, 3, 3, 3, 3, 3, 3, 3, 3, 3, 3, 3, 3, 3, 3, 3, 3, 3, 3, 3, 3, 3, 3, 3, 3, 3, 3, 3, 3, 3, 3, 3, 3, 3, 3, 3, 3, 3, 3, 3, 3, 3, 3, 3, 3, 3, 3, 3, 3, 3, 3, 3, 3, 3, 3, 3, 3, 3, 3, 3, 3, 3, 3, 3, 3, 3, 3, 3, 3, 3, 3, 3, 3, 3, 3, 3, 3, 3, 3, 3, 3, 3, 3, 3, 3, 3, 3, 3]
        int[] faceVertexIndices = [428, 426, 427, 358, 286, 287, 361, 287, 289, 426, 288, 286, 288, 428, 289, 287, 359, 358, 286, 358, 426, 287, 361, 359, 361, 289, 428, 428, 288, 426, 360, 359, 361, 360, 361, 427, 427, 361, 428, 70, 137, 2, 1, 136, 69, 71, 70, 68, 71, 138, 70, 138, 137, 70, 137, 138, 136, 137, 136, 3, 69, 0, 1, 70, 2, 0, 136, 1, 3, 3, 2, 137, 0, 69, 68, 0, 68, 70, 571, 569, 570, 503, 504, 570, 503, 502, 504, 571, 431, 569, 504, 432, 571, 429, 501, 569, 570, 504, 571, 501, 429, 430, 430, 502, 501, 431, 571, 432, 569, 431, 429, 504, 430, 432, 430, 504, 502, 280, 279, 146, 144, 279, 212, 143, 211, 213, 143, 212, 211, 146, 145, 280, 279, 144, 146, 213, 145, 143, 212, 143, 144, 214, 213, 211, 214, 281, 213, 281, 280, 213, 280, 281, 279, 213, 280, 145, 288, 289, 286, 286, 289, 287, 3, 1, 2, 1, 0, 2, 431, 432, 429, 429, 432, 430, 144, 143, 145, 146, 144, 145, 383, 410, 415, 378, 409, 410, 406, 413, 414, 414, 421, 405, 411, 412, 413, 406, 411, 413, 405, 406, 414, 404, 405, 421, 420, 394, 425, 419, 395, 420, 418, 396, 419, 417, 397, 418, 416, 398, 417, 415, 399, 416, 410, 400, 415, 400, 399, 415, 398, 397, 417, 399, 398, 416, 407, 410, 409, 408, 407, 409, 407, 400, 410, 403, 404, 422, 402, 403, 423, 401, 402, 424, 394, 401, 425, 395, 394, 420, 396, 395, 419, 397, 396, 418, 393, 420, 425, 391, 424, 423, 392, 425, 424, 390, 423, 422, 389, 422, 421, 392, 393, 425, 391, 392, 424, 390, 391, 423, 389, 390, 422, 419, 420, 388, 387, 418, 419, 386, 417, 418, 385, 416, 417, 384, 415, 416, 388, 420, 393, 388, 387, 419, 387, 386, 418, 386, 385, 417, 385, 384, 416, 384, 383, 415, 382, 421, 414, 381, 414, 413, 380, 413, 412, 379, 412, 411, 382, 389, 421, 381, 382, 414, 380, 381, 413, 379, 380, 412, 374, 379, 411, 425, 401, 424, 424, 402, 423, 377, 408, 409, 376, 407, 408, 375, 400, 407, 383, 378, 410, 378, 377, 409, 377, 376, 408, 376, 375, 407, 374, 411, 406, 373, 406, 405, 372, 405, 404, 371, 404, 403, 370, 403, 402, 369, 402, 401, 373, 374, 406, 372, 373, 405, 371, 372, 404, 370, 371, 403, 369, 370, 402, 362, 369, 401, 368, 399, 400, 364, 387, 363, 363, 388, 362, 362, 393, 369, 369, 392, 370, 370, 391, 371, 371, 390, 372, 368, 375, 378, 377, 375, 376, 375, 377, 378, 367, 384, 366, 366, 385, 365, 368, 383, 367, 368, 378, 383, 367, 383, 384, 366, 384, 385, 365, 385, 386, 364, 386, 387, 363, 387, 388, 362, 388, 393, 372, 389, 373, 373, 382, 374, 379, 374, 381, 379, 381, 380, 373, 389, 382, 374, 382, 381, 371, 391, 390, 369, 393, 392, 370, 392, 391, 372, 390, 389, 365, 364, 396, 363, 362, 394, 421, 422, 404, 365, 386, 364, 364, 363, 395, 366, 365, 397, 375, 368, 400, 367, 366, 398, 368, 367, 399, 362, 401, 394, 364, 395, 396, 363, 394, 395, 365, 396, 397, 366, 397, 398, 367, 398, 399, 423, 403, 422, 299, 322, 300, 351, 311, 346, 292, 306, 307, 353, 310, 351, 297, 330, 290, 292, 332, 291, 291, 333, 293, 298, 324, 297, 300, 323, 298, 293, 335, 294, 294, 336, 295, 295, 334, 296, 296, 329, 301, 301, 328, 302, 302, 327, 303, 303, 326, 304, 290, 292, 307, 292, 291, 306, 290, 307, 305, 291, 293, 308, 291, 308, 306, 293, 309, 308, 293, 294, 309, 294, 295, 310, 295, 296, 311, 294, 310, 309, 295, 311, 310, 297, 290, 305, 298, 297, 312, 300, 298, 313, 299, 300, 315, 320, 299, 314, 297, 305, 312, 298, 312, 313, 300, 313, 315, 299, 315, 314, 320, 314, 337, 296, 301, 316, 301, 302, 317, 302, 303, 318, 303, 304, 319, 304, 325, 342, 296, 316, 311, 301, 317, 316, 302, 318, 317, 303, 319, 318, 304, 342, 319, 314, 315, 339, 305, 307, 348, 312, 305, 347, 307, 306, 349, 306, 308, 350, 313, 312, 341, 315, 313, 340, 308, 309, 352, 309, 310, 353, 310, 311, 351, 311, 316, 346, 316, 317, 345, 290, 331, 292, 317, 318, 344, 318, 319, 343, 299, 320, 321, 299, 321, 322, 300, 322, 323, 298, 323, 324, 297, 324, 330, 290, 330, 331, 292, 331, 332, 291, 332, 333, 293, 333, 335, 304, 326, 325, 303, 327, 326, 302, 328, 327, 301, 329, 328, 296, 334, 329, 295, 336, 334, 294, 335, 336, 321, 320, 337, 322, 321, 338, 323, 322, 339, 324, 323, 340, 330, 324, 341, 321, 337, 338, 322, 338, 339, 323, 339, 340, 324, 340, 341, 330, 341, 347, 325, 326, 343, 326, 327, 344, 327, 328, 345, 329, 334, 351, 328, 329, 346, 325, 343, 342, 326, 344, 343, 327, 345, 344, 328, 346, 345, 329, 351, 346, 331, 330, 347, 332, 331, 348, 333, 332, 349, 333, 350, 335, 331, 347, 348, 332, 348, 349, 349, 350, 333, 334, 336, 353, 336, 335, 352, 334, 353, 351, 336, 352, 353, 335, 350, 352, 337, 314, 338, 338, 314, 339, 339, 315, 340, 340, 313, 341, 341, 312, 347, 347, 305, 348, 348, 307, 349, 349, 306, 350, 350, 308, 352, 319, 342, 343, 343, 344, 318, 344, 345, 317, 346, 316, 345, 352, 309, 353, 83, 114, 82, 109, 119, 117, 84, 115, 83, 75, 74, 94, 72, 75, 95, 78, 73, 97, 73, 72, 96, 79, 78, 102, 80, 79, 103, 81, 80, 100, 76, 77, 88, 74, 76, 93, 85, 87, 77, 85, 86, 87, 77, 87, 88, 76, 88, 93, 74, 93, 94, 75, 94, 95, 72, 95, 96, 73, 96, 97, 82, 81, 101, 83, 82, 99, 84, 83, 98, 84, 91, 89, 92, 90, 89, 89, 91, 92, 79, 102, 103, 78, 97, 102, 80, 103, 100, 84, 98, 91, 83, 99, 98, 82, 101, 99, 81, 100, 101, 78, 105, 73, 73, 104, 72, 75, 106, 74, 72, 107, 75, 74, 108, 76, 76, 109, 77, 72, 104, 107, 73, 105, 104, 75, 107, 106, 74, 106, 108, 76, 108, 109, 77, 109, 117, 79, 110, 78, 80, 111, 79, 133, 132, 113, 131, 133, 114, 130, 131, 115, 123, 130, 116, 132, 135, 112, 134, 129, 110, 135, 134, 111, 121, 124, 123, 122, 124, 121, 121, 123, 116, 116, 130, 115, 115, 131, 114, 114, 133, 113, 129, 128, 105, 128, 127, 104, 127, 126, 107, 125, 106, 126, 120, 108, 125, 109, 120, 119, 81, 112, 80, 82, 113, 81, 108, 120, 109, 113, 132, 112, 112, 135, 111, 111, 134, 110, 105, 128, 104, 110, 129, 105, 104, 127, 107, 107, 126, 106, 103, 135, 132, 135, 102, 134, 100, 132, 133, 101, 133, 131, 99, 131, 130, 102, 97, 134, 102, 135, 103, 100, 133, 101, 103, 132, 100, 101, 131, 99, 99, 130, 98, 97, 129, 134, 96, 128, 129, 95, 127, 128, 94, 126, 127, 93, 125, 126, 96, 129, 97, 95, 128, 96, 94, 127, 95, 93, 126, 94, 91, 123, 124, 98, 130, 123, 92, 124, 122, 90, 122, 121, 89, 121, 116, 91, 124, 92, 98, 123, 91, 92, 122, 90, 90, 121, 89, 88, 120, 125, 87, 119, 120, 86, 118, 119, 85, 117, 118, 88, 125, 93, 87, 120, 88, 86, 119, 87, 85, 118, 86, 77, 117, 85, 84, 116, 115, 83, 115, 114, 82, 114, 113, 81, 113, 112, 80, 112, 111, 79, 111, 110, 78, 110, 105, 117, 119, 118, 106, 125, 108, 89, 116, 84, 40, 57, 33, 4, 19, 21, 47, 66, 49, 45, 62, 63, 6, 11, 38, 12, 36, 37, 6, 38, 44, 4, 44, 45, 5, 45, 46, 17, 42, 39, 8, 47, 49, 7, 46, 47, 9, 49, 48, 15, 50, 43, 16, 43, 42, 10, 48, 50, 18, 41, 40, 18, 39, 41, 34, 52, 35, 35, 53, 36, 36, 54, 37, 37, 55, 38, 38, 61, 44, 34, 51, 52, 35, 52, 53, 36, 53, 54, 37, 54, 55, 38, 55, 61, 41, 57, 40, 39, 58, 41, 42, 56, 39, 43, 59, 42, 50, 60, 43, 41, 58, 57, 39, 56, 58, 42, 59, 56, 43, 60, 59, 50, 67, 60, 44, 62, 45, 45, 63, 46, 44, 61, 62, 17, 32, 31, 46, 63, 64, 18, 33, 32, 47, 46, 64, 49, 65, 48, 48, 67, 50, 66, 47, 64, 49, 66, 65, 48, 65, 67, 29, 52, 51, 52, 28, 53, 53, 27, 54, 55, 54, 26, 61, 55, 21, 62, 61, 19, 63, 62, 20, 56, 59, 32, 66, 64, 23, 64, 63, 22, 65, 66, 24, 60, 67, 30, 59, 60, 31, 67, 65, 25, 57, 58, 33, 58, 56, 33, 16, 31, 30, 15, 30, 25, 40, 33, 18, 33, 56, 32, 32, 59, 31, 31, 60, 30, 18, 32, 17, 30, 67, 25, 25, 65, 24, 24, 66, 23, 23, 64, 22, 17, 31, 16, 28, 52, 29, 27, 53, 28, 20, 62, 19, 22, 63, 20, 16, 30, 15, 15, 25, 10, 14, 29, 51, 13, 28, 29, 12, 27, 28, 6, 21, 26, 11, 26, 27, 17, 16, 42, 16, 15, 43, 19, 61, 21, 26, 54, 27, 15, 10, 50, 10, 9, 48, 9, 8, 49, 8, 7, 47, 13, 14, 35, 12, 13, 36, 5, 4, 45, 18, 17, 39, 7, 20, 5, 5, 19, 4, 11, 37, 38, 14, 34, 35, 11, 27, 12, 4, 21, 6, 6, 26, 11, 10, 25, 24, 14, 51, 34, 13, 29, 14, 12, 28, 13, 21, 55, 26, 7, 5, 46, 4, 6, 44, 11, 12, 37, 9, 24, 23, 5, 20, 19, 7, 22, 20, 8, 23, 22, 10, 24, 9, 9, 23, 8, 8, 22, 7, 13, 35, 36, 509, 527, 528, 510, 526, 527, 511, 521, 526, 511, 526, 510, 509, 528, 508, 510, 527, 509, 518, 520, 521, 520, 518, 519, 511, 518, 521, 514, 533, 515, 513, 534, 514, 512, 535, 513, 505, 536, 512, 506, 531, 505, 507, 530, 506, 508, 529, 507, 508, 528, 529, 507, 529, 530, 506, 530, 531, 505, 531, 536, 534, 567, 566, 535, 568, 567, 533, 566, 565, 515, 532, 516, 516, 525, 517, 522, 517, 524, 532, 565, 564, 535, 536, 568, 534, 535, 567, 533, 534, 566, 532, 533, 565, 562, 563, 531, 530, 561, 562, 529, 560, 561, 528, 559, 560, 527, 558, 559, 531, 563, 536, 531, 530, 562, 530, 529, 561, 529, 528, 560, 528, 527, 559, 527, 526, 558, 564, 565, 547, 567, 545, 566, 568, 544, 567, 566, 546, 565, 549, 556, 557, 557, 564, 548, 554, 555, 556, 549, 554, 556, 548, 549, 557, 547, 548, 564, 563, 537, 568, 562, 538, 563, 561, 539, 562, 560, 540, 561, 559, 541, 560, 558, 542, 559, 553, 543, 558, 543, 542, 558, 541, 540, 560, 522, 524, 523, 516, 532, 525, 517, 525, 524, 542, 541, 559, 550, 553, 552, 551, 550, 552, 550, 543, 553, 546, 547, 565, 545, 546, 566, 544, 545, 567, 537, 544, 568, 538, 537, 563, 539, 538, 562, 540, 539, 561, 525, 564, 557, 524, 557, 556, 523, 556, 555, 522, 555, 554, 525, 532, 564, 524, 525, 557, 523, 524, 556, 522, 523, 555, 517, 522, 554, 526, 553, 558, 521, 552, 553, 520, 551, 552, 519, 550, 551, 518, 543, 550, 526, 521, 553, 521, 520, 552, 520, 519, 551, 519, 518, 550, 517, 554, 549, 516, 549, 548, 515, 548, 547, 514, 547, 546, 513, 546, 545, 512, 545, 544, 516, 517, 549, 515, 516, 548, 514, 515, 547, 513, 514, 546, 512, 513, 545, 505, 512, 544, 511, 542, 543, 510, 541, 542, 509, 540, 541, 508, 539, 540, 506, 537, 538, 507, 538, 539, 505, 544, 537, 511, 510, 542, 510, 509, 541, 518, 511, 543, 509, 508, 540, 507, 506, 538, 506, 505, 537, 508, 507, 539, 515, 533, 532, 513, 535, 534, 512, 536, 535, 514, 534, 533, 536, 563, 568, 438, 439, 454, 473, 484, 490, 438, 454, 453, 436, 437, 452, 436, 452, 451, 434, 451, 449, 435, 449, 450, 433, 450, 448, 434, 436, 451, 435, 434, 449, 440, 433, 448, 441, 440, 455, 433, 435, 450, 446, 469, 447, 445, 470, 446, 444, 471, 445, 439, 472, 444, 438, 477, 439, 437, 479, 438, 436, 478, 437, 443, 466, 441, 441, 467, 440, 434, 476, 436, 435, 475, 434, 440, 473, 433, 433, 474, 435, 442, 465, 443, 443, 441, 456, 442, 443, 458, 463, 442, 457, 440, 448, 455, 441, 455, 456, 443, 456, 458, 442, 458, 457, 463, 457, 480, 439, 444, 459, 444, 445, 460, 445, 446, 461, 446, 447, 462, 447, 468, 485, 439, 459, 454, 444, 460, 459, 445, 461, 460, 446, 462, 461, 447, 485, 462, 457, 458, 482, 448, 450, 491, 455, 448, 490, 450, 449, 492, 449, 451, 493, 456, 455, 484, 458, 456, 483, 451, 452, 495, 452, 453, 496, 453, 454, 494, 454, 459, 489, 459, 460, 488, 460, 461, 487, 461, 462, 486, 442, 463, 464, 442, 464, 465, 443, 465, 466, 441, 466, 467, 440, 467, 473, 433, 473, 474, 435, 474, 475, 434, 475, 476, 436, 476, 478, 447, 469, 468, 446, 470, 469, 445, 471, 470, 444, 472, 471, 439, 477, 472, 438, 479, 477, 437, 478, 479, 464, 463, 480, 465, 464, 481, 466, 465, 482, 467, 466, 483, 473, 467, 484, 464, 480, 481, 465, 481, 482, 466, 482, 483, 468, 469, 486, 469, 470, 487, 470, 471, 488, 472, 477, 494, 471, 472, 489, 468, 486, 485, 469, 487, 486, 470, 488, 487, 471, 489, 488, 472, 494, 489, 474, 473, 490, 475, 474, 491, 476, 475, 492, 476, 493, 478, 474, 490, 491, 475, 491, 492, 492, 493, 476, 477, 479, 496, 479, 478, 495, 477, 496, 494, 479, 495, 496, 478, 493, 495, 480, 457, 481, 481, 457, 482, 482, 458, 483, 483, 456, 484, 484, 455, 490, 490, 448, 491, 491, 450, 492, 492, 449, 493, 493, 451, 495, 462, 485, 486, 486, 487, 461, 487, 488, 460, 489, 459, 488, 494, 454, 489, 496, 453, 494, 495, 452, 496, 467, 483, 484, 437, 453, 452, 437, 438, 453, 235, 233, 232, 222, 254, 253, 224, 256, 255, 225, 257, 256, 226, 258, 257, 222, 245, 246, 221, 240, 245, 223, 246, 243, 227, 241, 234, 226, 242, 241, 225, 244, 242, 224, 243, 244, 221, 248, 216, 227, 259, 258, 220, 260, 228, 228, 261, 229, 229, 262, 230, 230, 263, 231, 231, 268, 236, 228, 260, 261, 229, 261, 262, 230, 262, 263, 231, 263, 268, 233, 264, 232, 235, 265, 233, 241, 266, 234, 234, 267, 235, 232, 264, 259, 233, 265, 264, 235, 267, 265, 241, 273, 266, 234, 266, 267, 250, 269, 249, 247, 270, 250, 253, 272, 248, 248, 271, 247, 254, 277, 253, 255, 278, 254, 256, 275, 255, 251, 263, 252, 249, 268, 251, 252, 262, 260, 260, 262, 261, 252, 263, 262, 263, 251, 268, 268, 249, 269, 270, 269, 250, 271, 270, 247, 272, 271, 248, 257, 276, 256, 258, 274, 257, 259, 273, 258, 264, 266, 259, 265, 267, 264, 264, 267, 266, 278, 277, 254, 277, 272, 253, 275, 278, 255, 266, 273, 259, 273, 274, 258, 274, 276, 257, 276, 275, 256, 236, 269, 237, 237, 270, 238, 238, 271, 239, 239, 272, 240, 236, 268, 269, 237, 269, 270, 238, 270, 271, 239, 271, 272, 240, 272, 277, 242, 273, 241, 244, 274, 242, 246, 275, 243, 243, 276, 244, 245, 278, 246, 245, 240, 277, 242, 274, 273, 244, 276, 274, 243, 275, 276, 278, 245, 277, 246, 278, 275, 221, 253, 248, 232, 259, 227, 227, 258, 226, 226, 257, 225, 225, 256, 224, 224, 255, 223, 223, 254, 222, 227, 226, 241, 226, 225, 242, 225, 224, 244, 216, 239, 240, 215, 238, 239, 218, 237, 238, 217, 236, 237, 219, 231, 236, 220, 230, 231, 228, 229, 230, 228, 230, 220, 217, 219, 236, 219, 220, 231, 224, 223, 243, 223, 222, 246, 222, 221, 245, 216, 215, 239, 222, 253, 221, 220, 252, 260, 219, 251, 252, 221, 216, 240, 217, 249, 251, 218, 250, 249, 216, 248, 247, 215, 247, 250, 219, 252, 220, 215, 218, 238, 218, 217, 237, 217, 251, 219, 215, 250, 218, 218, 249, 217, 216, 247, 215, 232, 234, 235, 227, 234, 232, 223, 255, 254, 210, 208, 168, 148, 147, 188, 190, 189, 207, 192, 208, 191, 191, 210, 193, 189, 206, 207, 188, 205, 206, 201, 199, 176, 172, 195, 194, 195, 171, 196, 196, 170, 197, 198, 197, 169, 204, 198, 164, 205, 204, 162, 206, 205, 163, 199, 202, 175, 209, 207, 166, 207, 206, 165, 208, 209, 167, 203, 210, 173, 202, 203, 174, 187, 204, 205, 188, 206, 189, 187, 205, 188, 193, 210, 203, 186, 203, 202, 185, 202, 199, 182, 199, 201, 184, 201, 200, 193, 203, 186, 186, 202, 185, 185, 199, 182, 182, 201, 184, 184, 200, 183, 181, 198, 204, 180, 197, 198, 179, 196, 197, 178, 195, 196, 177, 194, 195, 181, 204, 187, 180, 198, 181, 179, 197, 180, 178, 196, 179, 177, 195, 178, 161, 182, 184, 161, 184, 183, 153, 191, 193, 159, 186, 185, 158, 193, 186, 152, 192, 191, 150, 189, 190, 151, 190, 192, 160, 185, 182, 148, 188, 189, 147, 187, 188, 149, 181, 187, 154, 180, 181, 155, 179, 180, 156, 178, 179, 157, 177, 178, 176, 199, 175, 175, 202, 174, 174, 203, 173, 173, 210, 168, 168, 208, 167, 167, 209, 166, 166, 207, 165, 171, 195, 172, 190, 209, 192, 163, 205, 162, 165, 206, 163, 162, 204, 164, 169, 197, 170, 164, 198, 169, 183, 200, 176, 161, 176, 175, 160, 175, 174, 159, 174, 173, 158, 173, 168, 183, 176, 161, 161, 175, 160, 160, 174, 159, 159, 173, 158, 158, 168, 153, 157, 172, 194, 156, 171, 172, 155, 170, 171, 149, 164, 169, 154, 169, 170, 157, 194, 177, 156, 172, 157, 155, 171, 156, 154, 170, 155, 149, 169, 154, 153, 168, 167, 192, 209, 208, 209, 190, 207, 191, 208, 210, 200, 201, 176, 149, 154, 181, 154, 155, 180, 147, 149, 187, 150, 148, 189, 152, 167, 166, 150, 165, 163, 151, 166, 165, 153, 167, 152, 152, 166, 151, 151, 165, 150, 147, 162, 164, 148, 163, 162, 147, 164, 149, 148, 162, 147, 150, 163, 148, 161, 160, 182, 160, 159, 185, 159, 158, 186, 158, 153, 193, 153, 152, 191, 152, 151, 192, 151, 150, 190, 156, 157, 178, 155, 156, 179, 170, 196, 171, 358, 356, 426, 360, 355, 359, 358, 359, 355, 426, 356, 427, 357, 427, 356, 357, 355, 360, 427, 357, 360, 355, 354, 358, 358, 354, 356, 356, 354, 357, 355, 357, 354, 69, 140, 68, 142, 141, 138, 138, 71, 142, 69, 141, 139, 140, 69, 139, 142, 71, 140, 69, 136, 141, 136, 138, 141, 71, 68, 140, 141, 142, 139, 140, 139, 142, 569, 499, 570, 570, 500, 503, 501, 499, 569, 500, 570, 499, 500, 498, 503, 501, 497, 499, 503, 498, 502, 501, 502, 498, 498, 497, 501, 499, 497, 500, 498, 500, 497, 214, 211, 283, 212, 283, 211, 283, 212, 282, 283, 282, 285, 285, 284, 281, 285, 214, 283, 212, 284, 282, 279, 281, 284, 281, 214, 285, 284, 285, 282, 212, 279, 284]
        point3f[] points = [(-366, -255, 156), (-354, -255, 156), (-366, -165, 156), (-354, -165, 156), (-361.05237, -217, 252.45934), (-360.5365, -217, 252.30284), (-361.52783, -217, 252.71346), (-360, -217, 252.25), (-359.4635, -217, 252.30284), (-358.94763, -217, 252.45934), (-358.47217, -217, 252.71346), (-361.94455, -217, 253.05545), (-362.28653, -217, 253.47218), (-362.54068, -217, 253.94762), (-362.69717, -217, 254.4635), (-358.05545, -217, 253.05545), (-357.71347, -217, 253.47218), (-357.45932, -217, 253.94762), (-357.30283, -217, 254.4635), (-361.05237, -203, 252.45934), (-360.5365, -203, 252.30284), (-361.52783, -203, 252.71346), (-360, -203, 252.25), (-359.4635, -203, 252.30284), (-358.94763, -203, 252.45934), (-358.47217, -203, 252.71346), (-361.94455, -203, 253.05545), (-362.28653, -203, 253.47218), (-362.54068, -203, 253.94762), (-362.69717, -203, 254.4635), (-358.05545, -203, 253.05545), (-357.71347, -203, 253.47218), (-357.45932, -203, 253.94762), (-357.30283, -203, 254.4635), (-362.75, -217, 255), (-362.69717, -217, 255.5365), (-362.54068, -217, 256.05237), (-362.28653, -217, 256.52783), (-361.94455, -217, 256.94455), (-357.45932, -217, 256.05237), (-357.25, -217, 255), (-357.30283, -217, 255.5365), (-357.71347, -217, 256.52783), (-358.05545, -217, 256.94455), (-361.52783, -217, 257.28653), (-361.05237, -217, 257.54068), (-360.5365, -217, 257.69717), (-360, -217, 257.75), (-358.94763, -217, 257.54068), (-359.4635, -217, 257.69717), (-358.47217, -217, 257.28653), (-362.75, -203, 255), (-362.69717, -203, 255.5365), (-362.54068, -203, 256.05237), (-362.28653, -203, 256.52783), (-361.94455, -203, 256.94455), (-357.45932, -203, 256.05237), (-357.25, -203, 255), (-357.30283, -203, 255.5365), (-357.71347, -203, 256.52783), (-358.05545, -203, 256.94455), (-361.52783, -203, 257.28653), (-361.05237, -203, 257.54068), (-360.5365, -203, 257.69717), (-360, -203, 257.75), (-358.94763, -203, 257.54068), (-359.4635, -203, 257.69717), (-358.47217, -203, 257.28653), (-360, -255, 288), (-354, -255, 288), (-366, -255, 300), (-360, -255, 300), (-361.05237, -217, 282.45932), (-360.5365, -217, 282.30283), (-361.94455, -217, 283.05545), (-361.52783, -217, 282.71347), (-362.28653, -217, 283.47217), (-362.54068, -217, 283.94763), (-360, -217, 282.25), (-359.4635, -217, 282.30283), (-358.94763, -217, 282.45932), (-358.47217, -217, 282.71347), (-358.05545, -217, 283.05545), (-357.71347, -217, 283.47217), (-357.45932, -217, 283.94763), (-362.69717, -217, 284.4635), (-362.75, -217, 285), (-362.69717, -217, 285.5365), (-362.54068, -217, 286.05237), (-357.30283, -217, 284.4635), (-357.25, -217, 285), (-357.45932, -217, 286.05237), (-357.30283, -217, 285.5365), (-362.28653, -217, 286.52783), (-361.94455, -217, 286.94455), (-361.52783, -217, 287.28653), (-361.05237, -217, 287.54068), (-360.5365, -217, 287.69717), (-357.71347, -217, 286.52783), (-358.05545, -217, 286.94455), (-358.94763, -217, 287.54068), (-358.47217, -217, 287.28653), (-360, -217, 287.75), (-359.4635, -217, 287.69717), (-361.05237, -203, 282.45932), (-360.5365, -203, 282.30283), (-361.94455, -203, 283.05545), (-361.52783, -203, 282.71347), (-362.28653, -203, 283.47217), (-362.54068, -203, 283.94763), (-360, -203, 282.25), (-359.4635, -203, 282.30283), (-358.94763, -203, 282.45932), (-358.47217, -203, 282.71347), (-358.05545, -203, 283.05545), (-357.71347, -203, 283.47217), (-357.45932, -203, 283.94763), (-362.69717, -203, 284.4635), (-362.75, -203, 285), (-362.69717, -203, 285.5365), (-362.54068, -203, 286.05237), (-357.30283, -203, 284.4635), (-357.25, -203, 285), (-357.45932, -203, 286.05237), (-357.30283, -203, 285.5365), (-362.28653, -203, 286.52783), (-361.94455, -203, 286.94455), (-361.52783, -203, 287.28653), (-361.05237, -203, 287.54068), (-360.5365, -203, 287.69717), (-357.71347, -203, 286.52783), (-358.05545, -203, 286.94455), (-358.94763, -203, 287.54068), (-358.47217, -203, 287.28653), (-360, -203, 287.75), (-359.4635, -203, 287.69717), (-354, -165, 288), (-366, -165, 300), (-360, -165, 300), (-270, -255, 288), (-270, -255, 300), (-270, -165, 288), (-270, -165, 300), (-366, 165, 156), (-354, 165, 156), (-366, 255, 156), (-354, 255, 156), (-361.05237, 203, 252.45934), (-360.5365, 203, 252.30284), (-361.52783, 203, 252.71346), (-360, 203, 252.25), (-359.4635, 203, 252.30284), (-358.94763, 203, 252.45934), (-358.47217, 203, 252.71346), (-361.94455, 203, 253.05545), (-362.28653, 203, 253.47218), (-362.54068, 203, 253.94762), (-362.69717, 203, 254.4635), (-358.05545, 203, 253.05545), (-357.71347, 203, 253.47218), (-357.45932, 203, 253.94762), (-357.30283, 203, 254.4635), (-361.05237, 217, 252.45934), (-360.5365, 217, 252.30284), (-361.52783, 217, 252.71346), (-360, 217, 252.25), (-359.4635, 217, 252.30284), (-358.94763, 217, 252.45934), (-358.47217, 217, 252.71346), (-361.94455, 217, 253.05545), (-362.28653, 217, 253.47218), (-362.54068, 217, 253.94762), (-362.69717, 217, 254.4635), (-358.05545, 217, 253.05545), (-357.71347, 217, 253.47218), (-357.45932, 217, 253.94762), (-357.30283, 217, 254.4635), (-362.75, 203, 255), (-362.69717, 203, 255.5365), (-362.54068, 203, 256.05237), (-362.28653, 203, 256.52783), (-361.94455, 203, 256.94455), (-357.45932, 203, 256.05237), (-357.25, 203, 255), (-357.30283, 203, 255.5365), (-357.71347, 203, 256.52783), (-358.05545, 203, 256.94455), (-361.52783, 203, 257.28653), (-361.05237, 203, 257.54068), (-360.5365, 203, 257.69717), (-360, 203, 257.75), (-358.94763, 203, 257.54068), (-359.4635, 203, 257.69717), (-358.47217, 203, 257.28653), (-362.75, 217, 255), (-362.69717, 217, 255.5365), (-362.54068, 217, 256.05237), (-362.28653, 217, 256.52783), (-361.94455, 217, 256.94455), (-357.45932, 217, 256.05237), (-357.25, 217, 255), (-357.30283, 217, 255.5365), (-357.71347, 217, 256.52783), (-358.05545, 217, 256.94455), (-361.52783, 217, 257.28653), (-361.05237, 217, 257.54068), (-360.5365, 217, 257.69717), (-360, 217, 257.75), (-358.94763, 217, 257.54068), (-359.4635, 217, 257.69717), (-358.47217, 217, 257.28653), (-360, 165, 288), (-354, 165, 288), (-366, 165, 300), (-360, 165, 300), (-361.05237, 203, 282.45932), (-360.5365, 203, 282.30283), (-361.94455, 203, 283.05545), (-361.52783, 203, 282.71347), (-362.28653, 203, 283.47217), (-362.54068, 203, 283.94763), (-360, 203, 282.25), (-359.4635, 203, 282.30283), (-358.94763, 203, 282.45932), (-358.47217, 203, 282.71347), (-358.05545, 203, 283.05545), (-357.71347, 203, 283.47217), (-357.45932, 203, 283.94763), (-362.69717, 203, 284.4635), (-362.75, 203, 285), (-362.69717, 203, 285.5365), (-362.54068, 203, 286.05237), (-357.30283, 203, 284.4635), (-357.25, 203, 285), (-357.45932, 203, 286.05237), (-357.30283, 203, 285.5365), (-362.28653, 203, 286.52783), (-361.94455, 203, 286.94455), (-361.52783, 203, 287.28653), (-361.05237, 203, 287.54068), (-360.5365, 203, 287.69717), (-357.71347, 203, 286.52783), (-358.05545, 203, 286.94455), (-358.94763, 203, 287.54068), (-358.47217, 203, 287.28653), (-360, 203, 287.75), (-359.4635, 203, 287.69717), (-361.05237, 217, 282.45932), (-360.5365, 217, 282.30283), (-361.94455, 217, 283.05545), (-361.52783, 217, 282.71347), (-362.28653, 217, 283.47217), (-362.54068, 217, 283.94763), (-360, 217, 282.25), (-359.4635, 217, 282.30283), (-358.94763, 217, 282.45932), (-358.47217, 217, 282.71347), (-358.05545, 217, 283.05545), (-357.71347, 217, 283.47217), (-357.45932, 217, 283.94763), (-362.69717, 217, 284.4635), (-362.75, 217, 285), (-362.69717, 217, 285.5365), (-362.54068, 217, 286.05237), (-357.30283, 217, 284.4635), (-357.25, 217, 285), (-357.45932, 217, 286.05237), (-357.30283, 217, 285.5365), (-362.28653, 217, 286.52783), (-361.94455, 217, 286.94455), (-361.52783, 217, 287.28653), (-361.05237, 217, 287.54068), (-360.5365, 217, 287.69717), (-357.71347, 217, 286.52783), (-358.05545, 217, 286.94455), (-358.94763, 217, 287.54068), (-358.47217, 217, 287.28653), (-360, 217, 287.75), (-359.4635, 217, 287.69717), (-354, 255, 288), (-366, 255, 300), (-360, 255, 300), (-270, 165, 288), (-270, 165, 300), (-270, 255, 288), (-270, 255, 300), (354, -255, 156), (366, -255, 156), (354, -165, 156), (366, -165, 156), (358.47217, -217, 252.71346), (359.4635, -217, 252.30284), (358.94763, -217, 252.45934), (360, -217, 252.25), (360.5365, -217, 252.30284), (361.05237, -217, 252.45934), (361.52783, -217, 252.71346), (358.05545, -217, 253.05545), (357.71347, -217, 253.47218), (357.30283, -217, 254.4635), (357.45932, -217, 253.94762), (361.94455, -217, 253.05545), (362.28653, -217, 253.47218), (362.54068, -217, 253.94762), (362.69717, -217, 254.4635), (358.47217, -203, 252.71346), (359.4635, -203, 252.30284), (358.94763, -203, 252.45934), (360, -203, 252.25), (360.5365, -203, 252.30284), (361.05237, -203, 252.45934), (361.52783, -203, 252.71346), (358.05545, -203, 253.05545), (357.71347, -203, 253.47218), (357.30283, -203, 254.4635), (357.45932, -203, 253.94762), (361.94455, -203, 253.05545), (362.28653, -203, 253.47218), (362.54068, -203, 253.94762), (362.69717, -203, 254.4635), (357.25, -217, 255), (357.30283, -217, 255.5365), (357.45932, -217, 256.05237), (357.71347, -217, 256.52783), (358.05545, -217, 256.94455), (362.75, -217, 255), (362.69717, -217, 255.5365), (362.54068, -217, 256.05237), (362.28653, -217, 256.52783), (361.94455, -217, 256.94455), (358.47217, -217, 257.28653), (358.94763, -217, 257.54068), (359.4635, -217, 257.69717), (360, -217, 257.75), (361.52783, -217, 257.28653), (360.5365, -217, 257.69717), (361.05237, -217, 257.54068), (357.25, -203, 255), (357.30283, -203, 255.5365), (357.45932, -203, 256.05237), (357.71347, -203, 256.52783), (358.05545, -203, 256.94455), (362.75, -203, 255), (362.69717, -203, 255.5365), (362.54068, -203, 256.05237), (362.28653, -203, 256.52783), (361.94455, -203, 256.94455), (358.47217, -203, 257.28653), (358.94763, -203, 257.54068), (359.4635, -203, 257.69717), (360, -203, 257.75), (361.52783, -203, 257.28653), (360.5365, -203, 257.69717), (361.05237, -203, 257.54068), (270, -255, 288), (270, -255, 300), (270, -165, 288), (270, -165, 300), (354, -255, 288), (360, -255, 288), (360, -255, 300), (366, -255, 300), (360, -217, 282.25), (359.4635, -217, 282.30283), (358.94763, -217, 282.45932), (358.47217, -217, 282.71347), (358.05545, -217, 283.05545), (357.71347, -217, 283.47217), (357.45932, -217, 283.94763), (360.5365, -217, 282.30283), (361.05237, -217, 282.45932), (361.52783, -217, 282.71347), (361.94455, -217, 283.05545), (362.28653, -217, 283.47217), (362.54068, -217, 283.94763), (357.30283, -217, 284.4635), (357.25, -217, 285), (357.30283, -217, 285.5365), (357.45932, -217, 286.05237), (362.69717, -217, 284.4635), (362.75, -217, 285), (362.69717, -217, 285.5365), (362.54068, -217, 286.05237), (357.71347, -217, 286.52783), (358.05545, -217, 286.94455), (358.47217, -217, 287.28653), (358.94763, -217, 287.54068), (359.4635, -217, 287.69717), (360, -217, 287.75), (362.28653, -217, 286.52783), (361.94455, -217, 286.94455), (361.52783, -217, 287.28653), (361.05237, -217, 287.54068), (360.5365, -217, 287.69717), (360, -203, 282.25), (359.4635, -203, 282.30283), (358.94763, -203, 282.45932), (358.47217, -203, 282.71347), (358.05545, -203, 283.05545), (357.71347, -203, 283.47217), (357.45932, -203, 283.94763), (360.5365, -203, 282.30283), (361.05237, -203, 282.45932), (361.52783, -203, 282.71347), (361.94455, -203, 283.05545), (362.28653, -203, 283.47217), (362.54068, -203, 283.94763), (357.30283, -203, 284.4635), (357.25, -203, 285), (357.30283, -203, 285.5365), (357.45932, -203, 286.05237), (362.69717, -203, 284.4635), (362.75, -203, 285), (362.69717, -203, 285.5365), (362.54068, -203, 286.05237), (357.71347, -203, 286.52783), (358.05545, -203, 286.94455), (358.47217, -203, 287.28653), (358.94763, -203, 287.54068), (359.4635, -203, 287.69717), (360, -203, 287.75), (362.28653, -203, 286.52783), (361.94455, -203, 286.94455), (361.52783, -203, 287.28653), (361.05237, -203, 287.54068), (360.5365, -203, 287.69717), (354, -165, 288), (360, -165, 300), (366, -165, 300), (354, 165, 156), (366, 165, 156), (354, 255, 156), (366, 255, 156), (358.47217, 203, 252.71346), (359.4635, 203, 252.30284), (358.94763, 203, 252.45934), (360, 203, 252.25), (360.5365, 203, 252.30284), (361.05237, 203, 252.45934), (361.52783, 203, 252.71346), (358.05545, 203, 253.05545), (357.71347, 203, 253.47218), (357.30283, 203, 254.4635), (357.45932, 203, 253.94762), (361.94455, 203, 253.05545), (362.28653, 203, 253.47218), (362.54068, 203, 253.94762), (362.69717, 203, 254.4635), (358.47217, 217, 252.71346), (359.4635, 217, 252.30284), (358.94763, 217, 252.45934), (360, 217, 252.25), (360.5365, 217, 252.30284), (361.05237, 217, 252.45934), (361.52783, 217, 252.71346), (358.05545, 217, 253.05545), (357.71347, 217, 253.47218), (357.30283, 217, 254.4635), (357.45932, 217, 253.94762), (361.94455, 217, 253.05545), (362.28653, 217, 253.47218), (362.54068, 217, 253.94762), (362.69717, 217, 254.4635), (357.25, 203, 255), (357.30283, 203, 255.5365), (357.45932, 203, 256.05237), (357.71347, 203, 256.52783), (358.05545, 203, 256.94455), (362.75, 203, 255), (362.69717, 203, 255.5365), (362.54068, 203, 256.05237), (362.28653, 203, 256.52783), (361.94455, 203, 256.94455), (358.47217, 203, 257.28653), (358.94763, 203, 257.54068), (359.4635, 203, 257.69717), (360, 203, 257.75), (361.52783, 203, 257.28653), (360.5365, 203, 257.69717), (361.05237, 203, 257.54068), (357.25, 217, 255), (357.30283, 217, 255.5365), (357.45932, 217, 256.05237), (357.71347, 217, 256.52783), (358.05545, 217, 256.94455), (362.75, 217, 255), (362.69717, 217, 255.5365), (362.54068, 217, 256.05237), (362.28653, 217, 256.52783), (361.94455, 217, 256.94455), (358.47217, 217, 257.28653), (358.94763, 217, 257.54068), (359.4635, 217, 257.69717), (360, 217, 257.75), (361.52783, 217, 257.28653), (360.5365, 217, 257.69717), (361.05237, 217, 257.54068), (270, 165, 288), (270, 165, 300), (270, 255, 288), (270, 255, 300), (354, 165, 288), (360, 165, 288), (360, 165, 300), (366, 165, 300), (360, 203, 282.25), (359.4635, 203, 282.30283), (358.94763, 203, 282.45932), (358.47217, 203, 282.71347), (358.05545, 203, 283.05545), (357.71347, 203, 283.47217), (357.45932, 203, 283.94763), (360.5365, 203, 282.30283), (361.05237, 203, 282.45932), (361.52783, 203, 282.71347), (361.94455, 203, 283.05545), (362.28653, 203, 283.47217), (362.54068, 203, 283.94763), (357.30283, 203, 284.4635), (357.25, 203, 285), (357.30283, 203, 285.5365), (357.45932, 203, 286.05237), (362.69717, 203, 284.4635), (362.75, 203, 285), (362.69717, 203, 285.5365), (362.54068, 203, 286.05237), (357.71347, 203, 286.52783), (358.05545, 203, 286.94455), (358.47217, 203, 287.28653), (358.94763, 203, 287.54068), (359.4635, 203, 287.69717), (360, 203, 287.75), (362.28653, 203, 286.52783), (361.94455, 203, 286.94455), (361.52783, 203, 287.28653), (361.05237, 203, 287.54068), (360.5365, 203, 287.69717), (360, 217, 282.25), (359.4635, 217, 282.30283), (358.94763, 217, 282.45932), (358.47217, 217, 282.71347), (358.05545, 217, 283.05545), (357.71347, 217, 283.47217), (357.45932, 217, 283.94763), (360.5365, 217, 282.30283), (361.05237, 217, 282.45932), (361.52783, 217, 282.71347), (361.94455, 217, 283.05545), (362.28653, 217, 283.47217), (362.54068, 217, 283.94763), (357.30283, 217, 284.4635), (357.25, 217, 285), (357.30283, 217, 285.5365), (357.45932, 217, 286.05237), (362.69717, 217, 284.4635), (362.75, 217, 285), (362.69717, 217, 285.5365), (362.54068, 217, 286.05237), (357.71347, 217, 286.52783), (358.05545, 217, 286.94455), (358.47217, 217, 287.28653), (358.94763, 217, 287.54068), (359.4635, 217, 287.69717), (360, 217, 287.75), (362.28653, 217, 286.52783), (361.94455, 217, 286.94455), (361.52783, 217, 287.28653), (361.05237, 217, 287.54068), (360.5365, 217, 287.69717), (354, 255, 288), (360, 255, 300), (366, 255, 300)]

        rel material:binding = </arm_union_diff_union_union_union/Material>
    }

    def Scope "Material"
    {
        def Material "PBR"
        {
            token outputs:surface.connect = <PBR/Shader.outputs:surface>

            def Shader "Shader"
            {
                uniform token info:id = "UsdPreviewSurface"
                color3f inputs:diffuseColor = (0.12, 0.12, 0.14)
                float inputs:metallic = 0.7
                float inputs:roughness = 0.4
                token outputs:surface
            }
        }
    }

    def PhysicsCollisionAPI "collision"
    {
        rel physics:collisionGroup = </CollisionGroup>
    }
}
