#usda 1.0
(
    defaultPrim = "body_union"
    upAxis = "Y"
    metersPerUnit = 0.001
)

def Xform "body_union" (
    prepend apiSchemas = ["PhysicsRigidBodyAPI", "PhysicsMassAPI"]
)
{
    float physics:mass = 0.27885

    def Mesh "body_union_mesh"
    {
        float3[] extent = [(-32.5, -32.5, 0), (32.5, 32.5, 60)]
        int[] faceVertexCounts = [3, 3, 3, 3, 3, 3, 3, 3, 3, 3, 3, 3, 3, 3, 3, 3, 3, 3, 3, 3, 3, 3, 3, 3, 3, 3, 3, 3, 3, 3, 3, 3, 3, 3, 3, 3, 3, 3, 3, 3, 3, 3, 3, 3, 3, 3, 3, 3, 3, 3, 3, 3, 3, 3, 3, 3, 3, 3, 3, 3, 3, 3, 3, 3, 3, 3, 3, 3, 3, 3, 3, 3, 3, 3, 3, 3, 3, 3, 3, 3, 3, 3, 3, 3, 3, 3, 3, 3, 3, 3, 3, 3, 3, 3, 3, 3, 3, 3, 3, 3, 3, 3, 3, 3, 3, 3, 3, 3, 3, 3, 3, 3, 3, 3, 3, 3, 3, 3, 3, 3, 3, 3, 3, 3, 3, 3, 3, 3, 3, 3, 3, 3, 3, 3, 3, 3, 3, 3, 3, 3, 3, 3, 3, 3, 3, 3, 3, 3, 3, 3, 3, 3, 3, 3, 3, 3, 3, 3, 3, 3, 3, 3, 3, 3, 3, 3, 3, 3, 3, 3, 3, 3, 3, 3, 3, 3, 3, 3, 3, 3, 3, 3, 3, 3, 3, 3, 3, 3, 3, 3, 3, 3, 3, 3, 3, 3, 3, 3, 3, 3, 3, 3, 3, 3]
        int[] faceVertexIndices = [50, 76, 65, 0, 50, 1, 65, 1, 50, 77, 98, 103, 3, 4, 1, 4, 2, 1, 14, 12, 1, 13, 14, 1, 1, 37, 0, 2, 8, 1, 8, 9, 1, 9, 25, 1, 25, 26, 1, 18, 13, 1, 18, 1, 65, 24, 0, 37, 26, 37, 1, 26, 27, 37, 27, 31, 37, 31, 32, 37, 32, 33, 37, 33, 38, 37, 37, 38, 40, 37, 40, 41, 37, 41, 42, 37, 103, 24, 37, 42, 46, 47, 37, 46, 47, 79, 37, 79, 80, 37, 80, 81, 37, 50, 0, 24, 22, 3, 1, 19, 18, 65, 51, 19, 65, 52, 51, 65, 52, 65, 53, 87, 77, 103, 12, 22, 1, 98, 97, 103, 65, 57, 53, 65, 58, 57, 65, 59, 58, 65, 63, 59, 66, 63, 65, 97, 99, 103, 85, 87, 103, 86, 85, 103, 99, 93, 103, 93, 91, 103, 91, 92, 103, 92, 73, 103, 103, 65, 76, 81, 86, 103, 81, 103, 37, 76, 24, 103, 50, 24, 76, 73, 65, 103, 73, 72, 65, 72, 68, 65, 68, 67, 65, 67, 66, 65, 38, 43, 40, 46, 49, 47, 13, 17, 14, 23, 12, 15, 17, 13, 16, 15, 14, 17, 18, 16, 13, 19, 20, 18, 21, 19, 51, 16, 18, 20, 20, 19, 21, 21, 51, 54, 23, 15, 43, 15, 17, 44, 17, 16, 45, 16, 20, 48, 20, 21, 49, 21, 54, 82, 25, 29, 26, 26, 30, 27, 27, 34, 31, 29, 25, 28, 30, 26, 29, 28, 11, 29, 30, 29, 11, 30, 10, 34, 34, 5, 35, 34, 27, 30, 35, 7, 36, 36, 6, 39, 31, 35, 32, 32, 36, 33, 33, 39, 38, 35, 31, 34, 36, 32, 35, 39, 33, 36, 39, 23, 43, 43, 15, 44, 44, 17, 45, 45, 16, 48, 48, 20, 49, 49, 21, 82, 12, 23, 22, 40, 44, 41, 41, 45, 42, 43, 38, 39, 44, 40, 43, 45, 41, 44, 48, 42, 45, 49, 46, 48, 82, 47, 49, 54, 51, 52, 53, 55, 52, 57, 56, 53, 54, 52, 55, 55, 53, 56, 56, 57, 60, 58, 60, 57, 59, 61, 58, 63, 62, 59, 60, 58, 61, 61, 59, 62, 62, 63, 64, 54, 55, 83, 55, 56, 84, 56, 60, 89, 60, 61, 88, 61, 62, 90, 62, 64, 78, 7, 6, 36, 5, 7, 35, 14, 15, 12, 67, 69, 66, 68, 70, 67, 64, 66, 69, 69, 67, 70, 70, 68, 71, 72, 71, 68, 73, 74, 72, 75, 73, 92, 64, 69, 101, 69, 70, 100, 71, 72, 74, 74, 73, 75, 75, 92, 95, 70, 71, 102, 71, 74, 96, 74, 75, 94, 6, 23, 39, 10, 5, 34, 11, 10, 30, 28, 9, 11, 11, 8, 10, 82, 54, 83, 83, 55, 84, 84, 56, 89, 89, 60, 88, 88, 61, 90, 90, 62, 78, 79, 83, 80, 80, 84, 81, 81, 89, 86, 83, 79, 82, 84, 80, 83, 89, 81, 84, 10, 2, 5, 86, 88, 85, 85, 90, 87, 87, 78, 77, 90, 85, 88, 88, 86, 89, 78, 87, 90, 8, 11, 9, 9, 28, 25, 93, 94, 91, 95, 92, 91, 99, 96, 93, 101, 69, 100, 100, 70, 102, 78, 64, 101, 95, 91, 94, 102, 71, 96, 96, 74, 94, 94, 75, 95, 94, 93, 96, 96, 99, 102, 98, 100, 97, 77, 101, 98, 97, 102, 99, 102, 97, 100, 101, 77, 78, 100, 98, 101, 2, 10, 8, 5, 4, 7, 6, 22, 23, 7, 3, 6, 3, 7, 4, 22, 6, 3, 4, 5, 2, 47, 82, 79, 42, 48, 46, 66, 64, 63]
        point3f[] points = [(-32.5, -32.5, 0), (-32.5, -32.5, 48), (-20.787289, -8.610377, 48), (-17.85045, -13.697132, 48), (-19.48557, -11.25, 48), (-20.787289, -8.610377, 60), (-17.85045, -13.697132, 60), (-19.48557, -11.25, 60), (-21.733332, -5.8234286, 48), (-22.307508, -2.9368393, 48), (-21.733332, -5.8234286, 60), (-22.307508, -2.9368393, 60), (-13.697132, -17.85045, 48), (-8.610377, -20.787289, 48), (-11.25, -19.48557, 48), (-13.697132, -17.85045, 60), (-8.610377, -20.787289, 60), (-11.25, -19.48557, 60), (-5.8234286, -21.733332, 48), (-2.9368393, -22.307508, 48), (-5.8234286, -21.733332, 60), (-2.9368393, -22.307508, 60), (-15.909903, -15.909903, 48), (-15.909903, -15.909903, 60), (-32.5, 32.5, 0), (-22.5, 0, 48), (-22.307508, 2.9368393, 48), (-21.733332, 5.8234286, 48), (-22.5, 0, 60), (-22.307508, 2.9368393, 60), (-21.733332, 5.8234286, 60), (-20.787289, 8.610377, 48), (-19.48557, 11.25, 48), (-17.85045, 13.697132, 48), (-20.787289, 8.610377, 60), (-19.48557, 11.25, 60), (-17.85045, 13.697132, 60), (-32.5, 32.5, 48), (-15.909903, 15.909903, 48), (-15.909903, 15.909903, 60), (-13.697132, 17.85045, 48), (-11.25, 19.48557, 48), (-8.610377, 20.787289, 48), (-13.697132, 17.85045, 60), (-11.25, 19.48557, 60), (-8.610377, 20.787289, 60), (-5.8234286, 21.733332, 48), (-2.9368393, 22.307508, 48), (-5.8234286, 21.733332, 60), (-2.9368393, 22.307508, 60), (32.5, -32.5, 0), (0, -22.5, 48), (2.9368393, -22.307508, 48), (5.8234286, -21.733332, 48), (0, -22.5, 60), (2.9368393, -22.307508, 60), (5.8234286, -21.733332, 60), (8.610377, -20.787289, 48), (11.25, -19.48557, 48), (13.697132, -17.85045, 48), (8.610377, -20.787289, 60), (11.25, -19.48557, 60), (13.697132, -17.85045, 60), (15.909903, -15.909903, 48), (15.909903, -15.909903, 60), (32.5, -32.5, 48), (17.85045, -13.697132, 48), (19.48557, -11.25, 48), (20.787289, -8.610377, 48), (17.85045, -13.697132, 60), (19.48557, -11.25, 60), (20.787289, -8.610377, 60), (21.733332, -5.8234286, 48), (22.307508, -2.9368393, 48), (21.733332, -5.8234286, 60), (22.307508, -2.9368393, 60), (32.5, 32.5, 0), (15.909903, 15.909903, 48), (15.909903, 15.909903, 60), (0, 22.5, 48), (2.9368393, 22.307508, 48), (5.8234286, 21.733332, 48), (0, 22.5, 60), (2.9368393, 22.307508, 60), (5.8234286, 21.733332, 60), (11.25, 19.48557, 48), (8.610377, 20.787289, 48), (13.697132, 17.85045, 48), (11.25, 19.48557, 60), (8.610377, 20.787289, 60), (13.697132, 17.85045, 60), (22.307508, 2.9368393, 48), (22.5, 0, 48), (21.733332, 5.8234286, 48), (22.307508, 2.9368393, 60), (22.5, 0, 60), (21.733332, 5.8234286, 60), (19.48557, 11.25, 48), (17.85045, 13.697132, 48), (20.787289, 8.610377, 48), (19.48557, 11.25, 60), (17.85045, 13.697132, 60), (20.787289, 8.610377, 60), (32.5, 32.5, 48)]

        rel material:binding = </body_union/Material>
    }

    def Scope "Material"
    {
        def Material "PBR"
        {
            token outputs:surface.connect = <PBR/Shader.outputs:surface>

            def Shader "Shader"
            {
                uniform token info:id = "UsdPreviewSurface"
                color3f inputs:diffuseColor = (0.2, 0.2, 0.22)
                float inputs:metallic = 0
                float inputs:roughness = 0.5
                token outputs:surface
            }
        }
    }

    def PhysicsCollisionAPI "collision"
    {
        rel physics:collisionGroup = </CollisionGroup>
    }
}
