#usda 1.0
(
    defaultPrim = "puck_union_union"
    upAxis = "Y"
    metersPerUnit = 0.001
)

def Xform "puck_union_union" (
    prepend apiSchemas = ["PhysicsRigidBodyAPI", "PhysicsMassAPI"]
)
{
    float physics:mass = 0.297369625

    def Mesh "puck_union_union_mesh"
    {
        float3[] extent = [(-44, -44, -15), (44, 44, 23.4)]
        int[] faceVertexCounts = [3, 3, 3, 3, 3, 3, 3, 3, 3, 3, 3, 3, 3, 3, 3, 3, 3, 3, 3, 3, 3, 3, 3, 3, 3, 3, 3, 3, 3, 3, 3, 3, 3, 3, 3, 3, 3, 3, 3, 3, 3, 3, 3, 3, 3, 3, 3, 3, 3, 3, 3, 3, 3, 3, 3, 3, 3, 3, 3, 3, 3, 3, 3, 3, 3, 3, 3, 3, 3, 3, 3, 3, 3, 3, 3, 3, 3, 3, 3, 3, 3, 3, 3, 3, 3, 3, 3, 3, 3, 3, 3, 3, 3, 3, 3, 3, 3, 3, 3, 3, 3, 3, 3, 3, 3, 3, 3, 3, 3, 3, 3, 3, 3, 3, 3, 3, 3, 3, 3, 3, 3, 3, 3, 3, 3, 3, 3, 3, 3, 3, 3, 3, 3, 3, 3, 3, 3, 3, 3, 3, 3, 3, 3, 3, 3, 3, 3, 3, 3, 3, 3, 3, 3, 3, 3, 3, 3, 3, 3, 3, 3, 3, 3, 3, 3, 3, 3, 3, 3, 3, 3, 3, 3, 3, 3, 3, 3, 3, 3, 3, 3, 3, 3, 3, 3, 3, 3, 3, 3, 3, 3, 3, 3, 3, 3, 3, 3, 3, 3, 3, 3, 3, 3, 3, 3, 3, 3, 3, 3, 3, 3, 3, 3, 3, 3, 3, 3, 3, 3, 3, 3, 3, 3, 3, 3, 3, 3, 3, 3, 3, 3, 3, 3, 3, 3, 3, 3, 3, 3, 3, 3, 3, 3, 3, 3, 3, 3, 3, 3, 3, 3, 3, 3, 3, 3, 3, 3, 3, 3, 3, 3, 3, 3, 3, 3, 3, 3, 3, 3, 3, 3, 3, 3, 3, 3, 3, 3, 3, 3, 3, 3, 3, 3, 3, 3, 3, 3, 3, 3, 3, 3, 3, 3, 3, 3, 3, 3, 3, 3, 3, 3, 3, 3, 3, 3, 3, 3, 3, 3, 3, 3, 3, 3, 3, 3, 3, 3, 3, 3, 3, 3, 3, 3, 3, 3, 3, 3, 3, 3, 3, 3, 3, 3, 3, 3, 3, 3, 3, 3, 3, 3, 3, 3, 3, 3, 3, 3, 3, 3, 3, 3, 3, 3, 3, 3, 3, 3, 3, 3, 3, 3, 3, 3, 3, 3, 3, 3, 3, 3, 3, 3, 3, 3, 3, 3, 3, 3, 3, 3, 3, 3, 3, 3, 3, 3, 3, 3, 3, 3, 3, 3, 3, 3, 3, 3, 3, 3, 3, 3, 3, 3, 3, 3, 3, 3, 3, 3, 3, 3, 3, 3, 3, 3, 3, 3, 3, 3, 3, 3, 3, 3, 3, 3, 3, 3, 3, 3, 3, 3, 3, 3, 3, 3, 3, 3, 3, 3, 3, 3, 3, 3, 3, 3, 3, 3, 3, 3, 3, 3, 3, 3, 3, 3, 3, 3, 3, 3, 3, 3, 3, 3, 3, 3, 3, 3, 3, 3, 3, 3, 3, 3, 3, 3, 3, 3, 3, 3, 3, 3, 3, 3, 3, 3, 3, 3, 3, 3, 3, 3, 3, 3, 3, 3, 3, 3, 3, 3, 3, 3, 3, 3, 3, 3, 3, 3, 3, 3, 3, 3, 3, 3, 3, 3, 3, 3, 3, 3, 3, 3, 3, 3, 3, 3, 3, 3, 3, 3, 3, 3, 3, 3, 3, 3, 3, 3, 3, 3, 3, 3, 3, 3, 3, 3, 3, 3, 3, 3, 3, 3, 3, 3, 3, 3, 3, 3, 3, 3, 3, 3, 3, 3, 3, 3, 3, 3, 3, 3, 3, 3, 3, 3, 3]
        int[] faceVertexIndices = [139, 138, 155, 3, 70, 5, 155, 138, 154, 4, 6, 68, 156, 139, 155, 8, 1, 98, 156, 157, 139, 1, 2, 73, 140, 139, 159, 154, 138, 10, 248, 247, 287, 10, 25, 26, 287, 247, 286, 154, 10, 27, 73, 72, 109, 237, 223, 231, 98, 73, 134, 106, 69, 105, 238, 226, 227, 45, 46, 40, 69, 4, 68, 276, 236, 275, 287, 206, 282, 282, 248, 287, 10, 32, 25, 134, 73, 109, 33, 2, 35, 73, 2, 72, 2, 0, 72, 42, 10, 43, 160, 140, 159, 6, 102, 66, 177, 166, 202, 102, 6, 39, 176, 195, 194, 37, 36, 105, 172, 173, 208, 110, 40, 48, 6, 66, 67, 40, 42, 64, 136, 114, 115, 3, 5, 36, 86, 7, 100, 137, 125, 126, 254, 276, 253, 249, 277, 256, 37, 3, 36, 247, 168, 244, 278, 265, 264, 140, 163, 164, 169, 170, 205, 172, 241, 173, 286, 205, 287, 195, 176, 177, 196, 195, 177, 100, 101, 93, 101, 236, 97, 104, 67, 103, 176, 141, 177, 203, 168, 204, 109, 34, 134, 206, 207, 282, 140, 141, 176, 64, 42, 54, 170, 169, 248, 68, 6, 67, 229, 237, 230, 110, 111, 135, 71, 5, 70, 72, 0, 71, 240, 173, 241, 98, 1, 73, 92, 100, 93, 99, 8, 98, 137, 100, 136, 87, 100, 88, 251, 275, 128, 100, 90, 89, 7, 8, 99, 92, 91, 100, 239, 238, 278, 38, 0, 33, 241, 172, 242, 266, 265, 278, 223, 237, 238, 285, 245, 284, 229, 228, 237, 286, 244, 283, 166, 141, 245, 277, 276, 254, 169, 168, 247, 281, 208, 280, 175, 140, 176, 39, 4, 37, 175, 181, 180, 283, 204, 286, 285, 203, 283, 243, 248, 282, 281, 243, 282, 176, 192, 190, 96, 101, 97, 58, 57, 43, 68, 67, 104, 241, 242, 280, 46, 47, 40, 171, 172, 207, 166, 167, 202, 105, 36, 106, 170, 171, 206, 174, 180, 179, 202, 203, 285, 72, 71, 108, 238, 227, 224, 1, 8, 34, 38, 33, 107, 174, 139, 175, 55, 54, 42, 232, 239, 140, 9, 30, 29, 234, 235, 239, 207, 172, 208, 43, 138, 174, 0, 2, 33, 70, 3, 69, 136, 112, 113, 107, 33, 108, 35, 34, 109, 268, 267, 278, 237, 231, 230, 205, 206, 287, 136, 122, 124, 242, 171, 243, 238, 237, 277, 278, 238, 277, 108, 71, 107, 91, 90, 100, 99, 98, 135, 101, 100, 137, 87, 86, 100, 112, 136, 135, 40, 9, 42, 137, 126, 127, 255, 256, 277, 3, 4, 69, 24, 23, 7, 32, 10, 9, 252, 275, 251, 284, 239, 278, 109, 72, 108, 245, 239, 284, 207, 208, 281, 277, 237, 276, 71, 70, 107, 243, 170, 248, 237, 236, 276, 248, 169, 247, 247, 244, 286, 235, 238, 239, 268, 278, 249, 158, 139, 157, 173, 240, 209, 161, 162, 140, 246, 245, 285, 238, 235, 225, 44, 45, 40, 165, 232, 140, 244, 246, 283, 232, 233, 239, 41, 40, 135, 167, 166, 246, 282, 207, 281, 170, 243, 171, 44, 40, 64, 139, 140, 175, 280, 209, 279, 141, 166, 177, 34, 8, 41, 178, 174, 179, 263, 177, 278, 175, 182, 181, 105, 68, 104, 56, 43, 57, 70, 69, 106, 69, 68, 105, 176, 190, 183, 35, 1, 34, 176, 194, 193, 97, 236, 228, 280, 242, 281, 58, 174, 178, 242, 243, 281, 176, 193, 192, 9, 31, 32, 263, 196, 177, 67, 66, 103, 177, 202, 284, 278, 277, 249, 96, 95, 101, 36, 38, 106, 279, 240, 241, 22, 9, 7, 102, 39, 103, 104, 103, 39, 202, 167, 203, 183, 175, 176, 204, 169, 205, 284, 202, 285, 206, 171, 207, 279, 241, 280, 208, 173, 209, 107, 70, 106, 204, 205, 286, 180, 174, 175, 208, 209, 280, 55, 42, 56, 86, 24, 7, 165, 140, 164, 110, 135, 40, 168, 169, 204, 1, 35, 2, 171, 242, 172, 104, 37, 105, 167, 168, 203, 174, 138, 139, 42, 43, 56, 34, 41, 134, 58, 43, 174, 168, 167, 244, 141, 140, 239, 103, 66, 102, 108, 35, 109, 233, 234, 239, 252, 253, 276, 33, 35, 108, 140, 162, 163, 134, 41, 135, 6, 4, 39, 111, 112, 135, 245, 141, 239, 136, 113, 114, 244, 167, 246, 136, 115, 122, 160, 161, 140, 263, 278, 264, 267, 266, 278, 158, 159, 139, 228, 236, 237, 283, 246, 285, 10, 26, 27, 7, 41, 8, 278, 177, 284, 246, 166, 245, 40, 47, 48, 94, 101, 95, 205, 170, 206, 94, 93, 101, 36, 5, 38, 7, 9, 40, 238, 224, 223, 10, 138, 43, 9, 22, 30, 203, 204, 283, 9, 10, 42, 100, 99, 136, 136, 99, 135, 41, 7, 40, 236, 101, 275, 9, 28, 31, 275, 101, 137, 0, 38, 5, 137, 124, 125, 23, 22, 7, 124, 137, 136, 252, 276, 275, 275, 127, 128, 100, 89, 88, 127, 275, 137, 255, 277, 254, 0, 5, 71, 39, 37, 104, 175, 183, 182, 106, 38, 107, 209, 240, 279, 238, 225, 226, 9, 29, 28, 4, 3, 37, 100, 7, 99, 135, 98, 134, 65, 59, 129, 257, 128, 133, 49, 65, 123, 133, 127, 132, 132, 126, 131, 49, 64, 65, 128, 257, 251, 127, 133, 128, 54, 65, 64, 126, 132, 127, 131, 125, 130, 63, 178, 184, 130, 124, 129, 125, 131, 126, 62, 58, 63, 124, 130, 125, 61, 57, 62, 122, 129, 124, 133, 63, 257, 63, 58, 178, 132, 62, 133, 131, 61, 132, 62, 57, 58, 129, 122, 123, 115, 123, 122, 61, 56, 57, 130, 60, 131, 129, 59, 130, 60, 56, 61, 123, 65, 129, 59, 55, 60, 65, 54, 59, 60, 55, 56, 59, 54, 55, 123, 115, 121, 121, 114, 120, 50, 49, 121, 120, 113, 119, 114, 121, 115, 51, 50, 120, 113, 120, 114, 121, 49, 123, 53, 52, 118, 120, 50, 121, 119, 51, 120, 52, 51, 119, 119, 112, 118, 118, 52, 119, 116, 48, 53, 117, 53, 118, 116, 53, 117, 53, 47, 52, 118, 111, 117, 117, 110, 116, 52, 46, 51, 112, 119, 113, 111, 118, 112, 48, 116, 110, 110, 117, 111, 47, 53, 48, 46, 52, 47, 51, 45, 50, 50, 44, 49, 44, 50, 45, 45, 51, 46, 49, 44, 64, 200, 201, 270, 199, 200, 271, 201, 263, 269, 200, 196, 201, 198, 199, 272, 197, 198, 273, 191, 197, 274, 200, 195, 196, 199, 194, 195, 198, 194, 199, 197, 193, 198, 191, 192, 197, 198, 193, 194, 197, 192, 193, 189, 191, 250, 187, 188, 261, 189, 190, 191, 191, 190, 192, 188, 189, 262, 186, 187, 260, 253, 260, 254, 185, 186, 259, 184, 185, 258, 258, 251, 257, 188, 183, 189, 187, 182, 188, 259, 252, 258, 189, 183, 190, 188, 182, 183, 260, 253, 259, 187, 181, 182, 186, 181, 187, 201, 196, 263, 254, 261, 255, 185, 180, 186, 184, 179, 185, 255, 262, 256, 186, 180, 181, 199, 195, 200, 185, 179, 180, 261, 254, 260, 184, 178, 179, 262, 255, 261, 250, 256, 262, 269, 263, 264, 270, 264, 265, 271, 265, 266, 274, 197, 273, 273, 198, 272, 269, 264, 270, 271, 200, 270, 272, 199, 271, 270, 201, 269, 270, 265, 271, 271, 266, 272, 273, 267, 268, 272, 266, 267, 274, 268, 249, 272, 267, 273, 273, 268, 274, 257, 184, 258, 258, 185, 259, 259, 186, 260, 260, 187, 261, 261, 188, 262, 262, 189, 250, 250, 191, 274, 250, 249, 256, 274, 249, 250, 251, 258, 252, 252, 259, 253, 63, 184, 257, 62, 63, 133, 61, 62, 132, 60, 61, 131, 59, 60, 130, 145, 156, 144, 144, 155, 143, 214, 147, 211, 213, 148, 214, 212, 149, 213, 210, 224, 211, 214, 226, 213, 213, 225, 212, 211, 227, 214, 215, 229, 216, 216, 230, 217, 217, 231, 218, 218, 223, 210, 220, 152, 221, 221, 151, 222, 222, 150, 212, 219, 153, 220, 221, 233, 220, 220, 232, 219, 222, 234, 221, 212, 235, 222, 224, 210, 223, 227, 211, 224, 225, 213, 226, 226, 214, 227, 229, 215, 228, 230, 216, 229, 231, 217, 230, 223, 218, 231, 210, 145, 218, 218, 144, 217, 217, 143, 216, 216, 142, 215, 165, 219, 232, 233, 221, 234, 232, 220, 233, 234, 222, 235, 235, 212, 225, 164, 153, 165, 163, 152, 164, 162, 151, 163, 161, 150, 162, 160, 149, 161, 159, 148, 160, 158, 147, 159, 157, 146, 158, 156, 145, 157, 155, 144, 156, 154, 143, 155, 219, 165, 153, 153, 164, 152, 152, 163, 151, 151, 162, 150, 152, 220, 153, 152, 151, 221, 151, 150, 222, 150, 161, 149, 149, 160, 148, 148, 159, 147, 147, 158, 146, 150, 149, 212, 149, 148, 213, 148, 147, 214, 147, 146, 211, 146, 145, 210, 145, 144, 218, 144, 143, 217, 143, 142, 216, 146, 157, 145, 228, 85, 97, 97, 84, 96, 211, 146, 210, 95, 82, 94, 94, 81, 93, 93, 80, 92, 92, 79, 91, 91, 78, 90, 90, 77, 89, 89, 76, 88, 88, 75, 87, 87, 74, 86, 85, 228, 215, 84, 97, 85, 83, 96, 84, 82, 95, 83, 81, 94, 82, 80, 93, 81, 79, 92, 80, 78, 91, 79, 215, 16, 85, 85, 15, 84, 84, 14, 83, 83, 21, 82, 82, 20, 81, 81, 17, 80, 80, 18, 79, 79, 19, 78, 77, 90, 78, 76, 89, 77, 75, 88, 76, 74, 87, 75, 78, 11, 77, 77, 12, 76, 76, 13, 75, 13, 74, 75, 31, 21, 32, 28, 20, 31, 30, 18, 29, 29, 17, 28, 27, 142, 154, 26, 16, 27, 25, 15, 26, 32, 14, 25, 24, 12, 23, 86, 13, 24, 23, 11, 22, 22, 19, 30, 21, 31, 20, 17, 29, 18, 18, 30, 19, 20, 28, 17, 142, 16, 215, 16, 15, 85, 15, 14, 84, 14, 21, 83, 21, 20, 82, 20, 17, 81, 17, 18, 80, 18, 19, 79, 142, 27, 16, 16, 26, 15, 15, 25, 14, 14, 32, 21, 12, 24, 13, 13, 86, 74, 11, 23, 12, 19, 22, 11, 12, 13, 76, 11, 12, 77, 143, 154, 142, 19, 11, 78, 96, 83, 95]
        point3f[] points = [(-34.907547, -26.785503, 0), (-26.785503, -34.907547, 0), (-31.112698, -31.112698, 0), (-40.6507, -16.838072, 0), (-42.500736, -11.388038, 0), (-38.105118, -22, 0), (-43.623573, -5.7431526, 0), (-16.838072, -40.6507, 0), (-22, -38.105118, 0), (-11.388038, -42.500736, 0), (-5.7431526, -43.623573, 0), (-11.548494, -4.783543, -15), (-12.074073, -3.235238, -15), (-12.393061, -1.6315774, -15), (-4.783543, -11.548494, -15), (-3.235238, -12.074073, -15), (-1.6315774, -12.393061, -15), (-8.838835, -8.838835, -15), (-9.916917, -7.609518, -15), (-10.825317, -6.25, -15), (-7.609518, -9.916917, -15), (-6.25, -10.825317, -15), (-11.548494, -4.783543, 0), (-12.074073, -3.235238, 0), (-12.393061, -1.6315774, 0), (-4.783543, -11.548494, 0), (-3.235238, -12.074073, 0), (-1.6315774, -12.393061, 0), (-8.838835, -8.838835, 0), (-9.916917, -7.609518, 0), (-10.825317, -6.25, 0), (-7.609518, -9.916917, 0), (-6.25, -10.825317, 0), (-34.907547, -26.785503, 18), (-26.785503, -34.907547, 18), (-31.112698, -31.112698, 18), (-40.6507, -16.838072, 18), (-42.500736, -11.388038, 18), (-38.105118, -22, 18), (-43.623573, -5.7431526, 18), (-16.838072, -40.6507, 18), (-22, -38.105118, 18), (-11.388038, -42.500736, 18), (-5.7431526, -43.623573, 18), (-11.635849, -8.928501, 18), (-12.701706, -7.3333335, 18), (-13.550233, -5.6126904, 18), (-14.166912, -3.7960126, 18), (-14.541191, -1.9143841, 18), (-11.635849, -8.928501, 23.4), (-12.701706, -7.3333335, 23.4), (-13.550233, -5.6126904, 23.4), (-14.166912, -3.7960126, 23.4), (-14.541191, -1.9143841, 23.4), (-8.928501, -11.635849, 18), (-7.3333335, -12.701706, 18), (-5.6126904, -13.550233, 18), (-3.7960126, -14.166912, 18), (-1.9143841, -14.541191, 18), (-8.928501, -11.635849, 23.4), (-7.3333335, -12.701706, 23.4), (-5.6126904, -13.550233, 23.4), (-3.7960126, -14.166912, 23.4), (-1.9143841, -14.541191, 23.4), (-10.370899, -10.370899, 18), (-10.370899, -10.370899, 23.4), (-44, -0, 0), (-43.623573, 5.7431526, 0), (-42.500736, 11.388038, 0), (-40.6507, 16.838072, 0), (-38.105118, 22, 0), (-34.907547, 26.785503, 0), (-31.112698, 31.112698, 0), (-26.785503, 34.907547, 0), (-12.5, 0, -15), (-12.393061, 1.6315774, -15), (-12.074073, 3.235238, -15), (-11.548494, 4.783543, -15), (-10.825317, 6.25, -15), (-9.916917, 7.609518, -15), (-8.838835, 8.838835, -15), (-7.609518, 9.916917, -15), (-6.25, 10.825317, -15), (-4.783543, 11.548494, -15), (-3.235238, 12.074073, -15), (-1.6315774, 12.393061, -15), (-12.5, 0, 0), (-12.393061, 1.6315774, 0), (-12.074073, 3.235238, 0), (-11.548494, 4.783543, 0), (-10.825317, 6.25, 0), (-9.916917, 7.609518, 0), (-8.838835, 8.838835, 0), (-7.609518, 9.916917, 0), (-6.25, 10.825317, 0), (-4.783543, 11.548494, 0), (-3.235238, 12.074073, 0), (-1.6315774, 12.393061, 0), (-22, 38.105118, 0), (-16.838072, 40.6507, 0), (-11.388038, 42.500736, 0), (-5.7431526, 43.623573, 0), (-44, -0, 18), (-43.623573, 5.7431526, 18), (-42.500736, 11.388038, 18), (-40.6507, 16.838072, 18), (-38.105118, 22, 18), (-34.907547, 26.785503, 18), (-31.112698, 31.112698, 18), (-26.785503, 34.907547, 18), (-14.666667, 0, 18), (-14.541191, 1.9143841, 18), (-14.166912, 3.7960126, 18), (-13.550233, 5.6126904, 18), (-12.701706, 7.3333335, 18), (-11.635849, 8.928501, 18), (-14.666667, 0, 23.4), (-14.541191, 1.9143841, 23.4), (-14.166912, 3.7960126, 23.4), (-13.550233, 5.6126904, 23.4), (-12.701706, 7.3333335, 23.4), (-11.635849, 8.928501, 23.4), (-10.370899, 10.370899, 18), (-10.370899, 10.370899, 23.4), (-8.928501, 11.635849, 18), (-7.3333335, 12.701706, 18), (-5.6126904, 13.550233, 18), (-3.7960126, 14.166912, 18), (-1.9143841, 14.541191, 18), (-8.928501, 11.635849, 23.4), (-7.3333335, 12.701706, 23.4), (-5.6126904, 13.550233, 23.4), (-3.7960126, 14.166912, 23.4), (-1.9143841, 14.541191, 23.4), (-22, 38.105118, 18), (-16.838072, 40.6507, 18), (-11.388038, 42.500736, 18), (-5.7431526, 43.623573, 18), (0, -44, 0), (5.7431526, -43.623573, 0), (11.388038, -42.500736, 0), (16.838072, -40.6507, 0), (0, -12.5, -15), (1.6315774, -12.393061, -15), (3.235238, -12.074073, -15), (4.783543, -11.548494, -15), (6.25, -10.825317, -15), (7.609518, -9.916917, -15), (8.838835, -8.838835, -15), (9.916917, -7.609518, -15), (10.825317, -6.25, -15), (11.548494, -4.783543, -15), (12.074073, -3.235238, -15), (12.393061, -1.6315774, -15), (0, -12.5, 0), (1.6315774, -12.393061, 0), (3.235238, -12.074073, 0), (4.783543, -11.548494, 0), (6.25, -10.825317, 0), (7.609518, -9.916917, 0), (8.838835, -8.838835, 0), (9.916917, -7.609518, 0), (10.825317, -6.25, 0), (11.548494, -4.783543, 0), (12.074073, -3.235238, 0), (12.393061, -1.6315774, 0), (22, -38.105118, 0), (26.785503, -34.907547, 0), (31.112698, -31.112698, 0), (34.907547, -26.785503, 0), (38.105118, -22, 0), (40.6507, -16.838072, 0), (42.500736, -11.388038, 0), (43.623573, -5.7431526, 0), (0, -44, 18), (5.7431526, -43.623573, 18), (11.388038, -42.500736, 18), (16.838072, -40.6507, 18), (0, -14.666667, 18), (1.9143841, -14.541191, 18), (3.7960126, -14.166912, 18), (5.6126904, -13.550233, 18), (7.3333335, -12.701706, 18), (8.928501, -11.635849, 18), (0, -14.666667, 23.4), (1.9143841, -14.541191, 23.4), (3.7960126, -14.166912, 23.4), (5.6126904, -13.550233, 23.4), (7.3333335, -12.701706, 23.4), (8.928501, -11.635849, 23.4), (10.370899, -10.370899, 18), (10.370899, -10.370899, 23.4), (11.635849, -8.928501, 18), (12.701706, -7.3333335, 18), (13.550233, -5.6126904, 18), (14.166912, -3.7960126, 18), (14.541191, -1.9143841, 18), (11.635849, -8.928501, 23.4), (12.701706, -7.3333335, 23.4), (13.550233, -5.6126904, 23.4), (14.166912, -3.7960126, 23.4), (14.541191, -1.9143841, 23.4), (22, -38.105118, 18), (26.785503, -34.907547, 18), (31.112698, -31.112698, 18), (34.907547, -26.785503, 18), (38.105118, -22, 18), (40.6507, -16.838072, 18), (42.500736, -11.388038, 18), (43.623573, -5.7431526, 18), (6.25, 10.825317, -15), (7.609518, 9.916917, -15), (10.825317, 6.25, -15), (9.916917, 7.609518, -15), (8.838835, 8.838835, -15), (0, 12.5, -15), (1.6315774, 12.393061, -15), (3.235238, 12.074073, -15), (4.783543, 11.548494, -15), (12.5, 0, -15), (12.393061, 1.6315774, -15), (12.074073, 3.235238, -15), (11.548494, 4.783543, -15), (6.25, 10.825317, 0), (7.609518, 9.916917, 0), (10.825317, 6.25, 0), (9.916917, 7.609518, 0), (8.838835, 8.838835, 0), (0, 12.5, 0), (1.6315774, 12.393061, 0), (3.235238, 12.074073, 0), (4.783543, 11.548494, 0), (12.5, 0, 0), (12.393061, 1.6315774, 0), (12.074073, 3.235238, 0), (11.548494, 4.783543, 0), (-0, 44, 0), (5.7431526, 43.623573, 0), (11.388038, 42.500736, 0), (16.838072, 40.6507, 0), (44, 0, 0), (43.623573, 5.7431526, 0), (42.500736, 11.388038, 0), (40.6507, 16.838072, 0), (31.112698, 31.112698, 0), (22, 38.105118, 0), (26.785503, 34.907547, 0), (34.907547, 26.785503, 0), (38.105118, 22, 0), (10.370899, 10.370899, 18), (10.370899, 10.370899, 23.4), (0, 14.666667, 18), (1.9143841, 14.541191, 18), (3.7960126, 14.166912, 18), (5.6126904, 13.550233, 18), (7.3333335, 12.701706, 18), (8.928501, 11.635849, 18), (0, 14.666667, 23.4), (1.9143841, 14.541191, 23.4), (3.7960126, 14.166912, 23.4), (5.6126904, 13.550233, 23.4), (7.3333335, 12.701706, 23.4), (8.928501, 11.635849, 23.4), (14.666667, 0, 18), (14.541191, 1.9143841, 18), (14.166912, 3.7960126, 18), (13.550233, 5.6126904, 18), (12.701706, 7.3333335, 18), (11.635849, 8.928501, 18), (14.666667, 0, 23.4), (14.541191, 1.9143841, 23.4), (14.166912, 3.7960126, 23.4), (13.550233, 5.6126904, 23.4), (12.701706, 7.3333335, 23.4), (11.635849, 8.928501, 23.4), (0, 44, 18), (5.7431526, 43.623573, 18), (11.388038, 42.500736, 18), (16.838072, 40.6507, 18), (44, 0, 18), (43.623573, 5.7431526, 18), (42.500736, 11.388038, 18), (40.6507, 16.838072, 18), (31.112698, 31.112698, 18), (22, 38.105118, 18), (26.785503, 34.907547, 18), (34.907547, 26.785503, 18), (38.105118, 22, 18)]

        rel material:binding = </puck_union_union/Material>
    }

    def Scope "Material"
    {
        def Material "PBR"
        {
            token outputs:surface.connect = <PBR/Shader.outputs:surface>

            def Shader "Shader"
            {
                uniform token info:id = "UsdPreviewSurface"
                color3f inputs:diffuseColor = (0.5, 0.5, 0.5)
                float inputs:metallic = 0
                float inputs:roughness = 0.5
                token outputs:surface
            }
        }
    }

    def PhysicsCollisionAPI "collision"
    {
        rel physics:collisionGroup = </CollisionGroup>
    }
}
