#usda 1.0
(
    defaultPrim = "dome_outer_union_diff_union_union_diff"
    upAxis = "Y"
    metersPerUnit = 0.001
)

def Xform "dome_outer_union_diff_union_union_diff" (
    prepend apiSchemas = ["PhysicsRigidBodyAPI", "PhysicsMassAPI"]
)
{
    float physics:mass = 2.23245

    def Mesh "dome_outer_union_diff_union_union_diff_mesh"
    {
        float3[] extent = [(-82.5, -82.5, -10), (82.5, 82.5, 72)]
        int[] faceVertexCounts = [3, 3, 3, 3, 3, 3, 3, 3, 3, 3, 3, 3, 3, 3, 3, 3, 3, 3, 3, 3, 3, 3, 3, 3, 3, 3, 3, 3, 3, 3, 3, 3, 3, 3, 3, 3, 3, 3, 3, 3, 3, 3, 3, 3, 3, 3, 3, 3, 3, 3, 3, 3, 3, 3, 3, 3, 3, 3, 3, 3, 3, 3, 3, 3, 3, 3, 3, 3, 3, 3, 3, 3, 3, 3, 3, 3, 3, 3, 3, 3, 3, 3, 3, 3, 3, 3, 3, 3, 3, 3, 3, 3, 3, 3, 3, 3, 3, 3, 3, 3, 3, 3, 3, 3, 3, 3, 3, 3, 3, 3, 3, 3, 3, 3, 3, 3, 3, 3, 3, 3, 3, 3, 3, 3, 3, 3, 3, 3, 3, 3, 3, 3, 3, 3, 3, 3, 3, 3, 3, 3, 3, 3, 3, 3, 3, 3, 3, 3, 3, 3, 3, 3, 3, 3, 3, 3, 3, 3, 3, 3, 3, 3, 3, 3, 3, 3, 3, 3, 3, 3, 3, 3, 3, 3, 3, 3, 3, 3, 3, 3, 3, 3, 3, 3, 3, 3, 3, 3, 3, 3, 3, 3, 3, 3, 3, 3, 3, 3, 3, 3, 3, 3, 3, 3, 3, 3, 3, 3, 3, 3, 3, 3, 3, 3, 3, 3, 3, 3, 3, 3, 3, 3, 3, 3, 3, 3, 3, 3, 3, 3, 3, 3, 3, 3, 3, 3, 3, 3, 3, 3, 3, 3, 3, 3, 3, 3, 3, 3, 3, 3, 3, 3, 3, 3, 3, 3, 3, 3, 3, 3, 3, 3, 3, 3, 3, 3, 3, 3, 3, 3, 3, 3, 3, 3, 3, 3, 3, 3, 3, 3, 3, 3, 3, 3, 3, 3, 3, 3, 3, 3, 3, 3, 3, 3, 3, 3, 3, 3, 3, 3, 3, 3, 3, 3, 3, 3, 3, 3, 3, 3, 3, 3, 3, 3, 3, 3, 3, 3, 3, 3, 3, 3, 3, 3, 3, 3, 3, 3, 3, 3, 3, 3, 3, 3, 3, 3, 3, 3, 3, 3, 3, 3, 3, 3, 3, 3, 3, 3, 3, 3, 3, 3, 3, 3, 3, 3, 3, 3, 3, 3, 3, 3, 3, 3, 3, 3, 3, 3, 3, 3, 3, 3, 3, 3, 3, 3, 3, 3, 3, 3, 3, 3, 3, 3, 3, 3, 3, 3, 3, 3, 3, 3, 3, 3, 3, 3, 3, 3, 3, 3, 3, 3, 3, 3, 3, 3, 3, 3, 3, 3, 3, 3, 3, 3, 3, 3, 3, 3, 3, 3, 3, 3, 3, 3, 3, 3, 3, 3, 3, 3, 3, 3, 3, 3, 3, 3, 3, 3, 3, 3, 3, 3, 3, 3, 3, 3, 3, 3, 3, 3, 3, 3, 3, 3, 3, 3, 3, 3, 3, 3, 3, 3, 3, 3, 3, 3, 3, 3, 3, 3, 3, 3, 3, 3, 3, 3, 3, 3, 3, 3, 3, 3, 3, 3, 3, 3, 3, 3, 3, 3, 3, 3, 3, 3, 3, 3, 3, 3, 3, 3, 3, 3, 3, 3, 3, 3, 3, 3, 3, 3, 3, 3, 3, 3, 3, 3, 3, 3, 3, 3, 3, 3, 3, 3, 3, 3, 3, 3, 3, 3, 3, 3, 3, 3, 3, 3, 3, 3, 3, 3, 3, 3, 3, 3, 3, 3, 3, 3, 3, 3, 3, 3, 3, 3, 3, 3, 3, 3, 3, 3, 3, 3, 3, 3, 3, 3, 3, 3, 3, 3, 3, 3, 3, 3, 3, 3, 3, 3, 3, 3, 3, 3, 3, 3, 3, 3, 3, 3, 3, 3, 3, 3, 3, 3, 3, 3, 3, 3, 3, 3, 3, 3, 3, 3, 3, 3, 3, 3, 3, 3, 3, 3, 3, 3, 3, 3, 3, 3, 3, 3, 3, 3, 3, 3, 3, 3, 3, 3, 3, 3, 3, 3, 3, 3, 3, 3, 3, 3, 3, 3, 3, 3, 3, 3, 3, 3, 3, 3, 3, 3, 3, 3, 3, 3, 3, 3, 3, 3, 3, 3, 3, 3, 3, 3, 3, 3, 3, 3, 3, 3, 3, 3, 3, 3, 3, 3, 3, 3, 3, 3, 3, 3, 3, 3, 3, 3, 3, 3, 3, 3, 3, 3, 3, 3, 3, 3, 3, 3, 3, 3, 3, 3, 3, 3, 3, 3, 3, 3, 3, 3, 3, 3, 3, 3, 3, 3, 3, 3, 3, 3, 3, 3, 3, 3, 3, 3, 3, 3, 3, 3, 3, 3, 3, 3, 3, 3, 3, 3, 3, 3, 3, 3, 3, 3, 3, 3, 3, 3, 3, 3, 3, 3, 3, 3, 3, 3, 3, 3, 3, 3, 3, 3, 3, 3, 3, 3, 3, 3, 3, 3, 3, 3, 3, 3, 3, 3, 3, 3, 3, 3, 3, 3, 3, 3, 3, 3, 3, 3, 3, 3, 3, 3, 3, 3, 3, 3, 3, 3, 3, 3, 3, 3, 3, 3, 3, 3, 3, 3, 3, 3, 3, 3, 3, 3, 3, 3, 3, 3, 3, 3, 3, 3, 3, 3, 3, 3, 3, 3, 3, 3, 3, 3, 3, 3, 3, 3, 3, 3, 3, 3, 3, 3, 3, 3, 3, 3, 3, 3, 3, 3, 3, 3, 3, 3, 3, 3, 3, 3, 3, 3, 3, 3, 3, 3, 3, 3, 3, 3, 3, 3, 3, 3, 3, 3, 3, 3, 3, 3, 3, 3, 3, 3, 3, 3, 3, 3, 3, 3, 3, 3, 3, 3, 3, 3, 3, 3, 3, 3, 3, 3, 3, 3, 3, 3, 3, 3, 3, 3, 3, 3, 3, 3, 3, 3, 3, 3, 3, 3, 3, 3, 3, 3, 3, 3, 3, 3, 3, 3, 3, 3, 3, 3, 3, 3, 3, 3, 3, 3, 3, 3, 3, 3, 3, 3, 3, 3, 3, 3, 3, 3, 3, 3, 3, 3, 3, 3, 3, 3, 3, 3, 3, 3, 3, 3, 3, 3, 3, 3, 3, 3, 3, 3, 3, 3, 3, 3, 3, 3, 3, 3, 3, 3, 3, 3, 3, 3, 3, 3, 3, 3, 3, 3, 3, 3, 3, 3, 3, 3, 3, 3, 3, 3, 3, 3, 3, 3, 3, 3, 3, 3, 3, 3, 3, 3, 3, 3, 3, 3, 3, 3, 3, 3, 3, 3, 3, 3, 3, 3, 3, 3, 3, 3, 3, 3, 3, 3, 3, 3, 3, 3, 3, 3, 3, 3, 3, 3, 3, 3, 3, 3, 3, 3, 3, 3, 3, 3, 3, 3, 3, 3, 3, 3, 3, 3, 3, 3, 3, 3, 3, 3, 3, 3, 3, 3, 3, 3, 3, 3, 3, 3, 3, 3, 3, 3, 3, 3, 3, 3, 3, 3, 3, 3, 3, 3, 3, 3, 3, 3, 3, 3, 3, 3, 3, 3, 3, 3, 3, 3, 3, 3, 3, 3, 3, 3, 3, 3, 3, 3, 3, 3, 3, 3, 3, 3, 3, 3, 3, 3, 3, 3, 3, 3, 3, 3, 3, 3, 3, 3, 3, 3, 3, 3, 3, 3, 3, 3, 3, 3, 3, 3, 3, 3, 3, 3, 3, 3, 3, 3, 3, 3, 3, 3, 3, 3, 3, 3, 3, 3, 3, 3, 3, 3]
        int[] faceVertexIndices = [194, 170, 253, 170, 151, 252, 106, 51, 98, 562, 476, 568, 99, 82, 118, 568, 500, 569, 98, 47, 97, 554, 461, 561, 97, 55, 99, 552, 457, 554, 71, 67, 112, 397, 363, 404, 284, 288, 381, 546, 428, 539, 536, 533, 539, 538, 533, 531, 536, 539, 428, 476, 562, 464, 472, 436, 567, 500, 472, 569, 500, 568, 476, 457, 461, 554, 461, 464, 561, 453, 457, 552, 553, 454, 453, 436, 431, 547, 431, 428, 546, 445, 536, 428, 423, 442, 445, 442, 420, 440, 428, 423, 445, 420, 442, 423, 64, 51, 106, 82, 99, 55, 47, 55, 97, 51, 47, 98, 215, 198, 266, 227, 236, 231, 231, 440, 420, 221, 215, 267, 227, 221, 272, 233, 236, 227, 231, 236, 440, 233, 227, 272, 238, 134, 237, 239, 136, 238, 246, 140, 239, 247, 148, 246, 252, 151, 247, 253, 170, 252, 254, 194, 253, 266, 198, 254, 411, 454, 553, 410, 379, 411, 405, 375, 410, 404, 367, 405, 380, 282, 284, 537, 538, 531, 547, 431, 546, 67, 64, 107, 294, 382, 288, 299, 389, 294, 299, 318, 390, 318, 342, 395, 346, 396, 342, 273, 537, 265, 363, 397, 346, 367, 404, 363, 367, 375, 405, 136, 134, 238, 140, 136, 239, 375, 379, 410, 379, 454, 411, 148, 140, 246, 151, 148, 247, 125, 282, 380, 124, 95, 125, 272, 273, 262, 119, 90, 124, 118, 87, 119, 237, 73, 113, 113, 71, 112, 107, 64, 106, 112, 67, 107, 538, 539, 533, 553, 453, 552, 561, 464, 562, 569, 472, 567, 567, 436, 547, 95, 282, 125, 198, 194, 254, 95, 124, 90, 537, 531, 265, 273, 265, 262, 90, 119, 87, 87, 118, 82, 262, 233, 272, 272, 221, 267, 380, 284, 381, 381, 288, 382, 267, 215, 266, 382, 294, 389, 389, 299, 390, 390, 318, 395, 395, 342, 396, 396, 346, 397, 134, 73, 237, 73, 71, 113, 395, 396, 401, 566, 562, 573, 414, 412, 413, 413, 410, 415, 411, 553, 559, 411, 415, 410, 412, 409, 413, 409, 405, 413, 412, 408, 409, 408, 406, 409, 541, 277, 540, 238, 237, 240, 239, 238, 242, 242, 238, 240, 240, 115, 242, 244, 114, 241, 242, 115, 244, 244, 241, 243, 239, 242, 244, 244, 243, 245, 246, 239, 244, 247, 246, 248, 246, 244, 248, 248, 244, 245, 248, 245, 249, 247, 248, 250, 248, 249, 251, 250, 248, 251, 250, 251, 255, 407, 409, 406, 406, 403, 407, 407, 404, 409, 410, 413, 405, 405, 409, 404, 252, 247, 250, 252, 250, 256, 256, 250, 255, 403, 402, 407, 402, 397, 407, 404, 407, 397, 403, 400, 402, 401, 402, 400, 401, 396, 402, 400, 398, 401, 399, 401, 398, 398, 394, 399, 399, 395, 401, 396, 397, 402, 556, 414, 413, 393, 390, 399, 253, 252, 256, 254, 253, 257, 256, 255, 258, 413, 415, 558, 538, 537, 541, 256, 258, 257, 257, 253, 256, 254, 257, 259, 257, 258, 260, 259, 257, 260, 539, 538, 543, 543, 538, 541, 541, 540, 542, 394, 393, 399, 394, 392, 393, 392, 391, 393, 391, 389, 393, 392, 388, 391, 388, 387, 391, 387, 382, 391, 390, 393, 389, 389, 391, 382, 388, 386, 387, 386, 385, 387, 385, 381, 387, 386, 384, 385, 384, 383, 385, 383, 380, 385, 382, 387, 381, 381, 385, 380, 259, 260, 268, 266, 254, 259, 543, 541, 542, 539, 543, 545, 266, 259, 269, 543, 542, 544, 545, 543, 544, 546, 539, 545, 547, 546, 549, 545, 544, 548, 545, 548, 549, 546, 545, 549, 547, 549, 551, 549, 548, 550, 551, 549, 550, 551, 550, 570, 415, 411, 559, 554, 560, 552, 559, 553, 558, 556, 413, 560, 558, 415, 559, 560, 413, 558, 267, 266, 269, 272, 267, 271, 271, 267, 269, 106, 98, 102, 106, 102, 108, 99, 118, 120, 99, 120, 104, 104, 120, 105, 98, 97, 100, 97, 99, 104, 100, 97, 104, 102, 98, 100, 102, 100, 103, 102, 103, 109, 103, 100, 101, 105, 101, 104, 101, 100, 104, 557, 556, 560, 558, 552, 560, 269, 259, 268, 269, 268, 270, 555, 557, 560, 561, 562, 566, 271, 269, 270, 271, 270, 274, 112, 107, 110, 107, 106, 108, 112, 110, 114, 114, 110, 117, 110, 107, 108, 110, 108, 111, 108, 102, 109, 111, 108, 109, 117, 110, 111, 113, 112, 114, 237, 113, 115, 115, 113, 114, 117, 116, 114, 237, 115, 240, 116, 241, 114, 115, 114, 244, 554, 561, 564, 563, 555, 564, 272, 271, 275, 275, 271, 274, 564, 561, 566, 565, 563, 566, 566, 573, 565, 566, 563, 564, 560, 554, 564, 118, 119, 122, 119, 124, 126, 120, 118, 122, 121, 105, 120, 121, 120, 122, 123, 121, 122, 122, 119, 126, 123, 122, 126, 127, 123, 126, 124, 125, 128, 380, 383, 125, 126, 124, 128, 127, 126, 128, 129, 127, 128, 128, 125, 383, 129, 128, 383, 384, 129, 383, 564, 555, 560, 569, 567, 571, 568, 569, 575, 571, 574, 575, 574, 571, 570, 568, 575, 573, 574, 572, 575, 273, 272, 275, 572, 565, 573, 537, 273, 277, 575, 572, 573, 575, 569, 571, 567, 547, 551, 277, 273, 275, 275, 274, 276, 277, 275, 276, 571, 567, 551, 571, 551, 570, 537, 277, 541, 277, 276, 540, 562, 568, 573, 395, 399, 390, 553, 552, 558, 283, 96, 129, 96, 93, 127, 290, 285, 386, 276, 264, 540, 295, 290, 388, 300, 295, 392, 300, 394, 317, 264, 276, 274, 341, 317, 398, 264, 530, 540, 347, 341, 400, 347, 403, 362, 263, 264, 274, 366, 362, 406, 373, 366, 408, 137, 243, 135, 142, 245, 137, 283, 129, 384, 129, 96, 127, 149, 249, 142, 149, 152, 251, 127, 93, 123, 123, 88, 121, 121, 83, 105, 116, 74, 241, 117, 76, 116, 111, 68, 117, 109, 65, 111, 105, 56, 101, 101, 48, 103, 103, 52, 109, 93, 88, 123, 88, 83, 121, 263, 274, 225, 378, 373, 412, 270, 220, 274, 268, 214, 270, 451, 378, 414, 386, 285, 384, 388, 290, 386, 392, 295, 388, 394, 300, 392, 398, 317, 394, 400, 341, 398, 403, 347, 400, 135, 241, 74, 76, 74, 116, 68, 76, 117, 52, 65, 109, 65, 68, 111, 406, 362, 403, 408, 366, 406, 412, 373, 408, 414, 378, 412, 260, 199, 268, 258, 195, 260, 255, 169, 258, 451, 414, 556, 56, 105, 83, 56, 48, 101, 48, 52, 103, 419, 422, 439, 441, 422, 425, 422, 441, 439, 443, 441, 425, 443, 425, 544, 425, 430, 548, 430, 435, 550, 452, 451, 556, 447, 452, 557, 460, 447, 555, 463, 565, 475, 463, 460, 563, 435, 471, 570, 471, 499, 574, 499, 475, 572, 534, 443, 544, 544, 425, 548, 251, 152, 255, 249, 149, 251, 245, 142, 249, 548, 430, 550, 550, 435, 570, 243, 137, 245, 241, 135, 243, 530, 532, 542, 542, 532, 534, 540, 530, 542, 234, 263, 225, 419, 439, 235, 542, 534, 544, 234, 230, 235, 557, 452, 556, 220, 225, 274, 214, 220, 270, 199, 214, 268, 555, 447, 557, 563, 460, 555, 565, 463, 563, 230, 419, 235, 570, 471, 574, 234, 225, 230, 574, 499, 572, 195, 199, 260, 169, 195, 258, 152, 169, 255, 572, 475, 565, 285, 283, 384, 281, 278, 286, 355, 356, 343, 211, 194, 198, 9, 11, 8, 11, 9, 46, 10, 61, 62, 61, 10, 63, 10, 49, 8, 10, 8, 11, 10, 62, 50, 63, 10, 11, 63, 11, 64, 64, 11, 51, 21, 20, 22, 21, 22, 46, 46, 22, 23, 23, 22, 79, 22, 20, 54, 79, 22, 80, 80, 22, 54, 207, 211, 206, 207, 193, 211, 210, 196, 206, 210, 206, 211, 197, 210, 213, 197, 213, 212, 213, 210, 216, 216, 210, 211, 211, 198, 216, 216, 198, 215, 23, 79, 81, 197, 196, 210, 196, 197, 192, 193, 194, 211, 207, 187, 193, 193, 170, 194, 193, 158, 170, 23, 81, 82, 212, 213, 217, 212, 217, 219, 23, 82, 55, 216, 215, 218, 501, 518, 521, 218, 215, 221, 217, 213, 218, 218, 213, 216, 518, 520, 521, 519, 516, 518, 219, 217, 222, 224, 219, 222, 222, 217, 223, 218, 221, 223, 223, 217, 218, 223, 221, 227, 224, 222, 226, 224, 226, 229, 518, 464, 519, 226, 222, 228, 518, 476, 464, 228, 222, 223, 228, 223, 227, 228, 227, 231, 229, 226, 417, 229, 417, 416, 519, 517, 516, 417, 226, 421, 517, 462, 516, 421, 226, 228, 421, 228, 231, 421, 231, 420, 187, 160, 193, 516, 520, 518, 516, 474, 520, 462, 473, 516, 505, 501, 503, 507, 503, 501, 506, 503, 507, 504, 436, 505, 505, 502, 504, 436, 472, 505, 503, 502, 505, 506, 469, 503, 503, 434, 502, 469, 434, 503, 501, 500, 518, 192, 168, 196, 501, 521, 488, 472, 501, 505, 472, 500, 501, 488, 507, 501, 477, 470, 474, 476, 518, 500, 474, 516, 473, 473, 477, 474, 470, 469, 506, 469, 470, 477, 519, 468, 517, 519, 461, 468, 468, 467, 517, 468, 466, 467, 457, 468, 461, 466, 468, 457, 466, 465, 467, 467, 446, 459, 461, 519, 464, 459, 517, 467, 459, 462, 517, 466, 458, 465, 466, 453, 454, 453, 466, 457, 458, 456, 465, 467, 449, 446, 467, 448, 449, 458, 455, 456, 466, 371, 458, 458, 376, 455, 465, 368, 467, 455, 450, 456, 456, 370, 465, 450, 374, 456, 167, 168, 192, 167, 159, 168, 448, 467, 368, 53, 49, 45, 46, 9, 44, 11, 46, 47, 44, 21, 46, 438, 431, 504, 504, 437, 438, 193, 156, 158, 502, 437, 504, 431, 436, 504, 502, 429, 437, 434, 429, 502, 438, 428, 431, 438, 432, 433, 433, 428, 438, 437, 432, 438, 429, 424, 437, 432, 437, 424, 46, 23, 55, 47, 46, 55, 49, 10, 50, 433, 423, 428, 427, 423, 433, 433, 426, 427, 432, 426, 433, 418, 432, 424, 426, 432, 418, 427, 420, 423, 421, 420, 427, 427, 417, 421, 426, 417, 427, 416, 426, 418, 417, 426, 416, 160, 156, 193, 159, 156, 160, 50, 45, 49, 354, 356, 355, 158, 151, 170, 157, 151, 158, 158, 155, 157, 159, 150, 156, 150, 159, 167, 156, 155, 158, 54, 20, 53, 157, 148, 151, 53, 45, 54, 150, 147, 156, 57, 61, 58, 155, 156, 147, 58, 61, 63, 147, 141, 155, 63, 67, 58, 146, 140, 157, 157, 145, 146, 155, 145, 157, 140, 148, 157, 146, 143, 144, 278, 279, 280, 57, 60, 59, 286, 278, 280, 282, 281, 284, 281, 286, 287, 284, 281, 287, 57, 75, 66, 287, 286, 291, 286, 280, 289, 60, 57, 58, 291, 286, 289, 284, 287, 288, 287, 291, 292, 288, 287, 292, 58, 67, 71, 292, 291, 296, 291, 289, 293, 296, 291, 293, 288, 292, 294, 292, 296, 297, 294, 292, 297, 60, 58, 71, 61, 57, 66, 297, 296, 301, 297, 301, 303, 296, 293, 298, 62, 61, 66, 301, 296, 298, 67, 63, 64, 294, 297, 299, 59, 70, 69, 299, 297, 303, 155, 132, 145, 141, 132, 155, 145, 143, 146, 146, 136, 140, 146, 134, 136, 75, 57, 72, 144, 60, 146, 144, 138, 139, 72, 57, 131, 303, 301, 302, 301, 298, 315, 302, 301, 315, 302, 316, 307, 302, 307, 304, 299, 303, 318, 318, 303, 304, 303, 302, 304, 70, 59, 60, 304, 307, 308, 60, 73, 134, 73, 60, 71, 57, 59, 145, 59, 69, 143, 69, 133, 130, 133, 69, 70, 70, 60, 144, 81, 79, 77, 81, 77, 78, 81, 78, 87, 77, 79, 86, 86, 79, 80, 82, 81, 87, 78, 77, 84, 77, 86, 92, 84, 77, 92, 87, 78, 90, 304, 308, 343, 316, 302, 315, 78, 84, 85, 316, 315, 319, 90, 78, 85, 318, 304, 342, 85, 84, 89, 84, 92, 94, 89, 84, 94, 90, 85, 95, 85, 89, 91, 95, 85, 91, 91, 89, 278, 89, 94, 279, 278, 89, 279, 95, 91, 282, 316, 319, 344, 91, 278, 281, 282, 91, 281, 69, 130, 138, 143, 69, 138, 138, 130, 139, 131, 57, 145, 139, 130, 133, 454, 369, 466, 376, 450, 455, 371, 376, 458, 376, 374, 450, 374, 370, 456, 369, 371, 466, 371, 374, 376, 379, 369, 454, 375, 369, 379, 370, 368, 465, 371, 370, 374, 368, 377, 448, 369, 370, 371, 367, 364, 375, 369, 368, 370, 377, 361, 372, 368, 361, 377, 364, 369, 375, 364, 368, 369, 364, 361, 368, 365, 372, 361, 363, 364, 367, 361, 356, 365, 343, 308, 334, 342, 304, 343, 343, 334, 355, 342, 343, 346, 346, 343, 357, 344, 319, 345, 360, 365, 356, 354, 344, 345, 133, 70, 139, 60, 134, 146, 139, 70, 144, 145, 59, 143, 143, 138, 144, 132, 131, 145, 363, 357, 364, 357, 361, 364, 346, 357, 363, 357, 356, 361, 354, 345, 360, 356, 354, 360, 357, 343, 356, 51, 11, 47, 195, 192, 199, 72, 131, 135, 416, 418, 422, 419, 416, 422, 199, 197, 214, 430, 429, 435, 429, 434, 435, 169, 150, 167, 425, 424, 430, 424, 429, 430, 448, 451, 449, 192, 195, 167, 169, 167, 195, 45, 50, 52, 449, 451, 452, 422, 418, 425, 446, 449, 452, 418, 424, 425, 446, 452, 447, 447, 459, 446, 459, 447, 460, 197, 199, 192, 214, 197, 212, 219, 220, 212, 135, 131, 137, 463, 473, 462, 345, 341, 347, 345, 347, 360, 345, 319, 341, 365, 360, 362, 462, 459, 460, 360, 347, 362, 463, 462, 460, 365, 362, 366, 52, 50, 65, 372, 365, 366, 372, 366, 373, 45, 52, 48, 152, 150, 169, 149, 147, 152, 54, 45, 48, 80, 54, 56, 54, 48, 56, 150, 152, 147, 142, 141, 149, 377, 372, 373, 147, 149, 141, 214, 212, 220, 280, 279, 283, 280, 283, 285, 377, 373, 378, 289, 280, 285, 289, 285, 290, 293, 289, 290, 448, 377, 378, 293, 290, 295, 298, 293, 295, 448, 378, 451, 62, 66, 68, 65, 50, 62, 298, 300, 315, 65, 62, 68, 132, 137, 131, 66, 75, 76, 68, 66, 76, 473, 463, 475, 298, 295, 300, 279, 96, 283, 224, 225, 219, 137, 132, 142, 220, 219, 225, 229, 230, 224, 279, 94, 96, 225, 224, 230, 416, 419, 229, 94, 93, 96, 230, 229, 419, 499, 477, 475, 477, 473, 475, 471, 469, 499, 94, 92, 93, 469, 477, 499, 319, 317, 341, 92, 88, 93, 92, 86, 88, 315, 300, 317, 315, 317, 319, 435, 434, 471, 132, 141, 142, 75, 72, 74, 76, 75, 74, 86, 83, 88, 80, 56, 83, 471, 434, 469, 86, 80, 83, 74, 72, 135, 440, 439, 441, 535, 536, 444, 445, 442, 440, 443, 444, 440, 444, 445, 440, 535, 444, 443, 445, 444, 536, 262, 261, 233, 232, 261, 263, 440, 235, 439, 440, 236, 235, 236, 234, 235, 263, 261, 262, 236, 232, 234, 264, 263, 262, 264, 262, 265, 441, 443, 440, 530, 264, 265, 533, 536, 535, 263, 234, 232, 232, 233, 261, 530, 265, 531, 531, 535, 534, 533, 535, 531, 236, 233, 232, 532, 531, 534, 532, 530, 531, 443, 534, 535, 487, 510, 514, 514, 507, 515, 527, 526, 529, 529, 520, 528, 524, 487, 514, 528, 524, 514, 515, 498, 527, 515, 527, 529, 515, 529, 514, 529, 528, 514, 525, 521, 529, 525, 497, 521, 528, 523, 524, 528, 522, 523, 520, 522, 528, 479, 470, 481, 470, 506, 482, 474, 470, 479, 497, 496, 521, 520, 529, 521, 481, 470, 482, 488, 489, 507, 515, 512, 513, 482, 506, 514, 515, 511, 512, 507, 489, 490, 507, 490, 492, 507, 492, 493, 474, 479, 478, 515, 494, 511, 515, 493, 494, 474, 478, 480, 474, 480, 484, 474, 522, 520, 474, 484, 485, 474, 485, 486, 522, 474, 486, 489, 488, 521, 491, 489, 521, 507, 514, 506, 483, 482, 514, 508, 483, 514, 507, 493, 515, 509, 508, 514, 495, 491, 521, 510, 509, 514, 513, 498, 515, 496, 495, 521, 526, 525, 529, 487, 498, 510, 495, 484, 491, 522, 486, 497, 486, 485, 496, 485, 484, 495, 484, 480, 491, 494, 483, 511, 493, 482, 494, 493, 492, 481, 492, 490, 479, 482, 483, 494, 481, 482, 493, 481, 492, 479, 511, 483, 508, 480, 489, 491, 490, 489, 478, 480, 478, 489, 478, 479, 490, 527, 524, 526, 526, 523, 525, 527, 487, 524, 523, 526, 524, 522, 525, 523, 522, 497, 525, 510, 498, 513, 498, 487, 527, 512, 509, 513, 511, 508, 512, 509, 510, 513, 508, 509, 512, 496, 485, 495, 497, 486, 496, 172, 153, 171, 209, 207, 206, 153, 161, 171, 185, 160, 187, 183, 160, 185, 159, 153, 172, 160, 153, 159, 196, 177, 180, 196, 176, 177, 153, 160, 154, 154, 209, 153, 174, 153, 200, 200, 153, 208, 184, 203, 154, 165, 166, 154, 181, 154, 182, 164, 165, 154, 209, 154, 203, 208, 153, 209, 154, 181, 164, 154, 160, 182, 196, 202, 206, 201, 200, 208, 202, 201, 208, 182, 160, 183, 173, 175, 168, 196, 175, 176, 162, 153, 163, 172, 173, 168, 168, 175, 196, 186, 185, 187, 168, 159, 172, 163, 153, 174, 206, 202, 208, 187, 207, 186, 209, 203, 204, 188, 186, 207, 209, 204, 205, 205, 190, 207, 191, 188, 207, 191, 207, 189, 161, 153, 162, 209, 205, 207, 206, 208, 209, 180, 178, 196, 196, 178, 179, 196, 179, 202, 190, 189, 207, 166, 184, 154, 162, 163, 166, 161, 162, 165, 189, 178, 191, 191, 180, 188, 190, 179, 189, 180, 191, 178, 202, 190, 205, 177, 188, 180, 178, 189, 179, 204, 201, 205, 203, 200, 204, 201, 202, 205, 200, 201, 204, 203, 174, 200, 164, 161, 165, 177, 186, 188, 165, 162, 166, 166, 163, 184, 176, 186, 177, 175, 185, 176, 203, 184, 174, 184, 163, 174, 175, 183, 185, 183, 173, 182, 182, 172, 181, 171, 164, 181, 175, 173, 183, 172, 171, 181, 173, 172, 182, 179, 190, 202, 186, 176, 185, 171, 161, 164, 0, 12, 1, 12, 29, 20, 31, 27, 49, 33, 31, 49, 32, 33, 49, 9, 36, 37, 9, 37, 41, 9, 41, 43, 9, 43, 44, 29, 30, 53, 12, 0, 2, 1, 12, 13, 53, 30, 32, 29, 53, 20, 39, 21, 40, 42, 40, 21, 44, 42, 21, 53, 32, 49, 12, 2, 24, 1, 13, 5, 5, 13, 34, 0, 1, 8, 2, 0, 3, 3, 0, 4, 4, 0, 8, 43, 42, 44, 25, 4, 49, 26, 25, 49, 27, 26, 49, 21, 12, 20, 39, 13, 21, 5, 6, 1, 1, 6, 7, 1, 7, 9, 9, 7, 35, 8, 1, 9, 35, 36, 9, 13, 12, 21, 12, 24, 14, 12, 14, 15, 12, 15, 16, 12, 16, 28, 28, 29, 12, 38, 13, 39, 19, 13, 38, 19, 18, 13, 18, 17, 13, 34, 13, 17, 49, 4, 8, 28, 16, 19, 16, 18, 19, 18, 15, 17, 17, 14, 34, 16, 15, 18, 15, 14, 17, 7, 4, 35, 6, 3, 7, 34, 14, 24, 24, 5, 34, 35, 4, 25, 25, 26, 36, 26, 27, 37, 27, 31, 41, 36, 35, 25, 36, 26, 37, 37, 27, 41, 29, 28, 38, 29, 39, 30, 30, 40, 32, 5, 2, 6, 3, 4, 7, 2, 3, 6, 24, 2, 5, 43, 33, 42, 41, 31, 43, 32, 42, 33, 31, 33, 43, 28, 19, 38, 39, 29, 38, 40, 30, 39, 32, 40, 42, 336, 355, 334, 322, 316, 320, 355, 338, 339, 350, 344, 354, 306, 305, 358, 329, 344, 350, 329, 328, 344, 328, 327, 344, 327, 325, 344, 334, 335, 336, 358, 348, 349, 358, 349, 350, 358, 350, 354, 306, 308, 307, 308, 331, 332, 305, 306, 307, 307, 322, 305, 305, 321, 309, 321, 305, 322, 358, 305, 311, 358, 311, 326, 314, 306, 359, 337, 314, 359, 359, 306, 358, 309, 310, 305, 310, 311, 305, 308, 306, 312, 308, 312, 331, 313, 312, 306, 314, 313, 306, 322, 307, 316, 351, 337, 359, 352, 351, 359, 339, 340, 359, 353, 352, 359, 359, 340, 353, 355, 339, 359, 358, 326, 348, 358, 354, 355, 359, 358, 355, 325, 316, 344, 308, 335, 334, 308, 333, 335, 308, 330, 333, 332, 330, 308, 324, 316, 325, 323, 316, 324, 320, 316, 323, 355, 336, 338, 322, 320, 330, 353, 329, 350, 320, 323, 333, 321, 322, 332, 331, 309, 321, 332, 322, 330, 330, 320, 333, 331, 321, 332, 323, 324, 335, 324, 325, 336, 333, 323, 335, 335, 324, 336, 350, 352, 353, 352, 349, 351, 348, 337, 351, 314, 311, 313, 313, 310, 312, 311, 314, 326, 311, 310, 313, 310, 309, 312, 349, 352, 350, 348, 351, 349, 326, 337, 348, 326, 314, 337, 309, 331, 312, 325, 327, 338, 328, 329, 340, 327, 328, 339, 336, 325, 338, 338, 327, 339, 339, 328, 340, 340, 329, 353]
        point3f[] points = [(-72.47845, -61.871845, -10), (-72.47845, -61.871845, -7), (-62.182804, -60.965115, -10), (-62.354076, -60.104076, -10), (-62.182804, -59.24304, -10), (-62.182804, -60.965115, -7), (-62.354076, -60.104076, -7), (-62.182804, -59.24304, -7), (-63.292015, -52.685413, -10), (-63.292015, -52.685413, -7), (-65.45165, -50.222816, -10), (-65.45165, -50.222816, 0), (-61.871845, -72.47845, -10), (-61.871845, -72.47845, -7), (-60.965115, -62.182804, -10), (-60.104076, -62.354076, -10), (-59.24304, -62.182804, -10), (-60.965115, -62.182804, -7), (-60.104076, -62.354076, -7), (-59.24304, -62.182804, -7), (-52.685413, -63.292015, -10), (-52.685413, -63.292015, -7), (-50.222816, -65.45165, -10), (-50.222816, -65.45165, 0), (-61.69507, -61.69507, -10), (-61.69507, -58.513084, -10), (-60.965115, -58.02535, -10), (-60.104076, -57.854076, -10), (-58.513084, -61.69507, -10), (-58.02535, -60.965115, -10), (-57.854076, -60.104076, -10), (-59.24304, -58.02535, -10), (-58.02535, -59.24304, -10), (-58.513084, -58.513084, -10), (-61.69507, -61.69507, -7), (-61.69507, -58.513084, -7), (-60.965115, -58.02535, -7), (-60.104076, -57.854076, -7), (-58.513084, -61.69507, -7), (-58.02535, -60.965115, -7), (-57.854076, -60.104076, -7), (-59.24304, -58.02535, -7), (-58.02535, -59.24304, -7), (-58.513084, -58.513084, -7), (-58.33631, -58.33631, -7), (-52.679455, -52.679455, -10), (-58.33631, -58.33631, 0), (-54.800777, -54.800777, 0), (-52.679455, -52.679455, 0), (-58.33631, -47.72971, -10), (-59.104824, -45.352726, -10), (-61.484882, -47.179012, 0), (-59.104824, -45.352726, 0), (-47.72971, -58.33631, -10), (-45.352726, -59.104824, -10), (-47.179012, -61.484882, 0), (-45.352726, -59.104824, 0), (-76.22006, -31.571383, -10), (-76.22006, -31.571383, 0), (-79.68888, -21.352571, -10), (-79.68888, -21.352571, 0), (-71.4471, -41.25, -10), (-64.51889, -37.25, -10), (-71.4471, -41.25, 0), (-67.11697, -38.75, 0), (-64.51889, -37.25, 0), (-68.829025, -28.509916, -10), (-71.60066, -29.657967, 0), (-68.829025, -28.509916, 0), (-81.794205, -10.768411, -10), (-81.794205, -10.768411, 0), (-74.85925, -20.058475, 0), (-73.86264, -9.724201, -10), (-76.836975, -10.11578, 0), (-73.86264, -9.724201, 0), (-71.96147, -19.282019, -10), (-71.96147, -19.282019, 0), (-31.571383, -76.22006, -10), (-31.571383, -76.22006, 0), (-41.25, -71.4471, -10), (-37.25, -64.51889, -10), (-41.25, -71.4471, 0), (-38.75, -67.11697, 0), (-37.25, -64.51889, 0), (-21.352571, -79.68888, -10), (-21.352571, -79.68888, 0), (-28.509916, -68.829025, -10), (-29.657967, -71.60066, 0), (-28.509916, -68.829025, 0), (-10.768411, -81.794205, -10), (-20.058475, -74.85925, 0), (-10.768411, -81.794205, 0), (-19.282019, -71.96147, -10), (-19.282019, -71.96147, 0), (-9.724201, -73.86264, -10), (-10.11578, -76.836975, 0), (-9.724201, -73.86264, 0), (-54.800777, -54.800777, 56), (-61.484882, -47.179012, 56), (-47.179012, -61.484882, 56), (-54.800777, -54.800777, 72), (-52.679455, -52.679455, 72), (-61.484882, -47.179012, 72), (-59.104824, -45.352726, 72), (-47.179012, -61.484882, 72), (-45.352726, -59.104824, 72), (-67.11697, -38.75, 56), (-71.60066, -29.657967, 56), (-67.11697, -38.75, 72), (-64.51889, -37.25, 72), (-71.60066, -29.657967, 72), (-68.829025, -28.509916, 72), (-74.85925, -20.058475, 56), (-76.836975, -10.11578, 56), (-74.85925, -20.058475, 72), (-76.836975, -10.11578, 72), (-73.86264, -9.724201, 72), (-71.96147, -19.282019, 72), (-38.75, -67.11697, 56), (-29.657967, -71.60066, 56), (-38.75, -67.11697, 72), (-37.25, -64.51889, 72), (-29.657967, -71.60066, 72), (-28.509916, -68.829025, 72), (-20.058475, -74.85925, 56), (-10.11578, -76.836975, 56), (-20.058475, -74.85925, 72), (-19.282019, -71.96147, 72), (-10.11578, -76.836975, 72), (-9.724201, -73.86264, 72), (-82.5, 0, -10), (-74.5, 0, -10), (-73.86264, 9.724201, -10), (-82.5, 0, 0), (-77.5, 0, 0), (-74.5, 0, 0), (-76.836975, 10.11578, 0), (-73.86264, 9.724201, 0), (-81.794205, 10.768411, -10), (-81.794205, 10.768411, 0), (-74.85925, 20.058475, 0), (-71.96147, 19.282019, -10), (-71.96147, 19.282019, 0), (-79.68888, 21.352571, -10), (-79.68888, 21.352571, 0), (-76.22006, 31.571383, -10), (-76.22006, 31.571383, 0), (-68.829025, 28.509916, -10), (-71.60066, 29.657967, 0), (-68.829025, 28.509916, 0), (-64.51889, 37.25, -10), (-67.11697, 38.75, 0), (-64.51889, 37.25, 0), (-72.47845, 61.871845, -10), (-72.47845, 61.871845, -7), (-71.4471, 41.25, -10), (-65.45165, 50.222816, -10), (-71.4471, 41.25, 0), (-65.45165, 50.222816, 0), (-63.292015, 52.685413, -10), (-63.292015, 52.685413, -7), (-62.182804, 59.24304, -10), (-62.354076, 60.104076, -10), (-62.182804, 60.965115, -10), (-62.182804, 59.24304, -7), (-62.354076, 60.104076, -7), (-62.182804, 60.965115, -7), (-59.104824, 45.352726, -10), (-58.33631, 47.72971, -10), (-59.104824, 45.352726, 0), (-61.484882, 47.179012, 0), (-61.69507, 58.513084, -10), (-60.965115, 58.02535, -10), (-60.104076, 57.854076, -10), (-61.69507, 61.69507, -10), (-59.24304, 58.02535, -10), (-58.513084, 58.513084, -10), (-58.02535, 59.24304, -10), (-58.02535, 60.965115, -10), (-58.513084, 61.69507, -10), (-57.854076, 60.104076, -10), (-61.69507, 58.513084, -7), (-60.965115, 58.02535, -7), (-60.104076, 57.854076, -7), (-61.69507, 61.69507, -7), (-59.24304, 58.02535, -7), (-58.513084, 58.513084, -7), (-58.33631, 58.33631, -7), (-58.02535, 59.24304, -7), (-58.02535, 60.965115, -7), (-58.513084, 61.69507, -7), (-57.854076, 60.104076, -7), (-52.679455, 52.679455, -10), (-58.33631, 58.33631, 0), (-54.800777, 54.800777, 0), (-52.679455, 52.679455, 0), (-47.72971, 58.33631, -10), (-45.352726, 59.104824, -10), (-47.179012, 61.484882, 0), (-45.352726, 59.104824, 0), (-60.965115, 62.182804, -10), (-60.104076, 62.354076, -10), (-59.24304, 62.182804, -10), (-60.965115, 62.182804, -7), (-60.104076, 62.354076, -7), (-59.24304, 62.182804, -7), (-52.685413, 63.292015, -10), (-52.685413, 63.292015, -7), (-61.871845, 72.47845, -10), (-61.871845, 72.47845, -7), (-50.222816, 65.45165, -10), (-50.222816, 65.45165, 0), (-37.25, 64.51889, -10), (-41.25, 71.4471, -10), (-37.25, 64.51889, 0), (-38.75, 67.11697, 0), (-41.25, 71.4471, 0), (-31.571383, 76.22006, -10), (-31.571383, 76.22006, 0), (-28.509916, 68.829025, -10), (-28.509916, 68.829025, 0), (-29.657967, 71.60066, 0), (-21.352571, 79.68888, -10), (-21.352571, 79.68888, 0), (-19.282019, 71.96147, -10), (-19.282019, 71.96147, 0), (-10.768411, 81.794205, -10), (-20.058475, 74.85925, 0), (-10.768411, 81.794205, 0), (-9.724201, 73.86264, -10), (-9.724201, 73.86264, 0), (-10.11578, 76.836975, 0), (-20, 73, 19.5), (-20, 74.87088, 19.5), (-14.060996, 73, 19.5), (-9.724201, 73.86264, 19.5), (-10.11578, 76.836975, 19.5), (-77.5, 0, 56), (-76.836975, 10.11578, 56), (-74.85925, 20.058475, 56), (-77.5, 0, 72), (-74.5, -0, 72), (-76.836975, 10.11578, 72), (-73.86264, 9.724201, 72), (-74.85925, 20.058475, 72), (-71.96147, 19.282019, 72), (-71.60066, 29.657967, 56), (-67.11697, 38.75, 56), (-71.60066, 29.657967, 72), (-68.829025, 28.509916, 72), (-67.11697, 38.75, 72), (-64.51889, 37.25, 72), (-61.484882, 47.179012, 56), (-54.800777, 54.800777, 56), (-47.179012, 61.484882, 56), (-59.104824, 45.352726, 72), (-61.484882, 47.179012, 72), (-54.800777, 54.800777, 72), (-52.679455, 52.679455, 72), (-47.179012, 61.484882, 72), (-45.352726, 59.104824, 72), (-20, 73, 44.5), (-20, 74.87088, 44.5), (-14.060996, 73, 44.5), (-9.724201, 73.86264, 44.5), (-10.11578, 76.836975, 44.5), (-38.75, 67.11697, 56), (-29.657967, 71.60066, 56), (-37.25, 64.51889, 72), (-38.75, 67.11697, 72), (-28.509916, 68.829025, 72), (-29.657967, 71.60066, 72), (-20.058475, 74.85925, 56), (-10.11578, 76.836975, 56), (-19.282019, 71.96147, 72), (-20.058475, 74.85925, 72), (-9.724201, 73.86264, 72), (-10.11578, 76.836975, 72), (0, -82.5, -10), (0, -74.5, -10), (9.724201, -73.86264, -10), (0, -82.5, 0), (0, -77.5, 0), (0, -74.5, 0), (10.11578, -76.836975, 0), (9.724201, -73.86264, 0), (10.768411, -81.794205, -10), (10.768411, -81.794205, 0), (20.058475, -74.85925, 0), (19.282019, -71.96147, -10), (19.282019, -71.96147, 0), (21.352571, -79.68888, -10), (21.352571, -79.68888, 0), (28.509916, -68.829025, -10), (29.657967, -71.60066, 0), (28.509916, -68.829025, 0), (31.571383, -76.22006, -10), (31.571383, -76.22006, 0), (37.25, -64.51889, -10), (38.75, -67.11697, 0), (37.25, -64.51889, 0), (41.25, -71.4471, -10), (50.222816, -65.45165, -10), (41.25, -71.4471, 0), (50.222816, -65.45165, 0), (61.871845, -72.47845, -10), (61.871845, -72.47845, -7), (52.685413, -63.292015, -10), (52.685413, -63.292015, -7), (59.24304, -62.182804, -10), (60.104076, -62.354076, -10), (60.965115, -62.182804, -10), (59.24304, -62.182804, -7), (60.104076, -62.354076, -7), (60.965115, -62.182804, -7), (45.352726, -59.104824, -10), (47.72971, -58.33631, -10), (45.352726, -59.104824, 0), (47.179012, -61.484882, 0), (52.679455, -52.679455, -10), (57.854076, -60.104076, -10), (58.513084, -61.69507, -10), (58.02535, -60.965115, -10), (58.02535, -59.24304, -10), (58.513084, -58.513084, -10), (59.24304, -58.02535, -10), (61.69507, -61.69507, -10), (60.104076, -57.854076, -10), (60.965115, -58.02535, -10), (61.69507, -58.513084, -10), (57.854076, -60.104076, -7), (58.513084, -61.69507, -7), (58.02535, -60.965115, -7), (58.02535, -59.24304, -7), (58.33631, -58.33631, -7), (58.513084, -58.513084, -7), (59.24304, -58.02535, -7), (61.69507, -61.69507, -7), (60.104076, -57.854076, -7), (60.965115, -58.02535, -7), (61.69507, -58.513084, -7), (52.679455, -52.679455, 0), (54.800777, -54.800777, 0), (58.33631, -58.33631, 0), (58.33631, -47.72971, -10), (59.104824, -45.352726, -10), (61.484882, -47.179012, 0), (59.104824, -45.352726, 0), (62.182804, -60.965115, -10), (62.354076, -60.104076, -10), (62.182804, -59.24304, -10), (62.182804, -60.965115, -7), (62.354076, -60.104076, -7), (62.182804, -59.24304, -7), (63.292015, -52.685413, -10), (63.292015, -52.685413, -7), (65.45165, -50.222816, -10), (65.45165, -50.222816, 0), (72.47845, -61.871845, -10), (72.47845, -61.871845, -7), (64.51889, -37.25, -10), (71.4471, -41.25, -10), (64.51889, -37.25, 0), (67.11697, -38.75, 0), (71.4471, -41.25, 0), (68.829025, -28.509916, -10), (68.829025, -28.509916, 0), (71.60066, -29.657967, 0), (76.22006, -31.571383, -10), (76.22006, -31.571383, 0), (79.68888, -21.352571, -10), (79.68888, -21.352571, 0), (71.96147, -19.282019, -10), (71.96147, -19.282019, 0), (81.794205, -10.768411, -10), (74.85925, -20.058475, 0), (81.794205, -10.768411, 0), (73.86264, -9.724201, -10), (73.86264, -9.724201, 0), (76.836975, -10.11578, 0), (0, -77.5, 56), (10.11578, -76.836975, 56), (20.058475, -74.85925, 56), (0, -77.5, 72), (0, -74.5, 72), (10.11578, -76.836975, 72), (9.724201, -73.86264, 72), (20.058475, -74.85925, 72), (19.282019, -71.96147, 72), (29.657967, -71.60066, 56), (38.75, -67.11697, 56), (29.657967, -71.60066, 72), (28.509916, -68.829025, 72), (38.75, -67.11697, 72), (37.25, -64.51889, 72), (47.179012, -61.484882, 56), (54.800777, -54.800777, 56), (61.484882, -47.179012, 56), (45.352726, -59.104824, 72), (47.179012, -61.484882, 72), (52.679455, -52.679455, 72), (54.800777, -54.800777, 72), (61.484882, -47.179012, 72), (59.104824, -45.352726, 72), (67.11697, -38.75, 56), (71.60066, -29.657967, 56), (64.51889, -37.25, 72), (67.11697, -38.75, 72), (68.829025, -28.509916, 72), (71.60066, -29.657967, 72), (74.85925, -20.058475, 56), (76.836975, -10.11578, 56), (71.96147, -19.282019, 72), (74.85925, -20.058475, 72), (73.86264, -9.724201, 72), (76.836975, -10.11578, 72), (0, 74.5, -10), (0, 82.5, -10), (9.724201, 73.86264, -10), (0, 74.5, 0), (0, 77.5, 0), (0, 82.5, 0), (9.724201, 73.86264, 0), (10.11578, 76.836975, 0), (19.282019, 71.96147, -10), (19.282019, 71.96147, 0), (10.768411, 81.794205, -10), (10.768411, 81.794205, 0), (20.058475, 74.85925, 0), (28.509916, 68.829025, -10), (28.509916, 68.829025, 0), (29.657967, 71.60066, 0), (21.352571, 79.68888, -10), (21.352571, 79.68888, 0), (37.25, 64.51889, -10), (37.25, 64.51889, 0), (38.75, 67.11697, 0), (31.571383, 76.22006, -10), (31.571383, 76.22006, 0), (0, 74.5, 19.5), (0, 77.5, 19.5), (9.724201, 73.86264, 19.5), (10.11578, 76.836975, 19.5), (14.060996, 73, 19.5), (20, 73, 19.5), (20, 74.87088, 19.5), (71.96147, 19.282019, -10), (71.96147, 19.282019, 0), (74.5, 0, -10), (73.86264, 9.724201, -10), (82.5, 0, -10), (74.5, 0, 0), (73.86264, 9.724201, 0), (76.836975, 10.11578, 0), (77.5, 0, 0), (82.5, 0, 0), (81.794205, 10.768411, -10), (74.85925, 20.058475, 0), (81.794205, 10.768411, 0), (68.829025, 28.509916, -10), (68.829025, 28.509916, 0), (71.60066, 29.657967, 0), (64.51889, 37.25, -10), (64.51889, 37.25, 0), (67.11697, 38.75, 0), (79.68888, 21.352571, -10), (79.68888, 21.352571, 0), (76.22006, 31.571383, -10), (76.22006, 31.571383, 0), (45.352726, 59.104824, -10), (47.72971, 58.33631, -10), (45.352726, 59.104824, 0), (47.179012, 61.484882, 0), (59.104824, 45.352726, -10), (58.33631, 47.72971, -10), (59.104824, 45.352726, 0), (61.484882, 47.179012, 0), (52.679455, 52.679455, -10), (58.513084, 58.513084, -10), (58.02535, 59.24304, -10), (59.24304, 58.02535, -10), (57.854076, 60.104076, -10), (58.02535, 60.965115, -10), (58.513084, 61.69507, -10), (60.104076, 57.854076, -10), (60.965115, 58.02535, -10), (61.69507, 58.513084, -10), (61.69507, 61.69507, -10), (58.33631, 58.33631, -7), (58.513084, 58.513084, -7), (58.02535, 59.24304, -7), (59.24304, 58.02535, -7), (57.854076, 60.104076, -7), (58.02535, 60.965115, -7), (58.513084, 61.69507, -7), (60.104076, 57.854076, -7), (60.965115, 58.02535, -7), (61.69507, 58.513084, -7), (61.69507, 61.69507, -7), (52.679455, 52.679455, 0), (54.800777, 54.800777, 0), (58.33631, 58.33631, 0), (41.25, 71.4471, -10), (50.222816, 65.45165, -10), (41.25, 71.4471, 0), (50.222816, 65.45165, 0), (52.685413, 63.292015, -10), (52.685413, 63.292015, -7), (59.24304, 62.182804, -10), (60.104076, 62.354076, -10), (60.965115, 62.182804, -10), (59.24304, 62.182804, -7), (60.104076, 62.354076, -7), (60.965115, 62.182804, -7), (61.871845, 72.47845, -10), (61.871845, 72.47845, -7), (65.45165, 50.222816, -10), (71.4471, 41.25, -10), (65.45165, 50.222816, 0), (71.4471, 41.25, 0), (63.292015, 52.685413, -10), (63.292015, 52.685413, -7), (62.182804, 59.24304, -10), (62.354076, 60.104076, -10), (62.182804, 60.965115, -10), (62.182804, 59.24304, -7), (62.354076, 60.104076, -7), (62.182804, 60.965115, -7), (72.47845, 61.871845, -10), (72.47845, 61.871845, -7), (0, 74.5, 44.5), (0, 77.5, 44.5), (9.724201, 73.86264, 44.5), (10.11578, 76.836975, 44.5), (14.060996, 73, 44.5), (20, 73, 44.5), (20, 74.87088, 44.5), (0, 77.5, 56), (10.11578, 76.836975, 56), (20.058475, 74.85925, 56), (0, 74.5, 72), (0, 77.5, 72), (9.724201, 73.86264, 72), (10.11578, 76.836975, 72), (19.282019, 71.96147, 72), (20.058475, 74.85925, 72), (29.657967, 71.60066, 56), (38.75, 67.11697, 56), (28.509916, 68.829025, 72), (29.657967, 71.60066, 72), (37.25, 64.51889, 72), (38.75, 67.11697, 72), (76.836975, 10.11578, 56), (77.5, 0, 56), (74.85925, 20.058475, 56), (71.96147, 19.282019, 72), (74.5, 0, 72), (73.86264, 9.724201, 72), (76.836975, 10.11578, 72), (77.5, 0, 72), (74.85925, 20.058475, 72), (71.60066, 29.657967, 56), (67.11697, 38.75, 56), (68.829025, 28.509916, 72), (71.60066, 29.657967, 72), (64.51889, 37.25, 72), (67.11697, 38.75, 72), (47.179012, 61.484882, 56), (61.484882, 47.179012, 56), (54.800777, 54.800777, 56), (45.352726, 59.104824, 72), (47.179012, 61.484882, 72), (59.104824, 45.352726, 72), (61.484882, 47.179012, 72), (52.679455, 52.679455, 72), (54.800777, 54.800777, 72)]

        rel material:binding = </dome_outer_union_diff_union_union_diff/Material>
    }

    def Scope "Material"
    {
        def Material "PBR"
        {
            token outputs:surface.connect = <PBR/Shader.outputs:surface>

            def Shader "Shader"
            {
                uniform token info:id = "UsdPreviewSurface"
                color3f inputs:diffuseColor = (0.5, 0.5, 0.5)
                float inputs:metallic = 0
                float inputs:roughness = 0.5
                token outputs:surface
            }
        }
    }

    def PhysicsCollisionAPI "collision"
    {
        rel physics:collisionGroup = </CollisionGroup>
    }
}
