#usda 1.0
(
    defaultPrim = "top_lid_diff_diff_diff_diff"
    upAxis = "Y"
    metersPerUnit = 0.001
)

def Xform "top_lid_diff_diff_diff_diff" (
    prepend apiSchemas = ["PhysicsRigidBodyAPI", "PhysicsMassAPI"]
)
{
    float physics:mass = 1.803104

    def Mesh "top_lid_diff_diff_diff_diff_mesh"
    {
        float3[] extent = [(-290, -290, -1), (290, 290, 1)]
        int[] faceVertexCounts = [3, 3, 3, 3, 3, 3, 3, 3, 3, 3, 3, 3, 3, 3, 3, 3, 3, 3, 3, 3, 3, 3, 3, 3, 3, 3, 3, 3, 3, 3, 3, 3, 3, 3, 3, 3, 3, 3, 3, 3, 3, 3, 3, 3, 3, 3, 3, 3, 3, 3, 3, 3, 3, 3, 3, 3, 3, 3, 3, 3, 3, 3, 3, 3, 3, 3, 3, 3, 3, 3, 3, 3, 3, 3, 3, 3, 3, 3, 3, 3, 3, 3, 3, 3, 3, 3, 3, 3, 3, 3, 3, 3, 3, 3, 3, 3, 3, 3, 3, 3, 3, 3, 3, 3, 3, 3, 3, 3, 3, 3, 3, 3, 3, 3, 3, 3, 3, 3, 3, 3, 3, 3, 3, 3, 3, 3, 3, 3, 3, 3, 3, 3, 3, 3, 3, 3, 3, 3, 3, 3, 3, 3, 3, 3, 3, 3, 3, 3, 3, 3, 3, 3, 3, 3, 3, 3, 3, 3, 3, 3, 3, 3, 3, 3, 3, 3, 3, 3, 3, 3, 3, 3, 3, 3, 3, 3, 3, 3, 3, 3, 3, 3, 3, 3, 3, 3, 3, 3, 3, 3, 3, 3, 3, 3, 3, 3, 3, 3, 3, 3, 3, 3, 3, 3, 3, 3, 3, 3, 3, 3, 3, 3, 3, 3, 3, 3, 3, 3, 3, 3, 3, 3, 3, 3, 3, 3, 3, 3, 3, 3, 3, 3, 3, 3, 3, 3, 3, 3, 3, 3, 3, 3, 3, 3, 3, 3, 3, 3, 3, 3, 3, 3, 3, 3, 3, 3, 3, 3, 3, 3, 3, 3, 3, 3, 3, 3, 3, 3, 3, 3, 3, 3, 3, 3, 3, 3, 3, 3, 3, 3, 3, 3, 3, 3, 3, 3, 3, 3, 3, 3, 3, 3, 3, 3, 3, 3, 3, 3, 3, 3, 3, 3, 3, 3, 3, 3, 3, 3, 3, 3, 3, 3, 3, 3, 3, 3, 3, 3, 3, 3, 3, 3, 3, 3, 3, 3, 3, 3, 3, 3, 3, 3, 3, 3, 3, 3, 3, 3, 3, 3, 3, 3, 3, 3, 3, 3, 3, 3, 3, 3, 3, 3, 3, 3, 3, 3, 3, 3, 3, 3, 3, 3, 3, 3, 3, 3, 3, 3, 3, 3, 3, 3, 3, 3, 3, 3, 3, 3, 3, 3, 3, 3, 3, 3, 3, 3, 3, 3, 3, 3, 3, 3, 3, 3, 3, 3, 3, 3, 3, 3, 3, 3, 3, 3, 3, 3, 3, 3, 3, 3, 3, 3, 3, 3, 3, 3, 3, 3, 3, 3, 3, 3, 3, 3, 3, 3, 3, 3, 3, 3, 3, 3, 3, 3, 3, 3, 3, 3, 3, 3, 3, 3, 3, 3, 3, 3, 3, 3, 3, 3, 3, 3, 3, 3, 3, 3, 3, 3, 3, 3, 3, 3, 3, 3, 3, 3, 3, 3, 3, 3, 3, 3, 3, 3, 3, 3, 3, 3, 3, 3, 3, 3, 3, 3, 3, 3, 3, 3, 3, 3, 3, 3, 3, 3, 3, 3, 3, 3, 3, 3, 3, 3, 3, 3, 3, 3, 3, 3, 3, 3, 3, 3, 3, 3, 3, 3, 3, 3, 3, 3, 3, 3, 3, 3, 3, 3, 3, 3, 3, 3, 3, 3, 3, 3, 3, 3, 3, 3, 3, 3, 3, 3, 3, 3, 3, 3, 3, 3, 3, 3, 3, 3, 3, 3, 3, 3, 3, 3, 3, 3, 3, 3, 3, 3, 3, 3, 3, 3, 3, 3, 3, 3, 3, 3, 3, 3, 3, 3, 3, 3, 3, 3, 3, 3, 3, 3, 3, 3, 3, 3, 3, 3, 3, 3, 3, 3, 3, 3, 3, 3, 3, 3, 3, 3, 3, 3, 3, 3, 3, 3, 3, 3, 3, 3, 3, 3, 3, 3, 3, 3, 3, 3, 3, 3, 3, 3, 3, 3, 3, 3, 3, 3, 3, 3, 3, 3, 3, 3, 3, 3, 3, 3, 3, 3, 3, 3, 3, 3, 3, 3, 3, 3, 3, 3, 3, 3, 3, 3, 3, 3, 3, 3, 3, 3, 3, 3, 3, 3, 3, 3, 3, 3, 3, 3, 3, 3, 3, 3, 3, 3, 3, 3, 3, 3, 3, 3, 3, 3, 3, 3, 3, 3, 3, 3, 3, 3, 3, 3, 3, 3, 3, 3, 3, 3, 3, 3, 3, 3, 3, 3, 3, 3, 3, 3, 3, 3, 3, 3, 3, 3, 3, 3, 3, 3, 3, 3, 3, 3, 3, 3, 3, 3, 3, 3, 3, 3, 3, 3, 3, 3, 3, 3, 3, 3, 3, 3, 3, 3, 3, 3, 3, 3, 3, 3, 3, 3, 3, 3, 3, 3, 3, 3, 3, 3, 3, 3, 3, 3, 3, 3, 3, 3, 3, 3, 3, 3, 3, 3, 3, 3, 3, 3, 3, 3, 3, 3, 3, 3, 3, 3, 3, 3, 3, 3, 3, 3, 3, 3, 3, 3, 3, 3, 3, 3, 3, 3, 3, 3, 3, 3, 3, 3, 3, 3, 3, 3, 3, 3, 3, 3, 3, 3, 3, 3, 3, 3, 3, 3, 3, 3, 3, 3, 3, 3, 3, 3, 3, 3, 3, 3, 3, 3, 3, 3, 3, 3, 3, 3, 3, 3, 3, 3, 3, 3, 3, 3, 3, 3, 3, 3, 3, 3, 3, 3, 3, 3, 3, 3, 3, 3, 3, 3, 3, 3, 3, 3, 3, 3, 3, 3, 3, 3, 3, 3, 3, 3, 3, 3, 3, 3, 3, 3, 3, 3, 3, 3, 3, 3, 3, 3, 3, 3, 3, 3, 3, 3, 3, 3, 3, 3, 3, 3, 3, 3, 3, 3, 3, 3, 3, 3, 3, 3, 3, 3, 3, 3, 3, 3, 3, 3, 3, 3, 3, 3, 3, 3, 3, 3, 3, 3, 3, 3, 3, 3, 3, 3, 3, 3, 3, 3, 3, 3, 3, 3, 3, 3, 3, 3, 3, 3, 3, 3, 3, 3, 3, 3, 3, 3, 3, 3, 3, 3, 3, 3, 3, 3, 3, 3, 3, 3, 3, 3, 3, 3, 3, 3, 3, 3, 3, 3, 3, 3, 3, 3, 3, 3, 3, 3, 3, 3, 3, 3, 3, 3, 3, 3, 3, 3, 3, 3, 3, 3, 3, 3, 3, 3, 3, 3, 3, 3, 3, 3, 3, 3, 3, 3, 3, 3, 3, 3, 3, 3, 3, 3, 3, 3, 3, 3, 3, 3, 3, 3, 3, 3, 3, 3, 3, 3, 3, 3, 3, 3, 3, 3, 3, 3, 3, 3, 3, 3, 3, 3, 3, 3, 3, 3, 3, 3, 3, 3, 3, 3, 3, 3, 3, 3, 3, 3, 3, 3, 3, 3, 3, 3, 3, 3, 3, 3, 3, 3, 3, 3, 3, 3, 3, 3, 3, 3, 3, 3, 3, 3, 3, 3, 3, 3, 3, 3, 3, 3, 3, 3, 3, 3, 3, 3, 3, 3, 3, 3, 3, 3, 3, 3, 3, 3, 3, 3, 3, 3, 3, 3, 3, 3, 3, 3, 3, 3, 3, 3, 3, 3, 3, 3, 3, 3, 3, 3, 3, 3, 3, 3, 3, 3, 3, 3, 3, 3, 3, 3, 3, 3, 3, 3, 3, 3, 3, 3, 3, 3, 3, 3, 3, 3, 3, 3, 3, 3, 3, 3, 3, 3, 3, 3, 3, 3, 3, 3, 3, 3, 3, 3, 3, 3, 3, 3, 3, 3, 3, 3, 3, 3, 3, 3, 3, 3, 3, 3, 3, 3, 3, 3, 3, 3, 3, 3, 3, 3, 3, 3, 3, 3, 3, 3, 3, 3, 3, 3, 3, 3, 3, 3, 3, 3, 3, 3, 3, 3, 3, 3, 3, 3, 3, 3, 3, 3, 3, 3, 3, 3, 3, 3, 3, 3, 3, 3, 3, 3, 3, 3, 3, 3, 3, 3, 3, 3, 3, 3, 3, 3, 3, 3, 3, 3, 3, 3, 3, 3, 3, 3, 3, 3, 3, 3, 3, 3, 3, 3, 3, 3, 3, 3, 3, 3, 3, 3, 3, 3, 3, 3, 3, 3, 3, 3, 3, 3, 3, 3, 3, 3, 3, 3, 3, 3, 3, 3, 3, 3, 3, 3, 3, 3, 3, 3, 3, 3, 3, 3, 3, 3, 3, 3, 3, 3, 3, 3, 3, 3, 3, 3, 3, 3, 3, 3, 3, 3, 3, 3, 3, 3, 3, 3, 3, 3, 3, 3, 3, 3, 3, 3, 3, 3, 3, 3, 3, 3, 3, 3, 3, 3, 3, 3, 3, 3, 3, 3, 3, 3, 3, 3, 3, 3, 3, 3, 3, 3, 3, 3, 3, 3, 3, 3, 3, 3, 3, 3, 3, 3, 3, 3, 3, 3, 3, 3, 3, 3, 3, 3, 3, 3, 3, 3, 3, 3, 3, 3, 3, 3, 3, 3, 3, 3, 3, 3, 3, 3, 3, 3, 3, 3, 3, 3, 3, 3, 3, 3, 3, 3, 3, 3, 3, 3, 3, 3, 3, 3, 3, 3, 3, 3, 3, 3, 3, 3, 3, 3, 3, 3, 3, 3, 3, 3, 3, 3, 3, 3, 3, 3, 3, 3, 3, 3, 3, 3, 3, 3, 3, 3, 3, 3, 3, 3, 3, 3, 3, 3, 3, 3, 3, 3, 3, 3, 3, 3, 3, 3, 3, 3, 3, 3, 3, 3, 3, 3, 3, 3, 3, 3, 3, 3, 3, 3, 3, 3, 3, 3, 3, 3, 3, 3, 3, 3, 3, 3, 3, 3, 3, 3, 3, 3, 3, 3, 3, 3, 3, 3, 3, 3, 3, 3, 3, 3, 3, 3, 3, 3, 3, 3, 3, 3, 3, 3, 3, 3, 3, 3, 3, 3, 3, 3, 3, 3, 3, 3, 3, 3, 3, 3, 3, 3, 3, 3, 3, 3, 3, 3, 3, 3, 3, 3, 3, 3, 3, 3, 3, 3, 3, 3, 3, 3, 3, 3, 3, 3, 3, 3, 3, 3, 3, 3, 3, 3, 3, 3, 3, 3, 3, 3, 3, 3, 3, 3, 3, 3, 3, 3, 3, 3, 3, 3, 3, 3, 3, 3, 3, 3, 3, 3, 3, 3, 3, 3, 3, 3, 3, 3, 3, 3, 3, 3, 3, 3, 3, 3, 3, 3, 3, 3, 3, 3, 3, 3, 3, 3, 3, 3, 3, 3, 3, 3, 3, 3, 3, 3, 3, 3, 3, 3, 3, 3, 3, 3, 3, 3, 3, 3, 3, 3, 3, 3, 3, 3, 3, 3, 3, 3, 3, 3, 3, 3, 3, 3, 3, 3, 3, 3, 3, 3, 3, 3, 3, 3, 3, 3, 3, 3, 3, 3, 3, 3, 3, 3, 3, 3, 3, 3, 3, 3, 3, 3, 3, 3, 3, 3, 3, 3, 3, 3, 3, 3, 3, 3, 3, 3, 3, 3, 3, 3, 3, 3, 3, 3, 3, 3, 3, 3, 3, 3, 3, 3, 3, 3, 3, 3, 3, 3, 3, 3, 3, 3, 3, 3, 3, 3, 3, 3, 3, 3, 3, 3, 3, 3, 3, 3, 3, 3, 3, 3, 3, 3, 3, 3, 3, 3, 3, 3, 3, 3, 3, 3, 3, 3, 3, 3, 3, 3, 3, 3, 3, 3, 3, 3, 3, 3, 3, 3, 3, 3, 3, 3, 3, 3, 3, 3, 3, 3, 3, 3, 3, 3, 3, 3, 3, 3, 3, 3, 3, 3, 3, 3, 3, 3, 3, 3, 3, 3, 3, 3, 3, 3, 3, 3, 3, 3, 3, 3, 3, 3, 3, 3, 3, 3, 3, 3, 3, 3, 3, 3, 3, 3, 3, 3, 3, 3, 3, 3, 3, 3, 3, 3, 3, 3, 3, 3, 3, 3, 3, 3, 3, 3, 3, 3, 3, 3, 3, 3, 3, 3, 3, 3, 3, 3, 3, 3, 3, 3, 3, 3, 3, 3, 3, 3, 3, 3, 3, 3, 3, 3, 3, 3, 3, 3, 3, 3, 3, 3, 3, 3, 3, 3, 3, 3, 3, 3, 3, 3, 3, 3, 3, 3, 3, 3, 3, 3, 3, 3, 3, 3, 3, 3, 3, 3, 3, 3, 3, 3, 3, 3, 3, 3, 3, 3, 3, 3, 3, 3, 3, 3, 3, 3, 3, 3, 3, 3, 3, 3, 3, 3, 3, 3, 3, 3, 3, 3, 3, 3, 3, 3, 3, 3, 3, 3, 3, 3, 3, 3, 3, 3, 3, 3, 3, 3]
        int[] faceVertexIndices = [454, 466, 467, 0, 1, 3, 455, 465, 466, 0, 4, 7, 478, 576, 0, 0, 5, 4, 490, 491, 521, 0, 13, 12, 491, 492, 520, 0, 14, 15, 492, 493, 513, 5, 0, 38, 493, 494, 513, 8, 6, 36, 485, 484, 496, 10, 9, 34, 486, 485, 496, 20, 11, 42, 489, 486, 497, 22, 21, 44, 9, 35, 34, 227, 240, 241, 221, 220, 246, 935, 874, 873, 269, 277, 276, 460, 461, 750, 333, 336, 335, 162, 671, 642, 162, 210, 208, 403, 404, 398, 913, 912, 871, 576, 568, 569, 931, 930, 959, 605, 617, 618, 19, 80, 81, 650, 656, 671, 25, 26, 86, 678, 679, 723, 384, 410, 399, 793, 806, 807, 29, 46, 47, 861, 867, 868, 894, 907, 906, 888, 889, 870, 231, 245, 259, 479, 480, 576, 483, 544, 546, 257, 256, 269, 564, 590, 591, 843, 779, 780, 283, 314, 313, 91, 28, 48, 395, 439, 440, 562, 587, 588, 633, 658, 660, 108, 107, 319, 333, 326, 336, 236, 243, 244, 701, 702, 672, 211, 188, 187, 162, 208, 207, 777, 841, 837, 821, 342, 343, 215, 216, 362, 800, 811, 812, 573, 574, 594, 852, 851, 781, 386, 387, 412, 330, 332, 340, 671, 643, 642, 419, 418, 449, 428, 430, 474, 897, 902, 927, 671, 448, 437, 922, 944, 938, 110, 125, 124, 269, 0, 398, 139, 140, 156, 121, 143, 144, 524, 555, 554, 110, 193, 125, 543, 542, 583, 263, 309, 302, 265, 270, 281, 851, 850, 784, 283, 284, 314, 233, 308, 319, 605, 604, 617, 163, 164, 185, 387, 442, 412, 358, 365, 371, 671, 158, 157, 191, 128, 127, 632, 635, 662, 484, 94, 495, 533, 532, 578, 149, 150, 175, 323, 322, 336, 16, 17, 84, 782, 348, 269, 50, 51, 99, 638, 700, 670, 64, 102, 101, 716, 715, 722, 398, 967, 269, 722, 738, 737, 916, 917, 873, 915, 916, 873, 133, 139, 155, 752, 764, 763, 355, 368, 366, 852, 781, 783, 386, 412, 411, 799, 800, 812, 798, 801, 828, 797, 796, 810, 258, 257, 269, 162, 641, 210, 551, 565, 576, 822, 839, 845, 174, 173, 185, 228, 227, 241, 168, 169, 180, 226, 239, 240, 584, 611, 612, 868, 598, 599, 864, 861, 868, 445, 446, 415, 235, 231, 259, 744, 967, 901, 356, 357, 369, 895, 896, 908, 752, 754, 764, 883, 950, 951, 462, 464, 465, 963, 962, 967, 230, 236, 244, 494, 514, 512, 398, 427, 476, 421, 452, 453, 510, 504, 525, 722, 697, 696, 120, 144, 145, 835, 857, 858, 526, 527, 556, 132, 154, 153, 547, 548, 576, 18, 81, 82, 574, 572, 593, 262, 263, 302, 536, 580, 581, 137, 136, 198, 265, 283, 313, 24, 85, 80, 265, 272, 271, 930, 961, 959, 295, 294, 269, 0, 15, 16, 317, 287, 288, 934, 933, 956, 584, 538, 787, 337, 293, 292, 584, 787, 611, 722, 695, 694, 691, 627, 626, 912, 872, 871, 212, 213, 189, 830, 868, 802, 576, 868, 722, 391, 433, 432, 23, 45, 46, 717, 716, 726, 106, 58, 72, 574, 593, 594, 690, 629, 628, 266, 265, 310, 268, 310, 309, 523, 554, 552, 671, 644, 643, 103, 102, 58, 461, 687, 731, 104, 103, 58, 332, 331, 341, 25, 86, 85, 345, 344, 299, 19, 24, 80, 331, 334, 341, 681, 680, 708, 347, 346, 298, 168, 180, 177, 701, 672, 670, 225, 224, 237, 722, 696, 695, 164, 165, 205, 718, 720, 726, 675, 674, 705, 678, 724, 728, 365, 359, 649, 892, 905, 903, 442, 443, 412, 914, 913, 870, 50, 99, 97, 224, 223, 238, 41, 40, 66, 741, 742, 767, 354, 355, 366, 787, 319, 816, 59, 58, 102, 777, 778, 841, 631, 632, 663, 692, 628, 627, 607, 620, 621, 792, 791, 804, 381, 400, 401, 788, 813, 814, 606, 618, 619, 138, 201, 202, 793, 792, 806, 791, 790, 805, 504, 506, 525, 360, 364, 649, 418, 417, 447, 572, 575, 592, 700, 701, 670, 576, 567, 568, 376, 377, 398, 832, 860, 862, 344, 301, 299, 393, 394, 441, 891, 903, 904, 436, 391, 390, 722, 110, 576, 391, 434, 433, 93, 92, 100, 462, 758, 471, 345, 299, 300, 880, 883, 951, 745, 769, 768, 445, 415, 414, 678, 723, 724, 430, 421, 453, 106, 105, 58, 420, 450, 451, 91, 49, 50, 894, 895, 907, 671, 437, 436, 896, 909, 908, 322, 321, 336, 150, 151, 179, 503, 502, 319, 649, 651, 436, 443, 444, 413, 935, 936, 874, 398, 476, 477, 925, 934, 947, 754, 765, 764, 929, 962, 961, 11, 10, 33, 487, 488, 499, 419, 449, 450, 483, 490, 544, 110, 116, 147, 494, 517, 516, 422, 451, 452, 891, 892, 903, 38, 269, 220, 758, 757, 471, 501, 507, 525, 132, 133, 154, 501, 525, 518, 263, 267, 309, 110, 147, 148, 365, 372, 371, 119, 145, 146, 821, 773, 774, 519, 553, 544, 130, 152, 143, 561, 530, 534, 0, 83, 478, 559, 558, 529, 253, 252, 269, 550, 551, 576, 17, 18, 82, 563, 562, 589, 267, 268, 309, 540, 539, 583, 190, 129, 128, 531, 533, 579, 265, 311, 310, 533, 578, 577, 835, 826, 857, 576, 594, 597, 58, 57, 71, 265, 271, 273, 604, 603, 616, 265, 282, 283, 54, 53, 101, 269, 276, 275, 519, 523, 552, 280, 279, 269, 21, 20, 43, 297, 296, 269, 923, 945, 944, 285, 286, 316, 0, 3, 2, 320, 289, 290, 843, 842, 779, 285, 316, 315, 318, 317, 288, 601, 600, 614, 932, 958, 957, 595, 607, 621, 850, 849, 785, 601, 614, 609, 702, 703, 673, 595, 621, 622, 882, 880, 967, 216, 217, 362, 600, 586, 613, 214, 215, 362, 140, 202, 157, 462, 759, 756, 89, 88, 31, 205, 211, 187, 91, 50, 97, 671, 162, 161, 140, 138, 202, 462, 760, 759, 921, 922, 938, 671, 161, 160, 248, 247, 269, 783, 782, 868, 585, 584, 612, 640, 639, 658, 265, 313, 312, 722, 625, 624, 262, 302, 303, 638, 666, 659, 171, 183, 182, 638, 669, 665, 260, 261, 304, 941, 877, 876, 676, 706, 707, 195, 134, 129, 259, 260, 305, 671, 653, 647, 824, 823, 846, 456, 683, 684, 505, 503, 319, 461, 747, 748, 853, 783, 868, 106, 73, 74, 110, 122, 123, 955, 954, 967, 110, 115, 116, 11, 33, 42, 110, 114, 115, 0, 2, 13, 232, 306, 307, 821, 327, 328, 880, 951, 967, 330, 340, 339, 223, 250, 238, 21, 43, 44, 649, 436, 373, 106, 74, 75, 632, 662, 663, 692, 690, 628, 638, 670, 669, 676, 675, 706, 110, 624, 193, 675, 705, 706, 375, 376, 110, 722, 712, 711, 220, 247, 246, 708, 709, 726, 205, 187, 186, 689, 678, 728, 167, 177, 178, 689, 728, 729, 213, 362, 189, 722, 734, 733, 170, 182, 181, 91, 97, 98, 169, 181, 180, 436, 388, 374, 173, 163, 185, 397, 396, 439, 230, 244, 245, 757, 472, 471, 398, 426, 427, 856, 854, 868, 939, 935, 873, 166, 178, 176, 920, 921, 937, 751, 752, 763, 351, 352, 378, 751, 755, 760, 28, 30, 48, 744, 901, 769, 353, 367, 379, 818, 817, 319, 91, 90, 28, 821, 772, 773, 358, 371, 370, 844, 780, 786, 635, 634, 661, 395, 397, 439, 229, 228, 242, 722, 626, 625, 817, 816, 319, 788, 787, 813, 52, 96, 99, 796, 795, 809, 365, 373, 372, 868, 599, 802, 407, 408, 398, 794, 807, 808, 604, 616, 617, 803, 829, 830, 142, 200, 201, 802, 803, 830, 87, 26, 27, 141, 199, 200, 162, 206, 205, 790, 789, 815, 149, 175, 349, 162, 207, 209, 364, 361, 649, 862, 863, 868, 57, 56, 67, 361, 363, 649, 192, 127, 126, 564, 563, 590, 507, 508, 525, 576, 569, 570, 140, 157, 156, 565, 566, 576, 494, 500, 501, 826, 848, 857, 382, 383, 402, 855, 856, 868, 130, 131, 152, 396, 392, 439, 462, 468, 469, 172, 174, 184, 600, 613, 614, 787, 525, 319, 169, 170, 181, 325, 324, 336, 24, 25, 85, 462, 751, 760, 444, 445, 414, 227, 226, 240, 867, 865, 868, 0, 576, 110, 385, 411, 410, 887, 870, 869, 586, 610, 613, 878, 877, 942, 398, 408, 409, 398, 423, 424, 687, 688, 730, 221, 246, 249, 443, 413, 412, 967, 722, 868, 18, 19, 81, 722, 743, 740, 359, 360, 649, 722, 735, 734, 688, 689, 729, 688, 729, 730, 392, 391, 438, 391, 436, 435, 422, 420, 451, 890, 891, 904, 430, 453, 473, 900, 897, 926, 898, 900, 911, 893, 906, 905, 458, 457, 685, 901, 929, 928, 191, 190, 128, 716, 722, 726, 57, 67, 70, 461, 746, 747, 109, 108, 319, 457, 684, 685, 940, 941, 876, 657, 655, 671, 229, 242, 243, 918, 919, 873, 455, 462, 465, 878, 942, 943, 106, 233, 319, 922, 923, 944, 462, 471, 468, 932, 931, 958, 88, 27, 31, 925, 947, 946, 0, 12, 14, 953, 955, 967, 352, 353, 379, 965, 964, 967, 110, 123, 112, 494, 501, 518, 799, 812, 827, 480, 481, 547, 110, 124, 122, 491, 520, 521, 55, 54, 95, 494, 515, 514, 106, 76, 77, 789, 814, 815, 819, 818, 319, 892, 893, 905, 429, 428, 475, 889, 890, 914, 710, 721, 726, 757, 886, 472, 231, 230, 245, 484, 495, 496, 487, 499, 500, 131, 132, 153, 508, 509, 525, 383, 384, 399, 511, 510, 525, 709, 710, 726, 899, 910, 909, 526, 556, 555, 106, 79, 233, 560, 559, 529, 105, 104, 58, 226, 225, 239, 5, 38, 37, 713, 712, 722, 480, 547, 576, 674, 704, 705, 522, 519, 544, 118, 146, 147, 523, 524, 554, 722, 694, 693, 558, 528, 529, 131, 153, 152, 519, 552, 553, 825, 847, 848, 527, 557, 556, 251, 248, 269, 561, 560, 530, 133, 155, 154, 548, 549, 576, 255, 254, 269, 576, 566, 567, 821, 840, 838, 576, 570, 571, 264, 258, 269, 575, 564, 591, 194, 126, 125, 576, 573, 594, 261, 262, 303, 542, 541, 583, 17, 82, 84, 536, 531, 580, 268, 266, 310, 533, 577, 579, 196, 135, 134, 532, 583, 582, 265, 312, 311, 562, 588, 589, 606, 605, 618, 572, 592, 593, 261, 303, 304, 260, 304, 305, 382, 402, 400, 265, 269, 275, 61, 60, 102, 265, 273, 270, 320, 318, 289, 265, 281, 282, 336, 291, 293, 265, 274, 272, 538, 537, 787, 265, 275, 274, 287, 317, 316, 269, 278, 277, 775, 776, 836, 269, 279, 278, 93, 100, 495, 294, 280, 269, 219, 648, 362, 296, 295, 269, 964, 966, 967, 298, 297, 269, 853, 852, 783, 284, 285, 315, 951, 952, 967, 286, 287, 316, 879, 878, 943, 318, 288, 289, 934, 956, 947, 321, 290, 291, 377, 380, 398, 284, 315, 314, 933, 932, 957, 537, 525, 787, 457, 456, 684, 586, 585, 610, 321, 320, 290, 603, 602, 615, 524, 526, 555, 608, 606, 619, 346, 300, 298, 599, 596, 623, 826, 825, 848, 585, 612, 610, 952, 953, 967, 603, 615, 616, 482, 546, 545, 608, 619, 620, 218, 219, 362, 599, 623, 802, 607, 608, 620, 39, 65, 69, 834, 835, 858, 671, 159, 158, 481, 545, 547, 383, 399, 402, 902, 901, 928, 631, 663, 157, 0, 84, 83, 62, 61, 102, 539, 538, 583, 776, 837, 836, 138, 142, 201, 90, 32, 28, 833, 859, 860, 392, 438, 439, 936, 875, 874, 849, 786, 785, 385, 386, 411, 393, 441, 442, 821, 774, 840, 211, 212, 188, 213, 214, 362, 394, 440, 441, 596, 595, 622, 41, 66, 68, 921, 938, 937, 391, 435, 434, 356, 369, 368, 56, 68, 67, 832, 833, 860, 202, 203, 157, 141, 137, 199, 110, 722, 624, 344, 292, 301, 142, 141, 200, 541, 540, 583, 663, 664, 157, 830, 831, 868, 576, 597, 598, 563, 589, 590, 700, 637, 636, 775, 836, 840, 575, 591, 592, 528, 558, 557, 634, 660, 661, 532, 582, 578, 197, 136, 135, 562, 534, 535, 535, 581, 587, 562, 535, 587, 531, 579, 580, 139, 156, 155, 532, 543, 583, 715, 714, 722, 584, 583, 538, 821, 838, 839, 671, 646, 645, 535, 536, 581, 655, 654, 671, 462, 470, 463, 650, 671, 436, 502, 109, 319, 458, 685, 686, 151, 166, 176, 461, 732, 746, 328, 329, 342, 461, 749, 750, 30, 29, 47, 324, 323, 336, 9, 8, 35, 6, 5, 37, 23, 22, 45, 26, 87, 86, 29, 23, 46, 849, 844, 786, 462, 469, 470, 337, 336, 293, 823, 822, 845, 6, 37, 36, 38, 0, 269, 960, 963, 967, 844, 843, 780, 822, 821, 839, 877, 941, 942, 821, 319, 327, 20, 42, 43, 331, 335, 334, 235, 305, 306, 329, 339, 342, 39, 38, 65, 332, 341, 340, 560, 529, 530, 58, 71, 72, 917, 918, 873, 454, 455, 466, 88, 87, 27, 851, 784, 781, 638, 668, 667, 10, 34, 33, 638, 659, 658, 691, 692, 627, 776, 777, 837, 40, 69, 66, 416, 446, 447, 704, 674, 673, 635, 661, 662, 236, 229, 243, 638, 665, 668, 703, 704, 673, 174, 185, 184, 680, 707, 708, 791, 805, 804, 722, 711, 697, 165, 162, 205, 714, 713, 722, 821, 343, 770, 719, 717, 726, 164, 205, 185, 721, 718, 726, 222, 221, 249, 681, 708, 726, 205, 186, 185, 682, 681, 726, 698, 636, 629, 679, 725, 723, 212, 189, 188, 687, 730, 731, 172, 184, 183, 722, 733, 727, 680, 676, 707, 722, 736, 735, 54, 101, 95, 722, 740, 739, 702, 673, 672, 224, 238, 237, 693, 691, 626, 698, 700, 636, 699, 698, 629, 690, 699, 629, 192, 191, 127, 446, 416, 415, 421, 422, 452, 722, 693, 626, 348, 347, 269, 404, 405, 398, 247, 220, 269, 150, 179, 175, 700, 638, 637, 866, 855, 868, 151, 176, 179, 110, 112, 113, 638, 667, 666, 798, 828, 829, 222, 249, 250, 352, 379, 378, 225, 237, 239, 376, 398, 110, 349, 350, 375, 754, 753, 765, 22, 44, 45, 745, 744, 769, 353, 354, 367, 751, 763, 762, 630, 631, 157, 741, 767, 766, 357, 358, 370, 744, 722, 967, 902, 928, 927, 782, 269, 868, 351, 378, 375, 820, 819, 319, 252, 251, 269, 821, 770, 771, 357, 370, 369, 774, 775, 840, 193, 194, 125, 842, 778, 779, 365, 649, 373, 850, 785, 784, 562, 561, 534, 204, 630, 157, 94, 93, 495, 387, 393, 442, 924, 925, 946, 194, 192, 126, 664, 671, 157, 462, 460, 751, 506, 319, 525, 868, 269, 967, 633, 640, 658, 634, 633, 660, 228, 241, 242, 794, 793, 807, 671, 160, 159, 444, 414, 413, 602, 601, 609, 803, 798, 829, 790, 815, 805, 90, 89, 32, 596, 622, 623, 792, 804, 806, 346, 345, 300, 868, 576, 598, 321, 291, 336, 801, 827, 828, 162, 642, 641, 162, 209, 206, 380, 401, 398, 787, 816, 813, 801, 799, 827, 91, 48, 49, 602, 609, 615, 800, 797, 811, 60, 59, 102, 795, 794, 808, 883, 884, 950, 137, 198, 199, 648, 649, 362, 789, 788, 814, 120, 121, 144, 417, 416, 447, 363, 362, 649, 91, 98, 100, 38, 220, 65, 63, 64, 101, 436, 389, 388, 915, 873, 872, 381, 382, 400, 436, 390, 389, 223, 222, 250, 394, 395, 440, 549, 550, 576, 778, 842, 841, 576, 571, 573, 265, 264, 269, 486, 496, 497, 933, 957, 956, 254, 253, 269, 825, 824, 847, 380, 381, 401, 833, 834, 859, 509, 511, 525, 256, 255, 269, 720, 719, 726, 824, 846, 847, 823, 845, 846, 834, 858, 859, 488, 498, 499, 854, 853, 868, 106, 78, 79, 863, 864, 868, 795, 808, 809, 865, 866, 868, 722, 744, 743, 436, 374, 373, 171, 172, 183, 821, 771, 772, 344, 338, 292, 430, 473, 474, 831, 832, 862, 338, 337, 292, 55, 95, 96, 170, 171, 182, 110, 117, 114, 326, 325, 336, 167, 168, 177, 331, 333, 335, 233, 234, 308, 391, 431, 438, 391, 432, 431, 462, 756, 758, 57, 70, 71, 329, 330, 339, 639, 638, 658, 166, 167, 178, 879, 943, 948, 884, 949, 950, 459, 458, 686, 110, 113, 111, 217, 218, 362, 886, 869, 472, 401, 403, 398, 913, 871, 870, 232, 235, 306, 940, 876, 875, 405, 406, 398, 885, 879, 948, 53, 63, 101, 881, 882, 967, 64, 62, 102, 398, 424, 425, 429, 475, 476, 136, 197, 198, 89, 31, 32, 196, 197, 135, 884, 885, 949, 190, 195, 129, 418, 447, 449, 195, 196, 134, 347, 298, 269, 384, 385, 410, 722, 739, 738, 398, 425, 426, 52, 55, 96, 722, 737, 736, 722, 727, 726, 51, 52, 99, 354, 366, 367, 831, 862, 868, 679, 726, 725, 821, 328, 342, 821, 820, 319, 679, 677, 726, 677, 682, 726, 886, 887, 869, 92, 91, 100, 889, 914, 870, 427, 429, 476, 893, 894, 906, 234, 232, 307, 896, 899, 909, 651, 652, 436, 899, 898, 910, 753, 766, 765, 890, 904, 914, 456, 448, 683, 895, 908, 907, 461, 459, 686, 897, 927, 926, 652, 650, 436, 929, 901, 967, 671, 645, 644, 106, 72, 73, 460, 750, 751, 8, 36, 35, 461, 686, 687, 461, 748, 749, 461, 731, 732, 506, 505, 319, 671, 647, 646, 742, 768, 767, 448, 671, 683, 148, 149, 349, 349, 110, 148, 656, 657, 671, 671, 654, 653, 107, 106, 319, 110, 398, 0, 912, 915, 872, 453, 454, 467, 919, 939, 873, 235, 259, 305, 936, 940, 875, 428, 474, 475, 885, 948, 949, 110, 111, 117, 919, 920, 939, 453, 467, 473, 923, 924, 945, 234, 307, 308, 930, 929, 961, 462, 463, 464, 920, 937, 939, 350, 351, 375, 924, 946, 945, 0, 7, 1, 931, 959, 958, 751, 762, 761, 929, 967, 962, 355, 356, 368, 954, 965, 967, 742, 745, 768, 966, 960, 967, 751, 761, 755, 488, 489, 498, 900, 926, 911, 494, 487, 500, 753, 741, 766, 478, 479, 576, 349, 375, 110, 481, 482, 545, 30, 47, 48, 482, 483, 546, 898, 911, 910, 492, 513, 520, 881, 967, 398, 490, 521, 522, 796, 809, 810, 494, 512, 513, 40, 39, 69, 494, 516, 515, 797, 810, 811, 494, 518, 517, 203, 204, 157, 116, 118, 147, 398, 477, 881, 119, 120, 145, 887, 888, 870, 106, 77, 78, 398, 409, 423, 118, 119, 146, 490, 522, 544, 420, 419, 450, 527, 528, 557, 56, 41, 68, 106, 75, 76, 406, 407, 398, 0, 16, 84, 121, 130, 143, 489, 497, 498, 212, 101, 102, 648, 109, 502, 219, 108, 109, 218, 107, 108, 217, 106, 107, 109, 648, 219, 108, 219, 218, 107, 218, 217, 216, 105, 106, 106, 217, 216, 105, 216, 215, 104, 215, 214, 103, 214, 213, 215, 104, 105, 102, 213, 212, 101, 212, 211, 95, 211, 205, 213, 102, 103, 210, 495, 100, 208, 100, 98, 504, 656, 650, 209, 97, 99, 205, 96, 95, 206, 99, 96, 500, 645, 646, 498, 643, 644, 502, 649, 648, 503, 651, 649, 511, 655, 657, 508, 653, 654, 507, 647, 653, 506, 650, 652, 501, 646, 647, 499, 644, 645, 497, 642, 643, 496, 641, 642, 207, 98, 97, 505, 652, 651, 99, 206, 209, 96, 205, 206, 97, 209, 207, 98, 207, 208, 510, 657, 656, 509, 654, 655, 214, 103, 104, 211, 95, 101, 100, 208, 210, 495, 210, 641, 656, 504, 510, 657, 510, 511, 655, 511, 509, 654, 509, 508, 653, 508, 507, 647, 507, 501, 650, 506, 504, 652, 505, 506, 651, 503, 505, 649, 502, 503, 646, 501, 500, 645, 500, 499, 644, 499, 498, 643, 498, 497, 642, 497, 496, 641, 496, 495, 333, 460, 462, 332, 459, 461, 331, 461, 460, 330, 458, 459, 329, 457, 458, 328, 456, 457, 325, 455, 454, 326, 462, 455, 324, 454, 453, 323, 453, 452, 322, 452, 451, 321, 451, 450, 320, 450, 449, 318, 449, 447, 314, 444, 443, 312, 442, 441, 302, 438, 431, 311, 441, 440, 307, 435, 436, 303, 431, 432, 460, 333, 331, 461, 331, 332, 459, 332, 330, 458, 330, 329, 457, 329, 328, 456, 328, 327, 455, 325, 326, 462, 326, 333, 454, 324, 325, 453, 323, 324, 452, 322, 323, 451, 321, 322, 450, 320, 321, 448, 327, 319, 437, 319, 308, 449, 318, 320, 447, 317, 318, 446, 316, 317, 445, 315, 316, 444, 314, 315, 443, 313, 314, 442, 312, 313, 438, 302, 309, 441, 311, 312, 440, 310, 311, 439, 309, 310, 436, 308, 307, 435, 307, 306, 434, 306, 305, 433, 305, 304, 432, 304, 303, 431, 303, 302, 309, 439, 438, 310, 440, 439, 304, 432, 433, 305, 433, 434, 308, 436, 437, 313, 443, 442, 306, 434, 435, 315, 445, 444, 316, 446, 445, 317, 447, 446, 319, 437, 448, 327, 448, 456, 523, 665, 669, 527, 672, 673, 519, 668, 665, 535, 680, 681, 543, 678, 689, 542, 689, 688, 541, 688, 687, 540, 687, 686, 538, 685, 684, 537, 684, 683, 536, 681, 682, 534, 676, 680, 533, 677, 679, 532, 679, 678, 531, 682, 677, 530, 675, 676, 529, 674, 675, 528, 673, 674, 671, 525, 683, 526, 670, 672, 524, 669, 670, 522, 667, 668, 520, 659, 666, 521, 666, 667, 518, 671, 664, 517, 664, 663, 516, 663, 662, 515, 662, 661, 514, 661, 660, 512, 660, 658, 513, 658, 659, 539, 686, 685, 689, 542, 543, 688, 541, 542, 687, 540, 541, 686, 539, 540, 685, 538, 539, 684, 537, 538, 683, 525, 537, 682, 531, 536, 681, 536, 535, 680, 535, 534, 679, 532, 533, 677, 533, 531, 678, 543, 532, 676, 534, 530, 675, 530, 529, 528, 674, 529, 673, 528, 527, 672, 527, 526, 671, 518, 525, 670, 526, 524, 669, 524, 523, 665, 523, 519, 668, 519, 522, 667, 522, 521, 666, 521, 520, 664, 517, 518, 663, 516, 517, 662, 515, 516, 661, 514, 515, 660, 512, 514, 658, 513, 512, 659, 520, 513, 274, 404, 403, 272, 403, 401, 277, 407, 406, 276, 406, 405, 297, 427, 426, 296, 426, 425, 295, 425, 424, 294, 424, 423, 280, 423, 409, 293, 420, 422, 301, 421, 430, 292, 422, 421, 291, 419, 420, 290, 418, 419, 289, 417, 418, 288, 416, 417, 287, 415, 416, 286, 414, 415, 285, 413, 414, 284, 412, 413, 283, 411, 412, 282, 410, 411, 281, 399, 410, 279, 409, 408, 278, 408, 407, 300, 428, 429, 275, 405, 404, 271, 401, 400, 273, 400, 402, 270, 402, 399, 298, 429, 427, 430, 299, 301, 428, 300, 299, 429, 298, 300, 426, 296, 297, 425, 295, 296, 427, 297, 298, 299, 430, 428, 424, 294, 295, 423, 280, 294, 421, 301, 292, 422, 292, 293, 420, 293, 291, 419, 291, 290, 418, 290, 289, 417, 289, 288, 416, 288, 287, 415, 287, 286, 414, 286, 285, 413, 285, 284, 412, 284, 283, 411, 283, 282, 410, 282, 281, 399, 281, 270, 409, 279, 280, 408, 278, 279, 407, 277, 278, 406, 276, 277, 405, 275, 276, 404, 274, 275, 403, 272, 274, 402, 270, 273, 401, 271, 272, 400, 273, 271, 348, 881, 477, 347, 477, 476, 335, 465, 464, 874, 776, 775, 878, 780, 779, 883, 781, 784, 785, 885, 884, 781, 883, 880, 784, 884, 883, 783, 880, 882, 782, 882, 881, 786, 879, 885, 780, 878, 879, 779, 877, 878, 777, 875, 876, 776, 874, 875, 775, 873, 874, 773, 871, 872, 772, 870, 871, 771, 869, 870, 884, 784, 785, 885, 785, 786, 882, 782, 783, 880, 783, 781, 879, 786, 780, 877, 779, 778, 876, 778, 777, 875, 777, 776, 873, 775, 774, 872, 774, 773, 871, 773, 772, 870, 772, 771, 869, 771, 770, 334, 464, 463, 341, 463, 470, 346, 476, 475, 770, 472, 869, 881, 348, 782, 477, 347, 348, 476, 346, 347, 475, 345, 346, 474, 344, 345, 472, 770, 343, 471, 343, 342, 470, 340, 341, 469, 339, 340, 468, 342, 339, 473, 338, 344, 467, 337, 338, 344, 474, 473, 345, 475, 474, 466, 336, 337, 465, 335, 336, 464, 334, 335, 463, 341, 334, 336, 466, 465, 337, 467, 466, 338, 473, 467, 343, 471, 472, 340, 470, 469, 774, 872, 873, 778, 876, 877, 342, 468, 471, 339, 469, 468, 865, 966, 964, 866, 964, 965, 864, 962, 963, 862, 959, 961, 867, 960, 966, 861, 963, 960, 859, 957, 958, 858, 956, 957, 856, 954, 955, 854, 955, 953, 853, 953, 952, 852, 952, 951, 850, 950, 949, 849, 949, 948, 857, 947, 956, 847, 945, 946, 846, 944, 945, 845, 938, 944, 843, 943, 942, 837, 940, 936, 842, 942, 941, 840, 935, 939, 839, 937, 938, 838, 939, 937, 836, 936, 935, 966, 865, 867, 964, 866, 865, 963, 861, 864, 962, 864, 863, 960, 867, 861, 959, 862, 860, 958, 860, 859, 956, 858, 857, 955, 854, 856, 965, 855, 866, 953, 853, 854, 952, 852, 853, 951, 851, 852, 950, 850, 851, 949, 849, 850, 947, 857, 848, 946, 848, 847, 938, 845, 839, 944, 846, 845, 948, 844, 849, 942, 842, 843, 940, 837, 841, 941, 841, 842, 939, 838, 840, 937, 839, 838, 936, 836, 837, 935, 840, 836, 844, 948, 943, 841, 941, 940, 943, 843, 844, 945, 847, 846, 863, 961, 962, 851, 951, 950, 860, 958, 959, 848, 946, 947, 961, 863, 862, 957, 859, 858, 855, 965, 954, 954, 856, 855, 371, 243, 242, 370, 242, 241, 369, 241, 240, 368, 240, 239, 366, 239, 237, 367, 237, 238, 379, 238, 250, 268, 396, 397, 267, 392, 396, 265, 395, 394, 264, 394, 393, 266, 397, 395, 263, 391, 392, 262, 390, 391, 261, 389, 390, 260, 388, 389, 258, 393, 387, 257, 387, 386, 256, 386, 385, 255, 385, 384, 254, 384, 383, 253, 383, 382, 252, 382, 381, 251, 381, 380, 249, 375, 378, 250, 378, 379, 248, 380, 377, 247, 377, 376, 246, 376, 375, 259, 374, 388, 245, 373, 374, 244, 372, 373, 243, 371, 372, 242, 370, 371, 241, 369, 370, 240, 368, 369, 239, 366, 368, 237, 367, 366, 238, 379, 367, 397, 266, 268, 396, 268, 267, 395, 265, 266, 394, 264, 265, 391, 263, 262, 390, 262, 261, 392, 267, 263, 389, 261, 260, 388, 260, 259, 393, 258, 264, 387, 257, 258, 386, 256, 257, 385, 255, 256, 384, 254, 255, 383, 253, 254, 382, 252, 253, 381, 251, 252, 380, 248, 251, 378, 250, 249, 377, 247, 248, 376, 246, 247, 375, 249, 246, 374, 259, 245, 373, 245, 244, 372, 244, 243, 834, 932, 933, 830, 928, 929, 835, 933, 934, 833, 931, 932, 832, 930, 931, 831, 929, 930, 829, 927, 928, 828, 926, 927, 826, 934, 925, 824, 924, 923, 823, 923, 922, 822, 922, 921, 820, 920, 919, 819, 919, 918, 818, 918, 917, 816, 916, 915, 813, 915, 912, 814, 912, 913, 827, 911, 926, 812, 910, 911, 811, 909, 910, 810, 908, 909, 809, 907, 908, 808, 906, 907, 807, 905, 906, 804, 904, 903, 805, 914, 904, 933, 835, 834, 932, 834, 833, 931, 833, 832, 930, 832, 831, 929, 831, 830, 928, 830, 829, 926, 828, 827, 925, 825, 826, 934, 826, 835, 923, 823, 824, 922, 822, 823, 921, 821, 822, 919, 819, 820, 918, 818, 819, 917, 817, 818, 916, 816, 817, 915, 813, 816, 912, 814, 813, 913, 815, 814, 910, 812, 811, 909, 811, 810, 908, 810, 809, 906, 808, 807, 905, 807, 806, 903, 806, 804, 914, 805, 815, 806, 903, 905, 815, 913, 914, 817, 917, 916, 821, 921, 920, 825, 925, 924, 907, 809, 808, 904, 804, 805, 911, 827, 812, 920, 820, 821, 924, 824, 825, 927, 829, 828, 189, 233, 79, 188, 79, 78, 187, 78, 77, 359, 236, 230, 361, 235, 232, 364, 231, 235, 362, 234, 233, 363, 232, 234, 360, 230, 231, 186, 77, 76, 365, 229, 236, 358, 228, 229, 357, 227, 228, 356, 226, 227, 185, 76, 75, 355, 225, 226, 354, 224, 225, 353, 223, 224, 352, 222, 223, 184, 75, 74, 351, 221, 222, 350, 220, 221, 183, 74, 73, 182, 73, 72, 181, 72, 71, 180, 71, 70, 177, 70, 67, 178, 67, 68, 176, 68, 66, 179, 66, 69, 349, 65, 220, 175, 69, 65, 236, 359, 365, 235, 361, 364, 234, 362, 363, 232, 363, 361, 231, 364, 360, 230, 360, 359, 229, 365, 358, 228, 358, 357, 227, 357, 356, 226, 356, 355, 225, 355, 354, 224, 354, 353, 223, 353, 352, 222, 352, 351, 221, 351, 350, 220, 350, 349, 233, 189, 362, 79, 188, 189, 78, 187, 188, 77, 186, 187, 76, 185, 186, 75, 184, 185, 74, 183, 184, 73, 182, 183, 72, 181, 182, 71, 180, 181, 70, 177, 180, 69, 175, 179, 67, 178, 177, 66, 179, 176, 68, 176, 178, 65, 349, 175, 799, 900, 898, 801, 897, 900, 800, 898, 899, 797, 899, 896, 796, 896, 895, 795, 895, 894, 794, 894, 893, 793, 893, 892, 792, 892, 891, 791, 891, 890, 790, 890, 889, 789, 889, 888, 788, 888, 887, 787, 887, 886, 902, 798, 803, 901, 803, 802, 897, 801, 798, 900, 799, 801, 898, 800, 799, 899, 797, 800, 895, 795, 796, 894, 794, 795, 893, 793, 794, 892, 792, 793, 891, 791, 792, 890, 790, 791, 889, 789, 790, 888, 788, 789, 887, 787, 788, 802, 769, 901, 623, 768, 769, 622, 767, 768, 621, 766, 767, 620, 765, 766, 619, 764, 765, 618, 763, 764, 617, 762, 763, 616, 761, 762, 615, 755, 761, 614, 759, 760, 613, 756, 759, 612, 757, 758, 611, 886, 757, 610, 758, 756, 609, 760, 755, 803, 901, 902, 798, 902, 897, 769, 802, 623, 896, 796, 797, 768, 623, 622, 767, 622, 621, 766, 621, 620, 765, 620, 619, 764, 619, 618, 763, 618, 617, 762, 617, 616, 761, 616, 615, 755, 615, 609, 759, 614, 613, 757, 612, 611, 886, 611, 787, 756, 613, 610, 758, 610, 612, 760, 609, 614, 163, 63, 53, 63, 163, 173, 173, 64, 63, 64, 173, 174, 62, 174, 172, 174, 62, 64, 61, 172, 171, 60, 171, 170, 172, 61, 62, 59, 170, 169, 58, 169, 168, 171, 60, 61, 57, 168, 167, 56, 167, 166, 170, 59, 60, 41, 166, 151, 53, 164, 163, 169, 58, 59, 54, 165, 164, 55, 162, 165, 168, 57, 58, 52, 161, 162, 51, 160, 161, 167, 56, 57, 50, 159, 160, 49, 158, 159, 166, 41, 56, 48, 157, 158, 47, 156, 157, 164, 53, 54, 46, 155, 156, 45, 154, 155, 165, 54, 55, 44, 153, 154, 43, 152, 153, 162, 55, 52, 42, 143, 152, 40, 151, 150, 161, 52, 51, 39, 150, 149, 38, 149, 148, 160, 51, 50, 37, 148, 147, 159, 50, 49, 36, 147, 146, 35, 146, 145, 34, 145, 144, 158, 49, 48, 33, 144, 143, 157, 48, 47, 156, 47, 46, 155, 46, 45, 154, 45, 44, 153, 44, 43, 143, 42, 33, 152, 43, 42, 151, 40, 41, 150, 39, 40, 149, 38, 39, 148, 37, 38, 147, 36, 37, 146, 35, 36, 145, 34, 35, 144, 33, 34, 607, 741, 753, 608, 753, 754, 606, 754, 752, 605, 752, 751, 604, 751, 750, 603, 750, 749, 602, 749, 748, 601, 748, 747, 600, 747, 746, 586, 746, 732, 599, 744, 745, 598, 743, 744, 597, 740, 743, 595, 742, 741, 596, 745, 742, 594, 739, 740, 593, 738, 739, 592, 737, 738, 591, 736, 737, 590, 735, 736, 589, 734, 735, 588, 733, 734, 587, 727, 733, 585, 732, 731, 584, 731, 730, 583, 730, 729, 582, 729, 728, 579, 723, 725, 581, 726, 727, 580, 725, 726, 578, 728, 724, 577, 724, 723, 741, 607, 595, 753, 608, 607, 754, 606, 608, 752, 605, 606, 751, 604, 605, 750, 603, 604, 749, 602, 603, 748, 601, 602, 747, 600, 601, 746, 586, 600, 745, 596, 599, 744, 599, 598, 743, 598, 597, 742, 595, 596, 740, 597, 594, 739, 594, 593, 738, 593, 592, 737, 592, 591, 736, 591, 590, 735, 590, 589, 734, 589, 588, 733, 588, 587, 727, 587, 581, 732, 585, 586, 731, 584, 585, 728, 578, 582, 730, 583, 584, 729, 582, 583, 726, 581, 580, 725, 580, 579, 724, 577, 578, 723, 579, 577, 32, 141, 142, 30, 138, 140, 29, 140, 139, 28, 142, 138, 27, 136, 137, 26, 135, 136, 31, 137, 141, 25, 134, 135, 24, 129, 134, 23, 139, 133, 22, 133, 132, 21, 132, 131, 20, 131, 130, 11, 130, 121, 19, 128, 129, 18, 127, 128, 17, 126, 127, 16, 125, 126, 15, 124, 125, 14, 122, 124, 13, 112, 123, 12, 123, 122, 10, 121, 120, 9, 120, 119, 8, 119, 118, 7, 114, 117, 1, 117, 111, 6, 118, 116, 5, 116, 115, 4, 115, 114, 2, 113, 112, 3, 111, 113, 142, 28, 32, 141, 32, 31, 140, 29, 30, 138, 30, 28, 136, 27, 26, 137, 31, 27, 135, 26, 25, 134, 25, 24, 129, 24, 19, 133, 22, 23, 139, 23, 29, 132, 21, 22, 131, 20, 21, 130, 11, 20, 128, 19, 18, 127, 18, 17, 126, 17, 16, 125, 16, 15, 124, 15, 14, 123, 12, 13, 112, 13, 2, 122, 14, 12, 121, 10, 11, 120, 9, 10, 119, 8, 9, 118, 6, 8, 117, 1, 7, 116, 5, 6, 115, 4, 5, 114, 7, 4, 113, 2, 3, 111, 3, 1, 640, 487, 494, 639, 494, 493, 638, 493, 492, 637, 492, 491, 636, 491, 490, 629, 490, 483, 635, 486, 489, 634, 489, 488, 633, 488, 487, 632, 485, 486, 631, 484, 485, 628, 483, 482, 627, 482, 481, 626, 481, 480, 625, 480, 479, 624, 479, 478, 630, 94, 484, 204, 93, 94, 203, 92, 93, 202, 91, 92, 201, 90, 91, 200, 89, 90, 199, 88, 89, 198, 87, 88, 197, 86, 87, 196, 85, 86, 195, 80, 85, 194, 83, 84, 193, 478, 83, 192, 84, 82, 190, 81, 80, 191, 82, 81, 94, 630, 204, 93, 204, 203, 92, 203, 202, 91, 202, 201, 90, 201, 200, 89, 200, 199, 88, 199, 198, 87, 198, 197, 86, 197, 196, 85, 196, 195, 80, 195, 190, 478, 193, 624, 83, 194, 193, 82, 191, 192, 84, 192, 194, 81, 190, 191, 487, 640, 633, 494, 639, 640, 493, 638, 639, 492, 637, 638, 491, 636, 637, 490, 629, 636, 486, 635, 632, 489, 634, 635, 488, 633, 634, 485, 632, 631, 484, 631, 630, 483, 628, 629, 482, 627, 628, 481, 626, 627, 480, 625, 626, 479, 624, 625, 575, 718, 721, 572, 720, 718, 574, 719, 720, 571, 716, 717, 570, 715, 716, 569, 714, 715, 573, 717, 719, 568, 713, 714, 567, 712, 713, 566, 711, 712, 564, 721, 710, 563, 710, 709, 562, 709, 708, 561, 708, 707, 560, 707, 706, 559, 706, 705, 558, 705, 704, 557, 704, 703, 556, 703, 702, 555, 702, 701, 554, 701, 700, 553, 698, 699, 544, 699, 690, 552, 700, 698, 565, 697, 711, 551, 696, 697, 550, 695, 696, 549, 694, 695, 548, 693, 694, 547, 691, 693, 546, 690, 692, 545, 692, 691, 720, 572, 574, 719, 574, 573, 718, 575, 572, 717, 573, 571, 716, 571, 570, 715, 570, 569, 714, 569, 568, 713, 568, 567, 712, 567, 566, 711, 566, 565, 721, 564, 575, 710, 563, 564, 709, 562, 563, 708, 561, 562, 707, 560, 561, 706, 559, 560, 705, 558, 559, 704, 557, 558, 703, 556, 557, 702, 555, 556, 701, 554, 555, 700, 552, 554, 698, 553, 552, 699, 544, 553, 697, 565, 551, 696, 551, 550, 693, 548, 547, 695, 550, 549, 694, 549, 548, 691, 547, 545, 692, 545, 546, 690, 546, 544]
        point3f[] points = [(-290, -290, -1), (-277.2034, -276.47226, -1), (-276.47226, -277.2034, -1), (-276.87384, -276.87384, -1), (-277.5991, -275.517, -1), (-277.65, -275, -1), (-277.5991, -274.483, -1), (-277.44827, -276.0141, -1), (-277.44827, -273.9859, -1), (-277.2034, -273.52774, -1), (-276.87384, -273.12616, -1), (-276.47226, -272.7966, -1), (-275.517, -277.5991, -1), (-276.0141, -277.44827, -1), (-275, -277.65, -1), (-274.483, -277.5991, -1), (-273.9859, -277.44827, -1), (-273.52774, -277.2034, -1), (-273.12616, -276.87384, -1), (-272.7966, -276.47226, -1), (-276.0141, -272.55173, -1), (-275.517, -272.4009, -1), (-275, -272.35, -1), (-274.483, -272.4009, -1), (-272.55173, -276.0141, -1), (-272.4009, -275.517, -1), (-272.35, -275, -1), (-272.4009, -274.483, -1), (-273.12616, -273.12616, -1), (-273.9859, -272.55173, -1), (-273.52774, -272.7966, -1), (-272.55173, -273.9859, -1), (-272.7966, -273.52774, -1), (-276.47226, -139.7034, -1), (-276.87384, -139.37384, -1), (-277.2034, -138.97226, -1), (-277.44827, -138.51411, -1), (-277.5991, -138.01698, -1), (-277.65, -137.5, -1), (-277.5991, -136.98302, -1), (-277.44827, -136.48589, -1), (-277.2034, -136.02774, -1), (-276.0141, -139.94829, -1), (-275.517, -140.09908, -1), (-275, -140.15, -1), (-274.483, -140.09908, -1), (-273.9859, -139.94829, -1), (-273.52774, -139.7034, -1), (-273.12616, -139.37384, -1), (-272.7966, -138.97226, -1), (-272.55173, -138.51411, -1), (-272.4009, -138.01698, -1), (-272.35, -137.5, -1), (-272.7966, -136.02774, -1), (-272.55173, -136.48589, -1), (-272.4009, -136.98302, -1), (-276.87384, -135.62616, -1), (-276.47226, -135.2966, -1), (-276.0141, -135.05171, -1), (-275.517, -134.90092, -1), (-275, -134.85, -1), (-274.483, -134.90092, -1), (-273.9859, -135.05171, -1), (-273.12616, -135.62616, -1), (-273.52774, -135.2966, -1), (-277.5991, -0.51698935, -1), (-277.2034, -1.4722611, -1), (-276.47226, -2.2033944, -1), (-276.87384, -1.873833, -1), (-277.44827, -1.014111, -1), (-276.0141, -2.4482808, -1), (-275.517, -2.599081, -1), (-275, -2.65, -1), (-274.483, -2.599081, -1), (-273.9859, -2.4482808, -1), (-273.52774, -2.2033944, -1), (-273.12616, -1.873833, -1), (-272.7966, -1.4722611, -1), (-272.55173, -1.014111, -1), (-272.4009, -0.51698935, -1), (-2.2033944, -276.47226, -1), (-1.873833, -276.87384, -1), (-1.4722611, -277.2034, -1), (-0.51698935, -277.5991, -1), (-1.014111, -277.44827, -1), (-2.4482808, -276.0141, -1), (-2.599081, -275.517, -1), (-2.65, -275, -1), (-2.599081, -274.483, -1), (-2.4482808, -273.9859, -1), (-2.2033944, -273.52774, -1), (-1.873833, -273.12616, -1), (-1.4722611, -272.7966, -1), (-1.014111, -272.55173, -1), (-0.51698935, -272.4009, -1), (-11.548494, -54.783543, -1), (-10.393371, -56.94463, -1), (-6.944628, -60.39337, -1), (-4.783543, -61.548492, -1), (-8.838835, -58.838837, -1), (-2.438629, -62.259815, -1), (-12.259816, -52.43863, -1), (-12.5, -50, -1), (-12.259816, -47.56137, -1), (-11.548494, -45.216457, -1), (-10.393371, -43.05537, -1), (-8.838835, -41.161163, -1), (-6.944628, -39.60663, -1), (-4.783543, -38.451508, -1), (-2.438629, -37.740185, -1), (-290, -290, 1), (-277.2034, -276.47226, 1), (-276.47226, -277.2034, 1), (-276.87384, -276.87384, 1), (-277.5991, -275.517, 1), (-277.65, -275, 1), (-277.5991, -274.483, 1), (-277.44827, -276.0141, 1), (-277.44827, -273.9859, 1), (-277.2034, -273.52774, 1), (-276.87384, -273.12616, 1), (-276.47226, -272.7966, 1), (-275.517, -277.5991, 1), (-276.0141, -277.44827, 1), (-275, -277.65, 1), (-274.483, -277.5991, 1), (-273.9859, -277.44827, 1), (-273.52774, -277.2034, 1), (-273.12616, -276.87384, 1), (-272.7966, -276.47226, 1), (-276.0141, -272.55173, 1), (-275.517, -272.4009, 1), (-275, -272.35, 1), (-274.483, -272.4009, 1), (-272.55173, -276.0141, 1), (-272.4009, -275.517, 1), (-272.35, -275, 1), (-272.4009, -274.483, 1), (-273.12616, -273.12616, 1), (-273.9859, -272.55173, 1), (-273.52774, -272.7966, 1), (-272.55173, -273.9859, 1), (-272.7966, -273.52774, 1), (-276.47226, -139.7034, 1), (-276.87384, -139.37384, 1), (-277.2034, -138.97226, 1), (-277.44827, -138.51411, 1), (-277.5991, -138.01698, 1), (-277.65, -137.5, 1), (-277.5991, -136.98302, 1), (-277.44827, -136.48589, 1), (-277.2034, -136.02774, 1), (-276.0141, -139.94829, 1), (-275.517, -140.09908, 1), (-275, -140.15, 1), (-274.483, -140.09908, 1), (-273.9859, -139.94829, 1), (-273.52774, -139.7034, 1), (-273.12616, -139.37384, 1), (-272.7966, -138.97226, 1), (-272.55173, -138.51411, 1), (-272.4009, -138.01698, 1), (-272.35, -137.5, 1), (-272.7966, -136.02774, 1), (-272.55173, -136.48589, 1), (-272.4009, -136.98302, 1), (-276.87384, -135.62616, 1), (-276.47226, -135.2966, 1), (-276.0141, -135.05171, 1), (-275.517, -134.90092, 1), (-275, -134.85, 1), (-274.483, -134.90092, 1), (-273.9859, -135.05171, 1), (-273.12616, -135.62616, 1), (-273.52774, -135.2966, 1), (-277.5991, -0.51698935, 1), (-277.2034, -1.4722611, 1), (-276.47226, -2.2033944, 1), (-276.87384, -1.873833, 1), (-277.44827, -1.014111, 1), (-276.0141, -2.4482808, 1), (-275.517, -2.599081, 1), (-275, -2.65, 1), (-274.483, -2.599081, 1), (-273.9859, -2.4482808, 1), (-273.52774, -2.2033944, 1), (-273.12616, -1.873833, 1), (-272.7966, -1.4722611, 1), (-272.55173, -1.014111, 1), (-272.4009, -0.51698935, 1), (-2.2033944, -276.47226, 1), (-1.873833, -276.87384, 1), (-1.4722611, -277.2034, 1), (-0.51698935, -277.5991, 1), (-1.014111, -277.44827, 1), (-2.4482808, -276.0141, 1), (-2.599081, -275.517, 1), (-2.65, -275, 1), (-2.599081, -274.483, 1), (-2.4482808, -273.9859, 1), (-2.2033944, -273.52774, 1), (-1.873833, -273.12616, 1), (-1.4722611, -272.7966, 1), (-1.014111, -272.55173, 1), (-0.51698935, -272.4009, 1), (-11.548494, -54.783543, 1), (-10.393371, -56.94463, 1), (-6.944628, -60.39337, 1), (-4.783543, -61.548492, 1), (-8.838835, -58.838837, 1), (-2.438629, -62.259815, 1), (-12.259816, -52.43863, 1), (-12.5, -50, 1), (-12.259816, -47.56137, 1), (-11.548494, -45.216457, 1), (-10.393371, -43.05537, 1), (-8.838835, -41.161163, 1), (-6.944628, -39.60663, 1), (-4.783543, -38.451508, 1), (-2.438629, -37.740185, 1), (-277.65, 0, -1), (-277.5991, 0.51698935, -1), (-277.44827, 1.014111, -1), (-277.2034, 1.4722611, -1), (-276.87384, 1.873833, -1), (-276.47226, 2.2033944, -1), (-276.0141, 2.4482808, -1), (-275.517, 2.599081, -1), (-275, 2.65, -1), (-274.483, 2.599081, -1), (-273.52774, 2.2033944, -1), (-273.12616, 1.873833, -1), (-272.55173, 1.014111, -1), (-272.35, 0, -1), (-272.4009, 0.51698935, -1), (-272.7966, 1.4722611, -1), (-273.9859, 2.4482808, -1), (-276.47226, 135.2966, -1), (-276.87384, 135.62616, -1), (-276.0141, 135.05171, -1), (-275.517, 134.90092, -1), (-275, 134.85, -1), (-274.483, 134.90092, -1), (-273.9859, 135.05171, -1), (-273.52774, 135.2966, -1), (-273.12616, 135.62616, -1), (-277.5991, 136.98302, -1), (-277.65, 137.5, -1), (-277.5991, 138.01698, -1), (-277.44827, 136.48589, -1), (-277.2034, 136.02774, -1), (-277.44827, 138.51411, -1), (-277.2034, 138.97226, -1), (-276.87384, 139.37384, -1), (-276.47226, 139.7034, -1), (-276.0141, 139.94829, -1), (-275.517, 140.09908, -1), (-275, 140.15, -1), (-274.483, 140.09908, -1), (-272.7966, 136.02774, -1), (-272.55173, 136.48589, -1), (-272.4009, 136.98302, -1), (-272.35, 137.5, -1), (-272.4009, 138.01698, -1), (-273.9859, 139.94829, -1), (-273.52774, 139.7034, -1), (-273.12616, 139.37384, -1), (-272.55173, 138.51411, -1), (-272.7966, 138.97226, -1), (-290, 290, -1), (-276.47226, 272.7966, -1), (-277.2034, 273.52774, -1), (-277.44827, 273.9859, -1), (-276.87384, 273.12616, -1), (-277.5991, 274.483, -1), (-277.65, 275, -1), (-277.5991, 275.517, -1), (-277.44827, 276.0141, -1), (-277.2034, 276.47226, -1), (-276.87384, 276.87384, -1), (-276.47226, 277.2034, -1), (-276.0141, 272.55173, -1), (-275.517, 272.4009, -1), (-275, 272.35, -1), (-274.483, 272.4009, -1), (-273.9859, 272.55173, -1), (-273.52774, 272.7966, -1), (-273.12616, 273.12616, -1), (-272.7966, 273.52774, -1), (-272.55173, 273.9859, -1), (-272.4009, 274.483, -1), (-272.35, 275, -1), (-272.55173, 276.0141, -1), (-272.4009, 275.517, -1), (-276.0141, 277.44827, -1), (-275.517, 277.5991, -1), (-275, 277.65, -1), (-274.483, 277.5991, -1), (-273.9859, 277.44827, -1), (-273.12616, 276.87384, -1), (-273.52774, 277.2034, -1), (-272.7966, 276.47226, -1), (-201.66689, 180.86128, -1), (-199.07358, 179.47514, -1), (-196.25969, 178.62155, -1), (-193.33333, 178.33333, -1), (-190.40698, 178.62155, -1), (-187.59308, 179.47514, -1), (-184.99979, 180.86128, -1), (-203.93994, 182.72673, -1), (-205.80537, 184.99979, -1), (-207.19153, 187.59308, -1), (-208.0451, 190.40698, -1), (-208.33333, 193.33333, -1), (-208.0451, 196.25969, -1), (-207.19153, 199.07358, -1), (-205.80537, 201.66689, -1), (-203.93994, 203.93994, -1), (-201.66689, 205.80537, -1), (-182.72673, 182.72673, -1), (-199.07358, 207.19153, -1), (-196.25969, 208.0451, -1), (-193.33333, 208.33333, -1), (-190.40698, 208.0451, -1), (-187.59308, 207.19153, -1), (-184.99979, 205.80537, -1), (-182.72673, 203.93994, -1), (-180.86128, 184.99979, -1), (-179.47514, 187.59308, -1), (-178.62155, 190.40698, -1), (-178.33333, 193.33333, -1), (-179.47514, 199.07358, -1), (-178.62155, 196.25969, -1), (-180.86128, 201.66689, -1), (-2.4482808, 273.9859, -1), (-2.599081, 274.483, -1), (-2.65, 275, -1), (-2.599081, 275.517, -1), (-2.4482808, 276.0141, -1), (-1.4722611, 272.7966, -1), (-1.873833, 273.12616, -1), (-2.2033944, 273.52774, -1), (-1.014111, 272.55173, -1), (-0.51698935, 272.4009, -1), (-2.2033944, 276.47226, -1), (-1.873833, 276.87384, -1), (-1.4722611, 277.2034, -1), (-1.014111, 277.44827, -1), (-0.51698935, 277.5991, -1), (-277.65, 0, 1), (-277.5991, 0.51698935, 1), (-277.44827, 1.014111, 1), (-277.2034, 1.4722611, 1), (-276.87384, 1.873833, 1), (-276.47226, 2.2033944, 1), (-276.0141, 2.4482808, 1), (-275.517, 2.599081, 1), (-275, 2.65, 1), (-274.483, 2.599081, 1), (-273.52774, 2.2033944, 1), (-273.12616, 1.873833, 1), (-272.55173, 1.014111, 1), (-272.35, 0, 1), (-272.4009, 0.51698935, 1), (-272.7966, 1.4722611, 1), (-273.9859, 2.4482808, 1), (-276.47226, 135.2966, 1), (-276.87384, 135.62616, 1), (-276.0141, 135.05171, 1), (-275.517, 134.90092, 1), (-275, 134.85, 1), (-274.483, 134.90092, 1), (-273.9859, 135.05171, 1), (-273.52774, 135.2966, 1), (-273.12616, 135.62616, 1), (-277.5991, 136.98302, 1), (-277.65, 137.5, 1), (-277.5991, 138.01698, 1), (-277.44827, 136.48589, 1), (-277.2034, 136.02774, 1), (-277.44827, 138.51411, 1), (-277.2034, 138.97226, 1), (-276.87384, 139.37384, 1), (-276.47226, 139.7034, 1), (-276.0141, 139.94829, 1), (-275.517, 140.09908, 1), (-275, 140.15, 1), (-274.483, 140.09908, 1), (-272.7966, 136.02774, 1), (-272.55173, 136.48589, 1), (-272.4009, 136.98302, 1), (-272.35, 137.5, 1), (-272.4009, 138.01698, 1), (-273.9859, 139.94829, 1), (-273.52774, 139.7034, 1), (-273.12616, 139.37384, 1), (-272.55173, 138.51411, 1), (-272.7966, 138.97226, 1), (-290, 290, 1), (-276.47226, 272.7966, 1), (-277.2034, 273.52774, 1), (-277.44827, 273.9859, 1), (-276.87384, 273.12616, 1), (-277.5991, 274.483, 1), (-277.65, 275, 1), (-277.5991, 275.517, 1), (-277.44827, 276.0141, 1), (-277.2034, 276.47226, 1), (-276.87384, 276.87384, 1), (-276.47226, 277.2034, 1), (-276.0141, 272.55173, 1), (-275.517, 272.4009, 1), (-275, 272.35, 1), (-274.483, 272.4009, 1), (-273.9859, 272.55173, 1), (-273.52774, 272.7966, 1), (-273.12616, 273.12616, 1), (-272.7966, 273.52774, 1), (-272.55173, 273.9859, 1), (-272.4009, 274.483, 1), (-272.35, 275, 1), (-272.55173, 276.0141, 1), (-272.4009, 275.517, 1), (-276.0141, 277.44827, 1), (-275.517, 277.5991, 1), (-275, 277.65, 1), (-274.483, 277.5991, 1), (-273.9859, 277.44827, 1), (-273.12616, 276.87384, 1), (-273.52774, 277.2034, 1), (-272.7966, 276.47226, 1), (-201.66689, 180.86128, 1), (-199.07358, 179.47514, 1), (-196.25969, 178.62155, 1), (-193.33333, 178.33333, 1), (-190.40698, 178.62155, 1), (-187.59308, 179.47514, 1), (-184.99979, 180.86128, 1), (-203.93994, 182.72673, 1), (-205.80537, 184.99979, 1), (-207.19153, 187.59308, 1), (-208.0451, 190.40698, 1), (-208.33333, 193.33333, 1), (-208.0451, 196.25969, 1), (-207.19153, 199.07358, 1), (-205.80537, 201.66689, 1), (-203.93994, 203.93994, 1), (-201.66689, 205.80537, 1), (-182.72673, 182.72673, 1), (-199.07358, 207.19153, 1), (-196.25969, 208.0451, 1), (-193.33333, 208.33333, 1), (-190.40698, 208.0451, 1), (-187.59308, 207.19153, 1), (-184.99979, 205.80537, 1), (-182.72673, 203.93994, 1), (-180.86128, 184.99979, 1), (-179.47514, 187.59308, 1), (-178.62155, 190.40698, 1), (-178.33333, 193.33333, 1), (-179.47514, 199.07358, 1), (-178.62155, 196.25969, 1), (-180.86128, 201.66689, 1), (-2.4482808, 273.9859, 1), (-2.599081, 274.483, 1), (-2.65, 275, 1), (-2.599081, 275.517, 1), (-2.4482808, 276.0141, 1), (-1.4722611, 272.7966, 1), (-1.873833, 273.12616, 1), (-2.2033944, 273.52774, 1), (-1.014111, 272.55173, 1), (-0.51698935, 272.4009, 1), (-2.2033944, 276.47226, 1), (-1.873833, 276.87384, 1), (-1.4722611, 277.2034, 1), (-1.014111, 277.44827, 1), (-0.51698935, 277.5991, 1), (0, -277.65, -1), (0.51698935, -277.5991, -1), (1.014111, -277.44827, -1), (1.4722611, -277.2034, -1), (1.873833, -276.87384, -1), (2.2033944, -276.47226, -1), (0, -272.35, -1), (0.51698935, -272.4009, -1), (1.014111, -272.55173, -1), (2.2033944, -273.52774, -1), (1.873833, -273.12616, -1), (1.4722611, -272.7966, -1), (2.4482808, -276.0141, -1), (2.599081, -275.517, -1), (2.65, -275, -1), (2.599081, -274.483, -1), (2.4482808, -273.9859, -1), (0, -62.5, -1), (2.438629, -62.259815, -1), (4.783543, -61.548492, -1), (6.944628, -60.39337, -1), (8.838835, -58.838837, -1), (10.393371, -56.94463, -1), (11.548494, -54.783543, -1), (0, -37.5, -1), (2.438629, -37.740185, -1), (8.838835, -41.161163, -1), (4.783543, -38.451508, -1), (6.944628, -39.60663, -1), (12.259816, -52.43863, -1), (12.5, -50, -1), (12.259816, -47.56137, -1), (10.393371, -43.05537, -1), (11.548494, -45.216457, -1), (178.55125, -199.45627, -1), (180.02982, -202.22246, -1), (177.64076, -196.45477, -1), (177.33333, -193.33333, -1), (177.64076, -190.21188, -1), (178.55125, -187.2104, -1), (180.02982, -184.44421, -1), (190.21188, -209.0259, -1), (182.01962, -204.64705, -1), (184.44421, -206.63684, -1), (187.2104, -208.1154, -1), (193.33333, -209.33333, -1), (196.45477, -209.0259, -1), (182.01962, -182.01962, -1), (199.45627, -208.1154, -1), (202.22246, -206.63684, -1), (204.64705, -204.64705, -1), (206.63684, -202.22246, -1), (208.1154, -199.45627, -1), (208.1154, -187.2104, -1), (204.64705, -182.01962, -1), (206.63684, -184.44421, -1), (209.0259, -196.45477, -1), (209.33333, -193.33333, -1), (209.0259, -190.21188, -1), (184.44421, -180.02982, -1), (187.2104, -178.55125, -1), (190.21188, -177.64076, -1), (193.33333, -177.33333, -1), (196.45477, -177.64076, -1), (199.45627, -178.55125, -1), (202.22246, -180.02982, -1), (272.7966, -276.47226, -1), (273.52774, -277.2034, -1), (273.12616, -276.87384, -1), (273.9859, -277.44827, -1), (274.483, -277.5991, -1), (275, -277.65, -1), (275.517, -277.5991, -1), (276.0141, -277.44827, -1), (272.4009, -275.517, -1), (272.55173, -276.0141, -1), (272.35, -275, -1), (272.4009, -274.483, -1), (272.55173, -273.9859, -1), (272.7966, -273.52774, -1), (273.12616, -273.12616, -1), (273.52774, -272.7966, -1), (273.9859, -272.55173, -1), (274.483, -272.4009, -1), (275, -272.35, -1), (275.517, -272.4009, -1), (276.0141, -272.55173, -1), (276.47226, -277.2034, -1), (276.87384, -276.87384, -1), (277.2034, -276.47226, -1), (277.44827, -276.0141, -1), (277.5991, -275.517, -1), (277.65, -275, -1), (277.5991, -274.483, -1), (276.87384, -273.12616, -1), (277.44827, -273.9859, -1), (277.2034, -273.52774, -1), (276.47226, -272.7966, -1), (290, -290, -1), (272.7966, -138.97226, -1), (272.55173, -138.51411, -1), (273.12616, -139.37384, -1), (273.52774, -139.7034, -1), (273.9859, -139.94829, -1), (272.4009, -138.01698, -1), (272.35, -137.5, -1), (272.4009, -136.98302, -1), (272.55173, -136.48589, -1), (272.7966, -136.02774, -1), (274.483, -140.09908, -1), (275, -140.15, -1), (275.517, -140.09908, -1), (276.0141, -139.94829, -1), (276.47226, -139.7034, -1), (276.87384, -139.37384, -1), (277.2034, -138.97226, -1), (277.44827, -138.51411, -1), (277.2034, -136.02774, -1), (277.44827, -136.48589, -1), (277.5991, -138.01698, -1), (277.65, -137.5, -1), (277.5991, -136.98302, -1), (273.12616, -135.62616, -1), (273.52774, -135.2966, -1), (273.9859, -135.05171, -1), (274.483, -134.90092, -1), (275, -134.85, -1), (275.517, -134.90092, -1), (276.0141, -135.05171, -1), (276.87384, -135.62616, -1), (276.47226, -135.2966, -1), (273.9859, -2.4482808, -1), (272.7966, -1.4722611, -1), (272.4009, -0.51698935, -1), (272.55173, -1.014111, -1), (273.12616, -1.873833, -1), (273.52774, -2.2033944, -1), (274.483, -2.599081, -1), (275, -2.65, -1), (275.517, -2.599081, -1), (276.0141, -2.4482808, -1), (276.47226, -2.2033944, -1), (276.87384, -1.873833, -1), (277.2034, -1.4722611, -1), (277.44827, -1.014111, -1), (277.5991, -0.51698935, -1), (0, -277.65, 1), (0.51698935, -277.5991, 1), (1.014111, -277.44827, 1), (1.4722611, -277.2034, 1), (1.873833, -276.87384, 1), (2.2033944, -276.47226, 1), (0, -272.35, 1), (0.51698935, -272.4009, 1), (1.014111, -272.55173, 1), (2.2033944, -273.52774, 1), (1.873833, -273.12616, 1), (1.4722611, -272.7966, 1), (2.4482808, -276.0141, 1), (2.599081, -275.517, 1), (2.65, -275, 1), (2.599081, -274.483, 1), (2.4482808, -273.9859, 1), (0, -62.5, 1), (2.438629, -62.259815, 1), (4.783543, -61.548492, 1), (6.944628, -60.39337, 1), (8.838835, -58.838837, 1), (10.393371, -56.94463, 1), (11.548494, -54.783543, 1), (0, -37.5, 1), (2.438629, -37.740185, 1), (8.838835, -41.161163, 1), (4.783543, -38.451508, 1), (6.944628, -39.60663, 1), (12.259816, -52.43863, 1), (12.5, -50, 1), (12.259816, -47.56137, 1), (10.393371, -43.05537, 1), (11.548494, -45.216457, 1), (178.55125, -199.45627, 1), (180.02982, -202.22246, 1), (177.64076, -196.45477, 1), (177.33333, -193.33333, 1), (177.64076, -190.21188, 1), (178.55125, -187.2104, 1), (180.02982, -184.44421, 1), (190.21188, -209.0259, 1), (182.01962, -204.64705, 1), (184.44421, -206.63684, 1), (187.2104, -208.1154, 1), (193.33333, -209.33333, 1), (196.45477, -209.0259, 1), (182.01962, -182.01962, 1), (199.45627, -208.1154, 1), (202.22246, -206.63684, 1), (204.64705, -204.64705, 1), (206.63684, -202.22246, 1), (208.1154, -199.45627, 1), (208.1154, -187.2104, 1), (204.64705, -182.01962, 1), (206.63684, -184.44421, 1), (209.0259, -196.45477, 1), (209.33333, -193.33333, 1), (209.0259, -190.21188, 1), (184.44421, -180.02982, 1), (187.2104, -178.55125, 1), (190.21188, -177.64076, 1), (193.33333, -177.33333, 1), (196.45477, -177.64076, 1), (199.45627, -178.55125, 1), (202.22246, -180.02982, 1), (272.7966, -276.47226, 1), (273.52774, -277.2034, 1), (273.12616, -276.87384, 1), (273.9859, -277.44827, 1), (274.483, -277.5991, 1), (275, -277.65, 1), (275.517, -277.5991, 1), (276.0141, -277.44827, 1), (272.4009, -275.517, 1), (272.55173, -276.0141, 1), (272.35, -275, 1), (272.4009, -274.483, 1), (272.55173, -273.9859, 1), (272.7966, -273.52774, 1), (273.12616, -273.12616, 1), (273.52774, -272.7966, 1), (273.9859, -272.55173, 1), (274.483, -272.4009, 1), (275, -272.35, 1), (275.517, -272.4009, 1), (276.0141, -272.55173, 1), (276.47226, -277.2034, 1), (276.87384, -276.87384, 1), (277.2034, -276.47226, 1), (277.44827, -276.0141, 1), (277.5991, -275.517, 1), (277.65, -275, 1), (277.5991, -274.483, 1), (276.87384, -273.12616, 1), (277.44827, -273.9859, 1), (277.2034, -273.52774, 1), (276.47226, -272.7966, 1), (290, -290, 1), (272.7966, -138.97226, 1), (272.55173, -138.51411, 1), (273.12616, -139.37384, 1), (273.52774, -139.7034, 1), (273.9859, -139.94829, 1), (272.4009, -138.01698, 1), (272.35, -137.5, 1), (272.4009, -136.98302, 1), (272.55173, -136.48589, 1), (272.7966, -136.02774, 1), (274.483, -140.09908, 1), (275, -140.15, 1), (275.517, -140.09908, 1), (276.0141, -139.94829, 1), (276.47226, -139.7034, 1), (276.87384, -139.37384, 1), (277.2034, -138.97226, 1), (277.44827, -138.51411, 1), (277.2034, -136.02774, 1), (277.44827, -136.48589, 1), (277.5991, -138.01698, 1), (277.65, -137.5, 1), (277.5991, -136.98302, 1), (273.12616, -135.62616, 1), (273.52774, -135.2966, 1), (273.9859, -135.05171, 1), (274.483, -134.90092, 1), (275, -134.85, 1), (275.517, -134.90092, 1), (276.0141, -135.05171, 1), (276.87384, -135.62616, 1), (276.47226, -135.2966, 1), (273.9859, -2.4482808, 1), (272.7966, -1.4722611, 1), (272.4009, -0.51698935, 1), (272.55173, -1.014111, 1), (273.12616, -1.873833, 1), (273.52774, -2.2033944, 1), (274.483, -2.599081, 1), (275, -2.65, 1), (275.517, -2.599081, 1), (276.0141, -2.4482808, 1), (276.47226, -2.2033944, 1), (276.87384, -1.873833, 1), (277.2034, -1.4722611, 1), (277.44827, -1.014111, 1), (277.5991, -0.51698935, 1), (0, 272.35, -1), (0.51698935, 272.4009, -1), (1.014111, 272.55173, -1), (1.4722611, 272.7966, -1), (1.873833, 273.12616, -1), (2.2033944, 273.52774, -1), (2.4482808, 273.9859, -1), (2.599081, 274.483, -1), (2.65, 275, -1), (2.599081, 275.517, -1), (2.4482808, 276.0141, -1), (1.014111, 277.44827, -1), (0, 277.65, -1), (0.51698935, 277.5991, -1), (1.4722611, 277.2034, -1), (1.873833, 276.87384, -1), (2.2033944, 276.47226, -1), (272.35, 0, -1), (272.4009, 0.51698935, -1), (272.55173, 1.014111, -1), (272.7966, 1.4722611, -1), (273.12616, 1.873833, -1), (273.52774, 2.2033944, -1), (273.9859, 2.4482808, -1), (274.483, 2.599081, -1), (275, 2.65, -1), (275.517, 2.599081, -1), (276.0141, 2.4482808, -1), (277.44827, 1.014111, -1), (276.87384, 1.873833, -1), (276.47226, 2.2033944, -1), (277.2034, 1.4722611, -1), (277.65, 0, -1), (277.5991, 0.51698935, -1), (273.52774, 135.2966, -1), (273.12616, 135.62616, -1), (273.9859, 135.05171, -1), (274.483, 134.90092, -1), (275, 134.85, -1), (275.517, 134.90092, -1), (276.0141, 135.05171, -1), (276.47226, 135.2966, -1), (276.87384, 135.62616, -1), (272.4009, 136.98302, -1), (272.55173, 136.48589, -1), (272.7966, 136.02774, -1), (272.35, 137.5, -1), (272.4009, 138.01698, -1), (272.55173, 138.51411, -1), (272.7966, 138.97226, -1), (273.12616, 139.37384, -1), (273.52774, 139.7034, -1), (273.9859, 139.94829, -1), (274.483, 140.09908, -1), (275, 140.15, -1), (275.517, 140.09908, -1), (276.0141, 139.94829, -1), (277.2034, 136.02774, -1), (277.44827, 136.48589, -1), (277.5991, 136.98302, -1), (277.65, 137.5, -1), (277.5991, 138.01698, -1), (277.44827, 138.51411, -1), (277.2034, 138.97226, -1), (276.87384, 139.37384, -1), (276.47226, 139.7034, -1), (272.7966, 273.52774, -1), (272.55173, 273.9859, -1), (273.52774, 272.7966, -1), (273.9859, 272.55173, -1), (273.12616, 273.12616, -1), (272.4009, 274.483, -1), (272.35, 275, -1), (272.4009, 275.517, -1), (272.55173, 276.0141, -1), (274.483, 272.4009, -1), (275, 272.35, -1), (275.517, 272.4009, -1), (276.0141, 272.55173, -1), (272.7966, 276.47226, -1), (273.12616, 276.87384, -1), (273.52774, 277.2034, -1), (273.9859, 277.44827, -1), (274.483, 277.5991, -1), (275, 277.65, -1), (276.0141, 277.44827, -1), (275.517, 277.5991, -1), (276.47226, 272.7966, -1), (276.87384, 273.12616, -1), (277.2034, 273.52774, -1), (277.44827, 273.9859, -1), (277.44827, 276.0141, -1), (277.5991, 274.483, -1), (277.65, 275, -1), (277.5991, 275.517, -1), (276.87384, 276.87384, -1), (276.47226, 277.2034, -1), (277.2034, 276.47226, -1), (290, 290, -1), (0, 272.35, 1), (0.51698935, 272.4009, 1), (1.014111, 272.55173, 1), (1.4722611, 272.7966, 1), (1.873833, 273.12616, 1), (2.2033944, 273.52774, 1), (2.4482808, 273.9859, 1), (2.599081, 274.483, 1), (2.65, 275, 1), (2.599081, 275.517, 1), (2.4482808, 276.0141, 1), (1.014111, 277.44827, 1), (0, 277.65, 1), (0.51698935, 277.5991, 1), (1.4722611, 277.2034, 1), (1.873833, 276.87384, 1), (2.2033944, 276.47226, 1), (272.35, 0, 1), (272.4009, 0.51698935, 1), (272.55173, 1.014111, 1), (272.7966, 1.4722611, 1), (273.12616, 1.873833, 1), (273.52774, 2.2033944, 1), (273.9859, 2.4482808, 1), (274.483, 2.599081, 1), (275, 2.65, 1), (275.517, 2.599081, 1), (276.0141, 2.4482808, 1), (277.44827, 1.014111, 1), (276.87384, 1.873833, 1), (276.47226, 2.2033944, 1), (277.2034, 1.4722611, 1), (277.65, 0, 1), (277.5991, 0.51698935, 1), (273.52774, 135.2966, 1), (273.12616, 135.62616, 1), (273.9859, 135.05171, 1), (274.483, 134.90092, 1), (275, 134.85, 1), (275.517, 134.90092, 1), (276.0141, 135.05171, 1), (276.47226, 135.2966, 1), (276.87384, 135.62616, 1), (272.4009, 136.98302, 1), (272.55173, 136.48589, 1), (272.7966, 136.02774, 1), (272.35, 137.5, 1), (272.4009, 138.01698, 1), (272.55173, 138.51411, 1), (272.7966, 138.97226, 1), (273.12616, 139.37384, 1), (273.52774, 139.7034, 1), (273.9859, 139.94829, 1), (274.483, 140.09908, 1), (275, 140.15, 1), (275.517, 140.09908, 1), (276.0141, 139.94829, 1), (277.2034, 136.02774, 1), (277.44827, 136.48589, 1), (277.5991, 136.98302, 1), (277.65, 137.5, 1), (277.5991, 138.01698, 1), (277.44827, 138.51411, 1), (277.2034, 138.97226, 1), (276.87384, 139.37384, 1), (276.47226, 139.7034, 1), (272.7966, 273.52774, 1), (272.55173, 273.9859, 1), (273.52774, 272.7966, 1), (273.9859, 272.55173, 1), (273.12616, 273.12616, 1), (272.4009, 274.483, 1), (272.35, 275, 1), (272.4009, 275.517, 1), (272.55173, 276.0141, 1), (274.483, 272.4009, 1), (275, 272.35, 1), (275.517, 272.4009, 1), (276.0141, 272.55173, 1), (272.7966, 276.47226, 1), (273.12616, 276.87384, 1), (273.52774, 277.2034, 1), (273.9859, 277.44827, 1), (274.483, 277.5991, 1), (275, 277.65, 1), (276.0141, 277.44827, 1), (275.517, 277.5991, 1), (276.47226, 272.7966, 1), (276.87384, 273.12616, 1), (277.2034, 273.52774, 1), (277.44827, 273.9859, 1), (277.44827, 276.0141, 1), (277.5991, 274.483, 1), (277.65, 275, 1), (277.5991, 275.517, 1), (276.87384, 276.87384, 1), (276.47226, 277.2034, 1), (277.2034, 276.47226, 1), (290, 290, 1)]

        rel material:binding = </top_lid_diff_diff_diff_diff/Material>
    }

    def Scope "Material"
    {
        def Material "PBR"
        {
            token outputs:surface.connect = <PBR/Shader.outputs:surface>

            def Shader "Shader"
            {
                uniform token info:id = "UsdPreviewSurface"
                color3f inputs:diffuseColor = (1, 0.4, 0)
                float inputs:metallic = 0.3
                float inputs:roughness = 0.6
                token outputs:surface
            }
        }
    }

    def PhysicsCollisionAPI "collision"
    {
        rel physics:collisionGroup = </CollisionGroup>
    }
}
