#usda 1.0
(
    defaultPrim = "front_panel_union_union_union_union_diff_diff_diff_diff_diff_diff"
    upAxis = "Y"
    metersPerUnit = 0.001
)

def Xform "front_panel_union_union_union_union_diff_diff_diff_diff_diff_diff" (
    prepend apiSchemas = ["PhysicsRigidBodyAPI", "PhysicsMassAPI"]
)
{
    float physics:mass = 181.556064

    def Mesh "front_panel_union_union_union_union_diff_diff_diff_diff_diff_diff_mesh"
    {
        float3[] extent = [(-291, -291, 0), (291, 291, 200)]
        int[] faceVertexCounts = [3, 3, 3, 3, 3, 3, 3, 3, 3, 3, 3, 3, 3, 3, 3, 3, 3, 3, 3, 3, 3, 3, 3, 3, 3, 3, 3, 3, 3, 3, 3, 3, 3, 3, 3, 3, 3, 3, 3, 3, 3, 3, 3, 3, 3, 3, 3, 3, 3, 3, 3, 3, 3, 3, 3, 3, 3, 3, 3, 3, 3, 3, 3, 3, 3, 3, 3, 3, 3, 3, 3, 3, 3, 3, 3, 3, 3, 3, 3, 3, 3, 3, 3, 3, 3, 3, 3, 3, 3, 3, 3, 3, 3, 3, 3, 3, 3, 3, 3, 3, 3, 3, 3, 3, 3, 3, 3, 3, 3, 3, 3, 3, 3, 3, 3, 3, 3, 3, 3, 3, 3, 3, 3, 3, 3, 3, 3, 3, 3, 3, 3, 3, 3, 3, 3, 3, 3, 3, 3, 3, 3, 3, 3, 3, 3, 3, 3, 3, 3, 3, 3, 3, 3, 3, 3, 3, 3, 3, 3, 3, 3, 3, 3, 3, 3, 3, 3, 3, 3, 3, 3, 3, 3, 3, 3, 3, 3, 3, 3, 3, 3, 3, 3, 3, 3, 3, 3, 3, 3, 3, 3, 3, 3, 3, 3, 3, 3, 3, 3, 3, 3, 3, 3, 3, 3, 3, 3, 3, 3, 3, 3, 3, 3, 3, 3, 3, 3, 3, 3, 3, 3, 3, 3, 3, 3, 3, 3, 3, 3, 3, 3, 3, 3, 3, 3, 3, 3, 3, 3, 3, 3, 3, 3, 3, 3, 3, 3, 3, 3, 3, 3, 3, 3, 3, 3, 3, 3, 3, 3, 3, 3, 3, 3, 3, 3, 3, 3, 3, 3, 3, 3, 3, 3, 3, 3, 3, 3, 3, 3, 3, 3, 3, 3, 3, 3, 3, 3, 3, 3, 3, 3, 3, 3, 3, 3, 3, 3, 3, 3, 3, 3, 3, 3, 3, 3, 3, 3, 3, 3, 3, 3, 3, 3, 3, 3, 3, 3, 3, 3, 3, 3, 3, 3, 3, 3, 3, 3, 3, 3, 3, 3, 3, 3, 3, 3, 3, 3, 3, 3, 3, 3, 3, 3, 3, 3, 3, 3, 3, 3, 3, 3, 3, 3, 3, 3, 3, 3, 3, 3, 3, 3, 3, 3, 3, 3, 3, 3, 3, 3, 3, 3, 3, 3, 3, 3, 3, 3, 3, 3, 3, 3, 3, 3, 3, 3, 3, 3, 3, 3, 3, 3, 3, 3, 3, 3, 3, 3, 3, 3, 3, 3, 3, 3, 3, 3, 3, 3, 3, 3, 3, 3, 3, 3, 3, 3, 3, 3, 3, 3, 3, 3, 3, 3, 3, 3, 3, 3, 3, 3, 3, 3, 3, 3, 3, 3, 3, 3, 3, 3, 3, 3, 3, 3, 3, 3, 3, 3, 3, 3, 3, 3, 3, 3, 3, 3, 3, 3, 3, 3, 3, 3, 3, 3, 3, 3, 3, 3, 3, 3, 3, 3, 3, 3, 3, 3, 3, 3, 3, 3, 3, 3, 3, 3, 3, 3, 3, 3, 3, 3, 3, 3, 3, 3, 3, 3, 3, 3, 3, 3, 3, 3, 3, 3, 3, 3, 3, 3, 3, 3, 3, 3, 3, 3, 3, 3, 3, 3, 3, 3, 3, 3, 3, 3, 3, 3, 3, 3, 3, 3, 3, 3, 3, 3, 3, 3, 3, 3, 3, 3, 3, 3, 3, 3, 3, 3, 3, 3, 3, 3, 3, 3, 3, 3, 3, 3, 3, 3, 3, 3, 3, 3, 3, 3, 3, 3, 3, 3, 3, 3, 3, 3, 3, 3, 3, 3, 3, 3, 3, 3, 3, 3, 3, 3, 3, 3, 3, 3, 3, 3, 3, 3, 3, 3, 3, 3, 3, 3, 3, 3, 3, 3, 3, 3, 3, 3, 3, 3, 3, 3, 3, 3, 3, 3, 3, 3, 3, 3, 3, 3, 3, 3, 3, 3, 3, 3, 3, 3, 3, 3, 3, 3, 3, 3, 3, 3, 3, 3, 3, 3, 3, 3, 3, 3, 3, 3, 3, 3, 3, 3, 3, 3, 3, 3, 3, 3, 3, 3, 3, 3, 3, 3, 3, 3, 3, 3, 3, 3, 3, 3, 3, 3, 3, 3, 3, 3, 3, 3, 3, 3, 3, 3, 3, 3, 3, 3, 3, 3, 3, 3, 3, 3, 3, 3, 3, 3, 3, 3, 3, 3, 3, 3, 3, 3, 3, 3, 3, 3, 3, 3, 3, 3, 3, 3, 3, 3, 3, 3, 3, 3, 3, 3, 3, 3, 3, 3, 3, 3, 3, 3, 3, 3, 3, 3, 3, 3, 3, 3, 3, 3, 3, 3, 3, 3, 3, 3, 3, 3, 3, 3, 3, 3, 3, 3, 3, 3, 3, 3, 3, 3, 3, 3, 3, 3, 3, 3, 3, 3, 3, 3, 3, 3, 3, 3, 3, 3, 3, 3, 3, 3, 3, 3, 3, 3, 3, 3, 3, 3, 3, 3, 3, 3, 3, 3, 3, 3, 3, 3, 3, 3, 3, 3, 3, 3, 3, 3, 3, 3, 3, 3, 3, 3, 3, 3, 3, 3, 3, 3, 3, 3, 3, 3, 3, 3, 3, 3, 3, 3, 3, 3, 3, 3, 3, 3, 3, 3, 3, 3, 3, 3, 3, 3, 3, 3, 3, 3, 3, 3, 3, 3, 3, 3, 3, 3, 3, 3, 3, 3, 3, 3, 3, 3, 3, 3, 3, 3, 3, 3, 3, 3, 3, 3, 3, 3, 3, 3, 3, 3, 3, 3, 3, 3, 3, 3, 3, 3, 3, 3, 3, 3, 3, 3, 3, 3, 3, 3, 3, 3, 3, 3, 3, 3, 3, 3, 3, 3, 3, 3, 3, 3, 3, 3, 3, 3, 3, 3, 3, 3, 3, 3, 3, 3, 3, 3, 3, 3, 3, 3, 3, 3, 3, 3, 3, 3, 3, 3, 3, 3, 3, 3, 3, 3, 3, 3, 3, 3, 3, 3, 3, 3, 3, 3, 3, 3, 3, 3, 3, 3, 3, 3, 3, 3, 3, 3, 3, 3, 3, 3, 3, 3, 3, 3, 3, 3, 3, 3, 3, 3, 3, 3, 3, 3, 3, 3, 3, 3, 3, 3, 3, 3, 3, 3, 3, 3, 3, 3, 3, 3, 3, 3, 3, 3, 3, 3, 3, 3, 3, 3, 3, 3, 3, 3, 3]
        int[] faceVertexIndices = [232, 227, 237, 476, 484, 480, 471, 479, 481, 481, 479, 477, 468, 480, 484, 156, 221, 223, 484, 483, 461, 481, 477, 467, 468, 478, 480, 154, 230, 155, 222, 155, 231, 232, 156, 223, 474, 484, 476, 475, 471, 481, 484, 231, 483, 231, 482, 483, 482, 230, 481, 474, 240, 484, 472, 476, 480, 471, 469, 479, 235, 479, 469, 475, 481, 232, 474, 470, 240, 235, 233, 479, 235, 469, 473, 477, 225, 467, 472, 480, 228, 464, 481, 467, 468, 484, 462, 155, 461, 154, 461, 462, 484, 466, 468, 462, 464, 467, 465, 156, 464, 221, 222, 466, 155, 468, 224, 478, 464, 465, 221, 462, 155, 466, 461, 155, 462, 223, 467, 225, 224, 222, 231, 223, 225, 227, 155, 230, 231, 226, 224, 231, 232, 223, 227, 228, 226, 231, 228, 231, 234, 240, 231, 484, 239, 235, 473, 470, 236, 240, 470, 472, 228, 473, 475, 232, 231, 230, 482, 230, 232, 481, 239, 473, 232, 231, 240, 238, 239, 232, 237, 231, 238, 234, 470, 228, 236, 228, 234, 236, 227, 233, 237, 227, 479, 233, 226, 478, 224, 2, 0, 154, 2, 136, 0, 229, 232, 230, 3, 156, 140, 136, 2, 138, 136, 138, 139, 136, 229, 0, 230, 153, 229, 229, 136, 139, 139, 140, 232, 229, 139, 232, 232, 140, 156, 154, 0, 153, 153, 0, 229, 154, 153, 230, 463, 461, 485, 396, 463, 485, 481, 393, 482, 481, 464, 308, 482, 396, 485, 485, 461, 483, 463, 306, 461, 393, 396, 482, 393, 481, 308, 393, 395, 396, 395, 307, 396, 307, 463, 396, 307, 306, 463, 395, 306, 307, 483, 482, 485, 1, 82, 83, 137, 132, 134, 374, 308, 131, 393, 357, 354, 1, 86, 96, 1, 96, 68, 1, 68, 70, 3, 87, 81, 3, 97, 87, 3, 69, 97, 3, 71, 69, 3, 73, 71, 3, 100, 73, 3, 101, 100, 3, 115, 101, 393, 358, 357, 393, 354, 352, 353, 355, 394, 351, 353, 394, 349, 351, 394, 340, 349, 394, 393, 352, 350, 393, 350, 342, 345, 371, 394, 346, 345, 394, 371, 369, 394, 393, 342, 341, 339, 340, 394, 362, 393, 308, 369, 305, 394, 365, 358, 393, 306, 395, 305, 390, 341, 338, 337, 339, 389, 390, 338, 336, 335, 337, 389, 390, 392, 341, 339, 391, 389, 386, 390, 336, 335, 389, 385, 308, 382, 386, 385, 381, 305, 386, 336, 332, 331, 335, 385, 386, 334, 312, 311, 333, 385, 386, 332, 334, 333, 331, 385, 386, 312, 310, 321, 386, 310, 309, 311, 385, 385, 319, 309, 321, 308, 386, 385, 305, 319, 348, 362, 308, 347, 348, 308, 372, 347, 308, 370, 372, 308, 368, 370, 308, 344, 368, 308, 369, 367, 305, 367, 343, 305, 330, 344, 308, 328, 330, 308, 326, 328, 308, 343, 329, 305, 329, 327, 305, 327, 324, 305, 324, 323, 305, 325, 326, 308, 318, 325, 308, 316, 318, 308, 321, 322, 308, 322, 315, 308, 315, 316, 308, 323, 317, 305, 317, 314, 305, 305, 314, 313, 305, 320, 319, 3, 81, 85, 1, 137, 2, 137, 1, 70, 3, 140, 115, 137, 70, 72, 137, 72, 98, 137, 98, 99, 137, 99, 114, 137, 114, 116, 137, 116, 118, 140, 117, 115, 137, 118, 119, 137, 119, 124, 137, 124, 125, 140, 120, 117, 140, 121, 120, 140, 126, 121, 137, 122, 130, 137, 128, 122, 137, 125, 128, 127, 126, 140, 129, 127, 140, 123, 129, 140, 131, 123, 140, 130, 141, 132, 133, 142, 131, 130, 145, 141, 142, 146, 131, 1, 76, 74, 305, 313, 320, 360, 366, 393, 366, 365, 393, 361, 346, 394, 359, 361, 394, 364, 359, 394, 362, 360, 393, 394, 151, 375, 376, 152, 393, 394, 375, 379, 380, 376, 393, 384, 380, 393, 394, 379, 383, 393, 140, 394, 394, 383, 387, 388, 384, 393, 392, 388, 393, 394, 387, 391, 392, 393, 341, 339, 394, 391, 394, 305, 395, 393, 394, 395, 381, 377, 305, 1, 74, 82, 2, 305, 1, 308, 378, 382, 76, 1, 305, 308, 374, 378, 308, 3, 78, 77, 76, 305, 88, 77, 305, 89, 88, 305, 308, 78, 79, 308, 79, 90, 92, 89, 305, 308, 90, 91, 308, 91, 93, 94, 92, 305, 102, 94, 305, 377, 373, 305, 373, 149, 305, 305, 2, 306, 1, 80, 86, 1, 83, 80, 356, 363, 394, 355, 356, 394, 152, 140, 393, 394, 137, 151, 140, 139, 394, 139, 138, 394, 138, 137, 394, 152, 148, 140, 147, 151, 137, 3, 85, 84, 3, 75, 78, 140, 148, 144, 143, 147, 137, 144, 135, 140, 308, 93, 95, 308, 95, 103, 308, 112, 113, 308, 113, 131, 104, 102, 305, 106, 104, 305, 108, 106, 305, 110, 108, 305, 308, 103, 105, 308, 105, 107, 111, 110, 305, 130, 111, 305, 308, 107, 109, 308, 109, 112, 130, 305, 149, 130, 149, 145, 146, 150, 131, 150, 374, 131, 137, 134, 143, 135, 133, 140, 137, 130, 132, 133, 131, 140, 2, 137, 138, 3, 84, 75, 363, 364, 394, 465, 466, 221, 224, 468, 467, 467, 223, 224, 466, 222, 221, 224, 223, 222, 221, 222, 223, 466, 465, 468, 467, 468, 465, 225, 477, 478, 228, 480, 479, 228, 479, 227, 228, 227, 226, 225, 226, 227, 479, 480, 477, 478, 477, 480, 478, 226, 225, 234, 233, 236, 235, 236, 233, 236, 235, 240, 238, 237, 234, 238, 239, 237, 239, 240, 235, 239, 238, 240, 233, 234, 237, 475, 474, 476, 469, 470, 473, 470, 469, 472, 471, 472, 469, 472, 471, 476, 474, 473, 470, 474, 475, 473, 475, 476, 471, 142, 132, 141, 132, 133, 134, 143, 135, 144, 135, 134, 133, 135, 143, 134, 132, 142, 133, 145, 146, 141, 147, 144, 148, 144, 147, 143, 142, 141, 146, 145, 150, 146, 150, 145, 149, 151, 147, 148, 151, 148, 152, 373, 374, 149, 375, 152, 376, 374, 150, 149, 152, 375, 151, 379, 376, 380, 378, 373, 377, 376, 379, 375, 373, 378, 374, 383, 380, 384, 381, 382, 377, 380, 383, 379, 378, 377, 382, 387, 384, 388, 384, 387, 383, 386, 381, 385, 381, 386, 382, 386, 385, 390, 388, 391, 387, 389, 390, 385, 391, 388, 392, 390, 389, 392, 391, 392, 389, 76, 79, 78, 72, 71, 73, 108, 112, 109, 113, 110, 111, 110, 113, 112, 111, 131, 113, 115, 116, 114, 114, 101, 115, 116, 115, 117, 77, 90, 79, 97, 68, 96, 85, 80, 83, 98, 73, 100, 75, 82, 74, 80, 85, 81, 68, 97, 69, 69, 70, 68, 74, 78, 75, 79, 76, 77, 78, 74, 76, 84, 83, 82, 82, 75, 84, 83, 84, 85, 112, 108, 110, 106, 109, 107, 81, 86, 80, 87, 96, 86, 86, 81, 87, 71, 72, 70, 70, 69, 71, 96, 87, 97, 91, 88, 89, 88, 91, 90, 93, 89, 92, 89, 93, 91, 95, 92, 94, 103, 94, 102, 92, 95, 93, 94, 103, 95, 100, 99, 98, 101, 114, 99, 99, 100, 101, 102, 105, 103, 105, 102, 104, 107, 104, 106, 90, 77, 88, 104, 107, 105, 130, 123, 131, 123, 130, 122, 131, 111, 130, 128, 127, 129, 129, 122, 128, 127, 128, 125, 125, 126, 127, 124, 121, 126, 126, 125, 124, 121, 124, 119, 122, 129, 123, 119, 120, 121, 118, 117, 120, 120, 119, 118, 117, 118, 116, 73, 98, 72, 109, 106, 108, 325, 317, 323, 337, 336, 338, 313, 316, 315, 318, 314, 317, 316, 313, 314, 320, 315, 322, 315, 320, 313, 333, 312, 334, 311, 310, 312, 312, 333, 311, 310, 311, 309, 317, 325, 318, 322, 319, 320, 309, 321, 310, 321, 309, 319, 319, 322, 321, 326, 323, 324, 323, 326, 325, 328, 324, 327, 324, 328, 326, 330, 327, 329, 344, 329, 343, 327, 330, 328, 329, 344, 330, 331, 334, 332, 334, 331, 333, 332, 335, 331, 336, 337, 335, 335, 332, 336, 338, 339, 337, 371, 347, 372, 341, 340, 339, 342, 349, 340, 340, 341, 342, 348, 345, 346, 345, 348, 347, 346, 362, 348, 347, 371, 345, 372, 369, 371, 350, 351, 349, 349, 342, 350, 351, 350, 352, 352, 353, 351, 354, 355, 353, 369, 372, 370, 367, 370, 368, 370, 367, 369, 355, 354, 357, 343, 368, 344, 368, 343, 367, 357, 356, 355, 358, 363, 356, 356, 357, 358, 363, 358, 365, 359, 366, 360, 362, 346, 361, 360, 361, 359, 361, 360, 362, 365, 364, 363, 366, 359, 364, 364, 365, 366, 353, 352, 354, 339, 338, 341, 314, 318, 316, 262, 57, 256, 308, 436, 435, 420, 219, 419, 419, 216, 418, 418, 215, 417, 417, 214, 416, 214, 415, 416, 214, 403, 415, 411, 212, 412, 410, 211, 411, 409, 208, 410, 408, 207, 409, 407, 206, 408, 398, 205, 407, 464, 156, 451, 412, 212, 461, 261, 399, 397, 261, 397, 400, 404, 214, 402, 423, 261, 401, 401, 261, 400, 399, 261, 398, 214, 404, 403, 424, 289, 423, 156, 450, 451, 47, 48, 246, 156, 422, 450, 46, 47, 245, 2, 243, 267, 244, 2, 241, 268, 2, 267, 241, 45, 242, 245, 47, 246, 242, 46, 245, 246, 48, 247, 253, 53, 250, 250, 52, 249, 254, 54, 253, 255, 55, 254, 256, 56, 255, 425, 290, 424, 45, 46, 242, 249, 52, 308, 241, 44, 45, 62, 59, 247, 24, 3, 308, 44, 241, 2, 67, 65, 200, 247, 164, 248, 248, 195, 257, 257, 196, 258, 263, 200, 262, 258, 197, 259, 259, 198, 260, 264, 201, 263, 265, 202, 264, 260, 199, 261, 266, 203, 265, 297, 204, 266, 298, 213, 297, 421, 156, 420, 156, 421, 422, 214, 298, 405, 261, 199, 398, 200, 64, 67, 63, 64, 200, 65, 66, 200, 41, 63, 172, 40, 41, 171, 39, 40, 170, 38, 39, 169, 37, 38, 167, 426, 291, 425, 2, 268, 306, 427, 292, 426, 428, 294, 427, 431, 308, 432, 166, 36, 37, 59, 58, 154, 58, 33, 154, 33, 32, 154, 32, 31, 154, 31, 30, 154, 30, 29, 154, 182, 154, 461, 461, 209, 210, 210, 183, 461, 212, 209, 461, 183, 182, 461, 219, 216, 419, 220, 219, 420, 216, 215, 418, 215, 214, 417, 211, 212, 411, 207, 208, 409, 208, 211, 410, 206, 207, 408, 205, 206, 407, 306, 276, 461, 461, 277, 296, 296, 293, 461, 276, 277, 461, 293, 295, 461, 303, 301, 405, 405, 300, 302, 302, 303, 405, 405, 299, 300, 298, 299, 405, 294, 292, 427, 295, 294, 428, 292, 291, 426, 291, 290, 425, 290, 289, 424, 289, 261, 423, 301, 304, 405, 304, 288, 405, 288, 287, 405, 308, 405, 287, 29, 28, 154, 28, 27, 154, 27, 26, 154, 26, 10, 154, 10, 9, 154, 3, 36, 166, 306, 268, 269, 306, 269, 270, 306, 270, 271, 306, 271, 272, 306, 272, 273, 306, 273, 274, 306, 274, 275, 306, 275, 276, 252, 249, 308, 252, 308, 251, 278, 251, 308, 279, 278, 308, 280, 279, 308, 281, 280, 308, 402, 214, 405, 282, 281, 308, 284, 283, 308, 285, 284, 308, 286, 285, 308, 287, 286, 308, 9, 2, 154, 199, 205, 398, 432, 308, 433, 156, 220, 420, 214, 213, 298, 213, 204, 297, 204, 203, 266, 198, 199, 260, 203, 202, 265, 202, 201, 264, 197, 198, 259, 196, 197, 258, 201, 200, 263, 195, 196, 257, 164, 195, 248, 247, 163, 164, 405, 308, 406, 406, 308, 431, 2, 244, 243, 48, 49, 247, 247, 49, 61, 436, 308, 437, 437, 308, 438, 438, 308, 454, 454, 308, 455, 461, 295, 428, 455, 308, 464, 23, 3, 24, 413, 412, 461, 414, 413, 461, 439, 414, 461, 440, 439, 461, 441, 440, 461, 461, 428, 429, 461, 429, 430, 461, 430, 443, 461, 443, 444, 461, 444, 445, 449, 447, 461, 448, 449, 461, 442, 441, 461, 447, 442, 461, 446, 448, 461, 461, 445, 446, 464, 451, 452, 464, 452, 453, 456, 455, 464, 457, 456, 464, 458, 460, 464, 464, 453, 458, 459, 457, 464, 460, 459, 464, 22, 3, 23, 3, 35, 36, 3, 34, 35, 3, 21, 34, 3, 20, 21, 3, 19, 20, 3, 18, 19, 17, 3, 22, 15, 3, 17, 16, 3, 15, 3, 16, 18, 43, 44, 2, 42, 43, 2, 14, 42, 2, 13, 14, 2, 2, 12, 13, 8, 2, 9, 6, 2, 4, 2, 5, 4, 2, 11, 12, 2, 6, 11, 156, 217, 220, 156, 218, 217, 156, 194, 218, 156, 193, 194, 156, 192, 193, 156, 191, 192, 156, 190, 191, 156, 189, 190, 156, 188, 189, 156, 187, 188, 156, 186, 187, 156, 185, 186, 181, 154, 182, 180, 154, 181, 179, 154, 180, 178, 154, 179, 177, 154, 178, 176, 154, 177, 175, 154, 176, 174, 154, 175, 2, 7, 5, 174, 59, 154, 172, 63, 200, 173, 59, 174, 157, 59, 173, 160, 59, 157, 171, 41, 172, 170, 40, 171, 169, 39, 170, 167, 38, 169, 166, 37, 167, 163, 59, 162, 59, 161, 162, 159, 59, 158, 59, 159, 161, 59, 160, 158, 185, 3, 184, 3, 165, 184, 168, 3, 166, 3, 168, 165, 2, 8, 7, 156, 3, 185, 53, 52, 250, 54, 53, 253, 55, 54, 254, 56, 55, 255, 57, 56, 256, 60, 62, 247, 61, 60, 247, 66, 57, 262, 25, 24, 308, 50, 25, 308, 51, 50, 308, 52, 51, 308, 247, 59, 163, 200, 66, 262, 433, 308, 434, 434, 308, 435, 283, 282, 308, 64, 59, 67, 18, 5, 7, 67, 62, 65, 63, 58, 64, 59, 62, 67, 61, 66, 60, 60, 65, 62, 58, 59, 64, 63, 33, 58, 57, 49, 56, 56, 48, 55, 55, 47, 54, 54, 46, 53, 20, 19, 8, 11, 6, 17, 49, 57, 61, 48, 56, 49, 47, 55, 48, 46, 54, 47, 53, 45, 52, 52, 44, 51, 51, 43, 50, 42, 25, 50, 45, 53, 46, 44, 52, 45, 44, 43, 51, 43, 42, 50, 19, 18, 7, 41, 33, 63, 9, 10, 21, 40, 32, 41, 39, 31, 40, 38, 30, 39, 32, 33, 41, 4, 5, 16, 31, 32, 40, 30, 31, 39, 6, 4, 15, 18, 16, 5, 16, 15, 4, 38, 29, 30, 37, 29, 38, 36, 28, 37, 36, 35, 27, 35, 34, 26, 28, 29, 37, 27, 28, 36, 26, 27, 35, 34, 10, 26, 25, 14, 24, 24, 13, 23, 23, 12, 22, 22, 11, 17, 65, 60, 66, 61, 57, 66, 42, 14, 25, 14, 13, 24, 13, 12, 23, 12, 11, 22, 34, 21, 10, 21, 20, 9, 17, 6, 15, 8, 9, 20, 7, 8, 19, 255, 254, 246, 254, 253, 245, 250, 249, 241, 267, 243, 251, 243, 244, 252, 241, 242, 250, 244, 241, 249, 251, 243, 252, 252, 244, 249, 253, 242, 245, 245, 246, 254, 246, 247, 255, 247, 248, 256, 262, 256, 248, 262, 248, 257, 257, 258, 263, 258, 259, 264, 259, 260, 265, 260, 261, 266, 263, 262, 257, 264, 263, 258, 265, 264, 259, 266, 265, 260, 297, 266, 261, 268, 267, 278, 268, 279, 269, 269, 280, 270, 270, 281, 271, 267, 251, 278, 279, 268, 278, 280, 269, 279, 281, 270, 280, 271, 282, 272, 272, 283, 273, 273, 284, 274, 282, 271, 281, 283, 272, 282, 284, 273, 283, 274, 285, 275, 275, 286, 276, 276, 287, 277, 277, 288, 296, 285, 274, 284, 286, 275, 285, 287, 276, 286, 288, 277, 287, 297, 261, 289, 289, 290, 298, 290, 291, 299, 253, 250, 242, 298, 290, 299, 299, 291, 300, 300, 292, 302, 293, 301, 295, 294, 295, 303, 292, 300, 291, 256, 255, 247, 301, 293, 304, 296, 288, 304, 303, 295, 301, 302, 294, 303, 296, 304, 293, 302, 292, 294, 298, 297, 289, 206, 214, 207, 207, 215, 208, 211, 219, 212, 209, 212, 220, 220, 217, 209, 218, 210, 217, 220, 212, 219, 160, 157, 165, 161, 159, 167, 159, 158, 166, 158, 160, 168, 168, 160, 165, 184, 165, 157, 168, 166, 158, 167, 159, 166, 162, 161, 169, 163, 162, 170, 163, 171, 164, 164, 172, 195, 169, 161, 167, 170, 162, 169, 171, 163, 170, 172, 164, 171, 184, 157, 173, 173, 174, 185, 174, 175, 186, 175, 176, 187, 185, 184, 173, 186, 185, 174, 187, 186, 175, 188, 187, 176, 188, 176, 177, 219, 211, 216, 178, 189, 177, 178, 179, 190, 189, 188, 177, 190, 189, 178, 191, 190, 179, 191, 179, 180, 180, 181, 192, 181, 182, 193, 182, 183, 194, 192, 191, 180, 193, 192, 181, 194, 193, 182, 218, 194, 183, 195, 200, 196, 196, 201, 197, 197, 202, 198, 198, 203, 199, 199, 204, 205, 195, 172, 200, 201, 196, 200, 202, 197, 201, 203, 198, 202, 204, 199, 203, 205, 213, 206, 218, 183, 210, 216, 208, 215, 215, 207, 214, 214, 206, 213, 205, 204, 213, 208, 216, 211, 209, 217, 210, 436, 428, 435, 415, 403, 398, 460, 449, 459, 458, 447, 460, 458, 442, 447, 448, 459, 449, 447, 449, 460, 457, 446, 456, 456, 445, 455, 455, 444, 454, 443, 438, 454, 446, 457, 448, 445, 456, 446, 444, 455, 445, 443, 454, 444, 453, 442, 458, 452, 441, 453, 451, 440, 452, 451, 450, 439, 441, 442, 453, 440, 441, 452, 439, 440, 451, 450, 414, 439, 438, 430, 437, 437, 429, 436, 435, 427, 434, 430, 438, 443, 429, 437, 430, 428, 436, 429, 428, 427, 435, 434, 426, 433, 433, 425, 432, 432, 424, 431, 423, 406, 431, 427, 426, 434, 426, 425, 433, 425, 424, 432, 424, 423, 431, 450, 422, 414, 422, 421, 413, 421, 420, 412, 420, 419, 411, 413, 414, 422, 412, 413, 421, 411, 412, 420, 419, 410, 411, 419, 418, 410, 418, 417, 409, 417, 416, 408, 416, 415, 407, 409, 410, 418, 408, 409, 417, 407, 408, 416, 415, 398, 407, 406, 401, 405, 404, 402, 397, 423, 401, 406, 401, 400, 405, 397, 399, 404, 399, 398, 403, 400, 397, 402, 405, 400, 402, 404, 399, 403, 459, 448, 457]
        point3f[] points = [(-291, -290, 0), (-290, -291, 0), (-290, -290, 0), (-289, -289, 2), (-262.1213, -262.1213, 0), (-262.49442, -261.66672, 0), (-261.66672, -262.49442, 0), (-262.77164, -261.14804, 0), (-262.94235, -260.58527, 0), (-263, -260, 0), (-262.94235, -259.41473, 0), (-261.14804, -262.77164, 0), (-260.58527, -262.94235, 0), (-260, -263, 0), (-259.41473, -262.94235, 0), (-262.1213, -262.1213, 2), (-262.49442, -261.66672, 2), (-261.66672, -262.49442, 2), (-262.77164, -261.14804, 2), (-262.94235, -260.58527, 2), (-263, -260, 2), (-262.94235, -259.41473, 2), (-261.14804, -262.77164, 2), (-260.58527, -262.94235, 2), (-260, -263, 2), (-259.41473, -262.94235, 2), (-262.77164, -258.85196, 0), (-262.49442, -258.33328, 0), (-262.1213, -257.8787, 0), (-261.66672, -257.50558, 0), (-261.14804, -257.22836, 0), (-260.58527, -257.05765, 0), (-260, -257, 0), (-259.41473, -257.05765, 0), (-262.77164, -258.85196, 2), (-262.49442, -258.33328, 2), (-262.1213, -257.8787, 2), (-261.66672, -257.50558, 2), (-261.14804, -257.22836, 2), (-260.58527, -257.05765, 2), (-260, -257, 2), (-259.41473, -257.05765, 2), (-258.85196, -262.77164, 0), (-258.33328, -262.49442, 0), (-257.8787, -262.1213, 0), (-257.50558, -261.66672, 0), (-257.22836, -261.14804, 0), (-257.05765, -260.58527, 0), (-257, -260, 0), (-257.05765, -259.41473, 0), (-258.85196, -262.77164, 2), (-258.33328, -262.49442, 2), (-257.8787, -262.1213, 2), (-257.50558, -261.66672, 2), (-257.22836, -261.14804, 2), (-257.05765, -260.58527, 2), (-257, -260, 2), (-257.05765, -259.41473, 2), (-258.85196, -257.22836, 0), (-258.33328, -257.50558, 0), (-257.50558, -258.33328, 0), (-257.22836, -258.85196, 0), (-257.8787, -257.8787, 0), (-258.85196, -257.22836, 2), (-258.33328, -257.50558, 2), (-257.50558, -258.33328, 2), (-257.22836, -258.85196, 2), (-257.8787, -257.8787, 2), (-272.94235, -291, 19.414728), (-272.94235, -289, 19.414728), (-273, -291, 20), (-273, -289, 20), (-272.94235, -291, 20.585272), (-272.94235, -289, 20.585272), (-270.58527, -291, 17.057644), (-270.58527, -289, 17.057644), (-270, -291, 17), (-269.41473, -291, 17.057644), (-270, -289, 17), (-269.41473, -289, 17.057644), (-272.1213, -291, 17.87868), (-272.1213, -289, 17.87868), (-271.14804, -291, 17.228361), (-271.66672, -291, 17.50559), (-271.14804, -289, 17.228361), (-271.66672, -289, 17.50559), (-272.49442, -291, 18.33329), (-272.49442, -289, 18.33329), (-268.85196, -291, 17.228361), (-268.33328, -291, 17.50559), (-268.85196, -289, 17.228361), (-268.33328, -289, 17.50559), (-267.8787, -291, 17.87868), (-267.8787, -289, 17.87868), (-267.50558, -291, 18.33329), (-267.50558, -289, 18.33329), (-272.77164, -291, 18.85195), (-272.77164, -289, 18.85195), (-272.77164, -291, 21.14805), (-272.49442, -291, 21.66671), (-272.77164, -289, 21.14805), (-272.49442, -289, 21.66671), (-267.22836, -291, 18.85195), (-267.22836, -289, 18.85195), (-267.05765, -291, 19.414728), (-267.05765, -289, 19.414728), (-267, -291, 20), (-267, -289, 20), (-267.05765, -291, 20.585272), (-267.05765, -289, 20.585272), (-267.22836, -291, 21.14805), (-267.50558, -291, 21.66671), (-267.22836, -289, 21.14805), (-267.50558, -289, 21.66671), (-272.1213, -291, 22.12132), (-272.1213, -289, 22.12132), (-271.66672, -291, 22.49441), (-271.66672, -289, 22.49441), (-271.14804, -291, 22.771639), (-270.58527, -291, 22.942356), (-271.14804, -289, 22.771639), (-270.58527, -289, 22.942356), (-268.33328, -291, 22.49441), (-268.33328, -289, 22.49441), (-270, -291, 23), (-269.41473, -291, 22.942356), (-270, -289, 23), (-269.41473, -289, 22.942356), (-268.85196, -291, 22.771639), (-268.85196, -289, 22.771639), (-267.8787, -291, 22.12132), (-267.8787, -289, 22.12132), (-170, -291, 116), (-170, -289, 116), (-170, -291, 124), (-170, -289, 124), (-291, -290, 200), (-290, -291, 200), (-290, -290, 200), (-290, -289, 200), (-289, -289, 200), (-130, -291, 116), (-130, -289, 116), (-130, -291, 124), (-130, -289, 124), (-70, -291, 116), (-70, -289, 116), (-70, -291, 124), (-70, -289, 124), (-50, -291, 116), (-50, -289, 116), (-50, -291, 124), (-50, -289, 124), (-291, 290, 0), (-290, 290, 0), (-290, 291, 0), (-289, 289, 2), (-262.77164, 258.85196, 0), (-262.1213, 257.8787, 0), (-261.66672, 257.50558, 0), (-262.49442, 258.33328, 0), (-261.14804, 257.22836, 0), (-260.58527, 257.05765, 0), (-260, 257, 0), (-259.41473, 257.05765, 0), (-262.77164, 258.85196, 2), (-262.1213, 257.8787, 2), (-261.66672, 257.50558, 2), (-262.49442, 258.33328, 2), (-261.14804, 257.22836, 2), (-260.58527, 257.05765, 2), (-260, 257, 2), (-259.41473, 257.05765, 2), (-262.94235, 259.41473, 0), (-263, 260, 0), (-262.94235, 260.58527, 0), (-262.77164, 261.14804, 0), (-262.49442, 261.66672, 0), (-262.1213, 262.1213, 0), (-261.66672, 262.49442, 0), (-261.14804, 262.77164, 0), (-260.58527, 262.94235, 0), (-260, 263, 0), (-259.41473, 262.94235, 0), (-262.94235, 259.41473, 2), (-263, 260, 2), (-262.94235, 260.58527, 2), (-262.77164, 261.14804, 2), (-262.49442, 261.66672, 2), (-262.1213, 262.1213, 2), (-261.66672, 262.49442, 2), (-261.14804, 262.77164, 2), (-260.58527, 262.94235, 2), (-260, 263, 2), (-259.41473, 262.94235, 2), (-258.85196, 257.22836, 0), (-258.33328, 257.50558, 0), (-257.8787, 257.8787, 0), (-257.50558, 258.33328, 0), (-257.22836, 258.85196, 0), (-258.85196, 257.22836, 2), (-258.33328, 257.50558, 2), (-257.8787, 257.8787, 2), (-257.50558, 258.33328, 2), (-257.22836, 258.85196, 2), (-257.05765, 259.41473, 0), (-257, 260, 0), (-257.05765, 260.58527, 0), (-257.22836, 261.14804, 0), (-258.33328, 262.49442, 0), (-258.85196, 262.77164, 0), (-257.50558, 261.66672, 0), (-257.8787, 262.1213, 0), (-257.05765, 259.41473, 2), (-257, 260, 2), (-257.05765, 260.58527, 2), (-257.22836, 261.14804, 2), (-258.33328, 262.49442, 2), (-258.85196, 262.77164, 2), (-257.50558, 261.66672, 2), (-257.8787, 262.1213, 2), (-251, 289, 40), (-251, 291, 40), (-251, 289, 92), (-251, 291, 92), (-240, 289, 107), (-240, 291, 107), (-240, 289, 132), (-240, 291, 132), (-291, 290, 200), (-290, 290, 200), (-290, 291, 200), (-289, 289, 200), (-46.5, 289, 162.5), (-46.5, 291, 162.5), (-16.5, 289, 162.5), (-16.5, 291, 162.5), (-46.5, 289, 187.5), (-46.5, 291, 187.5), (-16.5, 289, 187.5), (-16.5, 291, 187.5), (257.8787, -262.1213, 0), (257.50558, -261.66672, 0), (258.85196, -262.77164, 0), (258.33328, -262.49442, 0), (257.22836, -261.14804, 0), (257.05765, -260.58527, 0), (257, -260, 0), (257.05765, -259.41473, 0), (257.8787, -262.1213, 2), (257.50558, -261.66672, 2), (258.85196, -262.77164, 2), (258.33328, -262.49442, 2), (257.22836, -261.14804, 2), (257.05765, -260.58527, 2), (257, -260, 2), (257.05765, -259.41473, 2), (257.22836, -258.85196, 0), (257.50558, -258.33328, 0), (257.8787, -257.8787, 0), (258.33328, -257.50558, 0), (258.85196, -257.22836, 0), (257.22836, -258.85196, 2), (257.50558, -258.33328, 2), (257.8787, -257.8787, 2), (258.33328, -257.50558, 2), (258.85196, -257.22836, 2), (259.41473, -262.94235, 0), (260, -263, 0), (260.58527, -262.94235, 0), (261.14804, -262.77164, 0), (261.66672, -262.49442, 0), (262.1213, -262.1213, 0), (262.49442, -261.66672, 0), (262.77164, -261.14804, 0), (262.94235, -260.58527, 0), (263, -260, 0), (262.94235, -259.41473, 0), (259.41473, -262.94235, 2), (260, -263, 2), (260.58527, -262.94235, 2), (261.14804, -262.77164, 2), (261.66672, -262.49442, 2), (262.1213, -262.1213, 2), (262.49442, -261.66672, 2), (262.77164, -261.14804, 2), (262.94235, -260.58527, 2), (263, -260, 2), (262.94235, -259.41473, 2), (259.41473, -257.05765, 0), (260, -257, 0), (260.58527, -257.05765, 0), (261.14804, -257.22836, 0), (262.49442, -258.33328, 0), (261.66672, -257.50558, 0), (262.1213, -257.8787, 0), (262.77164, -258.85196, 0), (259.41473, -257.05765, 2), (260, -257, 2), (260.58527, -257.05765, 2), (261.14804, -257.22836, 2), (262.49442, -258.33328, 2), (261.66672, -257.50558, 2), (262.1213, -257.8787, 2), (262.77164, -258.85196, 2), (290, -291, 0), (290, -290, 0), (291, -290, 0), (289, -289, 2), (267.8787, -291, 17.87868), (267.8787, -289, 17.87868), (267.50558, -291, 18.33329), (267.50558, -289, 18.33329), (269.41473, -291, 17.057644), (270, -291, 17), (269.41473, -289, 17.057644), (270, -289, 17), (270.58527, -291, 17.057644), (270.58527, -289, 17.057644), (268.33328, -291, 17.50559), (268.85196, -291, 17.228361), (268.33328, -289, 17.50559), (268.85196, -289, 17.228361), (271.14804, -291, 17.228361), (271.66672, -291, 17.50559), (271.14804, -289, 17.228361), (271.66672, -289, 17.50559), (272.1213, -291, 17.87868), (272.1213, -289, 17.87868), (272.49442, -291, 18.33329), (272.49442, -289, 18.33329), (267.05765, -291, 19.414728), (267.05765, -289, 19.414728), (267.22836, -291, 18.85195), (267.22836, -289, 18.85195), (267, -291, 20), (267, -289, 20), (267.05765, -291, 20.585272), (267.05765, -289, 20.585272), (267.22836, -291, 21.14805), (267.50558, -291, 21.66671), (267.22836, -289, 21.14805), (267.50558, -289, 21.66671), (272.77164, -291, 18.85195), (272.77164, -289, 18.85195), (272.77164, -291, 21.14805), (272.49442, -291, 21.66671), (272.77164, -289, 21.14805), (272.49442, -289, 21.66671), (267.8787, -291, 22.12132), (267.8787, -289, 22.12132), (268.33328, -291, 22.49441), (268.33328, -289, 22.49441), (268.85196, -291, 22.771639), (268.85196, -289, 22.771639), (269.41473, -291, 22.942356), (270, -291, 23), (269.41473, -289, 22.942356), (270, -289, 23), (271.66672, -291, 22.49441), (271.66672, -289, 22.49441), (272.1213, -291, 22.12132), (272.1213, -289, 22.12132), (270.58527, -291, 22.942356), (271.14804, -291, 22.771639), (270.58527, -289, 22.942356), (271.14804, -289, 22.771639), (272.94235, -291, 19.414728), (272.94235, -289, 19.414728), (273, -291, 20), (273, -289, 20), (272.94235, -291, 20.585272), (272.94235, -289, 20.585272), (10, -291, 116), (10, -289, 116), (10, -291, 124), (10, -289, 124), (30, -291, 116), (30, -289, 116), (30, -291, 124), (30, -289, 124), (90, -291, 116), (90, -289, 116), (90, -291, 124), (90, -289, 124), (110, -291, 116), (110, -289, 116), (110, -291, 124), (110, -289, 124), (170, -291, 116), (170, -289, 116), (170, -291, 124), (170, -289, 124), (289, -289, 200), (290, -291, 200), (290, -290, 200), (291, -290, 200), (257.8787, 257.8787, 0), (257.22836, 258.85196, 0), (257.50558, 258.33328, 0), (258.33328, 257.50558, 0), (258.85196, 257.22836, 0), (257.8787, 257.8787, 2), (257.22836, 258.85196, 2), (257.50558, 258.33328, 2), (258.33328, 257.50558, 2), (258.85196, 257.22836, 2), (257.05765, 259.41473, 0), (257, 260, 0), (257.05765, 260.58527, 0), (257.22836, 261.14804, 0), (257.50558, 261.66672, 0), (257.8787, 262.1213, 0), (258.33328, 262.49442, 0), (258.85196, 262.77164, 0), (257.05765, 259.41473, 2), (257, 260, 2), (257.05765, 260.58527, 2), (257.22836, 261.14804, 2), (257.50558, 261.66672, 2), (257.8787, 262.1213, 2), (258.33328, 262.49442, 2), (258.85196, 262.77164, 2), (259.41473, 257.05765, 0), (260, 257, 0), (260.58527, 257.05765, 0), (261.14804, 257.22836, 0), (261.66672, 257.50558, 0), (262.1213, 257.8787, 0), (262.49442, 258.33328, 0), (262.77164, 258.85196, 0), (259.41473, 257.05765, 2), (260, 257, 2), (260.58527, 257.05765, 2), (261.14804, 257.22836, 2), (261.66672, 257.50558, 2), (262.1213, 257.8787, 2), (262.49442, 258.33328, 2), (262.77164, 258.85196, 2), (259.41473, 262.94235, 0), (260, 263, 0), (260.58527, 262.94235, 0), (261.14804, 262.77164, 0), (262.94235, 259.41473, 0), (263, 260, 0), (262.94235, 260.58527, 0), (262.77164, 261.14804, 0), (261.66672, 262.49442, 0), (262.49442, 261.66672, 0), (262.1213, 262.1213, 0), (259.41473, 262.94235, 2), (260, 263, 2), (260.58527, 262.94235, 2), (261.14804, 262.77164, 2), (262.94235, 259.41473, 2), (263, 260, 2), (262.94235, 260.58527, 2), (262.77164, 261.14804, 2), (261.66672, 262.49442, 2), (262.49442, 261.66672, 2), (262.1213, 262.1213, 2), (290, 290, 0), (290, 291, 0), (291, 290, 0), (289, 289, 2), (251, 289, 40), (251, 291, 40), (251, 289, 92), (251, 291, 92), (16.5, 289, 162.5), (16.5, 291, 162.5), (46.5, 289, 162.5), (46.5, 291, 162.5), (16.5, 289, 187.5), (16.5, 291, 187.5), (46.5, 289, 187.5), (46.5, 291, 187.5), (240, 289, 107), (240, 291, 107), (240, 289, 132), (240, 291, 132), (289, 289, 200), (290, 289, 200), (290, 290, 200), (290, 291, 200), (291, 290, 200)]

        rel material:binding = </front_panel_union_union_union_union_diff_diff_diff_diff_diff_diff/Material>
    }

    def Scope "Material"
    {
        def Material "PBR"
        {
            token outputs:surface.connect = <PBR/Shader.outputs:surface>

            def Shader "Shader"
            {
                uniform token info:id = "UsdPreviewSurface"
                color3f inputs:diffuseColor = (1, 0.4, 0)
                float inputs:metallic = 0.3
                float inputs:roughness = 0.6
                token outputs:surface
            }
        }
    }

    def PhysicsCollisionAPI "collision"
    {
        rel physics:collisionGroup = </CollisionGroup>
    }
}
