#usda 1.0
(
    defaultPrim = "h_arm_union_union_union_diff"
    upAxis = "Y"
    metersPerUnit = 0.001
)

def Xform "h_arm_union_union_union_diff" (
    prepend apiSchemas = ["PhysicsRigidBodyAPI", "PhysicsMassAPI"]
)
{
    float physics:mass = 4.32

    def Mesh "h_arm_union_union_union_diff_mesh"
    {
        float3[] extent = [(-50, 0, -160), (50, 100, 0)]
        int[] faceVertexCounts = [3, 3, 3, 3, 3, 3, 3, 3, 3, 3, 3, 3, 3, 3, 3, 3, 3, 3, 3, 3, 3, 3, 3, 3, 3, 3, 3, 3, 3, 3, 3, 3, 3, 3, 3, 3, 3, 3, 3, 3, 3, 3, 3, 3, 3, 3, 3, 3, 3, 3, 3, 3, 3, 3, 3, 3, 3, 3, 3, 3, 3, 3, 3, 3, 3, 3, 3, 3, 3, 3, 3, 3, 3, 3, 3, 3, 3, 3, 3, 3, 3, 3, 3, 3, 3, 3, 3, 3, 3, 3, 3, 3, 3, 3, 3, 3, 3, 3, 3, 3, 3, 3, 3, 3, 3, 3, 3, 3, 3, 3, 3, 3, 3, 3, 3, 3, 3, 3, 3, 3, 3, 3, 3, 3, 3, 3, 3, 3, 3, 3, 3, 3, 3, 3, 3, 3, 3, 3, 3, 3, 3, 3, 3, 3, 3, 3, 3, 3, 3, 3, 3, 3, 3, 3, 3, 3, 3, 3, 3, 3, 3, 3, 3, 3, 3, 3, 3, 3, 3, 3, 3, 3, 3, 3, 3, 3, 3, 3, 3, 3, 3, 3, 3, 3, 3, 3, 3, 3, 3, 3, 3, 3, 3, 3, 3, 3, 3, 3, 3, 3, 3, 3, 3, 3, 3, 3, 3, 3, 3, 3, 3, 3, 3, 3, 3, 3, 3, 3, 3, 3, 3, 3, 3, 3, 3, 3, 3, 3, 3, 3, 3, 3, 3, 3, 3, 3, 3, 3, 3, 3, 3, 3, 3, 3, 3, 3, 3, 3, 3, 3, 3, 3, 3, 3, 3, 3, 3, 3, 3, 3, 3, 3, 3, 3, 3, 3, 3, 3, 3, 3, 3, 3, 3, 3, 3, 3, 3, 3, 3, 3, 3, 3, 3, 3, 3, 3, 3, 3, 3, 3, 3, 3, 3, 3, 3, 3, 3, 3, 3, 3, 3, 3, 3, 3, 3, 3, 3, 3, 3, 3, 3, 3, 3, 3, 3, 3, 3, 3, 3, 3, 3, 3, 3, 3, 3, 3, 3, 3, 3, 3, 3, 3, 3, 3, 3, 3, 3, 3, 3, 3, 3, 3, 3, 3, 3, 3, 3, 3, 3, 3, 3, 3, 3, 3, 3, 3, 3, 3, 3, 3, 3, 3, 3, 3, 3, 3, 3, 3, 3, 3, 3, 3, 3, 3, 3, 3, 3, 3, 3, 3, 3, 3, 3, 3, 3, 3, 3, 3, 3, 3, 3, 3, 3, 3, 3, 3, 3, 3, 3, 3, 3, 3, 3, 3, 3, 3, 3, 3, 3, 3, 3, 3, 3, 3, 3, 3, 3, 3, 3, 3, 3, 3, 3, 3, 3, 3, 3, 3, 3, 3, 3, 3, 3, 3, 3, 3, 3, 3, 3, 3, 3, 3, 3, 3, 3, 3, 3, 3, 3, 3, 3, 3, 3, 3, 3, 3, 3, 3, 3, 3, 3, 3, 3, 3, 3, 3, 3, 3, 3, 3, 3, 3, 3, 3, 3, 3, 3, 3, 3, 3, 3, 3, 3, 3, 3, 3, 3, 3, 3, 3, 3, 3, 3, 3, 3, 3, 3, 3, 3, 3, 3, 3, 3, 3, 3, 3, 3, 3, 3, 3, 3, 3, 3, 3, 3, 3, 3, 3, 3, 3, 3, 3, 3, 3, 3, 3, 3, 3, 3, 3, 3, 3, 3, 3, 3, 3, 3, 3, 3, 3, 3, 3, 3, 3, 3, 3, 3, 3, 3, 3, 3, 3, 3, 3, 3, 3, 3, 3, 3, 3, 3, 3, 3, 3, 3, 3, 3, 3, 3, 3, 3, 3, 3, 3, 3, 3, 3, 3, 3, 3, 3, 3, 3, 3, 3, 3, 3, 3, 3, 3, 3, 3, 3, 3, 3, 3, 3, 3, 3, 3, 3, 3, 3, 3, 3, 3, 3, 3, 3, 3, 3, 3, 3, 3, 3, 3, 3, 3, 3, 3, 3, 3, 3, 3, 3, 3, 3, 3, 3, 3, 3, 3, 3, 3, 3, 3, 3, 3, 3, 3, 3, 3, 3, 3, 3, 3, 3, 3, 3, 3, 3, 3, 3, 3, 3, 3, 3, 3, 3, 3, 3, 3, 3, 3, 3, 3, 3, 3, 3, 3, 3, 3, 3, 3, 3, 3, 3, 3, 3, 3, 3, 3, 3, 3, 3, 3, 3, 3, 3, 3, 3, 3, 3, 3, 3, 3, 3, 3, 3, 3, 3, 3, 3, 3, 3, 3, 3, 3, 3, 3, 3, 3, 3, 3, 3, 3, 3, 3, 3, 3, 3, 3, 3, 3, 3, 3, 3, 3, 3, 3, 3, 3, 3, 3, 3, 3, 3, 3, 3, 3, 3, 3, 3, 3, 3, 3, 3, 3, 3, 3, 3, 3, 3, 3, 3, 3, 3, 3, 3, 3, 3, 3, 3, 3, 3, 3, 3, 3, 3, 3, 3, 3, 3, 3, 3, 3, 3, 3, 3, 3, 3, 3, 3, 3, 3, 3, 3, 3, 3, 3, 3, 3, 3, 3, 3, 3, 3, 3, 3, 3, 3, 3, 3, 3, 3, 3, 3, 3, 3, 3, 3, 3, 3, 3, 3, 3, 3, 3, 3, 3, 3, 3, 3, 3, 3, 3, 3, 3, 3, 3, 3, 3, 3, 3, 3, 3, 3, 3, 3, 3, 3, 3, 3, 3, 3, 3, 3, 3, 3, 3, 3, 3, 3, 3, 3, 3, 3, 3, 3, 3, 3, 3, 3, 3, 3, 3, 3, 3, 3, 3, 3, 3, 3, 3, 3, 3, 3, 3, 3, 3, 3, 3, 3, 3, 3, 3, 3, 3, 3, 3, 3, 3, 3, 3, 3, 3, 3, 3, 3, 3, 3, 3, 3, 3, 3, 3, 3, 3, 3, 3, 3, 3, 3, 3, 3, 3, 3, 3, 3, 3, 3, 3, 3, 3, 3, 3, 3, 3, 3, 3, 3, 3, 3, 3, 3, 3, 3, 3, 3, 3, 3, 3, 3, 3, 3, 3, 3, 3, 3, 3, 3, 3, 3, 3, 3, 3, 3, 3, 3, 3, 3, 3, 3, 3, 3, 3, 3, 3, 3, 3, 3, 3, 3, 3, 3, 3, 3, 3, 3, 3, 3, 3, 3, 3, 3, 3, 3, 3, 3, 3, 3, 3, 3, 3, 3, 3, 3, 3, 3, 3, 3, 3, 3, 3, 3, 3, 3, 3, 3, 3, 3, 3, 3, 3, 3, 3, 3, 3, 3, 3, 3, 3, 3, 3, 3, 3, 3, 3, 3, 3, 3, 3, 3, 3, 3, 3, 3, 3, 3, 3, 3, 3, 3, 3, 3, 3, 3, 3, 3, 3, 3, 3, 3, 3, 3, 3, 3, 3, 3, 3, 3, 3, 3, 3, 3, 3, 3, 3, 3, 3, 3, 3, 3, 3, 3, 3, 3, 3, 3, 3, 3, 3, 3, 3, 3, 3, 3, 3, 3, 3, 3, 3, 3, 3, 3, 3, 3, 3, 3, 3, 3, 3, 3, 3, 3, 3, 3, 3, 3, 3, 3, 3, 3, 3, 3, 3, 3, 3, 3, 3, 3, 3, 3, 3, 3, 3, 3, 3, 3, 3, 3, 3, 3, 3, 3, 3, 3, 3, 3, 3, 3, 3, 3, 3, 3, 3, 3, 3, 3, 3, 3, 3, 3, 3, 3, 3, 3, 3, 3, 3, 3, 3, 3, 3, 3, 3, 3, 3, 3, 3, 3, 3, 3, 3, 3, 3, 3, 3, 3, 3, 3, 3, 3, 3, 3, 3, 3, 3, 3, 3, 3, 3, 3, 3, 3, 3, 3, 3, 3, 3, 3, 3, 3, 3, 3, 3, 3, 3, 3, 3, 3, 3, 3, 3, 3, 3, 3, 3, 3, 3, 3, 3, 3, 3, 3, 3, 3, 3, 3, 3, 3, 3, 3, 3, 3, 3, 3, 3, 3, 3, 3, 3, 3, 3, 3, 3, 3, 3, 3, 3, 3, 3, 3, 3, 3, 3, 3, 3, 3, 3, 3, 3, 3, 3, 3, 3, 3, 3, 3, 3, 3, 3, 3, 3, 3, 3, 3, 3, 3, 3, 3, 3, 3, 3, 3, 3, 3, 3, 3, 3, 3, 3, 3, 3, 3, 3, 3, 3, 3, 3, 3, 3, 3, 3, 3, 3, 3, 3, 3, 3, 3, 3, 3, 3, 3, 3, 3, 3, 3, 3, 3, 3, 3, 3, 3, 3, 3, 3, 3, 3, 3, 3, 3, 3, 3, 3, 3, 3, 3, 3, 3, 3, 3, 3, 3, 3, 3, 3, 3, 3, 3, 3, 3, 3, 3, 3, 3, 3, 3, 3, 3, 3, 3, 3, 3, 3, 3, 3, 3, 3, 3, 3, 3, 3, 3, 3, 3, 3, 3, 3, 3, 3, 3, 3, 3, 3, 3, 3, 3, 3, 3, 3, 3, 3, 3, 3, 3, 3, 3, 3, 3, 3, 3, 3, 3, 3, 3, 3, 3, 3, 3, 3, 3, 3, 3, 3, 3, 3, 3, 3, 3, 3, 3, 3, 3, 3, 3, 3, 3, 3, 3, 3, 3, 3, 3, 3, 3, 3, 3, 3, 3, 3, 3, 3, 3, 3, 3, 3, 3, 3, 3, 3, 3, 3, 3, 3, 3, 3, 3, 3, 3, 3, 3, 3, 3, 3, 3, 3, 3, 3, 3, 3, 3, 3, 3, 3, 3, 3, 3, 3, 3, 3, 3, 3, 3, 3, 3, 3, 3, 3, 3, 3, 3, 3, 3, 3, 3, 3, 3, 3, 3, 3, 3, 3, 3, 3, 3, 3, 3, 3, 3, 3, 3, 3, 3, 3, 3, 3, 3, 3, 3, 3, 3, 3, 3, 3, 3, 3, 3, 3, 3, 3, 3, 3, 3, 3, 3, 3, 3, 3, 3, 3, 3, 3, 3, 3, 3, 3, 3, 3, 3, 3, 3, 3, 3, 3, 3, 3, 3, 3, 3, 3, 3, 3, 3, 3, 3, 3, 3, 3, 3, 3, 3, 3, 3, 3, 3, 3, 3, 3, 3, 3, 3, 3, 3, 3, 3, 3, 3, 3, 3, 3, 3, 3, 3, 3, 3, 3, 3, 3, 3, 3, 3, 3, 3, 3, 3, 3, 3, 3, 3, 3, 3, 3, 3, 3, 3, 3, 3, 3, 3, 3, 3, 3, 3, 3, 3, 3, 3, 3, 3, 3, 3, 3, 3, 3]
        int[] faceVertexIndices = [124, 184, 183, 143, 183, 181, 344, 375, 374, 123, 182, 184, 792, 793, 795, 146, 185, 187, 788, 790, 794, 149, 148, 191, 787, 786, 795, 150, 149, 192, 780, 781, 794, 151, 150, 193, 778, 779, 794, 152, 151, 194, 775, 792, 795, 153, 154, 195, 772, 773, 795, 154, 155, 196, 789, 769, 794, 156, 157, 198, 285, 286, 313, 652, 653, 696, 530, 209, 208, 326, 328, 268, 124, 123, 184, 398, 397, 431, 50, 61, 60, 575, 601, 602, 359, 588, 637, 358, 536, 569, 610, 51, 609, 681, 682, 417, 479, 455, 81, 646, 645, 729, 293, 296, 347, 609, 551, 552, 414, 431, 84, 686, 750, 749, 609, 488, 489, 643, 636, 729, 571, 595, 585, 79, 78, 51, 560, 562, 607, 116, 103, 142, 513, 546, 545, 472, 518, 517, 479, 81, 80, 466, 467, 100, 714, 728, 763, 389, 382, 267, 661, 702, 701, 720, 718, 609, 748, 747, 418, 429, 428, 759, 609, 603, 604, 273, 304, 307, 50, 58, 54, 342, 374, 373, 168, 177, 204, 322, 320, 380, 706, 734, 762, 152, 194, 201, 84, 88, 93, 609, 476, 477, 70, 71, 50, 177, 203, 204, 359, 668, 677, 525, 169, 162, 685, 686, 749, 564, 563, 590, 126, 127, 51, 563, 533, 589, 130, 145, 51, 526, 527, 170, 98, 132, 134, 509, 541, 542, 510, 511, 544, 98, 159, 160, 471, 472, 517, 267, 110, 109, 450, 452, 454, 106, 102, 469, 51, 84, 450, 50, 59, 58, 268, 341, 342, 677, 678, 376, 397, 391, 267, 324, 378, 377, 649, 693, 669, 659, 648, 729, 277, 278, 305, 709, 710, 735, 281, 309, 310, 665, 667, 609, 772, 406, 407, 671, 665, 729, 269, 320, 319, 561, 559, 610, 415, 424, 431, 709, 735, 750, 354, 355, 413, 609, 493, 494, 331, 377, 395, 661, 660, 702, 338, 336, 370, 651, 695, 694, 297, 535, 349, 726, 785, 784, 148, 190, 191, 75, 85, 84, 156, 198, 197, 65, 66, 51, 610, 483, 482, 642, 649, 669, 562, 608, 607, 684, 743, 730, 176, 152, 201, 633, 632, 729, 178, 207, 206, 73, 74, 50, 565, 591, 592, 359, 640, 641, 173, 172, 529, 723, 795, 785, 568, 567, 594, 359, 586, 588, 522, 631, 583, 726, 723, 785, 576, 575, 602, 112, 113, 139, 524, 523, 581, 675, 674, 740, 530, 534, 209, 98, 119, 121, 498, 549, 551, 724, 726, 784, 112, 139, 137, 113, 138, 139, 506, 537, 539, 514, 486, 547, 103, 104, 161, 508, 507, 540, 327, 325, 51, 460, 522, 521, 103, 161, 142, 462, 461, 520, 772, 795, 268, 470, 471, 162, 457, 92, 91, 450, 459, 453, 97, 96, 267, 105, 470, 162, 653, 654, 697, 267, 122, 119, 781, 788, 794, 320, 267, 381, 679, 680, 417, 268, 385, 386, 713, 712, 738, 268, 392, 393, 663, 722, 721, 268, 405, 406, 660, 663, 721, 664, 701, 698, 295, 345, 346, 642, 669, 670, 751, 752, 420, 270, 269, 319, 700, 715, 609, 282, 281, 310, 356, 364, 411, 289, 290, 317, 691, 692, 609, 288, 316, 315, 664, 661, 701, 751, 420, 419, 655, 609, 658, 295, 284, 345, 710, 736, 735, 299, 300, 349, 158, 179, 200, 278, 306, 305, 685, 749, 417, 268, 795, 267, 609, 556, 554, 401, 400, 431, 501, 500, 610, 363, 409, 410, 610, 500, 499, 364, 363, 410, 399, 398, 431, 336, 369, 370, 175, 176, 202, 296, 346, 347, 55, 57, 51, 343, 365, 375, 122, 269, 182, 333, 331, 395, 362, 361, 375, 402, 401, 431, 773, 774, 795, 359, 358, 571, 610, 795, 662, 144, 181, 189, 650, 651, 694, 150, 192, 193, 50, 63, 62, 154, 196, 195, 86, 87, 84, 158, 200, 199, 673, 745, 744, 610, 490, 484, 665, 609, 729, 609, 478, 487, 67, 68, 51, 609, 474, 475, 84, 94, 95, 578, 606, 605, 705, 732, 733, 574, 600, 599, 635, 634, 729, 176, 201, 202, 71, 72, 50, 167, 205, 291, 359, 641, 670, 571, 597, 596, 676, 741, 742, 567, 593, 594, 359, 585, 584, 563, 589, 590, 76, 56, 51, 527, 171, 170, 359, 638, 639, 174, 529, 207, 707, 705, 733, 535, 297, 210, 359, 584, 587, 566, 565, 592, 684, 683, 743, 532, 579, 580, 127, 125, 51, 524, 581, 582, 559, 558, 610, 577, 578, 605, 69, 83, 118, 573, 574, 599, 128, 129, 51, 532, 531, 579, 114, 115, 140, 358, 570, 571, 727, 776, 777, 522, 450, 729, 98, 117, 131, 172, 528, 529, 674, 673, 744, 525, 526, 169, 98, 131, 133, 486, 548, 547, 609, 554, 603, 98, 134, 135, 187, 188, 51, 510, 544, 518, 764, 757, 729, 114, 140, 138, 115, 141, 140, 502, 501, 550, 486, 504, 548, 95, 99, 165, 512, 513, 545, 277, 305, 51, 485, 509, 542, 98, 135, 136, 506, 505, 537, 755, 754, 729, 464, 515, 516, 98, 163, 164, 461, 521, 520, 267, 108, 107, 464, 463, 515, 79, 51, 610, 609, 450, 474, 719, 727, 777, 460, 450, 522, 458, 90, 89, 79, 481, 480, 96, 111, 267, 450, 454, 451, 467, 101, 100, 102, 468, 469, 767, 766, 794, 456, 457, 91, 771, 772, 407, 712, 714, 739, 769, 768, 794, 325, 268, 51, 682, 685, 417, 269, 267, 320, 654, 698, 697, 329, 330, 268, 680, 681, 417, 268, 339, 340, 703, 684, 730, 382, 381, 267, 678, 679, 416, 268, 386, 387, 334, 333, 367, 391, 390, 267, 662, 723, 722, 268, 372, 396, 360, 359, 677, 268, 403, 404, 660, 721, 702, 336, 335, 369, 53, 50, 52, 422, 753, 758, 302, 349, 348, 704, 703, 731, 333, 395, 367, 177, 175, 203, 335, 368, 369, 610, 609, 794, 710, 711, 736, 408, 430, 770, 716, 717, 609, 272, 271, 303, 656, 659, 729, 280, 279, 308, 692, 699, 609, 284, 283, 312, 501, 610, 550, 287, 288, 315, 144, 143, 181, 279, 307, 308, 644, 643, 729, 283, 311, 312, 689, 690, 609, 290, 318, 317, 727, 708, 776, 422, 421, 753, 666, 687, 609, 748, 418, 417, 729, 673, 672, 353, 413, 84, 609, 657, 658, 292, 294, 352, 50, 54, 52, 301, 302, 348, 148, 147, 190, 413, 414, 84, 671, 729, 672, 270, 319, 321, 291, 84, 166, 677, 376, 375, 366, 362, 375, 285, 313, 306, 558, 557, 610, 423, 426, 431, 50, 84, 51, 426, 402, 431, 609, 553, 555, 414, 415, 431, 772, 268, 406, 356, 411, 412, 609, 497, 551, 365, 366, 375, 355, 412, 413, 353, 354, 413, 609, 496, 497, 794, 729, 795, 400, 399, 431, 337, 371, 409, 610, 492, 491, 334, 367, 368, 609, 552, 553, 322, 380, 379, 166, 167, 291, 294, 351, 352, 557, 550, 610, 320, 381, 380, 180, 174, 207, 342, 344, 374, 653, 697, 696, 335, 334, 368, 793, 791, 795, 324, 323, 378, 424, 425, 431, 795, 786, 785, 425, 423, 431, 609, 555, 556, 654, 664, 698, 357, 350, 535, 768, 767, 794, 155, 156, 197, 271, 321, 303, 157, 158, 199, 651, 652, 695, 147, 189, 190, 50, 62, 61, 149, 191, 192, 74, 75, 84, 151, 193, 194, 675, 740, 741, 153, 195, 185, 85, 86, 84, 155, 197, 196, 64, 65, 51, 157, 199, 198, 84, 87, 88, 609, 489, 493, 707, 733, 734, 609, 487, 488, 649, 650, 693, 610, 484, 483, 66, 67, 51, 610, 482, 481, 656, 729, 609, 609, 477, 478, 674, 744, 740, 609, 475, 476, 84, 93, 94, 561, 662, 608, 74, 84, 50, 560, 607, 606, 641, 642, 670, 576, 602, 603, 724, 784, 783, 577, 605, 600, 636, 635, 729, 573, 599, 598, 53, 70, 50, 291, 353, 84, 634, 633, 729, 175, 202, 203, 683, 742, 743, 168, 204, 205, 632, 631, 729, 179, 206, 200, 72, 73, 50, 572, 598, 597, 359, 670, 668, 571, 596, 595, 704, 731, 732, 568, 594, 601, 522, 729, 631, 566, 592, 593, 77, 76, 51, 564, 590, 591, 359, 571, 585, 572, 573, 598, 686, 709, 750, 526, 170, 169, 359, 639, 640, 528, 172, 171, 78, 77, 51, 174, 173, 529, 359, 637, 638, 529, 208, 207, 561, 610, 662, 534, 210, 209, 68, 69, 126, 571, 572, 597, 50, 82, 63, 567, 566, 593, 359, 587, 586, 565, 564, 591, 723, 662, 795, 533, 580, 589, 68, 126, 51, 523, 583, 581, 725, 783, 782, 531, 582, 579, 703, 730, 731, 562, 561, 608, 284, 312, 345, 578, 560, 606, 683, 676, 742, 554, 576, 603, 125, 128, 51, 574, 577, 600, 83, 112, 137, 575, 568, 601, 676, 675, 741, 533, 532, 580, 113, 114, 138, 531, 524, 582, 129, 130, 51, 523, 522, 583, 115, 116, 141, 358, 569, 570, 272, 303, 304, 358, 535, 536, 69, 118, 126, 534, 535, 210, 51, 268, 50, 529, 530, 208, 98, 121, 120, 527, 528, 171, 725, 724, 783, 517, 525, 162, 50, 267, 82, 98, 120, 117, 145, 187, 51, 504, 550, 548, 98, 133, 132, 514, 547, 546, 609, 495, 496, 512, 545, 543, 729, 431, 795, 188, 186, 51, 361, 677, 375, 511, 543, 544, 83, 137, 118, 485, 542, 549, 678, 416, 376, 508, 540, 541, 186, 274, 51, 507, 539, 540, 274, 275, 51, 505, 538, 537, 116, 142, 141, 503, 502, 550, 497, 498, 551, 275, 276, 51, 99, 98, 164, 276, 277, 51, 513, 514, 546, 104, 105, 162, 511, 512, 543, 756, 755, 729, 498, 485, 549, 84, 165, 166, 509, 508, 541, 305, 327, 51, 507, 506, 539, 98, 136, 159, 505, 465, 538, 718, 719, 777, 465, 516, 538, 98, 160, 163, 463, 519, 515, 267, 107, 82, 462, 520, 519, 99, 164, 165, 472, 510, 518, 754, 746, 729, 465, 464, 516, 104, 162, 161, 463, 462, 519, 267, 109, 108, 461, 460, 521, 80, 79, 480, 79, 610, 481, 650, 694, 693, 450, 473, 474, 455, 89, 81, 471, 517, 162, 111, 110, 267, 450, 460, 459, 456, 91, 90, 480, 479, 80, 746, 745, 729, 450, 453, 452, 466, 100, 92, 450, 451, 473, 98, 97, 267, 106, 469, 470, 102, 101, 468, 101, 467, 468, 774, 775, 795, 457, 466, 92, 105, 106, 470, 458, 456, 90, 766, 765, 794, 98, 267, 119, 795, 610, 794, 714, 763, 739, 361, 360, 677, 408, 770, 771, 358, 357, 535, 267, 50, 268, 50, 60, 59, 269, 122, 267, 350, 349, 535, 325, 326, 268, 363, 337, 409, 328, 329, 268, 430, 761, 770, 330, 332, 268, 718, 777, 609, 268, 332, 339, 712, 739, 738, 268, 340, 341, 323, 322, 379, 268, 342, 372, 427, 760, 761, 268, 383, 384, 708, 762, 776, 268, 384, 385, 790, 789, 794, 268, 387, 388, 344, 343, 375, 390, 389, 267, 429, 759, 760, 268, 388, 392, 652, 696, 695, 268, 393, 394, 331, 324, 377, 268, 396, 383, 178, 180, 207, 268, 394, 403, 428, 758, 759, 268, 404, 405, 337, 338, 371, 397, 267, 431, 56, 55, 51, 455, 458, 89, 609, 494, 495, 51, 450, 609, 713, 738, 737, 711, 713, 737, 293, 347, 351, 179, 178, 206, 167, 168, 205, 292, 352, 353, 342, 373, 372, 421, 752, 753, 57, 64, 51, 323, 379, 378, 610, 499, 492, 610, 491, 490, 338, 370, 371, 705, 704, 732, 791, 787, 795, 431, 267, 795, 717, 720, 609, 430, 427, 761, 648, 647, 729, 271, 270, 321, 715, 716, 609, 273, 272, 304, 747, 751, 419, 279, 273, 307, 699, 700, 609, 281, 280, 309, 647, 646, 729, 283, 282, 311, 123, 122, 182, 278, 285, 306, 706, 707, 734, 286, 287, 314, 143, 124, 183, 288, 289, 316, 645, 644, 729, 290, 301, 318, 145, 146, 187, 280, 308, 309, 749, 748, 417, 282, 310, 311, 690, 691, 609, 287, 315, 314, 663, 662, 722, 289, 317, 316, 688, 689, 609, 427, 429, 760, 778, 794, 609, 428, 422, 758, 687, 688, 609, 752, 421, 420, 673, 729, 745, 747, 419, 418, 667, 666, 609, 407, 408, 771, 765, 729, 794, 679, 417, 416, 655, 656, 609, 298, 297, 349, 711, 737, 736, 296, 295, 346, 609, 604, 657, 291, 292, 353, 364, 410, 411, 294, 293, 351, 147, 144, 189, 300, 298, 349, 708, 706, 762, 302, 299, 349, 146, 153, 185, 301, 348, 318, 355, 356, 412, 286, 314, 313, 765, 764, 729, 779, 780, 794, 777, 778, 609, 728, 782, 763, 728, 725, 782, 757, 756, 729, 84, 95, 165, 504, 503, 550, 266, 251, 252, 266, 249, 251, 245, 249, 266, 266, 33, 245, 450, 432, 729, 621, 622, 729, 622, 620, 729, 620, 628, 729, 629, 627, 729, 627, 626, 729, 431, 262, 263, 431, 263, 264, 264, 261, 431, 261, 260, 431, 431, 260, 265, 630, 431, 729, 84, 30, 450, 47, 46, 84, 46, 45, 84, 45, 44, 84, 44, 42, 84, 42, 41, 84, 432, 30, 266, 34, 38, 33, 266, 30, 33, 34, 30, 35, 33, 30, 34, 432, 450, 30, 41, 30, 84, 40, 30, 41, 30, 32, 35, 30, 31, 32, 43, 30, 40, 30, 43, 31, 432, 433, 434, 432, 611, 433, 432, 437, 436, 432, 443, 437, 432, 630, 611, 432, 434, 444, 432, 444, 443, 434, 614, 612, 432, 436, 438, 432, 438, 439, 614, 613, 612, 432, 439, 440, 432, 440, 441, 614, 615, 613, 432, 441, 442, 434, 445, 444, 614, 616, 615, 434, 435, 445, 434, 612, 435, 630, 614, 611, 729, 432, 442, 630, 623, 614, 630, 624, 623, 265, 84, 431, 630, 625, 624, 630, 626, 625, 614, 617, 616, 614, 623, 617, 626, 630, 729, 729, 442, 446, 446, 447, 729, 447, 448, 729, 448, 449, 729, 449, 618, 729, 619, 621, 729, 618, 619, 729, 628, 629, 729, 258, 84, 265, 257, 84, 258, 255, 84, 256, 84, 257, 256, 255, 49, 84, 630, 266, 431, 49, 48, 84, 266, 262, 431, 266, 259, 262, 48, 47, 84, 266, 254, 259, 266, 253, 254, 266, 252, 253, 432, 266, 630, 5, 213, 9, 28, 29, 236, 2, 212, 4, 240, 11, 239, 0, 217, 1, 3, 215, 2, 9, 218, 0, 213, 218, 9, 6, 7, 15, 16, 7, 8, 9, 6, 20, 18, 8, 10, 24, 10, 11, 13, 14, 6, 20, 21, 9, 14, 20, 6, 13, 6, 15, 15, 7, 16, 16, 8, 17, 21, 22, 9, 9, 22, 5, 17, 8, 18, 19, 18, 10, 10, 23, 19, 23, 10, 24, 25, 24, 11, 26, 25, 11, 222, 26, 11, 11, 12, 239, 12, 27, 244, 222, 11, 240, 221, 238, 220, 238, 221, 227, 227, 228, 238, 229, 241, 228, 230, 241, 229, 1, 216, 3, 231, 242, 230, 223, 222, 240, 214, 219, 218, 213, 214, 218, 217, 0, 218, 240, 225, 223, 226, 225, 240, 224, 226, 240, 232, 224, 243, 216, 1, 217, 215, 3, 216, 212, 2, 215, 211, 4, 212, 233, 232, 243, 233, 243, 231, 29, 234, 235, 236, 29, 235, 239, 12, 244, 244, 27, 237, 237, 28, 236, 228, 241, 238, 230, 242, 241, 243, 242, 231, 240, 243, 224, 212, 246, 211, 215, 248, 212, 246, 212, 247, 248, 247, 212, 248, 215, 251, 251, 215, 216, 217, 252, 216, 251, 216, 252, 251, 249, 248, 218, 253, 217, 238, 254, 218, 252, 217, 253, 253, 218, 254, 254, 238, 259, 235, 234, 256, 256, 234, 255, 235, 256, 257, 236, 235, 257, 237, 236, 258, 258, 236, 257, 237, 258, 265, 240, 239, 261, 261, 239, 260, 259, 238, 241, 242, 262, 241, 243, 263, 242, 255, 29, 49, 29, 255, 234, 29, 28, 49, 28, 48, 49, 48, 27, 47, 28, 27, 48, 27, 12, 47, 12, 46, 47, 46, 11, 45, 12, 11, 46, 45, 10, 44, 11, 10, 45, 44, 8, 42, 10, 8, 44, 8, 7, 42, 259, 241, 262, 7, 41, 42, 41, 6, 40, 43, 40, 9, 7, 6, 41, 9, 40, 6, 219, 220, 218, 36, 38, 34, 37, 211, 246, 4, 37, 36, 36, 34, 4, 211, 37, 4, 35, 2, 34, 35, 32, 3, 3, 2, 35, 4, 34, 2, 32, 31, 1, 43, 0, 31, 262, 242, 263, 243, 240, 264, 263, 243, 264, 264, 240, 261, 244, 237, 265, 260, 239, 244, 260, 244, 265, 27, 28, 237, 3, 32, 1, 1, 31, 0, 9, 0, 43, 220, 238, 218, 5, 445, 435, 25, 449, 448, 230, 626, 231, 612, 214, 213, 613, 219, 214, 214, 612, 613, 219, 613, 615, 26, 618, 449, 219, 615, 220, 220, 616, 221, 619, 222, 223, 621, 223, 225, 620, 226, 224, 226, 622, 225, 617, 227, 221, 227, 623, 228, 228, 624, 229, 625, 230, 229, 233, 629, 232, 445, 5, 22, 24, 448, 447, 23, 447, 446, 22, 444, 445, 21, 443, 444, 19, 446, 442, 18, 442, 441, 17, 441, 440, 232, 628, 224, 233, 627, 629, 224, 628, 620, 232, 629, 628, 231, 626, 627, 230, 625, 626, 229, 624, 625, 228, 623, 624, 227, 617, 623, 225, 622, 621, 226, 620, 622, 223, 621, 619, 222, 619, 618, 221, 616, 617, 220, 615, 616, 627, 233, 231, 16, 440, 439, 15, 439, 438, 13, 438, 436, 14, 436, 437, 20, 437, 443, 618, 26, 222, 449, 25, 26, 25, 448, 24, 24, 447, 23, 21, 444, 22, 443, 21, 20, 446, 19, 23, 19, 442, 18, 18, 441, 17, 440, 16, 17, 16, 439, 15, 438, 13, 15, 14, 437, 20, 13, 436, 14, 213, 435, 612, 435, 213, 5, 761, 756, 757, 755, 760, 759, 789, 793, 792, 790, 791, 793, 788, 787, 791, 793, 789, 790, 791, 790, 788, 787, 788, 781, 781, 786, 787, 780, 785, 786, 779, 784, 785, 778, 783, 784, 777, 782, 783, 786, 781, 780, 785, 780, 779, 784, 779, 778, 783, 778, 777, 764, 771, 770, 782, 777, 776, 768, 775, 774, 767, 774, 773, 769, 792, 775, 775, 768, 769, 774, 767, 768, 773, 766, 767, 792, 769, 789, 772, 765, 766, 735, 731, 730, 736, 732, 731, 771, 764, 765, 746, 758, 753, 759, 754, 755, 765, 772, 771, 766, 773, 772, 758, 746, 754, 745, 753, 752, 744, 752, 751, 770, 757, 764, 776, 763, 782, 762, 739, 763, 730, 750, 735, 763, 776, 762, 740, 751, 747, 743, 749, 750, 741, 747, 748, 742, 748, 749, 753, 745, 746, 752, 744, 745, 751, 740, 744, 750, 730, 743, 749, 743, 742, 748, 742, 741, 747, 741, 740, 760, 755, 756, 739, 762, 734, 737, 733, 732, 738, 734, 733, 731, 735, 736, 732, 736, 737, 733, 737, 738, 734, 738, 739, 757, 770, 761, 756, 761, 760, 754, 759, 758, 429, 423, 425, 395, 383, 396, 367, 396, 372, 403, 391, 397, 404, 397, 398, 405, 398, 399, 406, 399, 400, 407, 400, 401, 408, 401, 402, 391, 403, 394, 397, 404, 403, 398, 405, 404, 399, 406, 405, 394, 390, 391, 400, 407, 406, 401, 408, 407, 373, 369, 368, 422, 424, 415, 427, 426, 423, 415, 421, 422, 376, 409, 371, 396, 367, 395, 383, 395, 377, 390, 394, 393, 389, 393, 392, 402, 430, 408, 416, 410, 409, 414, 420, 421, 413, 419, 420, 382, 392, 388, 374, 370, 369, 428, 425, 424, 417, 411, 410, 392, 382, 389, 379, 386, 385, 381, 388, 387, 380, 387, 386, 378, 385, 384, 377, 384, 383, 386, 379, 380, 388, 381, 382, 387, 380, 381, 384, 377, 378, 385, 378, 379, 423, 429, 427, 375, 371, 370, 368, 372, 373, 369, 373, 374, 370, 374, 375, 371, 375, 376, 412, 418, 419, 411, 417, 418, 410, 416, 417, 409, 376, 416, 421, 415, 414, 420, 414, 413, 419, 413, 412, 372, 368, 367, 418, 412, 411, 430, 402, 426, 426, 427, 430, 425, 428, 429, 424, 422, 428, 393, 389, 390, 700, 701, 702, 701, 700, 699, 699, 698, 701, 709, 684, 703, 710, 703, 704, 711, 704, 705, 712, 707, 706, 713, 705, 707, 692, 697, 698, 691, 696, 697, 690, 695, 696, 689, 694, 695, 688, 693, 694, 687, 669, 693, 698, 699, 692, 697, 692, 691, 696, 691, 690, 695, 690, 689, 694, 689, 688, 693, 688, 687, 684, 709, 686, 683, 686, 685, 686, 683, 684, 676, 685, 682, 675, 682, 681, 674, 681, 680, 673, 680, 679, 672, 679, 678, 671, 678, 677, 685, 676, 683, 682, 675, 676, 681, 674, 675, 680, 673, 674, 679, 672, 673, 678, 671, 672, 677, 665, 671, 666, 670, 669, 665, 677, 668, 667, 668, 670, 669, 687, 666, 670, 666, 667, 668, 667, 665, 714, 706, 708, 728, 708, 727, 703, 710, 709, 704, 711, 710, 705, 713, 711, 707, 712, 713, 706, 714, 712, 708, 728, 714, 721, 716, 715, 722, 717, 716, 723, 720, 717, 726, 718, 720, 725, 727, 719, 724, 719, 718, 715, 702, 721, 716, 721, 722, 717, 722, 723, 718, 726, 724, 727, 725, 728, 719, 724, 725, 720, 723, 726, 702, 715, 700, 363, 366, 365, 341, 334, 335, 305, 304, 303, 303, 327, 305, 304, 305, 306, 306, 307, 304, 313, 308, 307, 314, 309, 308, 315, 310, 309, 316, 311, 310, 317, 312, 311, 318, 345, 312, 307, 306, 313, 364, 362, 366, 356, 361, 362, 355, 360, 361, 354, 359, 360, 353, 358, 359, 352, 357, 358, 351, 350, 357, 361, 356, 355, 362, 364, 356, 360, 355, 354, 359, 354, 353, 358, 353, 352, 357, 352, 351, 347, 349, 350, 346, 348, 349, 345, 318, 348, 350, 351, 347, 349, 347, 346, 348, 346, 345, 337, 365, 343, 338, 343, 344, 336, 344, 342, 335, 342, 341, 334, 341, 340, 333, 340, 339, 366, 363, 364, 331, 339, 332, 365, 337, 363, 308, 313, 314, 309, 314, 315, 310, 315, 316, 311, 316, 317, 312, 317, 318, 326, 319, 320, 327, 303, 321, 325, 321, 319, 328, 320, 322, 329, 322, 323, 330, 323, 324, 331, 332, 324, 319, 326, 325, 320, 328, 326, 321, 325, 327, 322, 329, 328, 323, 330, 329, 324, 332, 330, 339, 331, 333, 343, 338, 337, 344, 336, 338, 342, 335, 336, 340, 333, 334, 638, 631, 632, 639, 632, 633, 604, 607, 608, 603, 606, 607, 602, 605, 606, 608, 657, 604, 607, 604, 603, 606, 603, 602, 605, 602, 601, 601, 600, 605, 594, 599, 600, 593, 598, 599, 592, 597, 598, 591, 596, 597, 590, 595, 596, 589, 585, 595, 600, 601, 594, 599, 594, 593, 598, 593, 592, 597, 592, 591, 583, 637, 588, 582, 586, 587, 581, 588, 586, 580, 584, 585, 579, 587, 584, 637, 583, 631, 588, 581, 583, 586, 582, 581, 584, 580, 579, 585, 589, 580, 587, 579, 582, 595, 590, 589, 596, 591, 590, 659, 661, 664, 658, 662, 663, 656, 660, 661, 655, 663, 660, 661, 659, 656, 662, 658, 657, 660, 656, 655, 663, 655, 658, 647, 654, 653, 648, 664, 654, 646, 653, 652, 645, 652, 651, 644, 651, 650, 643, 650, 649, 654, 647, 648, 664, 648, 659, 653, 646, 647, 652, 645, 646, 651, 644, 645, 650, 643, 644, 649, 636, 643, 636, 649, 642, 635, 642, 641, 634, 641, 640, 633, 640, 639, 632, 639, 638, 631, 638, 637, 642, 635, 636, 641, 634, 635, 640, 633, 634, 657, 608, 662, 198, 193, 192, 287, 280, 281, 275, 269, 270, 276, 270, 271, 277, 271, 272, 278, 272, 273, 269, 275, 274, 270, 276, 275, 271, 277, 276, 272, 278, 277, 291, 210, 297, 205, 209, 210, 204, 208, 209, 203, 207, 208, 202, 206, 207, 201, 200, 206, 210, 291, 205, 209, 205, 204, 208, 204, 203, 207, 203, 202, 206, 202, 201, 194, 199, 200, 193, 198, 199, 192, 197, 198, 191, 196, 197, 189, 185, 195, 190, 195, 196, 200, 201, 194, 199, 194, 193, 285, 273, 279, 197, 192, 191, 196, 191, 190, 185, 189, 181, 195, 190, 189, 184, 186, 188, 183, 188, 187, 182, 274, 186, 181, 187, 185, 186, 184, 182, 188, 183, 184, 274, 182, 269, 187, 181, 183, 296, 299, 302, 295, 302, 301, 294, 298, 300, 293, 300, 299, 292, 297, 298, 299, 296, 293, 301, 284, 295, 302, 295, 296, 300, 293, 294, 298, 294, 292, 297, 292, 291, 284, 301, 290, 283, 290, 289, 282, 289, 288, 281, 288, 287, 280, 287, 286, 279, 286, 285, 273, 285, 278, 290, 283, 284, 289, 282, 283, 288, 281, 282, 286, 279, 280, 533, 569, 536, 544, 537, 538, 565, 572, 571, 566, 573, 572, 567, 574, 573, 568, 577, 574, 578, 575, 576, 575, 578, 577, 561, 556, 555, 552, 557, 558, 551, 550, 557, 517, 516, 515, 518, 538, 516, 516, 517, 518, 526, 519, 520, 525, 515, 519, 527, 520, 521, 528, 521, 522, 529, 522, 523, 530, 523, 524, 515, 525, 517, 519, 526, 525, 520, 527, 526, 521, 528, 527, 522, 529, 528, 523, 530, 529, 524, 534, 530, 534, 524, 531, 563, 570, 569, 577, 568, 575, 574, 567, 568, 573, 566, 567, 572, 565, 566, 571, 564, 565, 570, 563, 564, 569, 533, 563, 556, 561, 562, 555, 559, 561, 554, 562, 560, 553, 558, 559, 535, 531, 532, 536, 532, 533, 576, 560, 578, 560, 576, 554, 562, 554, 556, 559, 555, 553, 558, 553, 552, 557, 552, 551, 550, 551, 549, 549, 548, 550, 531, 535, 534, 535, 532, 536, 542, 547, 548, 541, 546, 547, 540, 545, 546, 539, 543, 545, 537, 544, 543, 538, 518, 544, 548, 549, 542, 547, 542, 541, 546, 541, 540, 545, 540, 539, 543, 539, 537, 564, 571, 570, 119, 128, 125, 148, 155, 154, 128, 119, 122, 125, 121, 119, 126, 117, 120, 127, 120, 121, 120, 127, 126, 151, 158, 157, 150, 157, 156, 117, 126, 118, 121, 125, 127, 122, 129, 128, 123, 130, 129, 124, 145, 130, 118, 131, 117, 137, 133, 131, 138, 134, 132, 175, 180, 178, 177, 174, 180, 176, 178, 179, 180, 175, 177, 178, 176, 175, 179, 152, 176, 168, 173, 174, 167, 172, 173, 166, 171, 172, 165, 170, 171, 164, 169, 170, 163, 162, 169, 174, 177, 168, 173, 168, 167, 172, 167, 166, 171, 166, 165, 170, 165, 164, 169, 164, 163, 162, 163, 160, 160, 161, 162, 159, 142, 161, 161, 160, 159, 152, 179, 158, 130, 123, 124, 139, 132, 133, 129, 122, 123, 140, 135, 134, 141, 136, 135, 142, 159, 136, 131, 118, 137, 133, 137, 139, 132, 139, 138, 134, 138, 140, 135, 140, 141, 136, 141, 142, 145, 124, 143, 146, 143, 144, 143, 146, 145, 153, 144, 147, 154, 147, 148, 155, 148, 149, 156, 149, 150, 157, 150, 151, 158, 151, 152, 144, 153, 146, 147, 154, 153, 149, 156, 155, 507, 513, 512, 499, 494, 493, 509, 486, 514, 504, 485, 498, 486, 509, 485, 510, 465, 505, 487, 484, 490, 478, 483, 484, 477, 482, 483, 476, 481, 482, 475, 480, 481, 474, 479, 480, 473, 455, 479, 484, 487, 478, 483, 478, 477, 482, 477, 476, 481, 476, 475, 480, 475, 474, 479, 474, 473, 465, 510, 472, 464, 472, 471, 463, 471, 470, 462, 470, 469, 461, 469, 468, 460, 468, 467, 459, 467, 466, 451, 458, 455, 453, 466, 457, 506, 512, 511, 505, 511, 510, 514, 508, 509, 472, 464, 465, 471, 463, 464, 513, 507, 508, 485, 504, 486, 511, 505, 506, 470, 462, 463, 469, 461, 462, 468, 460, 461, 467, 459, 460, 508, 514, 513, 452, 457, 456, 498, 503, 504, 454, 456, 458, 458, 451, 454, 466, 453, 459, 457, 452, 453, 456, 454, 452, 455, 473, 451, 497, 502, 503, 495, 500, 501, 494, 499, 500, 496, 501, 502, 502, 497, 496, 503, 498, 497, 490, 488, 487, 491, 489, 488, 492, 493, 489, 488, 490, 491, 500, 495, 494, 489, 491, 492, 493, 492, 499, 501, 496, 495, 512, 506, 507, 91, 88, 87, 96, 104, 103, 89, 86, 85, 111, 103, 116, 82, 112, 83, 63, 83, 69, 112, 82, 107, 67, 60, 61, 92, 93, 88, 85, 81, 89, 83, 63, 82, 55, 53, 52, 57, 52, 54, 64, 54, 58, 53, 55, 56, 52, 57, 55, 68, 61, 62, 66, 59, 60, 65, 58, 59, 69, 62, 63, 110, 116, 115, 109, 115, 114, 54, 64, 57, 108, 114, 113, 107, 113, 112, 116, 110, 111, 115, 109, 110, 114, 108, 109, 113, 107, 108, 97, 105, 104, 98, 106, 105, 75, 80, 81, 74, 79, 80, 73, 78, 79, 70, 56, 76, 72, 77, 78, 71, 76, 77, 81, 85, 75, 80, 75, 74, 79, 74, 73, 56, 70, 53, 78, 73, 72, 77, 72, 71, 76, 71, 70, 62, 69, 68, 61, 68, 67, 60, 67, 66, 59, 66, 65, 58, 65, 64, 86, 89, 90, 87, 90, 91, 88, 91, 92, 93, 92, 100, 100, 94, 93, 101, 95, 94, 102, 99, 95, 103, 111, 96, 104, 96, 97, 105, 97, 98, 106, 98, 99, 94, 100, 101, 95, 101, 102, 99, 102, 106, 86, 90, 87, 247, 248, 246, 246, 250, 39, 250, 246, 248, 245, 611, 249, 245, 433, 611, 614, 248, 249, 614, 250, 248, 614, 249, 611, 38, 434, 33, 434, 433, 33, 433, 245, 33, 37, 246, 39, 38, 39, 434, 250, 434, 39, 38, 36, 39, 250, 614, 434, 37, 39, 36]
        point3f[] points = [(-27, 33.37061, -123.111404), (-27, 35.857864, -126.142136), (-27, 42.346333, -130.47758), (-27, 38.888596, -128.6294), (-27, 46.098194, -131.6157), (-27, 48.341732, -120.33668), (-27, 30.384295, -115.90181), (-27, 30, -112), (-27, 30.384295, -108.09819), (-27, 31.52241, -119.65367), (-27, 31.52241, -104.34633), (-27, 33.37061, -100.888596), (-27, 35.857864, -97.857864), (-27, 42.147022, -115.25281), (-27, 42.932507, -116.72234), (-27, 41.663326, -113.658264), (-27, 41.5, -112), (-27, 41.663326, -110.341736), (-27, 42.147022, -108.74719), (-27, 42.932507, -107.27766), (-27, 43.989594, -118.01041), (-27, 45.277653, -119.06749), (-27, 46.747192, -119.852974), (-27, 43.989594, -105.98959), (-27, 45.277653, -104.93251), (-27, 46.747192, -104.147026), (-27, 48.341732, -103.66332), (-27, 38.888596, -95.370605), (-27, 42.346333, -93.52241), (-27, 46.098194, -92.38429), (-15, 0, -160), (-15, 33.37061, -123.111404), (-15, 35.857864, -126.142136), (-15, 46, -152), (-15, 42.346333, -130.47758), (-15, 38.888596, -128.6294), (-16, 46, -131.58592), (-16, 46.098194, -131.6157), (-15, 46, -131.58592), (-16, 46, -122), (-15, 30.384295, -115.90181), (-15, 30, -112), (-15, 30.384295, -108.09819), (-15, 31.52241, -119.65367), (-15, 31.52241, -104.34633), (-15, 33.37061, -100.888596), (-15, 35.857864, -97.857864), (-15, 38.888596, -95.370605), (-15, 42.346333, -93.52241), (-15, 46.098194, -92.38429), (-50, 0, -10), (-50, 0, 0), (-22.286541, 8.472182, -10), (-21.944544, 8.055456, -10), (-22.540668, 8.94762, -10), (-22.286541, 8.472182, 0), (-21.944544, 8.055456, 0), (-22.540668, 8.94762, 0), (-22.697159, 9.463502, -10), (-22.75, 10, -10), (-22.697159, 10.536498, -10), (-22.540668, 11.05238, -10), (-22.286541, 11.527818, -10), (-21.944544, 11.944544, -10), (-22.697159, 9.463502, 0), (-22.75, 10, 0), (-22.697159, 10.536498, 0), (-22.540668, 11.05238, 0), (-22.286541, 11.527818, 0), (-21.944544, 11.944544, 0), (-21.527819, 7.7134585, -10), (-21.05238, 7.4593315, -10), (-20.536499, 7.3028407, -10), (-20, 7.25, -10), (-19.463501, 7.3028407, -10), (-18.94762, 7.4593315, -10), (-21.527819, 7.7134585, 0), (-21.05238, 7.4593315, 0), (-20.536499, 7.3028407, 0), (-20, 7.25, 0), (-19.463501, 7.3028407, 0), (-18.94762, 7.4593315, 0), (-21.527819, 12.286541, -10), (-21.527819, 12.286541, 0), (-15, 0, -10), (-18.472181, 7.7134585, -10), (-18.055456, 8.055456, -10), (-17.713459, 8.472182, -10), (-17.459332, 8.94762, -10), (-18.472181, 7.7134585, 0), (-18.055456, 8.055456, 0), (-17.713459, 8.472182, 0), (-17.459332, 8.94762, 0), (-17.302841, 9.463502, -10), (-17.25, 10, -10), (-17.302841, 10.536498, -10), (-18.472181, 12.286541, -10), (-18.055456, 11.944544, -10), (-17.713459, 11.527818, -10), (-17.459332, 11.05238, -10), (-17.302841, 9.463502, 0), (-17.25, 10, 0), (-17.302841, 10.536498, 0), (-18.472181, 12.286541, 0), (-18.055456, 11.944544, 0), (-17.713459, 11.527818, 0), (-17.459332, 11.05238, 0), (-21.05238, 12.5406685, -10), (-20.536499, 12.69716, -10), (-20, 12.75, -10), (-19.463501, 12.69716, -10), (-18.94762, 12.5406685, -10), (-21.05238, 12.5406685, 0), (-20.536499, 12.69716, 0), (-20, 12.75, 0), (-19.463501, 12.69716, 0), (-18.94762, 12.5406685, 0), (-21.944544, 28.055456, -10), (-21.944544, 28.055456, 0), (-22.697159, 29.463501, -10), (-22.286541, 28.472181, -10), (-22.540668, 28.94762, -10), (-22.75, 30, -10), (-22.697159, 30.536499, -10), (-22.540668, 31.05238, -10), (-22.697159, 29.463501, 0), (-22.286541, 28.472181, 0), (-22.540668, 28.94762, 0), (-22.75, 30, 0), (-22.697159, 30.536499, 0), (-22.540668, 31.05238, 0), (-21.527819, 27.713459, -10), (-20.536499, 27.302841, -10), (-21.05238, 27.459332, -10), (-20, 27.25, -10), (-19.463501, 27.302841, -10), (-18.94762, 27.459332, -10), (-21.527819, 27.713459, 0), (-20.536499, 27.302841, 0), (-21.05238, 27.459332, 0), (-20, 27.25, 0), (-19.463501, 27.302841, 0), (-18.94762, 27.459332, 0), (-22.286541, 31.527819, -10), (-21.944544, 31.944544, -10), (-22.286541, 31.527819, 0), (-21.944544, 31.944544, 0), (-21.527819, 32.28654, -10), (-21.05238, 32.54067, -10), (-20.536499, 32.69716, -10), (-20, 32.75, -10), (-19.463501, 32.69716, -10), (-18.94762, 32.54067, -10), (-21.527819, 32.28654, 0), (-21.05238, 32.54067, 0), (-20.536499, 32.69716, 0), (-20, 32.75, 0), (-19.463501, 32.69716, 0), (-18.94762, 32.54067, 0), (-18.472181, 27.713459, -10), (-18.055456, 28.055456, -10), (-18.472181, 27.713459, 0), (-18.055456, 28.055456, 0), (-17.713459, 28.472181, -10), (-17.459332, 28.94762, -10), (-17.302841, 29.463501, -10), (-17.25, 30, -10), (-17.302841, 30.536499, -10), (-17.459332, 31.05238, -10), (-17.713459, 28.472181, 0), (-17.459332, 28.94762, 0), (-17.302841, 29.463501, 0), (-17.25, 30, 0), (-17.302841, 30.536499, 0), (-17.459332, 31.05238, 0), (-18.055456, 31.944544, -10), (-18.472181, 32.28654, -10), (-17.713459, 31.527819, -10), (-18.055456, 31.944544, 0), (-18.472181, 32.28654, 0), (-17.713459, 31.527819, 0), (-21.944544, 48.055458, -10), (-22.697159, 49.4635, -10), (-22.286541, 48.472183, -10), (-22.540668, 48.94762, -10), (-21.944544, 48.055458, 0), (-22.697159, 49.4635, 0), (-22.286541, 48.472183, 0), (-22.540668, 48.94762, 0), (-21.527819, 47.71346, -10), (-21.05238, 47.45933, -10), (-20.536499, 47.30284, -10), (-20, 47.25, -10), (-19.463501, 47.30284, -10), (-18.94762, 47.45933, -10), (-21.527819, 47.71346, 0), (-21.05238, 47.45933, 0), (-20.536499, 47.30284, 0), (-20, 47.25, 0), (-19.463501, 47.30284, 0), (-18.94762, 47.45933, 0), (-18.472181, 47.71346, -10), (-18.055456, 48.055458, -10), (-17.713459, 48.472183, -10), (-17.459332, 48.94762, -10), (-17.302841, 49.4635, -10), (-18.472181, 47.71346, 0), (-18.055456, 48.055458, 0), (-17.713459, 48.472183, 0), (-17.459332, 48.94762, 0), (-17.302841, 49.4635, 0), (-27, 50, -132), (-27, 53.901806, -131.6157), (-27, 50, -120.5), (-27, 51.658268, -120.33668), (-27, 57.653667, -130.47758), (-27, 61.111404, -128.6294), (-27, 64.142136, -126.142136), (-27, 66.629395, -123.111404), (-27, 53.252808, -119.852974), (-27, 54.722347, -119.06749), (-27, 56.010406, -118.01041), (-27, 50, -103.5), (-27, 51.658268, -103.66332), (-27, 56.010406, -105.98959), (-27, 53.252808, -104.147026), (-27, 54.722347, -104.93251), (-27, 57.067493, -116.72234), (-27, 57.852978, -115.25281), (-27, 58.336674, -113.658264), (-27, 58.5, -112), (-27, 58.336674, -110.341736), (-27, 57.067493, -107.27766), (-27, 57.852978, -108.74719), (-27, 50, -92), (-27, 53.901806, -92.38429), (-27, 57.653667, -93.52241), (-27, 61.111404, -95.370605), (-27, 68.47759, -119.65367), (-27, 66.629395, -100.888596), (-27, 68.47759, -104.34633), (-27, 69.61571, -115.90181), (-27, 70, -112), (-27, 69.61571, -108.09819), (-27, 64.142136, -97.857864), (-15, 54, -152), (-16, 50, -132), (-16, 53.901806, -131.6157), (-16, 54, -131.58592), (-15, 54, -131.58592), (-16, 54, -122), (-15, 57.653667, -130.47758), (-15, 61.111404, -128.6294), (-15, 64.142136, -126.142136), (-15, 66.629395, -123.111404), (-15, 50, -92), (-15, 53.901806, -92.38429), (-15, 57.653667, -93.52241), (-15, 61.111404, -95.370605), (-15, 68.47759, -119.65367), (-15, 66.629395, -100.888596), (-15, 68.47759, -104.34633), (-15, 69.61571, -115.90181), (-15, 70, -112), (-15, 69.61571, -108.09819), (-15, 64.142136, -97.857864), (-15, 100, -160), (-50, 100, -10), (-50, 100, 0), (-22.75, 50, -10), (-22.697159, 50.5365, -10), (-22.540668, 51.05238, -10), (-22.286541, 51.527817, -10), (-21.944544, 51.944542, -10), (-22.75, 50, 0), (-22.697159, 50.5365, 0), (-22.540668, 51.05238, 0), (-22.286541, 51.527817, 0), (-21.944544, 51.944542, 0), (-21.527819, 52.28654, -10), (-21.05238, 52.54067, -10), (-20.536499, 52.69716, -10), (-20, 52.75, -10), (-19.463501, 52.69716, -10), (-18.94762, 52.54067, -10), (-21.527819, 52.28654, 0), (-21.05238, 52.54067, 0), (-20.536499, 52.69716, 0), (-20, 52.75, 0), (-19.463501, 52.69716, 0), (-18.94762, 52.54067, 0), (-17.25, 50, -10), (-17.302841, 50.5365, -10), (-17.713459, 51.527817, -10), (-17.459332, 51.05238, -10), (-18.472181, 52.28654, -10), (-18.055456, 51.944542, -10), (-17.25, 50, 0), (-17.302841, 50.5365, 0), (-17.713459, 51.527817, 0), (-17.459332, 51.05238, 0), (-18.472181, 52.28654, 0), (-18.055456, 51.944542, 0), (-22.286541, 68.47218, -10), (-21.944544, 68.05546, -10), (-22.286541, 68.47218, 0), (-21.944544, 68.05546, 0), (-21.527819, 67.713455, -10), (-21.05238, 67.45933, -10), (-20.536499, 67.30284, -10), (-20, 67.25, -10), (-19.463501, 67.30284, -10), (-18.94762, 67.45933, -10), (-21.527819, 67.713455, 0), (-21.05238, 67.45933, 0), (-20.536499, 67.30284, 0), (-20, 67.25, 0), (-19.463501, 67.30284, 0), (-18.94762, 67.45933, 0), (-22.697159, 69.4635, -10), (-22.75, 70, -10), (-22.540668, 68.947624, -10), (-22.697159, 70.5365, -10), (-22.540668, 71.052376, -10), (-22.286541, 71.52782, -10), (-22.697159, 69.4635, 0), (-22.75, 70, 0), (-22.540668, 68.947624, 0), (-22.697159, 70.5365, 0), (-22.540668, 71.052376, 0), (-22.286541, 71.52782, 0), (-21.944544, 71.94454, -10), (-21.944544, 71.94454, 0), (-21.527819, 72.286545, -10), (-21.05238, 72.54067, -10), (-20.536499, 72.69716, -10), (-20, 72.75, -10), (-18.94762, 72.54067, -10), (-19.463501, 72.69716, -10), (-21.527819, 72.286545, 0), (-21.05238, 72.54067, 0), (-20.536499, 72.69716, 0), (-20, 72.75, 0), (-18.94762, 72.54067, 0), (-19.463501, 72.69716, 0), (-18.472181, 67.713455, -10), (-18.055456, 68.05546, -10), (-17.713459, 68.47218, -10), (-18.472181, 67.713455, 0), (-18.055456, 68.05546, 0), (-17.713459, 68.47218, 0), (-17.459332, 68.947624, -10), (-17.302841, 69.4635, -10), (-17.25, 70, -10), (-17.302841, 70.5365, -10), (-17.459332, 71.052376, -10), (-17.713459, 71.52782, -10), (-17.459332, 68.947624, 0), (-17.302841, 69.4635, 0), (-17.25, 70, 0), (-17.302841, 70.5365, 0), (-17.459332, 71.052376, 0), (-17.713459, 71.52782, 0), (-18.472181, 72.286545, -10), (-18.055456, 71.94454, -10), (-18.472181, 72.286545, 0), (-18.055456, 71.94454, 0), (-21.05238, 87.45933, -10), (-20.536499, 87.30284, -10), (-20, 87.25, -10), (-19.463501, 87.30284, -10), (-18.94762, 87.45933, -10), (-21.05238, 87.45933, 0), (-20.536499, 87.30284, 0), (-20, 87.25, 0), (-19.463501, 87.30284, 0), (-18.94762, 87.45933, 0), (-21.944544, 88.05546, -10), (-22.286541, 88.47218, -10), (-22.540668, 88.947624, -10), (-22.697159, 89.4635, -10), (-22.75, 90, -10), (-22.697159, 90.5365, -10), (-21.944544, 88.05546, 0), (-22.286541, 88.47218, 0), (-22.540668, 88.947624, 0), (-22.697159, 89.4635, 0), (-22.75, 90, 0), (-22.697159, 90.5365, 0), (-22.540668, 91.052376, -10), (-22.286541, 91.52782, -10), (-21.944544, 91.94454, -10), (-22.540668, 91.052376, 0), (-22.286541, 91.52782, 0), (-21.944544, 91.94454, 0), (-21.527819, 87.713455, -10), (-21.527819, 87.713455, 0), (-21.527819, 92.286545, -10), (-21.05238, 92.54067, -10), (-20.536499, 92.69716, -10), (-20, 92.75, -10), (-19.463501, 92.69716, -10), (-18.94762, 92.54067, -10), (-21.527819, 92.286545, 0), (-21.05238, 92.54067, 0), (-20.536499, 92.69716, 0), (-20, 92.75, 0), (-19.463501, 92.69716, 0), (-18.94762, 92.54067, 0), (-18.472181, 87.713455, -10), (-18.055456, 88.05546, -10), (-17.713459, 88.47218, -10), (-17.459332, 88.947624, -10), (-17.302841, 89.4635, -10), (-17.25, 90, -10), (-17.302841, 90.5365, -10), (-18.472181, 87.713455, 0), (-18.055456, 88.05546, 0), (-17.713459, 88.47218, 0), (-17.459332, 88.947624, 0), (-17.302841, 89.4635, 0), (-17.25, 90, 0), (-17.302841, 90.5365, 0), (-18.055456, 91.94454, -10), (-17.459332, 91.052376, -10), (-17.713459, 91.52782, -10), (-18.472181, 92.286545, -10), (-18.055456, 91.94454, 0), (-17.459332, 91.052376, 0), (-17.713459, 91.52782, 0), (-18.472181, 92.286545, 0), (-15, 100, -10), (0, 0, -160), (0, 46, -152), (0, 46, -122), (0, 48.341732, -120.33668), (0, 42.147022, -115.25281), (0, 42.932507, -116.72234), (0, 41.663326, -113.658264), (0, 41.5, -112), (0, 41.663326, -110.341736), (0, 42.147022, -108.74719), (0, 42.932507, -107.27766), (0, 43.989594, -118.01041), (0, 45.277653, -119.06749), (0, 46.747192, -119.852974), (0, 43.989594, -105.98959), (0, 45.277653, -104.93251), (0, 46.747192, -104.147026), (0, 48.341732, -103.66332), (0, 0, -10), (18.472181, 7.7134585, -10), (17.713459, 8.472182, -10), (17.459332, 8.94762, -10), (18.055456, 8.055456, -10), (18.472181, 7.7134585, 0), (17.713459, 8.472182, 0), (17.459332, 8.94762, 0), (18.055456, 8.055456, 0), (17.302841, 9.463502, -10), (17.25, 10, -10), (17.302841, 10.536498, -10), (17.459332, 11.05238, -10), (17.713459, 11.527818, -10), (18.055456, 11.944544, -10), (18.472181, 12.286541, -10), (17.302841, 9.463502, 0), (17.25, 10, 0), (17.302841, 10.536498, 0), (17.459332, 11.05238, 0), (17.713459, 11.527818, 0), (18.055456, 11.944544, 0), (18.472181, 12.286541, 0), (18.94762, 7.4593315, -10), (19.463501, 7.3028407, -10), (20, 7.25, -10), (20.536499, 7.3028407, -10), (21.05238, 7.4593315, -10), (21.527819, 7.7134585, -10), (18.94762, 7.4593315, 0), (19.463501, 7.3028407, 0), (20, 7.25, 0), (20.536499, 7.3028407, 0), (21.05238, 7.4593315, 0), (21.527819, 7.7134585, 0), (21.527819, 12.286541, -10), (21.527819, 12.286541, 0), (21.944544, 8.055456, -10), (22.286541, 8.472182, -10), (22.540668, 8.94762, -10), (21.944544, 8.055456, 0), (22.286541, 8.472182, 0), (22.540668, 8.94762, 0), (22.697159, 9.463502, -10), (22.75, 10, -10), (22.697159, 10.536498, -10), (22.540668, 11.05238, -10), (22.286541, 11.527818, -10), (21.944544, 11.944544, -10), (22.697159, 9.463502, 0), (22.75, 10, 0), (22.697159, 10.536498, 0), (22.540668, 11.05238, 0), (22.286541, 11.527818, 0), (21.944544, 11.944544, 0), (18.94762, 12.5406685, -10), (19.463501, 12.69716, -10), (20, 12.75, -10), (20.536499, 12.69716, -10), (21.05238, 12.5406685, -10), (18.94762, 12.5406685, 0), (19.463501, 12.69716, 0), (20, 12.75, 0), (20.536499, 12.69716, 0), (21.05238, 12.5406685, 0), (18.055456, 28.055456, -10), (18.472181, 27.713459, -10), (18.055456, 28.055456, 0), (18.472181, 27.713459, 0), (17.713459, 28.472181, -10), (17.459332, 28.94762, -10), (17.302841, 29.463501, -10), (17.25, 30, -10), (17.302841, 30.536499, -10), (17.459332, 31.05238, -10), (17.713459, 28.472181, 0), (17.459332, 28.94762, 0), (17.302841, 29.463501, 0), (17.25, 30, 0), (17.302841, 30.536499, 0), (17.459332, 31.05238, 0), (17.713459, 31.527819, -10), (18.055456, 31.944544, -10), (18.472181, 32.28654, -10), (17.713459, 31.527819, 0), (18.055456, 31.944544, 0), (18.472181, 32.28654, 0), (19.463501, 27.302841, -10), (18.94762, 27.459332, -10), (20, 27.25, -10), (20.536499, 27.302841, -10), (21.05238, 27.459332, -10), (21.527819, 27.713459, -10), (19.463501, 27.302841, 0), (18.94762, 27.459332, 0), (20, 27.25, 0), (20.536499, 27.302841, 0), (21.05238, 27.459332, 0), (21.527819, 27.713459, 0), (21.944544, 28.055456, -10), (21.944544, 28.055456, 0), (22.286541, 28.472181, -10), (22.540668, 28.94762, -10), (22.697159, 29.463501, -10), (22.540668, 31.05238, -10), (22.75, 30, -10), (22.697159, 30.536499, -10), (22.286541, 28.472181, 0), (22.540668, 28.94762, 0), (22.697159, 29.463501, 0), (22.540668, 31.05238, 0), (22.75, 30, 0), (22.697159, 30.536499, 0), (18.94762, 32.54067, -10), (19.463501, 32.69716, -10), (20, 32.75, -10), (20.536499, 32.69716, -10), (21.05238, 32.54067, -10), (21.527819, 32.28654, -10), (18.94762, 32.54067, 0), (19.463501, 32.69716, 0), (20, 32.75, 0), (20.536499, 32.69716, 0), (21.05238, 32.54067, 0), (21.527819, 32.28654, 0), (21.944544, 31.944544, -10), (22.286541, 31.527819, -10), (21.944544, 31.944544, 0), (22.286541, 31.527819, 0), (18.055456, 48.055458, -10), (18.472181, 47.71346, -10), (17.459332, 48.94762, -10), (17.713459, 48.472183, -10), (17.302841, 49.4635, -10), (18.055456, 48.055458, 0), (18.472181, 47.71346, 0), (17.459332, 48.94762, 0), (17.713459, 48.472183, 0), (17.302841, 49.4635, 0), (18.94762, 47.45933, -10), (19.463501, 47.30284, -10), (20, 47.25, -10), (20.536499, 47.30284, -10), (21.05238, 47.45933, -10), (21.527819, 47.71346, -10), (18.94762, 47.45933, 0), (19.463501, 47.30284, 0), (20, 47.25, 0), (20.536499, 47.30284, 0), (21.05238, 47.45933, 0), (21.527819, 47.71346, 0), (21.944544, 48.055458, -10), (22.286541, 48.472183, -10), (22.540668, 48.94762, -10), (22.697159, 49.4635, -10), (21.944544, 48.055458, 0), (22.286541, 48.472183, 0), (22.540668, 48.94762, 0), (22.697159, 49.4635, 0), (50, 0, -10), (50, 0, 0), (0, 54, -152), (0, 50, -120.5), (0, 51.658268, -120.33668), (0, 54, -122), (0, 53.252808, -119.852974), (0, 54.722347, -119.06749), (0, 56.010406, -118.01041), (0, 50, -103.5), (0, 51.658268, -103.66332), (0, 56.010406, -105.98959), (0, 53.252808, -104.147026), (0, 54.722347, -104.93251), (0, 57.067493, -116.72234), (0, 57.852978, -115.25281), (0, 58.336674, -113.658264), (0, 58.5, -112), (0, 58.336674, -110.341736), (0, 57.067493, -107.27766), (0, 57.852978, -108.74719), (0, 100, -160), (17.25, 50, -10), (17.302841, 50.5365, -10), (17.459332, 51.05238, -10), (17.713459, 51.527817, -10), (18.055456, 51.944542, -10), (18.472181, 52.28654, -10), (17.25, 50, 0), (17.302841, 50.5365, 0), (17.459332, 51.05238, 0), (17.713459, 51.527817, 0), (18.055456, 51.944542, 0), (18.472181, 52.28654, 0), (18.94762, 52.54067, -10), (19.463501, 52.69716, -10), (20, 52.75, -10), (20.536499, 52.69716, -10), (21.05238, 52.54067, -10), (21.527819, 52.28654, -10), (18.94762, 52.54067, 0), (19.463501, 52.69716, 0), (20, 52.75, 0), (20.536499, 52.69716, 0), (21.05238, 52.54067, 0), (21.527819, 52.28654, 0), (22.540668, 51.05238, -10), (22.286541, 51.527817, -10), (22.75, 50, -10), (22.697159, 50.5365, -10), (21.944544, 51.944542, -10), (22.540668, 51.05238, 0), (22.286541, 51.527817, 0), (22.75, 50, 0), (22.697159, 50.5365, 0), (21.944544, 51.944542, 0), (17.713459, 68.47218, -10), (18.472181, 67.713455, -10), (18.055456, 68.05546, -10), (17.713459, 68.47218, 0), (18.472181, 67.713455, 0), (18.055456, 68.05546, 0), (17.459332, 68.947624, -10), (17.302841, 69.4635, -10), (17.25, 70, -10), (17.302841, 70.5365, -10), (17.459332, 71.052376, -10), (17.713459, 71.52782, -10), (17.459332, 68.947624, 0), (17.302841, 69.4635, 0), (17.25, 70, 0), (17.302841, 70.5365, 0), (17.459332, 71.052376, 0), (17.713459, 71.52782, 0), (18.055456, 71.94454, -10), (18.472181, 72.286545, -10), (18.055456, 71.94454, 0), (18.472181, 72.286545, 0), (18.94762, 67.45933, -10), (19.463501, 67.30284, -10), (20, 67.25, -10), (20.536499, 67.30284, -10), (21.05238, 67.45933, -10), (21.527819, 67.713455, -10), (18.94762, 67.45933, 0), (19.463501, 67.30284, 0), (20, 67.25, 0), (20.536499, 67.30284, 0), (21.05238, 67.45933, 0), (21.527819, 67.713455, 0), (21.944544, 68.05546, -10), (22.286541, 68.47218, -10), (21.944544, 68.05546, 0), (22.286541, 68.47218, 0), (18.94762, 72.54067, -10), (19.463501, 72.69716, -10), (20, 72.75, -10), (21.05238, 72.54067, -10), (20.536499, 72.69716, -10), (21.527819, 72.286545, -10), (18.94762, 72.54067, 0), (19.463501, 72.69716, 0), (20, 72.75, 0), (21.05238, 72.54067, 0), (20.536499, 72.69716, 0), (21.527819, 72.286545, 0), (22.540668, 68.947624, -10), (22.697159, 69.4635, -10), (22.75, 70, -10), (22.540668, 71.052376, -10), (22.286541, 71.52782, -10), (22.697159, 70.5365, -10), (22.540668, 68.947624, 0), (22.697159, 69.4635, 0), (22.75, 70, 0), (22.540668, 71.052376, 0), (22.286541, 71.52782, 0), (22.697159, 70.5365, 0), (21.944544, 71.94454, -10), (21.944544, 71.94454, 0), (0, 100, -10), (18.94762, 87.45933, -10), (19.463501, 87.30284, -10), (20, 87.25, -10), (20.536499, 87.30284, -10), (21.05238, 87.45933, -10), (18.94762, 87.45933, 0), (19.463501, 87.30284, 0), (20, 87.25, 0), (20.536499, 87.30284, 0), (21.05238, 87.45933, 0), (17.459332, 88.947624, -10), (17.713459, 88.47218, -10), (18.055456, 88.05546, -10), (18.472181, 87.713455, -10), (17.302841, 89.4635, -10), (17.25, 90, -10), (17.302841, 90.5365, -10), (17.459332, 88.947624, 0), (17.713459, 88.47218, 0), (18.055456, 88.05546, 0), (18.472181, 87.713455, 0), (17.302841, 89.4635, 0), (17.25, 90, 0), (17.302841, 90.5365, 0), (17.459332, 91.052376, -10), (17.713459, 91.52782, -10), (18.055456, 91.94454, -10), (18.472181, 92.286545, -10), (17.459332, 91.052376, 0), (17.713459, 91.52782, 0), (18.055456, 91.94454, 0), (18.472181, 92.286545, 0), (21.527819, 87.713455, -10), (21.527819, 87.713455, 0), (18.94762, 92.54067, -10), (19.463501, 92.69716, -10), (20, 92.75, -10), (20.536499, 92.69716, -10), (21.05238, 92.54067, -10), (21.527819, 92.286545, -10), (18.94762, 92.54067, 0), (19.463501, 92.69716, 0), (20, 92.75, 0), (20.536499, 92.69716, 0), (21.05238, 92.54067, 0), (21.527819, 92.286545, 0), (21.944544, 88.05546, -10), (22.286541, 88.47218, -10), (22.540668, 88.947624, -10), (22.697159, 89.4635, -10), (22.75, 90, -10), (22.697159, 90.5365, -10), (21.944544, 88.05546, 0), (22.286541, 88.47218, 0), (22.540668, 88.947624, 0), (22.697159, 89.4635, 0), (22.75, 90, 0), (22.697159, 90.5365, 0), (22.540668, 91.052376, -10), (21.944544, 91.94454, -10), (22.286541, 91.52782, -10), (22.540668, 91.052376, 0), (21.944544, 91.94454, 0), (22.286541, 91.52782, 0), (50, 100, -10), (50, 100, 0)]

        rel material:binding = </h_arm_union_union_union_diff/Material>
    }

    def Scope "Material"
    {
        def Material "PBR"
        {
            token outputs:surface.connect = <PBR/Shader.outputs:surface>

            def Shader "Shader"
            {
                uniform token info:id = "UsdPreviewSurface"
                color3f inputs:diffuseColor = (0.12, 0.12, 0.14)
                float inputs:metallic = 0.7
                float inputs:roughness = 0.4
                token outputs:surface
            }
        }
    }

    def PhysicsCollisionAPI "collision"
    {
        rel physics:collisionGroup = </CollisionGroup>
    }
}
