#usda 1.0
(
    defaultPrim = "tire_outer_diff_union_union_union_union_union"
    upAxis = "Y"
    metersPerUnit = 0.001
)

def Xform "tire_outer_diff_union_union_union_union_union" (
    prepend apiSchemas = ["PhysicsRigidBodyAPI", "PhysicsMassAPI"]
)
{
    float physics:mass = 27.064125

    def Mesh "tire_outer_diff_union_union_union_union_union_mesh"
    {
        float3[] extent = [(-135, -50, -135), (135, 87.5, 135)]
        int[] faceVertexCounts = [3, 3, 3, 3, 3, 3, 3, 3, 3, 3, 3, 3, 3, 3, 3, 3, 3, 3, 3, 3, 3, 3, 3, 3, 3, 3, 3, 3, 3, 3, 3, 3, 3, 3, 3, 3, 3, 3, 3, 3, 3, 3, 3, 3, 3, 3, 3, 3, 3, 3, 3, 3, 3, 3, 3, 3, 3, 3, 3, 3, 3, 3, 3, 3, 3, 3, 3, 3, 3, 3, 3, 3, 3, 3, 3, 3, 3, 3, 3, 3, 3, 3, 3, 3, 3, 3, 3, 3, 3, 3, 3, 3, 3, 3, 3, 3, 3, 3, 3, 3, 3, 3, 3, 3, 3, 3, 3, 3, 3, 3, 3, 3, 3, 3, 3, 3, 3, 3, 3, 3, 3, 3, 3, 3, 3, 3, 3, 3, 3, 3, 3, 3, 3, 3, 3, 3, 3, 3, 3, 3, 3, 3, 3, 3, 3, 3, 3, 3, 3, 3, 3, 3, 3, 3, 3, 3, 3, 3, 3, 3, 3, 3, 3, 3, 3, 3, 3, 3, 3, 3, 3, 3, 3, 3, 3, 3, 3, 3, 3, 3, 3, 3, 3, 3, 3, 3, 3, 3, 3, 3, 3, 3, 3, 3, 3, 3, 3, 3, 3, 3, 3, 3, 3, 3, 3, 3, 3, 3, 3, 3, 3, 3, 3, 3, 3, 3, 3, 3, 3, 3, 3, 3, 3, 3, 3, 3, 3, 3, 3, 3, 3, 3, 3, 3, 3, 3, 3, 3, 3, 3, 3, 3, 3, 3, 3, 3, 3, 3, 3, 3, 3, 3, 3, 3, 3, 3, 3, 3, 3, 3, 3, 3, 3, 3, 3, 3, 3, 3, 3, 3, 3, 3, 3, 3, 3, 3, 3, 3, 3, 3, 3, 3, 3, 3, 3, 3, 3, 3, 3, 3, 3, 3, 3, 3, 3, 3, 3, 3, 3, 3, 3, 3, 3, 3, 3, 3, 3, 3, 3, 3, 3, 3, 3, 3, 3, 3, 3, 3, 3, 3, 3, 3, 3, 3, 3, 3, 3, 3, 3, 3, 3, 3, 3, 3, 3, 3, 3, 3, 3, 3, 3, 3, 3, 3, 3, 3, 3, 3, 3, 3, 3, 3, 3, 3, 3, 3, 3, 3, 3, 3, 3, 3, 3, 3, 3, 3, 3, 3, 3, 3, 3, 3, 3, 3, 3, 3, 3, 3, 3, 3, 3, 3, 3, 3, 3, 3, 3, 3, 3, 3, 3, 3, 3, 3, 3, 3, 3, 3, 3, 3, 3, 3, 3, 3, 3, 3, 3, 3, 3, 3, 3, 3, 3, 3, 3, 3, 3, 3, 3, 3, 3, 3, 3, 3, 3, 3, 3, 3, 3, 3, 3, 3, 3, 3, 3, 3, 3, 3, 3, 3, 3, 3, 3, 3, 3, 3, 3, 3, 3, 3, 3, 3, 3, 3, 3, 3, 3, 3, 3, 3, 3, 3, 3, 3, 3, 3, 3, 3, 3, 3, 3, 3, 3, 3, 3, 3, 3, 3, 3, 3, 3, 3, 3, 3, 3, 3, 3, 3, 3, 3, 3, 3, 3, 3, 3, 3, 3, 3, 3, 3, 3, 3, 3, 3, 3, 3, 3, 3, 3, 3, 3, 3, 3, 3, 3, 3, 3, 3, 3, 3, 3, 3, 3, 3, 3, 3, 3, 3, 3, 3, 3, 3, 3, 3, 3, 3, 3, 3, 3, 3, 3, 3, 3, 3, 3, 3, 3, 3, 3, 3, 3, 3, 3, 3, 3, 3, 3, 3, 3, 3, 3, 3, 3, 3, 3, 3, 3, 3, 3, 3, 3, 3, 3, 3, 3, 3, 3, 3, 3, 3, 3, 3, 3, 3, 3, 3, 3, 3, 3, 3, 3, 3, 3, 3, 3, 3, 3, 3, 3, 3, 3, 3, 3, 3, 3, 3, 3, 3, 3, 3, 3, 3, 3, 3, 3, 3, 3, 3, 3, 3, 3, 3, 3, 3, 3, 3, 3, 3, 3, 3, 3, 3, 3, 3, 3, 3, 3, 3, 3, 3, 3, 3, 3, 3, 3, 3, 3, 3, 3, 3, 3, 3, 3, 3, 3, 3, 3, 3, 3, 3, 3, 3, 3, 3, 3, 3, 3, 3, 3, 3, 3, 3, 3, 3, 3, 3, 3, 3, 3, 3, 3, 3, 3, 3, 3, 3, 3, 3, 3, 3, 3, 3, 3, 3, 3, 3, 3, 3, 3, 3, 3, 3, 3, 3, 3, 3, 3, 3, 3, 3, 3, 3, 3, 3, 3, 3, 3, 3, 3, 3, 3, 3, 3, 3, 3, 3, 3, 3, 3, 3, 3, 3, 3, 3, 3, 3, 3, 3, 3, 3, 3, 3, 3, 3, 3, 3, 3, 3, 3, 3, 3, 3, 3, 3, 3, 3, 3, 3, 3, 3, 3, 3, 3, 3, 3, 3, 3, 3, 3, 3, 3, 3, 3, 3, 3, 3, 3, 3, 3, 3, 3, 3, 3, 3, 3, 3, 3, 3]
        int[] faceVertexIndices = [192, 190, 191, 5, 69, 0, 191, 200, 196, 2, 70, 1, 192, 191, 194, 0, 71, 2, 194, 191, 196, 3, 36, 4, 390, 389, 324, 5, 0, 48, 393, 344, 392, 4, 72, 3, 196, 200, 198, 33, 75, 6, 264, 222, 259, 1, 9, 13, 1, 13, 37, 0, 2, 49, 2, 1, 50, 71, 0, 69, 69, 5, 74, 85, 1, 70, 70, 2, 71, 74, 3, 72, 72, 4, 73, 73, 6, 75, 75, 33, 126, 15, 17, 18, 15, 27, 16, 7, 16, 29, 29, 16, 27, 27, 15, 31, 31, 15, 18, 18, 17, 21, 16, 84, 15, 17, 15, 86, 17, 20, 23, 20, 190, 25, 21, 17, 23, 23, 20, 25, 25, 190, 192, 20, 17, 89, 190, 20, 265, 84, 16, 85, 86, 15, 84, 89, 17, 86, 265, 20, 89, 33, 6, 34, 34, 6, 35, 35, 4, 36, 36, 3, 47, 47, 5, 48, 48, 0, 49, 126, 33, 34, 35, 127, 34, 36, 128, 35, 47, 129, 36, 50, 1, 37, 49, 2, 50, 50, 37, 38, 50, 38, 41, 50, 41, 43, 50, 43, 45, 48, 140, 47, 49, 141, 48, 50, 45, 59, 50, 142, 49, 59, 143, 50, 126, 34, 127, 127, 35, 128, 128, 36, 129, 129, 47, 140, 140, 48, 141, 141, 49, 142, 142, 50, 143, 143, 59, 164, 59, 45, 51, 59, 51, 53, 59, 53, 55, 55, 57, 60, 60, 57, 62, 59, 55, 60, 60, 62, 61, 164, 59, 60, 61, 165, 60, 61, 62, 64, 66, 68, 64, 68, 66, 232, 64, 68, 61, 389, 388, 325, 387, 326, 388, 395, 314, 394, 384, 383, 393, 383, 386, 393, 386, 344, 393, 393, 382, 384, 393, 381, 382, 394, 313, 391, 393, 391, 312, 381, 393, 312, 392, 341, 359, 359, 353, 358, 345, 392, 344, 345, 341, 392, 357, 359, 341, 357, 353, 359, 358, 349, 355, 355, 348, 354, 353, 352, 358, 352, 349, 358, 349, 348, 355, 326, 325, 388, 325, 324, 389, 324, 323, 390, 323, 314, 395, 314, 313, 394, 313, 312, 391, 312, 322, 381, 312, 321, 322, 312, 320, 321, 320, 311, 316, 312, 311, 320, 311, 296, 316, 311, 295, 296, 295, 276, 292, 311, 276, 295, 278, 292, 276, 275, 274, 278, 276, 275, 278, 274, 266, 273, 270, 273, 266, 270, 265, 269, 275, 266, 274, 266, 265, 270, 391, 263, 394, 394, 264, 395, 392, 262, 393, 393, 260, 391, 395, 259, 390, 390, 258, 389, 389, 257, 388, 388, 256, 387, 264, 394, 263, 262, 260, 393, 392, 261, 262, 263, 391, 260, 261, 254, 262, 264, 259, 395, 259, 258, 390, 258, 257, 389, 257, 256, 388, 134, 70, 143, 259, 223, 258, 258, 224, 257, 257, 225, 256, 263, 213, 264, 262, 250, 252, 254, 250, 262, 252, 247, 262, 247, 246, 262, 232, 240, 68, 68, 166, 61, 68, 240, 173, 164, 60, 165, 165, 61, 166, 166, 68, 173, 173, 240, 354, 85, 70, 99, 74, 72, 140, 72, 73, 129, 73, 75, 128, 69, 74, 141, 81, 82, 70, 70, 82, 77, 99, 70, 77, 81, 70, 83, 83, 70, 134, 260, 212, 263, 71, 69, 142, 70, 71, 143, 262, 211, 260, 246, 211, 262, 359, 261, 392, 358, 245, 359, 355, 244, 358, 354, 241, 355, 261, 359, 245, 245, 358, 244, 244, 242, 245, 245, 230, 261, 84, 85, 101, 86, 84, 92, 85, 99, 98, 101, 85, 98, 84, 101, 88, 92, 84, 88, 261, 228, 254, 89, 86, 95, 265, 89, 269, 86, 92, 93, 95, 86, 93, 230, 228, 261, 245, 226, 230, 242, 226, 245, 244, 238, 242, 269, 89, 95, 244, 355, 241, 354, 240, 241, 241, 236, 244, 240, 234, 241, 238, 244, 236, 234, 236, 241, 240, 232, 234, 387, 225, 326, 326, 224, 325, 325, 223, 324, 324, 222, 323, 323, 213, 314, 314, 212, 313, 313, 211, 312, 312, 210, 311, 225, 387, 256, 225, 224, 326, 224, 223, 325, 223, 222, 324, 224, 225, 257, 223, 224, 258, 222, 223, 259, 213, 222, 264, 212, 213, 263, 211, 212, 260, 220, 211, 246, 218, 211, 220, 216, 211, 218, 214, 211, 216, 213, 323, 222, 212, 314, 213, 211, 313, 212, 211, 210, 312, 214, 210, 211, 311, 201, 276, 276, 200, 275, 275, 191, 266, 266, 190, 265, 210, 201, 311, 201, 200, 276, 208, 210, 214, 206, 210, 208, 204, 210, 206, 202, 201, 204, 198, 201, 202, 201, 210, 204, 198, 200, 201, 200, 191, 275, 191, 190, 266, 11, 1, 7, 1, 11, 9, 6, 73, 4, 5, 3, 74, 4, 35, 6, 3, 5, 47, 16, 1, 85, 1, 16, 7, 395, 390, 323, 354, 172, 173, 169, 166, 173, 348, 172, 354, 172, 170, 173, 170, 169, 173, 166, 163, 165, 163, 166, 169, 163, 149, 165, 165, 147, 164, 149, 147, 165, 147, 146, 164, 146, 139, 164, 164, 137, 143, 139, 137, 164, 75, 126, 127, 128, 75, 127, 129, 73, 128, 140, 72, 129, 141, 74, 140, 142, 69, 141, 137, 136, 143, 136, 135, 143, 135, 134, 143, 143, 71, 142, 195, 194, 197, 226, 242, 243, 132, 131, 135, 131, 130, 135, 133, 132, 136, 136, 132, 135, 138, 133, 137, 137, 133, 136, 11, 7, 8, 13, 9, 10, 10, 9, 12, 138, 137, 139, 12, 9, 11, 11, 8, 12, 37, 13, 39, 13, 10, 14, 39, 13, 14, 386, 379, 385, 18, 22, 19, 22, 18, 21, 144, 138, 139, 144, 139, 146, 145, 144, 146, 145, 146, 147, 148, 145, 147, 148, 147, 149, 162, 148, 149, 162, 149, 163, 384, 380, 383, 384, 378, 380, 383, 379, 386, 380, 379, 383, 22, 21, 24, 382, 378, 384, 381, 377, 382, 378, 382, 377, 24, 21, 23, 24, 23, 26, 26, 23, 25, 25, 192, 193, 26, 25, 193, 28, 30, 29, 357, 356, 353, 27, 31, 32, 29, 27, 28, 28, 27, 32, 7, 29, 30, 356, 351, 353, 167, 162, 163, 351, 352, 353, 351, 350, 352, 350, 349, 352, 167, 163, 169, 168, 167, 169, 168, 169, 170, 171, 168, 170, 8, 7, 30, 171, 170, 172, 346, 171, 172, 346, 172, 348, 350, 347, 349, 347, 348, 349, 347, 346, 348, 344, 342, 345, 343, 340, 341, 343, 345, 342, 341, 345, 343, 385, 344, 386, 385, 342, 344, 340, 357, 341, 356, 357, 340, 31, 18, 19, 32, 31, 19, 37, 39, 38, 38, 40, 41, 40, 38, 39, 381, 322, 377, 322, 319, 377, 322, 318, 319, 322, 321, 318, 321, 317, 318, 321, 320, 317, 320, 315, 317, 41, 42, 43, 41, 40, 42, 43, 44, 45, 316, 315, 320, 43, 42, 44, 45, 44, 46, 45, 46, 51, 316, 296, 294, 294, 315, 316, 296, 293, 294, 296, 295, 293, 295, 291, 293, 295, 292, 291, 292, 278, 277, 277, 291, 292, 51, 46, 52, 51, 52, 53, 53, 54, 55, 53, 52, 54, 278, 272, 277, 55, 54, 56, 55, 56, 57, 57, 56, 58, 274, 272, 278, 274, 271, 272, 274, 273, 271, 273, 268, 271, 57, 58, 62, 273, 270, 268, 270, 267, 268, 269, 267, 270, 197, 194, 196, 197, 196, 199, 199, 196, 198, 199, 198, 203, 62, 63, 64, 62, 58, 63, 64, 65, 66, 64, 63, 65, 66, 65, 67, 66, 67, 232, 203, 198, 202, 232, 67, 233, 135, 130, 134, 193, 192, 195, 255, 250, 254, 76, 77, 79, 252, 251, 253, 253, 247, 252, 255, 251, 250, 202, 204, 205, 203, 202, 205, 204, 206, 207, 205, 204, 207, 207, 206, 209, 209, 206, 208, 208, 214, 215, 209, 208, 215, 250, 251, 252, 249, 247, 253, 248, 247, 249, 248, 246, 247, 80, 78, 81, 82, 81, 78, 82, 78, 79, 79, 77, 82, 80, 81, 83, 80, 83, 130, 130, 83, 134, 92, 88, 87, 92, 87, 90, 93, 92, 90, 93, 90, 91, 95, 93, 91, 215, 214, 217, 243, 242, 239, 95, 91, 94, 269, 95, 94, 217, 214, 216, 217, 216, 219, 219, 216, 218, 219, 218, 221, 269, 94, 267, 221, 218, 220, 220, 246, 248, 97, 98, 99, 221, 220, 248, 100, 101, 96, 238, 237, 239, 238, 239, 242, 236, 235, 237, 236, 237, 238, 98, 97, 96, 101, 98, 96, 234, 235, 236, 234, 233, 235, 232, 233, 234, 231, 229, 228, 231, 230, 227, 226, 227, 230, 228, 230, 231, 101, 100, 88, 87, 88, 100, 99, 77, 76, 97, 99, 76, 254, 229, 255, 229, 254, 228, 243, 227, 226, 192, 194, 195, 56, 32, 58, 253, 219, 249, 229, 209, 255, 227, 205, 231, 239, 199, 243, 237, 197, 239, 235, 195, 237, 233, 193, 235, 219, 221, 249, 217, 219, 253, 215, 217, 251, 209, 215, 255, 251, 217, 253, 255, 215, 251, 207, 209, 229, 231, 207, 229, 58, 19, 63, 14, 10, 42, 12, 8, 46, 12, 44, 10, 32, 56, 28, 30, 52, 8, 30, 28, 54, 32, 19, 58, 22, 63, 19, 24, 65, 22, 26, 67, 24, 193, 233, 26, 39, 14, 40, 40, 14, 42, 42, 10, 44, 44, 12, 46, 46, 8, 52, 52, 30, 54, 54, 28, 56, 63, 22, 65, 65, 24, 67, 67, 26, 233, 193, 195, 235, 195, 197, 237, 197, 199, 239, 199, 203, 243, 203, 205, 227, 249, 221, 248, 205, 207, 231, 243, 203, 227, 158, 157, 346, 350, 268, 347, 108, 94, 150, 268, 267, 284, 138, 79, 133, 291, 277, 340, 94, 103, 109, 160, 159, 346, 107, 105, 94, 90, 87, 167, 377, 319, 378, 268, 290, 332, 104, 103, 94, 347, 331, 330, 334, 336, 347, 277, 272, 356, 335, 339, 347, 171, 151, 150, 162, 100, 148, 317, 380, 318, 380, 317, 379, 97, 76, 144, 108, 107, 94, 280, 281, 267, 133, 78, 132, 168, 90, 167, 315, 379, 317, 171, 346, 157, 272, 271, 351, 315, 294, 385, 328, 327, 347, 106, 102, 94, 339, 337, 347, 347, 330, 329, 340, 277, 356, 327, 346, 347, 347, 338, 331, 94, 171, 150, 342, 293, 343, 351, 271, 350, 161, 346, 327, 78, 133, 79, 76, 79, 138, 171, 157, 156, 94, 91, 171, 100, 96, 148, 171, 152, 151, 281, 282, 267, 280, 267, 279, 268, 285, 286, 91, 90, 168, 282, 283, 267, 171, 154, 153, 145, 97, 144, 78, 80, 132, 161, 160, 346, 102, 104, 94, 379, 315, 385, 268, 288, 289, 318, 378, 319, 171, 153, 152, 271, 268, 350, 167, 87, 162, 268, 284, 285, 378, 318, 380, 94, 110, 111, 96, 97, 145, 336, 335, 347, 268, 286, 287, 337, 338, 347, 132, 80, 131, 333, 334, 347, 171, 155, 154, 356, 272, 351, 294, 293, 342, 385, 294, 342, 293, 291, 343, 333, 347, 332, 328, 347, 329, 94, 109, 110, 112, 279, 94, 268, 287, 288, 343, 291, 340, 347, 268, 332, 105, 106, 94, 283, 284, 267, 87, 100, 162, 171, 91, 168, 268, 289, 290, 171, 156, 155, 112, 94, 111, 148, 96, 145, 279, 267, 94, 159, 158, 346, 144, 76, 138, 130, 131, 80, 302, 283, 301, 332, 365, 333, 110, 122, 111, 304, 285, 303, 339, 372, 337, 360, 327, 361, 308, 289, 307, 366, 333, 365, 105, 117, 106, 111, 123, 112, 368, 335, 369, 370, 371, 338, 365, 332, 309, 338, 371, 331, 372, 339, 368, 364, 331, 371, 370, 337, 372, 306, 287, 305, 369, 336, 367, 309, 290, 308, 367, 334, 366, 363, 330, 364, 362, 329, 363, 307, 288, 306, 361, 328, 362, 330, 363, 329, 335, 368, 339, 305, 286, 304, 338, 337, 370, 334, 367, 336, 336, 369, 335, 303, 284, 302, 333, 366, 334, 331, 364, 330, 301, 282, 300, 329, 362, 328, 103, 104, 116, 300, 281, 299, 327, 328, 361, 299, 280, 298, 290, 309, 332, 289, 308, 290, 288, 307, 289, 287, 306, 288, 286, 305, 287, 298, 279, 124, 285, 304, 286, 106, 118, 102, 284, 303, 285, 124, 112, 123, 284, 283, 302, 151, 176, 150, 281, 300, 282, 153, 178, 152, 155, 180, 154, 122, 110, 121, 279, 298, 280, 157, 182, 156, 102, 114, 104, 120, 108, 175, 119, 107, 120, 118, 106, 117, 117, 105, 119, 116, 115, 103, 103, 115, 109, 156, 181, 155, 280, 299, 281, 154, 179, 153, 157, 158, 183, 152, 177, 151, 123, 111, 122, 282, 301, 283, 186, 161, 360, 159, 184, 158, 109, 121, 110, 116, 104, 114, 160, 185, 159, 161, 186, 160, 121, 109, 115, 327, 360, 161, 175, 150, 176, 176, 151, 177, 177, 152, 178, 178, 153, 179, 114, 102, 118, 179, 154, 180, 180, 155, 181, 112, 124, 279, 181, 156, 182, 182, 157, 183, 150, 175, 108, 183, 158, 184, 108, 120, 107, 107, 119, 105, 184, 159, 185, 185, 160, 186, 174, 188, 125, 174, 175, 176, 174, 176, 177, 376, 297, 310, 297, 376, 374, 310, 125, 375, 297, 113, 310, 365, 309, 374, 309, 308, 374, 308, 307, 374, 376, 310, 375, 375, 373, 374, 375, 189, 373, 306, 297, 374, 374, 373, 369, 367, 366, 374, 297, 305, 304, 373, 364, 371, 297, 304, 303, 362, 363, 373, 362, 373, 361, 297, 303, 302, 373, 360, 361, 373, 186, 360, 297, 302, 301, 372, 373, 370, 363, 364, 373, 368, 369, 373, 366, 365, 374, 297, 306, 305, 374, 369, 367, 187, 184, 185, 113, 297, 299, 372, 368, 373, 187, 185, 186, 373, 371, 370, 307, 306, 374, 375, 374, 376, 373, 187, 186, 188, 174, 187, 188, 187, 189, 125, 188, 189, 189, 187, 373, 174, 119, 120, 174, 117, 119, 113, 174, 125, 174, 113, 117, 113, 115, 116, 114, 118, 113, 118, 117, 113, 114, 113, 116, 113, 299, 298, 113, 298, 124, 123, 113, 124, 123, 122, 113, 122, 121, 113, 113, 121, 115, 174, 120, 175, 113, 125, 310, 178, 174, 177, 178, 179, 174, 179, 187, 174, 187, 179, 180, 187, 180, 181, 187, 181, 182, 187, 182, 183, 187, 183, 184, 297, 300, 299, 125, 189, 375, 297, 301, 300]
        point3f[] points = [(-107.1027, -50, -82.18279), (-82.18279, -50, -107.1027), (-95.45942, -50, -95.45942), (-124.72374, -50, -51.662262), (-130.4, -50, -34.94057), (-116.91343, -50, -67.5), (-133.84506, -50, -17.621037), (-69.282036, -50, -40), (-69.282036, -42.5, -40), (-77.27406, -50, -20.705524), (-77.27406, -42.5, -20.705524), (-73.91036, -50, -30.614676), (-73.91036, -42.5, -30.614676), (-79.31559, -50, -10.442096), (-79.31559, -42.5, -10.442096), (-51.662262, -50, -124.72374), (-67.5, -50, -116.91343), (-34.94057, -50, -130.4), (-40, -50, -69.282036), (-40, -42.5, -69.282036), (-17.621037, -50, -133.84506), (-30.614676, -50, -73.91036), (-30.614676, -42.5, -73.91036), (-20.705524, -50, -77.27406), (-20.705524, -42.5, -77.27406), (-10.442096, -50, -79.31559), (-10.442096, -42.5, -79.31559), (-56.568542, -50, -56.568542), (-56.568542, -42.5, -56.568542), (-63.468266, -50, -48.700912), (-63.468266, -42.5, -48.700912), (-48.700912, -50, -63.468266), (-48.700912, -42.5, -63.468266), (-135, -50, 0), (-133.84506, -50, 17.621037), (-130.4, -50, 34.94057), (-124.72374, -50, 51.662262), (-80, -50, 0), (-79.31559, -50, 10.442096), (-80, -42.5, 0), (-79.31559, -42.5, 10.442096), (-77.27406, -50, 20.705524), (-77.27406, -42.5, 20.705524), (-73.91036, -50, 30.614676), (-73.91036, -42.5, 30.614676), (-69.282036, -50, 40), (-69.282036, -42.5, 40), (-116.91343, -50, 67.5), (-107.1027, -50, 82.18279), (-95.45942, -50, 95.45942), (-82.18279, -50, 107.1027), (-63.468266, -50, 48.700912), (-63.468266, -42.5, 48.700912), (-56.568542, -50, 56.568542), (-56.568542, -42.5, 56.568542), (-48.700912, -50, 63.468266), (-48.700912, -42.5, 63.468266), (-40, -50, 69.282036), (-40, -42.5, 69.282036), (-67.5, -50, 116.91343), (-51.662262, -50, 124.72374), (-34.94057, -50, 130.4), (-30.614676, -50, 73.91036), (-30.614676, -42.5, 73.91036), (-20.705524, -50, 77.27406), (-20.705524, -42.5, 77.27406), (-10.442096, -50, 79.31559), (-10.442096, -42.5, 79.31559), (-17.621037, -50, 133.84506), (-107.1027, 50, -82.18279), (-82.18279, 50, -107.1027), (-95.45942, 50, -95.45942), (-124.72374, 50, -51.662262), (-130.4, 50, -34.94057), (-116.91343, 50, -67.5), (-133.84506, 50, -17.621037), (-69.282036, 42.5, -40), (-69.282036, 50, -40), (-77.27406, 42.5, -20.705524), (-73.91036, 42.5, -30.614676), (-79.31559, 42.5, -10.442096), (-77.27406, 50, -20.705524), (-73.91036, 50, -30.614676), (-79.31559, 50, -10.442096), (-51.662262, 50, -124.72374), (-67.5, 50, -116.91343), (-34.94057, 50, -130.4), (-40, 42.5, -69.282036), (-40, 50, -69.282036), (-17.621037, 50, -133.84506), (-30.614676, 42.5, -73.91036), (-20.705524, 42.5, -77.27406), (-30.614676, 50, -73.91036), (-20.705524, 50, -77.27406), (-10.442096, 42.5, -79.31559), (-10.442096, 50, -79.31559), (-56.568542, 42.5, -56.568542), (-63.468266, 42.5, -48.700912), (-56.568542, 50, -56.568542), (-63.468266, 50, -48.700912), (-48.700912, 42.5, -63.468266), (-48.700912, 50, -63.468266), (-6.3468266, 42.5, -4.8700914), (-4.8700914, 42.5, -6.3468266), (-5.656854, 42.5, -5.656854), (-7.391036, 42.5, -3.0614674), (-6.928203, 42.5, -4), (-7.7274065, 42.5, -2.0705523), (-7.931559, 42.5, -1.0442095), (-4, 42.5, -6.928203), (-3.0614674, 42.5, -7.391036), (-2.0705523, 42.5, -7.7274065), (-1.0442095, 42.5, -7.931559), (-7.2, 77.5, -12.470766), (-6.3468266, 77.5, -4.8700914), (-4.8700914, 77.5, -6.3468266), (-5.656854, 77.5, -5.656854), (-7.391036, 77.5, -3.0614674), (-6.928203, 77.5, -4), (-7.7274065, 77.5, -2.0705523), (-7.931559, 77.5, -1.0442095), (-4, 77.5, -6.928203), (-3.0614674, 77.5, -7.391036), (-2.0705523, 77.5, -7.7274065), (-1.0442095, 77.5, -7.931559), (-7.2, 87.5, -12.470766), (-135, 50, 0), (-133.84506, 50, 17.621037), (-130.4, 50, 34.94057), (-124.72374, 50, 51.662262), (-80, 42.5, 0), (-79.31559, 42.5, 10.442096), (-77.27406, 42.5, 20.705524), (-73.91036, 42.5, 30.614676), (-80, 50, 0), (-79.31559, 50, 10.442096), (-77.27406, 50, 20.705524), (-73.91036, 50, 30.614676), (-69.282036, 42.5, 40), (-69.282036, 50, 40), (-116.91343, 50, 67.5), (-107.1027, 50, 82.18279), (-95.45942, 50, 95.45942), (-82.18279, 50, 107.1027), (-63.468266, 42.5, 48.700912), (-56.568542, 42.5, 56.568542), (-63.468266, 50, 48.700912), (-56.568542, 50, 56.568542), (-48.700912, 42.5, 63.468266), (-48.700912, 50, 63.468266), (-8, 42.5, 0), (-7.931559, 42.5, 1.0442095), (-7.7274065, 42.5, 2.0705523), (-7.391036, 42.5, 3.0614674), (-6.928203, 42.5, 4), (-6.3468266, 42.5, 4.8700914), (-5.656854, 42.5, 5.656854), (-4.8700914, 42.5, 6.3468266), (-4, 42.5, 6.928203), (-3.0614674, 42.5, 7.391036), (-2.0705523, 42.5, 7.7274065), (-1.0442095, 42.5, 7.931559), (-40, 42.5, 69.282036), (-40, 50, 69.282036), (-67.5, 50, 116.91343), (-51.662262, 50, 124.72374), (-34.94057, 50, 130.4), (-30.614676, 42.5, 73.91036), (-20.705524, 42.5, 77.27406), (-30.614676, 50, 73.91036), (-20.705524, 50, 77.27406), (-10.442096, 42.5, 79.31559), (-10.442096, 50, 79.31559), (-17.621037, 50, 133.84506), (-14.4, 77.5, 0), (-8, 77.5, 0), (-7.931559, 77.5, 1.0442095), (-7.7274065, 77.5, 2.0705523), (-7.391036, 77.5, 3.0614674), (-6.928203, 77.5, 4), (-6.3468266, 77.5, 4.8700914), (-5.656854, 77.5, 5.656854), (-4.8700914, 77.5, 6.3468266), (-4, 77.5, 6.928203), (-3.0614674, 77.5, 7.391036), (-2.0705523, 77.5, 7.7274065), (-1.0442095, 77.5, 7.931559), (-7.2, 77.5, 12.470766), (-14.4, 87.5, 0), (-7.2, 87.5, 12.470766), (0, -50, -135), (17.621037, -50, -133.84506), (0, -50, -80), (0, -42.5, -80), (10.442096, -50, -79.31559), (10.442096, -42.5, -79.31559), (20.705524, -50, -77.27406), (20.705524, -42.5, -77.27406), (30.614676, -50, -73.91036), (30.614676, -42.5, -73.91036), (34.94057, -50, -130.4), (51.662262, -50, -124.72374), (40, -50, -69.282036), (40, -42.5, -69.282036), (48.700912, -50, -63.468266), (48.700912, -42.5, -63.468266), (56.568542, -50, -56.568542), (56.568542, -42.5, -56.568542), (63.468266, -50, -48.700912), (63.468266, -42.5, -48.700912), (67.5, -50, -116.91343), (82.18279, -50, -107.1027), (95.45942, -50, -95.45942), (107.1027, -50, -82.18279), (69.282036, -50, -40), (69.282036, -42.5, -40), (73.91036, -50, -30.614676), (73.91036, -42.5, -30.614676), (77.27406, -50, -20.705524), (77.27406, -42.5, -20.705524), (79.31559, -50, -10.442096), (79.31559, -42.5, -10.442096), (116.91343, -50, -67.5), (124.72374, -50, -51.662262), (130.4, -50, -34.94057), (133.84506, -50, -17.621037), (48.700912, -50, 63.468266), (48.700912, -42.5, 63.468266), (63.468266, -50, 48.700912), (63.468266, -42.5, 48.700912), (56.568542, -50, 56.568542), (56.568542, -42.5, 56.568542), (0, -50, 80), (0, -42.5, 80), (10.442096, -50, 79.31559), (10.442096, -42.5, 79.31559), (20.705524, -50, 77.27406), (20.705524, -42.5, 77.27406), (30.614676, -50, 73.91036), (30.614676, -42.5, 73.91036), (0, -50, 135), (17.621037, -50, 133.84506), (40, -50, 69.282036), (40, -42.5, 69.282036), (34.94057, -50, 130.4), (51.662262, -50, 124.72374), (80, -50, 0), (79.31559, -50, 10.442096), (80, -42.5, 0), (79.31559, -42.5, 10.442096), (73.91036, -50, 30.614676), (73.91036, -42.5, 30.614676), (77.27406, -50, 20.705524), (77.27406, -42.5, 20.705524), (69.282036, -50, 40), (69.282036, -42.5, 40), (135, -50, 0), (133.84506, -50, 17.621037), (130.4, -50, 34.94057), (124.72374, -50, 51.662262), (95.45942, -50, 95.45942), (67.5, -50, 116.91343), (82.18279, -50, 107.1027), (107.1027, -50, 82.18279), (116.91343, -50, 67.5), (0, 50, -135), (17.621037, 50, -133.84506), (0, 42.5, -80), (10.442096, 42.5, -79.31559), (0, 50, -80), (10.442096, 50, -79.31559), (20.705524, 42.5, -77.27406), (30.614676, 42.5, -73.91036), (20.705524, 50, -77.27406), (30.614676, 50, -73.91036), (34.94057, 50, -130.4), (51.662262, 50, -124.72374), (40, 42.5, -69.282036), (40, 50, -69.282036), (0, 42.5, -8), (1.0442095, 42.5, -7.931559), (2.0705523, 42.5, -7.7274065), (3.0614674, 42.5, -7.391036), (4, 42.5, -6.928203), (4.8700914, 42.5, -6.3468266), (5.656854, 42.5, -5.656854), (6.3468266, 42.5, -4.8700914), (6.928203, 42.5, -4), (7.391036, 42.5, -3.0614674), (7.7274065, 42.5, -2.0705523), (7.931559, 42.5, -1.0442095), (48.700912, 42.5, -63.468266), (48.700912, 50, -63.468266), (56.568542, 42.5, -56.568542), (63.468266, 42.5, -48.700912), (56.568542, 50, -56.568542), (63.468266, 50, -48.700912), (7.2, 77.5, -12.470766), (0, 77.5, -8), (1.0442095, 77.5, -7.931559), (2.0705523, 77.5, -7.7274065), (3.0614674, 77.5, -7.391036), (4, 77.5, -6.928203), (4.8700914, 77.5, -6.3468266), (5.656854, 77.5, -5.656854), (6.3468266, 77.5, -4.8700914), (6.928203, 77.5, -4), (7.391036, 77.5, -3.0614674), (7.7274065, 77.5, -2.0705523), (7.931559, 77.5, -1.0442095), (7.2, 87.5, -12.470766), (67.5, 50, -116.91343), (82.18279, 50, -107.1027), (95.45942, 50, -95.45942), (107.1027, 50, -82.18279), (69.282036, 42.5, -40), (69.282036, 50, -40), (73.91036, 42.5, -30.614676), (77.27406, 42.5, -20.705524), (79.31559, 42.5, -10.442096), (73.91036, 50, -30.614676), (77.27406, 50, -20.705524), (79.31559, 50, -10.442096), (116.91343, 50, -67.5), (124.72374, 50, -51.662262), (130.4, 50, -34.94057), (133.84506, 50, -17.621037), (0, 42.5, 8), (1.0442095, 42.5, 7.931559), (2.0705523, 42.5, 7.7274065), (3.0614674, 42.5, 7.391036), (4, 42.5, 6.928203), (8, 42.5, 0), (7.931559, 42.5, 1.0442095), (7.7274065, 42.5, 2.0705523), (6.928203, 42.5, 4), (7.391036, 42.5, 3.0614674), (5.656854, 42.5, 5.656854), (4.8700914, 42.5, 6.3468266), (6.3468266, 42.5, 4.8700914), (48.700912, 42.5, 63.468266), (48.700912, 50, 63.468266), (63.468266, 42.5, 48.700912), (56.568542, 42.5, 56.568542), (63.468266, 50, 48.700912), (56.568542, 50, 56.568542), (0, 42.5, 80), (10.442096, 42.5, 79.31559), (0, 50, 80), (10.442096, 50, 79.31559), (20.705524, 42.5, 77.27406), (30.614676, 42.5, 73.91036), (20.705524, 50, 77.27406), (30.614676, 50, 73.91036), (0, 50, 135), (17.621037, 50, 133.84506), (40, 42.5, 69.282036), (40, 50, 69.282036), (34.94057, 50, 130.4), (51.662262, 50, 124.72374), (0, 77.5, 8), (1.0442095, 77.5, 7.931559), (2.0705523, 77.5, 7.7274065), (3.0614674, 77.5, 7.391036), (4, 77.5, 6.928203), (8, 77.5, 0), (7.931559, 77.5, 1.0442095), (7.7274065, 77.5, 2.0705523), (6.928203, 77.5, 4), (7.391036, 77.5, 3.0614674), (5.656854, 77.5, 5.656854), (4.8700914, 77.5, 6.3468266), (6.3468266, 77.5, 4.8700914), (7.2, 77.5, 12.470766), (14.4, 77.5, 0), (7.2, 87.5, 12.470766), (14.4, 87.5, 0), (80, 42.5, 0), (79.31559, 42.5, 10.442096), (73.91036, 42.5, 30.614676), (77.27406, 42.5, 20.705524), (80, 50, 0), (79.31559, 50, 10.442096), (73.91036, 50, 30.614676), (77.27406, 50, 20.705524), (69.282036, 42.5, 40), (69.282036, 50, 40), (135, 50, 0), (133.84506, 50, 17.621037), (130.4, 50, 34.94057), (124.72374, 50, 51.662262), (95.45942, 50, 95.45942), (67.5, 50, 116.91343), (82.18279, 50, 107.1027), (107.1027, 50, 82.18279), (116.91343, 50, 67.5)]

        rel material:binding = </tire_outer_diff_union_union_union_union_union/Material>
    }

    def Scope "Material"
    {
        def Material "PBR"
        {
            token outputs:surface.connect = <PBR/Shader.outputs:surface>

            def Shader "Shader"
            {
                uniform token info:id = "UsdPreviewSurface"
                color3f inputs:diffuseColor = (0.12, 0.12, 0.14)
                float inputs:metallic = 0.7
                float inputs:roughness = 0.4
                token outputs:surface
            }
        }
    }

    def PhysicsCollisionAPI "collision"
    {
        rel physics:collisionGroup = </CollisionGroup>
    }
}
